<svg width="97" height="44" viewBox="0 0 97 44" fill="none" xmlns="http://www.w3.org/2000/svg">
<rect x="0.75" y="1.25" width="95.5" height="41.5" rx="5.75" fill="black" stroke="#A7A9AC" stroke-width="1.5"/>
<g clip-path="url(#clip0_229_8194)">
<path d="M35.0498 22.1551C35.0141 18.4268 38.0983 16.6163 38.2415 16.5304C36.4954 13.9828 33.7832 13.6322 32.8314 13.6036C30.5558 13.3674 28.3517 14.9632 27.1924 14.9632C26.0332 14.9632 24.2227 13.625 22.3048 13.6608C19.8288 13.7037 17.5174 15.135 16.2436 17.3533C13.6245 21.8903 15.5781 28.5526 18.0899 32.2237C19.3494 34.0199 20.8164 36.0236 22.7342 35.952C24.6091 35.8733 25.3104 34.757 27.5789 34.757C29.8474 34.757 30.4843 35.952 32.445 35.9091C34.463 35.8733 35.7297 34.1058 36.939 32.2953C38.3917 30.2343 38.9714 28.2091 39 28.1089C38.9499 28.0946 35.0856 26.6205 35.0427 22.1479" fill="white"/>
<path d="M31.345 11.1961C32.354 9.92949 33.0481 8.21203 32.8549 6.46594C31.3951 6.53035 29.5631 7.47495 28.5111 8.71295C27.5809 9.80068 26.7436 11.5897 26.9583 13.2642C28.6042 13.3859 30.2859 12.4341 31.345 11.189" fill="white"/>
<path d="M47.8374 19.21H46.3232L49.7255 9.75542H51.3736L54.7759 19.21H53.2617L50.5888 11.4727H50.5149L47.8374 19.21ZM48.0913 15.5075H53.0032V16.7078H48.0913V15.5075ZM55.9655 21.8691V12.1191H57.3135V13.2686H57.4289C57.5089 13.1208 57.6243 12.95 57.7751 12.7561C57.9259 12.5622 58.1352 12.393 58.403 12.2483C58.6707 12.1006 59.0246 12.0267 59.4647 12.0267C60.0372 12.0267 60.5481 12.1714 60.9974 12.4607C61.4467 12.75 61.7991 13.167 62.0546 13.7117C62.3131 14.2565 62.4424 14.912 62.4424 15.6784C62.4424 16.4447 62.3146 17.1018 62.0592 17.6496C61.8038 18.1943 61.4529 18.6144 61.0066 18.9099C60.5604 19.2023 60.051 19.3485 59.4786 19.3485C59.0477 19.3485 58.6953 19.2761 58.4214 19.1315C58.1506 18.9868 57.9382 18.8176 57.7843 18.6237C57.6305 18.4298 57.512 18.2574 57.4289 18.1066H57.3458V21.8691H55.9655ZM57.3181 15.6645C57.3181 16.1631 57.3904 16.6001 57.5351 16.9756C57.6797 17.3511 57.889 17.645 58.1629 17.8573C58.4368 18.0666 58.7723 18.1713 59.1693 18.1713C59.5817 18.1713 59.9264 18.062 60.2034 17.8435C60.4804 17.6219 60.6896 17.3218 60.8312 16.9433C60.9759 16.5647 61.0482 16.1385 61.0482 15.6645C61.0482 15.1967 60.9774 14.7766 60.8358 14.4042C60.6973 14.0318 60.4881 13.7379 60.208 13.5225C59.931 13.307 59.5848 13.1993 59.1693 13.1993C58.7692 13.1993 58.4307 13.3024 58.1537 13.5086C57.8798 13.7148 57.672 14.0026 57.5304 14.3719C57.3889 14.7412 57.3181 15.1721 57.3181 15.6645ZM63.9239 21.8691V12.1191H65.2719V13.2686H65.3873C65.4673 13.1208 65.5827 12.95 65.7335 12.7561C65.8844 12.5622 66.0936 12.393 66.3614 12.2483C66.6291 12.1006 66.9831 12.0267 67.4232 12.0267C67.9956 12.0267 68.5065 12.1714 68.9558 12.4607C69.4052 12.75 69.7576 13.167 70.013 13.7117C70.2715 14.2565 70.4008 14.912 70.4008 15.6784C70.4008 16.4447 70.2731 17.1018 70.0176 17.6496C69.7622 18.1943 69.4113 18.6144 68.9651 18.9099C68.5188 19.2023 68.0095 19.3485 67.437 19.3485C67.0062 19.3485 66.6538 19.2761 66.3799 19.1315C66.109 18.9868 65.8967 18.8176 65.7428 18.6237C65.5889 18.4298 65.4704 18.2574 65.3873 18.1066H65.3042V21.8691H63.9239ZM65.2765 15.6645C65.2765 16.1631 65.3488 16.6001 65.4935 16.9756C65.6381 17.3511 65.8474 17.645 66.1213 17.8573C66.3952 18.0666 66.7307 18.1713 67.1277 18.1713C67.5401 18.1713 67.8848 18.062 68.1618 17.8435C68.4388 17.6219 68.6481 17.3218 68.7897 16.9433C68.9343 16.5647 69.0066 16.1385 69.0066 15.6645C69.0066 15.1967 68.9358 14.7766 68.7943 14.4042C68.6558 14.0318 68.4465 13.7379 68.1664 13.5225C67.8894 13.307 67.5432 13.1993 67.1277 13.1993C66.7276 13.1993 66.3891 13.3024 66.1121 13.5086C65.8382 13.7148 65.6304 14.0026 65.4889 14.3719C65.3473 14.7412 65.2765 15.1721 65.2765 15.6645ZM52.1953 26.2391C52.1461 25.8021 51.9429 25.4635 51.5859 25.2235C51.2289 24.9803 50.7796 24.8588 50.2379 24.8588C49.8501 24.8588 49.5147 24.9203 49.2315 25.0434C48.9484 25.1634 48.7283 25.3296 48.5714 25.542C48.4175 25.7513 48.3406 25.9898 48.3406 26.2575C48.3406 26.4822 48.3929 26.6761 48.4975 26.8392C48.6052 27.0023 48.7453 27.1393 48.9176 27.2501C49.093 27.3578 49.2808 27.4486 49.4808 27.5225C49.6809 27.5932 49.8732 27.6517 50.0579 27.6979L50.9812 27.9379C51.2828 28.0118 51.5921 28.1118 51.9091 28.238C52.2261 28.3642 52.52 28.5304 52.7908 28.7366C53.0617 28.9428 53.2802 29.1982 53.4464 29.5029C53.6156 29.8076 53.7003 30.1723 53.7003 30.597C53.7003 31.1325 53.5618 31.608 53.2848 32.0235C53.0109 32.439 52.6123 32.7668 52.0891 33.0068C51.569 33.2469 50.9396 33.3669 50.201 33.3669C49.4931 33.3669 48.8807 33.2546 48.3636 33.0299C47.8466 32.8052 47.4419 32.4867 47.1495 32.0743C46.8571 31.6588 46.6955 31.1664 46.6648 30.597H48.0959C48.1236 30.9387 48.2344 31.2233 48.4283 31.4511C48.6252 31.6758 48.8761 31.8435 49.1808 31.9543C49.4885 32.062 49.8255 32.1159 50.1918 32.1159C50.5949 32.1159 50.9535 32.0528 51.2674 31.9266C51.5844 31.7973 51.8337 31.6188 52.0153 31.3911C52.1969 31.1602 52.2876 30.891 52.2876 30.5832C52.2876 30.3031 52.2076 30.0738 52.0476 29.8953C51.8906 29.7168 51.6767 29.5691 51.4059 29.4521C51.1381 29.3352 50.835 29.2321 50.4964 29.1428L49.3793 28.8382C48.6222 28.632 48.022 28.3288 47.5788 27.9287C47.1387 27.5286 46.9187 26.9993 46.9187 26.3406C46.9187 25.7959 47.0664 25.3204 47.3619 24.9142C47.6573 24.5079 48.0574 24.1924 48.5621 23.9678C49.0669 23.74 49.6362 23.6262 50.2702 23.6262C50.9104 23.6262 51.4751 23.7385 51.9645 23.9632C52.4569 24.1878 52.8447 24.4971 53.1278 24.8911C53.411 25.2819 53.5587 25.7313 53.571 26.2391H52.1953ZM58.5391 26.1191V27.227H54.6659V26.1191H58.5391ZM55.7046 24.4202H57.0849V31.1279C57.0849 31.3957 57.125 31.5973 57.205 31.7327C57.285 31.865 57.3881 31.9558 57.5143 32.0051C57.6435 32.0512 57.7836 32.0743 57.9344 32.0743C58.0452 32.0743 58.1421 32.0666 58.2252 32.0512C58.3083 32.0358 58.3729 32.0235 58.4191 32.0143L58.6684 33.1546C58.5884 33.1853 58.4745 33.2161 58.3268 33.2469C58.1791 33.2807 57.9944 33.2992 57.7728 33.3023C57.4096 33.3084 57.0711 33.2438 56.7572 33.1084C56.4433 32.973 56.1894 32.7637 55.9955 32.4806C55.8016 32.1974 55.7046 31.8419 55.7046 31.4142V24.4202ZM62.9117 33.3531C62.247 33.3531 61.6668 33.2007 61.1713 32.896C60.6758 32.5914 60.2911 32.1651 60.0172 31.6173C59.7433 31.0695 59.6063 30.4293 59.6063 29.6968C59.6063 28.9613 59.7433 28.318 60.0172 27.7671C60.2911 27.2162 60.6758 26.7884 61.1713 26.4838C61.6668 26.1791 62.247 26.0267 62.9117 26.0267C63.5765 26.0267 64.1566 26.1791 64.6521 26.4838C65.1476 26.7884 65.5323 27.2162 65.8063 27.7671C66.0802 28.318 66.2171 28.9613 66.2171 29.6968C66.2171 30.4293 66.0802 31.0695 65.8063 31.6173C65.5323 32.1651 65.1476 32.5914 64.6521 32.896C64.1566 33.2007 63.5765 33.3531 62.9117 33.3531ZM62.9163 32.1943C63.3472 32.1943 63.7042 32.0805 63.9874 31.8527C64.2705 31.625 64.4798 31.3218 64.6152 30.9433C64.7537 30.5647 64.8229 30.1477 64.8229 29.6922C64.8229 29.2398 64.7537 28.8243 64.6152 28.4458C64.4798 28.0641 64.2705 27.7579 63.9874 27.5271C63.7042 27.2963 63.3472 27.1808 62.9163 27.1808C62.4824 27.1808 62.1223 27.2963 61.8361 27.5271C61.5529 27.7579 61.3421 28.0641 61.2036 28.4458C61.0682 28.8243 61.0005 29.2398 61.0005 29.6922C61.0005 30.1477 61.0682 30.5647 61.2036 30.9433C61.3421 31.3218 61.5529 31.625 61.8361 31.8527C62.1223 32.0805 62.4824 32.1943 62.9163 32.1943ZM67.6929 33.21V26.1191H69.027V27.2455H69.1009C69.2302 26.8638 69.4579 26.5638 69.7841 26.3453C70.1134 26.1237 70.4858 26.0129 70.9013 26.0129C70.9875 26.0129 71.0891 26.016 71.206 26.0221C71.326 26.0283 71.4199 26.036 71.4876 26.0452V27.3655C71.4322 27.3501 71.3337 27.3332 71.1922 27.3147C71.0506 27.2932 70.909 27.2824 70.7674 27.2824C70.4412 27.2824 70.1504 27.3517 69.8949 27.4901C69.6426 27.6256 69.4425 27.8148 69.2948 28.058C69.1471 28.298 69.0732 28.5719 69.0732 28.8797V33.21H67.6929ZM75.4193 33.3531C74.7207 33.3531 74.119 33.2038 73.6143 32.9053C73.1126 32.6037 72.7248 32.1805 72.4509 31.6357C72.1801 31.0879 72.0447 30.4462 72.0447 29.7107C72.0447 28.9843 72.1801 28.3442 72.4509 27.7902C72.7248 27.2362 73.1065 26.8038 73.5958 26.493C74.0882 26.1821 74.6638 26.0267 75.3224 26.0267C75.7225 26.0267 76.1103 26.0929 76.4857 26.2252C76.8612 26.3576 77.1982 26.5653 77.4967 26.8485C77.7953 27.1316 78.0307 27.4994 78.2031 27.9518C78.3754 28.4011 78.4616 28.9474 78.4616 29.5906V30.08H72.8249V29.0459H77.109C77.109 28.6827 77.0351 28.3611 76.8874 28.0811C76.7396 27.7979 76.5319 27.5748 76.2641 27.4117C75.9995 27.2485 75.6886 27.167 75.3316 27.167C74.9438 27.167 74.6053 27.2624 74.316 27.4532C74.0298 27.641 73.8082 27.8872 73.6512 28.1919C73.4973 28.4935 73.4204 28.8212 73.4204 29.1752V29.983C73.4204 30.457 73.5035 30.8602 73.6697 31.1926C73.839 31.5249 74.0744 31.7789 74.376 31.9543C74.6776 32.1266 75.03 32.2128 75.4332 32.2128C75.6948 32.2128 75.9333 32.1759 76.1487 32.102C76.3642 32.0251 76.5504 31.9112 76.7073 31.7604C76.8643 31.6096 76.9843 31.4234 77.0674 31.2018L78.3739 31.4372C78.2692 31.8219 78.0815 32.1589 77.8107 32.4482C77.5429 32.7345 77.2059 32.9576 76.7997 33.1176C76.3965 33.2746 75.9364 33.3531 75.4193 33.3531Z" fill="white"/>
</g>
<defs>
<clipPath id="clip0_229_8194">
<rect width="65" height="29.4879" fill="white" transform="translate(15 6.46594)"/>
</clipPath>
</defs>
</svg>
