<svg width="132" height="132" viewBox="0 0 132 132" fill="none" xmlns="http://www.w3.org/2000/svg">
<path d="M123.956 113.629C123.924 112.888 126.147 112.875 127.134 112.834C128.121 112.793 130.672 112.784 130.713 113.698C130.751 114.613 127.418 114.304 126.57 114.338C125.719 114.376 123.988 114.326 123.959 113.626L123.956 113.629Z" fill="#CFD6E5"/>
<path d="M127.794 111.933C127.779 111.565 128.888 111.558 129.383 111.536C129.875 111.514 131.152 111.511 131.171 111.968C131.19 112.425 129.525 112.271 129.1 112.29C128.674 112.309 127.81 112.283 127.794 111.933Z" fill="#CFD6E5"/>
<path d="M5.94774 130.336C5.89099 129.009 9.87944 128.983 11.6482 128.908C13.417 128.832 17.9982 128.819 18.0707 130.459C18.1401 132.102 12.159 131.544 10.633 131.61C9.10697 131.676 6.00134 131.588 5.94774 130.333V130.336Z" fill="#CFD6E5"/>
<path d="M0.500299 125.921C0.471923 125.256 2.46772 125.246 3.35054 125.209C4.23652 125.171 6.52554 125.165 6.56022 125.984C6.5949 126.804 3.60593 126.527 2.84292 126.561C2.07991 126.593 0.525523 126.549 0.500299 125.924V125.921Z" fill="#CFD6E5"/>
<path d="M88.9584 122.299C88.9584 123.264 96.5475 124.049 105.912 124.049C115.276 124.049 122.865 123.267 122.865 122.299C122.865 121.331 115.276 120.549 105.912 120.549C96.5475 120.549 88.9584 121.331 88.9584 122.299Z" fill="#CFD6E5"/>
<path d="M98.4058 117.376V119.71C98.4058 119.71 95.5934 119.502 94.9218 120.693C94.2503 121.885 94.1777 122.885 96.3186 122.885H101.076C101.984 122.885 101.076 117.376 101.076 117.376H98.4058Z" fill="#191919"/>
<path d="M113.379 117.376V119.71C113.379 119.71 110.567 119.58 109.895 120.772C109.224 121.964 109.151 122.888 111.292 122.888H116.05C116.958 122.888 116.05 117.38 116.05 117.38H113.379V117.376Z" fill="#191919"/>
<path d="M102.291 76.2737C101.862 76.425 104.233 80.5901 104.233 80.5901L104.435 86.5743C104.523 89.2133 104.851 92.3221 105.188 94.9705C105.762 92.0825 106.396 89.475 107.07 87.5549L105.421 77.6862C105.421 77.6862 102.716 76.1192 102.287 76.2706L102.291 76.2737Z" fill="#258399"/>
<path d="M106.413 66.4507C109.266 66.394 112.324 65.5301 114.705 64.6599C113.68 60.6273 112.63 53.9368 112.63 53.9368H100.041L98.7952 65.5521C98.7952 65.5521 98.7763 65.59 98.7479 65.6593C100.876 66.0976 103.635 66.5043 106.413 66.4476V66.4507Z" fill="#E5906E"/>
<path d="M115.518 67.1837C115.262 66.6698 114.985 65.7617 114.704 64.6582C112.324 65.5253 109.269 66.3923 106.412 66.4491C103.634 66.5058 100.875 66.0991 98.7472 65.6608C98.2554 66.7707 94.0242 76.6961 94.3584 87.5611C94.7147 99.0945 97.5523 118.472 97.5523 118.472C97.5523 118.472 99.7688 119.16 101.903 118.472C101.903 118.472 103.196 105.016 105.192 94.9767C104.854 92.3283 104.527 89.2195 104.438 86.5805L104.236 80.5962C104.236 80.5962 101.865 76.4312 102.294 76.2799C102.723 76.1285 105.428 77.6955 105.428 77.6955L107.077 87.5642C107.077 87.5642 110.495 102.594 111.233 106.791C111.971 110.987 112.399 118.475 112.399 118.475C112.399 118.475 115.042 119.551 117.141 118.475C117.141 118.475 119.746 102.749 120.212 90.859C120.679 78.9662 116.706 69.5831 115.521 67.19L115.518 67.1837Z" fill="#36BCC6"/>
<path d="M108.844 4.65916C97.73 4.65916 97.1845 16.6466 96.8345 22.6119C96.4845 28.5773 96.4656 32.7549 98.1556 32.9094C99.8456 33.0639 99.9055 31.4716 99.9055 31.4716C99.9055 31.4716 100.196 35.2142 103.21 35.3056C106.224 35.397 107.485 31.8626 107.485 31.8626C107.485 31.8626 107.737 33.5337 108.844 33.4548C109.951 33.376 110.111 31.3644 110.111 31.3644C110.111 31.3644 110.903 34.1516 114.012 33.7638C117.12 33.376 117.042 28.3219 117.042 28.3219C117.042 28.3219 117.373 30.7528 118.984 30.6645C120.595 30.5762 120.693 25.7175 120.693 17.9456C120.693 10.1736 116.417 4.65601 108.841 4.65601L108.844 4.65916Z" fill="#FF314A"/>
<path d="M89.7612 36.5219C89.7612 36.5219 89.3923 33.5865 89.5278 32.792C89.6634 31.9943 93.7622 28.173 93.4911 27.5014C93.2199 26.8267 90.5368 28.7499 90.5368 28.7499C90.5368 28.7499 91.489 22.5702 90.6913 22.5324C89.8936 22.4945 89.4963 27.5518 89.4963 27.5518C89.4963 27.5518 89.0801 22.2234 88.4369 22.2234C87.7937 22.2234 88.087 27.5518 88.087 27.5518C88.087 27.5518 87.4469 22.668 86.728 22.8823C86.0092 23.0967 86.728 27.8577 86.728 27.8577C86.728 27.8577 85.7759 23.9039 85.0948 24.1214C84.4138 24.339 85.1327 29.7273 85.5993 30.8908C86.0659 32.0542 86.3781 32.8519 86.3371 33.8798C86.2993 34.9108 86.3371 37.0674 86.3371 37.0674L89.758 36.5219H89.7612Z" fill="#FFCCB3"/>
<path d="M120.56 62.8283C120.56 62.8283 121.162 64.08 120.21 67.4789C119.258 70.8777 118.829 73.4663 119.781 75.213C120.734 76.9597 122.209 77.3507 123.24 76.5719C124.271 75.7931 123.861 74.5698 123.24 72.842C122.619 71.1142 122.6 69.131 123.59 67.1667C124.58 65.2056 125.028 63.2224 124.328 61.8414L123.628 60.4604L120.557 62.822L120.56 62.8283Z" fill="white"/>
<path d="M95.8368 51.9968C97.1295 51.2653 98.0974 50.6568 98.0974 50.6568L99.1852 45.177C99.1852 45.177 97.1169 46.6526 95.8368 51.9968Z" fill="#5A56B7"/>
<path d="M108.718 41.135C112.722 41.012 114.756 38.6852 115.718 36.97C113.583 36.4213 111.77 35.5291 111.31 34.4886C111.036 33.8675 110.881 32.2942 110.793 30.6704C110.181 31.3704 109.346 32.1239 108.45 32.3509C107.772 32.5212 107.202 32.4865 106.76 32.373C106.675 33.1455 106.473 33.9337 106.067 34.6431C105.168 36.2164 103.33 36.6168 101.444 37.156C102.283 38.7387 104.317 41.2674 108.718 41.135Z" fill="#FFCCB3"/>
<path d="M108.451 32.3557C109.343 32.1287 110.179 31.3751 110.794 30.6752C110.671 28.3988 110.683 26.0215 110.683 26.0215L106.414 28.5848C106.414 28.5848 106.976 30.4167 106.761 32.3778C107.206 32.4881 107.773 32.526 108.451 32.3557Z" fill="#FFCCB3"/>
<path d="M116.478 45.646C115.914 45.6649 116.809 47.9382 114.769 50.1547C112.865 52.2199 105.263 55.3507 97.7025 54.1369C97.5859 55.4768 97.5165 56.697 97.5922 56.8011C97.7467 57.0155 98.311 57.1889 101.158 57.3844C104.005 57.5798 106.067 57.0722 106.067 57.0722L106.559 58.2703L120.208 54.6035C120.208 54.6035 117.039 45.6271 116.478 45.646Z" fill="#5A56B7"/>
<path d="M127.205 46.1558C124.853 41.376 121.804 37.8006 118.616 37.4884C117.645 37.3938 116.652 37.2173 115.719 36.9776C114.76 38.6928 112.727 41.0197 108.719 41.1427C104.318 41.2782 102.284 38.7464 101.445 37.1637C100.323 37.4821 99.1849 37.851 98.2138 38.5383C95.6094 40.3828 91.684 44.7559 91.684 44.7559C91.8575 42.366 90.9463 35.5084 90.9463 35.5084C88.4397 34.9062 84.9242 35.9372 84.9242 35.9372C84.9242 35.9372 84.0319 42.057 84.7697 48.139C85.5075 54.221 88.3262 55.0187 90.8706 54.3187C92.261 53.9372 94.2852 52.8841 95.8365 52.0076C97.1165 46.6634 99.1849 45.1879 99.1849 45.1879L98.0971 50.6676C97.9962 51.1784 97.8228 52.7297 97.703 54.1453C105.264 55.3592 112.865 52.2283 114.77 50.1632C116.81 47.9467 115.917 45.6734 116.479 45.6545C117.043 45.6356 120.209 54.6119 120.209 54.6119L106.56 58.2788L109.858 66.3156C109.858 66.3156 110.608 67.6115 111.037 67.9614C111.466 68.3114 114.943 67.6493 119.43 65.7071C123.92 63.7649 129.125 60.1895 129.535 57.623C129.942 55.0597 129.554 50.9388 127.202 46.159L127.205 46.1558Z" fill="#806BCE"/>
<path d="M109.445 11.5513C109.445 11.5513 109.076 14.9123 112.087 15.36C112.087 15.36 111.853 18.5665 112.358 20.102C112.358 20.102 111.872 23.0374 112.512 23.1729C113.152 23.3085 113.717 20.802 113.717 20.802C113.717 20.802 115.29 20.3164 116.242 21.5397C117.194 22.7631 116.488 26.3322 112.434 25.2318C112.434 25.2318 112.484 26.8902 111.8 27.4988C111.112 28.1073 107.014 30.8093 104.624 30.8882C102.234 30.9638 99.9606 28.4383 99.3773 25.2318C98.794 22.0253 99.3773 19.2097 99.3773 19.2097C99.3773 19.2097 100.736 21.1929 104.545 18.8597C108.354 16.5266 109.441 11.5544 109.441 11.5544L109.445 11.5513Z" fill="#FFCCB3"/>
<path d="M104.034 52.8799C104.034 52.8799 101.906 54.4123 101.42 56.8999C100.935 59.3876 100.888 62.6698 103.423 64.1075C105.958 65.5452 109.082 63.5179 109.082 63.5179C109.082 63.5179 108.934 62.9504 109.082 62.4743C109.23 61.9982 115.429 58.0823 116.245 57.4233C117.062 56.7612 120.209 54.5857 120.209 54.5857C120.209 54.5857 118.957 53.7502 117.119 53.9646C115.284 54.179 113.543 53.7911 112.572 52.9335L111.601 52.0791L104.034 52.8768V52.8799Z" fill="white"/>
<path d="M103.451 50.851C103.451 50.851 103.082 53.4269 103.111 53.5909C103.139 53.7548 104.586 54.6124 107.484 54.5998C110.378 54.5904 112.683 53.2504 112.809 53.0076C112.935 52.7648 111.917 50.6555 111.917 50.6555L103.454 50.851H103.451Z" fill="#FFD150"/>
<path d="M104.936 43.4703C104.734 43.0762 104.444 42.701 104.189 42.4141C103.836 43.2338 103.47 44.5927 103.451 45.1697C104.154 44.6779 105.428 44.6779 105.428 44.6779C105.428 44.6779 105.371 44.3216 104.936 43.4734V43.4703Z" fill="#D3D2CD"/>
<path d="M110.973 43.4336C110.5 44.2565 110.389 44.6002 110.389 44.6002C110.389 44.6002 112.164 44.6506 112.631 45.1709C112.631 45.1709 112.432 43.3579 112.086 42.4058C111.654 42.6864 111.193 43.0521 110.973 43.4368V43.4336Z" fill="#D3D2CD"/>
<path d="M110.389 44.5949C110.389 44.5949 110.5 44.2512 110.973 43.4283C111.193 43.0436 111.654 42.6811 112.086 42.3973C111.988 42.1325 111.881 41.9338 111.764 41.8613C111.218 41.5176 109.418 43.8508 109.213 44.3363C109.213 44.3363 107.659 43.8697 106.584 44.1945C106.584 44.1945 105.029 41.773 104.654 41.7478C104.531 41.7383 104.364 42.0126 104.191 42.4131C104.446 42.7 104.736 43.0752 104.938 43.4693C105.373 44.3174 105.43 44.6737 105.43 44.6737C105.43 44.6737 104.156 44.6737 103.453 45.1656C103.453 45.1656 101.883 48.1482 101.804 49.2738C101.725 50.3994 102.595 52.3101 106.896 52.329C111.196 52.3479 113.192 51.0079 113.63 50.1409C114.072 49.2738 113.457 46.3511 112.634 45.1656C112.167 44.6485 110.392 44.5949 110.392 44.5949H110.389Z" fill="white"/>
<path d="M106.592 49.2749C106.913 49.1961 107.292 48.7704 107.292 48.6128C107.292 48.4551 106.15 48.3921 106.075 48.5214C105.996 48.6506 106.437 49.3127 106.592 49.2717V49.2749Z" fill="#2B2B2B"/>
<path d="M104.379 47.5369C104.852 47.5495 105.135 47.9972 105.271 47.9373C105.406 47.8774 105.473 47.6473 105.388 47.5369C105.302 47.4265 104.823 47.1365 104.379 47.1617C103.931 47.1869 103.37 47.8774 103.458 47.9436C103.549 48.0098 103.871 47.5243 104.379 47.5369Z" fill="#2B2B2B"/>
<path d="M109.754 47.5369C109.225 47.5495 108.906 47.9972 108.755 47.9373C108.603 47.8806 108.531 47.6473 108.626 47.5369C108.72 47.4265 109.256 47.1365 109.757 47.1617C110.259 47.1869 110.889 47.8774 110.785 47.9436C110.684 48.0098 110.322 47.5243 109.757 47.5369H109.754Z" fill="#2B2B2B"/>
<path d="M109.083 63.5352C109.083 63.5352 107.942 63.964 107.529 63.3019C107.116 62.6398 106.466 59.7769 105.766 59.9093C105.066 60.0386 105.766 62.9393 105.766 62.9393C105.766 62.9393 103.203 58.1847 102.607 58.4306C102.011 58.6765 104.291 62.8352 104.291 62.8352C104.291 62.8352 101.22 58.6639 100.636 59.1053C100.053 59.5467 103.487 63.6708 103.487 63.6708C103.487 63.6708 100.778 60.6692 100.274 61.0475C99.7693 61.4259 101.92 63.7559 103.228 64.6765C103.228 64.6765 101.841 63.9262 100.974 63.201C100.107 62.4758 99.8386 62.8258 100.198 63.5131C100.558 64.2005 102.203 65.6256 104.237 66.3098C106.271 66.9971 108.213 66.8678 109.859 66.3098C109.859 66.3098 109.197 64.6135 109.08 63.5383L109.083 63.5352Z" fill="#FFCCB3"/>
<path d="M103.711 21.2348C104.373 21.1875 104.697 23.6405 104.429 23.8486C104.161 24.0535 103.25 24.0914 103.014 23.8486C102.777 23.6058 102.913 21.2916 103.711 21.2348Z" fill="#E5906E"/>
<path d="M107.316 20.9173C106.799 20.9551 106.799 19.634 107.316 19.6214C107.833 19.6088 107.833 20.8794 107.316 20.9173Z" fill="#191919"/>
<path d="M108.991 17.9132C109.127 17.9731 109.423 17.4276 109.489 17.3015C109.555 17.1754 108.742 16.0939 108.452 16.1601C108.162 16.2264 107.897 16.6961 107.84 16.9137C107.783 17.1312 108.717 17.7934 108.988 17.9132H108.991Z" fill="#EA5E6F"/>
<path d="M101.445 21.5591C100.928 21.597 100.928 20.2759 101.445 20.2633C101.963 20.2507 101.963 21.5213 101.445 21.5591Z" fill="#191919"/>
<path d="M113.584 24.0886C113.363 23.808 114.659 21.7492 114.984 21.891C115.308 22.0329 114.271 23.6787 114.271 23.6787C114.271 23.6787 115.11 23.5652 115.047 23.8931C114.984 24.221 113.584 24.0886 113.584 24.0886Z" fill="#E5906E"/>
<path d="M109.48 25.0209C109.629 24.2327 109.594 23.5485 109.458 23.5201C109.178 23.4634 107.595 23.9773 106.296 24.8633C104.997 25.7492 104.546 26.2569 104.593 26.424C104.625 26.5438 105.606 27.4234 106.794 27.5401C106.964 27.0483 107.214 26.4807 107.56 25.9636C108.03 25.27 108.84 25.0651 109.48 25.0209Z" fill="#191919"/>
<path d="M107.561 25.9645C107.211 26.4815 106.966 27.0491 106.795 27.5409C107.278 27.5882 107.795 27.5157 108.299 27.2099C108.968 26.8031 109.327 25.8541 109.482 25.0217C108.842 25.0659 108.031 25.2708 107.561 25.9645Z" fill="#FF888E"/>
<path d="M47.6836 124.855C68.2433 124.855 84.9102 123.891 84.9102 122.702C84.9102 121.513 68.2433 120.548 47.6836 120.548C27.1239 120.548 10.457 121.513 10.457 122.702C10.457 123.891 27.1239 124.855 47.6836 124.855Z" fill="#CFD6E5"/>
<path d="M26.5659 100.685H20.5564C20.5564 100.685 21.0955 114.762 21.414 120.327L24.6489 118.458L26.5659 100.685Z" fill="#C16240"/>
<path d="M27.8598 120.737C27.1851 119.908 24.647 118.458 24.647 118.458L21.4121 120.327C21.4878 121.661 21.5508 122.509 21.5918 122.553C21.7999 122.79 27.0842 122.654 27.8598 122.553C28.6386 122.453 28.5346 121.567 27.8598 120.737Z" fill="#191919"/>
<path d="M38.9525 100.685H32.943C32.943 100.685 33.4821 114.762 33.8006 120.327L37.0386 118.458L38.9556 100.685H38.9525Z" fill="#C16240"/>
<path d="M40.2496 120.737C39.5749 119.908 37.0368 118.458 37.0368 118.458L33.7987 120.327C33.8744 121.661 33.9374 122.509 33.9784 122.553C34.1865 122.79 39.4708 122.654 40.2464 122.553C41.0252 122.453 40.9212 121.567 40.2464 120.737H40.2496Z" fill="#191919"/>
<path d="M40.9906 76.2705C38.8403 77.3551 35.0568 78.919 30.1918 79.5369C25.6516 80.1171 21.3132 79.4077 18.4881 78.7203C18.4409 82.2548 18.3904 86.9999 18.3778 91.9847C18.3526 102.115 18.9989 107.374 18.9989 107.374C18.9989 107.374 24.958 109.137 27.9627 107.012C27.9627 107.012 29.9396 95.1187 30.0751 92.672L30.463 85.559C30.463 85.559 33.4551 83.2479 33.7672 83.5002C34.0794 83.7524 32.3673 86.6878 32.3673 86.6878C32.3673 86.6878 33.1997 92.4387 33.8051 98.5806C34.1645 102.241 34.3032 105.375 34.3568 107.311C35.0883 107.384 35.927 107.396 36.8256 107.273C39.6758 106.885 40.6091 106.185 40.6091 106.185C40.6091 106.185 41.5928 89.7335 41.3342 83.7492C41.2113 80.8958 41.0883 78.2537 40.9906 76.2705Z" fill="#36BCC6"/>
<path d="M30.196 79.5339C35.0609 78.9127 38.8444 77.3489 40.9947 76.2674C40.8907 74.0919 40.8182 72.7078 40.8182 72.7078H18.5901C18.5901 72.7078 18.5428 75.0693 18.4923 78.7172C21.3173 79.4046 25.6558 80.114 30.196 79.5339Z" fill="#258399"/>
<path d="M32.3699 86.6854C32.3699 86.6854 34.0788 83.75 33.7698 83.4978C33.4577 83.2455 30.4656 85.5566 30.4656 85.5566L30.0778 92.6696L31.6984 106.697C31.6984 106.697 32.7704 107.148 34.3594 107.305C34.3058 105.37 34.1671 102.236 33.8077 98.575C33.2055 92.4363 32.3699 86.6822 32.3699 86.6822V86.6854Z" fill="#258399"/>
<path d="M64.0608 49.6552C64.0608 49.6552 65.0256 50.8407 65.6624 50.8597C66.2962 50.8786 71.757 47.1298 71.8359 46.4676C71.9147 45.8055 67.2295 35.6657 66.0471 35.3157C64.8616 34.9658 58.3918 39.0267 58.313 40.1744C58.2342 41.3221 62.4654 48.4508 64.0639 49.6552H64.0608Z" fill="#191919"/>
<path d="M59.0093 49.0728C59.0093 49.0728 60.5258 48.1805 60.5258 47.0739C60.5258 45.9672 59.2426 44.2173 59.7691 43.0129C60.2925 41.8085 61.3614 39.7307 61.6546 39.9419C61.9478 40.1532 62.6257 41.6508 61.6546 43.1296C61.6546 43.1296 62.5279 43.634 62.9757 45.1506C63.4234 46.6671 62.9757 48.2215 62.9757 48.2215L64.0634 49.6593L61.3046 51.9514L59.0124 49.0728H59.0093Z" fill="#C16240"/>
<path d="M65.3823 39.9304C65.3823 39.9304 65.6345 38.7796 64.9156 38.4296C64.1968 38.0796 62.1947 41.5384 62.778 42.0838C63.3612 42.6293 64.7611 40.9582 64.7611 40.9582C64.7611 40.9582 63.377 43.2883 64.0486 43.8936C64.7202 44.499 65.8489 42.4748 65.8489 42.4748C65.8489 42.4748 64.4679 45.2336 65.3823 45.6214C66.2966 46.0092 67.0155 43.8905 67.0155 43.8905C67.0155 43.8905 66.18 46.5137 67.0155 46.7092C67.851 46.9047 68.9577 44.9026 68.5699 43.6792C68.1821 42.4559 67.4033 42.8626 67.4033 42.8626C67.4033 42.8626 67.6934 41.4249 67.0533 41.1537C66.4133 40.8826 66.1201 41.4659 66.1201 41.4659C66.1201 41.4659 66.9177 39.571 65.3823 39.9335V39.9304Z" fill="#C16240"/>
<path d="M28.95 39.0061C32.0714 38.8106 33.4177 36.8495 34.001 35.1563C33.1244 34.8379 32.4466 34.5037 32.1124 34.0812C31.4629 33.2646 31.1696 31.953 31.0025 30.5657C30.5012 30.9472 29.7508 31.3697 28.7703 31.4895C27.9536 31.5904 27.156 31.1931 26.5065 30.7107C26.3551 31.8836 26.1218 32.8547 25.7655 33.2236C25.2831 33.7218 24.126 34.283 22.7482 34.9577C23.4607 36.654 25.1759 39.2394 28.95 39.0029V39.0061Z" fill="#C16240"/>
<path d="M28.7692 31.4952C29.7498 31.3754 30.5001 30.9529 31.0015 30.5714C30.8344 29.1873 30.7965 27.7306 30.6609 26.624L30.3898 24.4075L26.7765 24.3696C26.7765 24.3696 26.8522 28.0554 26.5085 30.7165C27.158 31.1989 27.9589 31.593 28.7723 31.4952H28.7692Z" fill="#893820"/>
<path d="M38.4705 43.879C38.1205 43.8979 39.4794 50.992 39.4794 50.992C39.4794 50.992 40.5104 52.4518 41.9387 54.249C41.74 52.8522 41.4121 50.8816 40.9959 49.4376C40.2771 46.9499 38.8204 43.8601 38.4705 43.879Z" fill="#FFA440"/>
<path d="M31.0891 61.0539C24.9094 59.9283 22.4218 56.8573 22.4218 56.8573C22.4218 56.8573 23.2194 47.1999 22.5762 47.0644C21.9362 46.9288 17.0775 59.1495 17.251 59.8116C17.4244 60.4737 28.5195 64.7869 28.5195 64.7869C28.5195 64.7869 28.674 66.1459 27.9741 67.9336C27.2741 69.7213 27.0818 70.1879 27.0818 70.1879C27.0818 70.1879 21.3687 70.3834 16.9388 68.5547C16.9388 68.5547 16.0056 73.653 16.2767 74.0755C16.5479 74.5011 23.3109 76.4811 29.9572 76.21C36.6036 75.9388 41.5379 74.3056 42.1591 73.7223C42.5343 73.3692 41.7397 66.6188 40.8916 60.4328C38.6814 61.0539 34.9736 61.7633 31.0828 61.0539H31.0891Z" fill="#FFA440"/>
<path d="M58.7959 47.8524L51.3361 51.8156C51.3361 51.8156 46.0897 41.9879 42.9809 39.0336C40.6729 36.8392 36.5205 36.0825 34.0013 35.1713C33.4212 36.8613 32.0718 38.8255 28.9504 39.021C25.1732 39.2575 23.4611 36.6753 22.7486 34.9758C20.8063 35.928 18.429 37.1135 16.903 38.6837C14.2987 41.3637 10.8809 53.411 10.0643 57.1819C9.24772 60.9528 8.50994 63.245 10.9976 65.1872C13.4853 67.1294 16.944 68.5671 16.944 68.5671C21.3739 70.3926 27.087 70.2003 27.087 70.2003C27.087 70.2003 27.2825 69.7337 27.9793 67.946C28.6792 66.1583 28.5247 64.7994 28.5247 64.7994C28.5247 64.7994 17.4296 60.4861 17.2562 59.824C17.0827 59.1619 21.9382 46.9412 22.5814 47.0768C23.2215 47.2123 22.427 56.8697 22.427 56.8697C22.427 56.8697 24.9146 59.9407 31.0943 61.0663C34.9882 61.7757 38.6929 61.0663 40.9031 60.4452C40.3513 56.4157 39.7743 52.6227 39.4874 51.0021C39.4874 51.0021 38.1285 43.9112 38.4785 43.8891C38.8285 43.8702 40.2851 46.9601 41.004 49.4478C41.4233 50.8949 41.7481 52.8624 41.9467 54.2591C44.1853 57.0747 47.4044 60.7195 49.2047 60.9118C52.1559 61.2239 62.3777 53.061 62.3777 53.061C62.3777 53.061 60.7066 49.0568 58.8022 47.8524H58.7959Z" fill="#FFD150"/>
<path d="M26.5955 25.4454C26.5955 25.4454 25.9744 26.1579 24.524 26.2241C23.0737 26.2904 22.7363 24.7486 22.7363 24.7486C22.7363 24.7486 20.4189 25.0607 19.265 23.0901C18.111 21.1227 19.265 18.3481 19.265 18.3481C19.265 18.3481 17.452 17.6104 17.5277 15.3686C17.6034 13.1269 19.3406 12.6476 19.3406 12.6476C19.3406 12.6476 18.5776 10.7937 19.2366 8.89252C19.8955 6.9913 21.699 7.00076 21.699 7.00076C21.699 7.00076 21.1536 2.75062 24.9118 0.653922C28.667 -1.44593 30.997 2.18309 30.997 2.18309C30.997 2.18309 33.3081 -0.550495 36.2624 0.474206C39.2167 1.49891 39.4216 4.25772 39.4216 4.25772C39.4216 4.25772 42.2592 3.85729 43.3596 6.6161C44.46 9.37491 43.1767 11.0712 43.1767 11.0712C43.1767 11.0712 44.7564 11.7585 44.5483 14.8799C44.3402 18.0013 42.0354 18.7391 42.0354 18.7391C42.0354 18.7391 42.8772 20.7254 41.6476 22.3492C40.4179 23.973 37.451 23.8941 37.451 23.8941L26.5955 25.4485V25.4454Z" fill="#191919"/>
<path d="M28.0204 19.7023C27.8753 19.9198 28.8622 22.9403 28.4618 23.3817C28.0614 23.8231 26.9736 23.8736 26.8033 23.3817C26.6362 22.8899 26.6205 20.6355 26.6205 20.6355C26.6205 20.6355 25.7629 18.5262 23.9626 19.1852C22.1622 19.8441 22.0456 22.3444 22.9662 23.4069C23.8869 24.4695 25.4539 24.1069 25.4539 24.1069C25.4539 24.1069 25.8701 25.6991 27.0619 26.8531C28.2537 28.0071 32.5038 29.1705 33.9542 28.8993C35.4045 28.6282 38.5921 25.6361 39.3425 21.9818C40.0929 18.3276 38.8759 11.1263 38.8759 11.1263C38.8759 11.1263 38.2422 11.7222 36.9337 11.4384C35.6252 11.1547 35.0672 9.70117 35.0672 9.70117C35.0672 9.70117 35.0419 11.3722 33.0997 11.7222C31.1575 12.0722 30.2968 10.893 30.2968 10.893C30.2968 10.893 30.1486 12.4316 29.5527 13.2829C28.9568 14.131 28.0488 14.4936 28.0488 14.4936C28.0488 14.4936 29.6031 17.3439 28.0235 19.7023H28.0204Z" fill="#C16240"/>
<path d="M33.3553 24.846C33.4657 24.7293 32.4347 24.3163 31.7757 23.6542C31.1136 22.9921 30.7384 22.1376 30.3758 22.3836C30.0132 22.6295 30.9055 23.692 31.4888 24.1713C32.0721 24.6505 33.081 25.1298 33.3553 24.846Z" fill="#893820"/>
<path d="M35.6348 19.3296C34.8718 19.276 34.4934 22.1073 34.8056 22.3438C35.1177 22.5803 36.1645 22.6244 36.4388 22.3438C36.7099 22.0632 36.5555 19.3958 35.6348 19.3296Z" fill="#893820"/>
<path d="M32.1153 19.1683C32.6324 19.2061 32.6324 17.885 32.1153 17.8724C31.5983 17.8598 31.5983 19.1304 32.1153 19.1683Z" fill="#191919"/>
<path d="M30.5062 15.4719C30.3328 15.4656 30.2981 14.7341 30.2918 14.5638C30.2855 14.3936 31.7106 13.6716 31.9817 13.8891C32.2529 14.1098 32.2939 14.7436 32.2403 15.0021C32.1867 15.2606 30.853 15.4813 30.503 15.4687L30.5062 15.4719Z" fill="#191919"/>
<path d="M38.05 19.1683C38.5671 19.2061 38.5671 17.885 38.05 17.8724C37.533 17.8598 37.533 19.1304 38.05 19.1683Z" fill="#191919"/>
<path d="M38.7349 14.3072C38.8421 14.4428 38.3061 14.9409 38.18 15.0576C38.0538 15.1742 36.5814 14.5531 36.572 14.2031C36.5657 13.8532 37.0228 13.4117 37.253 13.2856C37.4832 13.1564 38.5142 14.0329 38.7317 14.3072H38.7349Z" fill="#191919"/>
<path d="M25.4305 22.5371C25.6512 22.2565 24.3553 20.1976 24.0306 20.3395C23.7058 20.4814 24.7431 22.1272 24.7431 22.1272C24.7431 22.1272 23.9044 22.0137 23.9675 22.3416C24.0306 22.6695 25.4305 22.5371 25.4305 22.5371Z" fill="#893820"/>
<path d="M35.0652 92.5761C29.2449 92.5761 26.5807 90.3532 25.3573 88.3511C23.1692 84.76 23.9291 79.2297 27.3405 73.917C30.6353 68.7904 39.1419 66.7725 46.649 64.9974C51.8198 63.7741 56.7037 62.617 59.4499 60.6338C66.1057 55.8287 65.3711 49.1729 65.3648 49.1067L65.967 49.031C65.9765 49.1004 66.7647 56.103 59.8062 61.1256C56.9623 63.1782 52.0216 64.3479 46.7909 65.587C39.3973 67.3369 31.0137 69.3232 27.8545 74.245C24.6196 79.2833 23.8439 84.6969 25.8776 88.0327C27.7347 91.0784 31.7609 92.3932 37.5276 91.8446C44.2213 91.2045 49.3732 90.1136 53.9165 89.152C59.4657 87.9759 63.8483 87.049 68.6785 87.4399C77.3806 88.1399 80.874 90.4825 81.0191 90.5803L80.6754 91.0816C80.6407 91.0595 77.1441 88.7295 68.6281 88.0453C63.8861 87.6638 59.5414 88.5844 54.0395 89.7479C49.4804 90.7127 44.3127 91.8067 37.5812 92.4499C36.6827 92.5351 35.844 92.5761 35.062 92.5761H35.0652Z" fill="#191919"/>
<path d="M28.5261 65.5268C28.5261 65.5268 28.1036 67.6456 27.5959 68.9194L30.8561 69.4144C30.8561 69.4144 31.4772 70.7544 33.3816 71.0476C33.3816 71.0476 33.7694 73.9609 34.586 74.0775C35.4026 74.1942 34.7815 70.8521 34.7815 70.8521C34.7815 70.8521 35.5602 74.1564 36.5313 73.8442C37.5024 73.5321 35.948 70.1963 35.948 70.1963C35.948 70.1963 37.6569 72.8132 38.2402 72.3277C38.8235 71.8421 36.998 69.2189 36.998 69.2189C36.998 69.2189 38.5902 71.3755 39.1357 70.6945C39.6811 70.0134 37.5813 67.0402 36.648 66.8069C35.7147 66.5736 28.5292 65.5205 28.5292 65.5205L28.5261 65.5268Z" fill="#C16240"/>
<path d="M69.8322 106.167C69.8322 106.167 68.4859 112.463 68.2274 115.909C67.9688 119.355 67.9688 122.805 68.2274 122.868C68.4859 122.931 72.0361 122.934 72.4775 122.868C72.9189 122.802 72.9694 120.727 70.7686 120.468C70.7686 120.468 72.0046 115.364 72.7203 113.109C73.436 110.855 74.9651 106.892 74.9651 106.892L69.8353 106.167H69.8322Z" fill="#191919"/>
<path d="M50.1426 97.3542C50.1426 97.3542 46.3339 104.789 45.1169 110.335C43.8998 115.881 43.4332 122.228 43.717 122.382C44.0007 122.537 47.6802 122.641 48.2761 122.382C48.872 122.124 48.7679 120.207 47.2388 119.636C47.2388 119.636 48.5094 114.248 49.8809 112.435C51.2556 110.622 53.2482 108.393 53.2482 108.393L50.1395 97.3574L50.1426 97.3542Z" fill="#191919"/>
<path d="M51.6419 94.6125C51.6419 94.6125 47.3161 92.0492 49.6209 88.1869C51.9257 84.3277 57.005 81.9945 57.3424 81.036C57.6798 80.0776 55.9709 79.4816 53.6629 79.7402C51.3582 79.9987 49.1952 82.2783 49.1952 82.2783C49.1952 82.2783 50.22 80.541 49.1952 80.3109C48.1705 80.0775 43.9992 83.0571 43.974 88.1869C43.9488 93.3167 47.644 95.9084 50.6803 95.8043L51.6451 94.6125H51.6419Z" fill="#2B2B2B"/>
<path d="M84.9098 76.8365C84.9098 76.8365 86.1016 71.6814 86.9813 71.7066C87.8609 71.7319 88.5104 76.5022 88.0186 78.703L84.9098 76.8365Z" fill="#2B2B2B"/>
<path d="M73.6692 79.1022C73.8742 78.9446 73.8899 78.4937 73.8616 78.0996C72.7391 78.1595 71.7869 78.0902 71.4937 78.3582C71.3234 78.5126 71.2604 79.1149 71.2635 79.7833C71.3991 79.8842 71.5284 79.963 71.623 79.9819C71.9193 80.0324 73.2814 79.3986 73.6692 79.1022Z" fill="#191919"/>
<path d="M74.0695 101.443C74.0695 101.443 71.7364 101.85 68.0064 102.569C64.2765 103.288 58.059 101.443 58.059 101.443C58.059 101.443 58.7589 103.31 59.0301 105.019C59.0301 105.019 61.8551 104.735 64.0306 105.892C66.2061 107.052 71.0269 109.099 73.565 108.011C73.565 108.011 73.1962 105.933 73.2151 104.631C73.234 103.329 74.0695 101.443 74.0695 101.443Z" fill="#2B2B2B"/>
<path d="M88.8994 81.7148C88.7449 79.4857 88.4864 77.7768 86.828 76.7395C85.1695 75.7022 84.0818 75.1347 84.0818 75.1347C84.0818 75.1347 84.0029 72.0006 82.4769 70.4715C82.2468 70.2413 80.21 72.5366 79.715 75.5508C79.715 75.5508 79.2389 75.7337 77.943 76.6922C76.6472 77.6507 76.3098 77.8052 74.809 78.0133C74.4874 78.0574 74.169 78.0826 73.8631 78.0984C73.8915 78.4925 73.8757 78.9434 73.6708 79.101C73.283 79.3974 71.9209 80.0343 71.6246 79.9807C71.53 79.9649 71.4007 79.883 71.2651 79.7821C71.2683 80.5798 71.3692 81.4783 71.4953 81.8441C71.7286 82.5188 72.1164 83.7611 72.479 83.8903C72.8416 84.0196 74.8878 84.1741 76.2089 85.1862C77.53 86.1951 77.7223 87.018 77.3755 88.4495C77.0287 89.8809 74.5126 92.646 71.7538 93.3964C68.995 94.1468 65.1484 93.1505 62.4023 92.1541C59.6561 91.1578 57.572 90.6376 55.3302 91.1957C53.0885 91.7537 49.8883 93.4752 49.3208 97.6718C48.7501 101.868 50.4337 105.627 51.3418 108.139C52.2498 110.652 51.2125 115.136 50.7207 117.258C50.2288 119.38 49.7117 122.258 49.841 122.542C49.9703 122.826 53.4669 122.879 54.192 122.542C54.9172 122.205 54.5546 120.625 53.4669 119.9C53.4669 119.9 56.1342 115.574 56.9887 113.837C57.8431 112.1 59.9177 109.174 59.0349 105.015C58.7638 103.306 58.0638 101.44 58.0638 101.44C58.0638 101.44 64.2814 103.284 68.0113 102.565C71.7412 101.846 74.0744 101.44 74.0744 101.44C74.0744 101.44 73.2389 103.325 73.2199 104.627C73.201 105.929 73.5699 108.007 73.5699 108.007C73.5699 108.007 74.7113 111.4 75.2284 113.317C75.7454 115.234 75.3828 122.539 75.799 122.772C76.2121 123.006 79.5542 122.722 80.2037 122.772C80.8532 122.823 80.85 121.555 80.3582 120.776C79.8663 120.001 78.8038 119.947 78.8038 119.947C78.8038 119.947 79.3209 111.838 80.6167 106.216C81.9126 100.595 84.6335 94.2225 85.1758 91.7096C85.1758 91.7096 86.3676 89.8178 86.6798 88.8593C86.9919 87.9008 87.2505 86.2172 87.2505 86.2172C87.2505 86.2172 88.2878 87.8756 88.5968 87.822C88.9089 87.7716 89.0634 83.9345 88.9089 81.7085L88.8994 81.7148Z" fill="#3A3A3A"/>
<path d="M77.2174 87.5618C76.9336 87.5808 76.5836 89.5829 76.7003 89.7626C76.8169 89.9455 79.251 90.0747 81.5968 91.1341C83.9426 92.1966 84.9263 93.0511 85.147 92.9218C85.3677 92.7925 86.1181 91.0553 86.0266 90.6927C85.9352 90.3301 82.8264 87.1961 77.2174 87.5587V87.5618Z" fill="#FF314A"/>
<path d="M78.633 78.2623C77.8069 78.0669 77.4948 78.729 77.2741 78.5335C77.0502 78.338 77.2363 78.029 77.7786 77.8146C78.324 77.6002 78.6425 77.6507 79.0618 77.8146C79.478 77.9786 79.85 78.8835 79.664 79.019C79.478 79.1546 79.4906 78.4641 78.633 78.2623Z" fill="#191919"/>
</svg>
