<svg width="97" height="44" viewBox="0 0 97 44" fill="none" xmlns="http://www.w3.org/2000/svg">
<rect x="0.75" y="1.25" width="95.5" height="41.5" rx="5.75" fill="black" stroke="#A7A9AC" stroke-width="1.5"/>
<path d="M46.9371 13.2042C46.8479 12.9241 46.7279 12.6733 46.5771 12.4517C46.4293 12.227 46.2524 12.0362 46.0462 11.8793C45.84 11.7192 45.6045 11.5977 45.3398 11.5146C45.0782 11.4315 44.7905 11.3899 44.4766 11.3899C43.9441 11.3899 43.464 11.5269 43.0362 11.8008C42.6084 12.0747 42.2699 12.4763 42.0206 13.0057C41.7744 13.532 41.6513 14.1767 41.6513 14.94C41.6513 15.7063 41.7759 16.3542 42.0252 16.8835C42.2745 17.4129 42.6161 17.8145 43.0501 18.0884C43.484 18.3623 43.978 18.4993 44.532 18.4993C45.0459 18.4993 45.4937 18.3946 45.8754 18.1854C46.2601 17.9761 46.5571 17.6806 46.7663 17.299C46.9787 16.9143 47.0849 16.4619 47.0849 15.9418L47.4542 16.011H44.7489V14.8338H48.4652V15.9094C48.4652 16.7035 48.2959 17.3929 47.9574 17.9776C47.6219 18.5593 47.1572 19.0086 46.5632 19.3256C45.9723 19.6426 45.2952 19.8011 44.532 19.8011C43.6764 19.8011 42.9254 19.6042 42.2791 19.2102C41.6359 18.8163 41.1342 18.2577 40.7741 17.5344C40.4141 16.8081 40.234 15.9464 40.234 14.9492C40.234 14.1952 40.3387 13.5181 40.5479 12.918C40.7572 12.3178 41.0511 11.8085 41.4297 11.3899C41.8113 10.9683 42.2591 10.6467 42.7731 10.4251C43.2901 10.2004 43.8549 10.0881 44.4673 10.0881C44.9782 10.0881 45.4537 10.1635 45.8938 10.3143C46.337 10.4651 46.7309 10.679 47.0756 10.956C47.4234 11.233 47.7112 11.5623 47.9389 11.9439C48.1667 12.3224 48.3205 12.7425 48.4006 13.2042H46.9371ZM53.0871 19.815C52.4223 19.815 51.8422 19.6626 51.3467 19.358C50.8512 19.0533 50.4665 18.627 50.1925 18.0792C49.9186 17.5314 49.7817 16.8912 49.7817 16.1587C49.7817 15.4232 49.9186 14.7799 50.1925 14.229C50.4665 13.6781 50.8512 13.2504 51.3467 12.9457C51.8422 12.641 52.4223 12.4886 53.0871 12.4886C53.7519 12.4886 54.332 12.641 54.8275 12.9457C55.323 13.2504 55.7077 13.6781 55.9816 14.229C56.2555 14.7799 56.3925 15.4232 56.3925 16.1587C56.3925 16.8912 56.2555 17.5314 55.9816 18.0792C55.7077 18.627 55.323 19.0533 54.8275 19.358C54.332 19.6626 53.7519 19.815 53.0871 19.815ZM53.0917 18.6562C53.5226 18.6562 53.8796 18.5424 54.1627 18.3146C54.4459 18.0869 54.6551 17.7837 54.7906 17.4052C54.9291 17.0266 54.9983 16.6096 54.9983 16.1541C54.9983 15.7017 54.9291 15.2862 54.7906 14.9077C54.6551 14.526 54.4459 14.2198 54.1627 13.989C53.8796 13.7582 53.5226 13.6428 53.0917 13.6428C52.6577 13.6428 52.2977 13.7582 52.0114 13.989C51.7283 14.2198 51.5175 14.526 51.379 14.9077C51.2436 15.2862 51.1759 15.7017 51.1759 16.1541C51.1759 16.6096 51.2436 17.0266 51.379 17.4052C51.5175 17.7837 51.7283 18.0869 52.0114 18.3146C52.2977 18.5424 52.6577 18.6562 53.0917 18.6562ZM60.8551 19.815C60.1903 19.815 59.6102 19.6626 59.1147 19.358C58.6192 19.0533 58.2345 18.627 57.9606 18.0792C57.6866 17.5314 57.5497 16.8912 57.5497 16.1587C57.5497 15.4232 57.6866 14.7799 57.9606 14.229C58.2345 13.6781 58.6192 13.2504 59.1147 12.9457C59.6102 12.641 60.1903 12.4886 60.8551 12.4886C61.5199 12.4886 62.1 12.641 62.5955 12.9457C63.091 13.2504 63.4757 13.6781 63.7496 14.229C64.0235 14.7799 64.1605 15.4232 64.1605 16.1587C64.1605 16.8912 64.0235 17.5314 63.7496 18.0792C63.4757 18.627 63.091 19.0533 62.5955 19.358C62.1 19.6626 61.5199 19.815 60.8551 19.815ZM60.8597 18.6562C61.2906 18.6562 61.6476 18.5424 61.9307 18.3146C62.2139 18.0869 62.4231 17.7837 62.5586 17.4052C62.6971 17.0266 62.7663 16.6096 62.7663 16.1541C62.7663 15.7017 62.6971 15.2862 62.5586 14.9077C62.4231 14.526 62.2139 14.2198 61.9307 13.989C61.6476 13.7582 61.2906 13.6428 60.8597 13.6428C60.4258 13.6428 60.0657 13.7582 59.7794 13.989C59.4963 14.2198 59.2855 14.526 59.147 14.9077C59.0116 15.2862 58.9439 15.7017 58.9439 16.1541C58.9439 16.6096 59.0116 17.0266 59.147 17.4052C59.2855 17.7837 59.4963 18.0869 59.7794 18.3146C60.0657 18.5424 60.4258 18.6562 60.8597 18.6562ZM68.6092 22.4787C68.046 22.4787 67.5613 22.4048 67.1551 22.2571C66.7519 22.1094 66.4226 21.9139 66.1671 21.6708C65.9117 21.4277 65.7209 21.1615 65.5947 20.8722L66.7811 20.3828C66.8642 20.5182 66.975 20.6613 67.1135 20.8121C67.2551 20.966 67.4459 21.0968 67.6859 21.2045C67.9291 21.3123 68.2415 21.3661 68.6231 21.3661C69.1463 21.3661 69.5787 21.2384 69.9203 20.983C70.2619 20.7306 70.4328 20.3274 70.4328 19.7734V18.3793H70.345C70.2619 18.5301 70.1419 18.6978 69.985 18.8825C69.8311 19.0671 69.6187 19.2272 69.3479 19.3626C69.077 19.498 68.7247 19.5657 68.2907 19.5657C67.7306 19.5657 67.2258 19.4349 66.7765 19.1733C66.3302 18.9086 65.9763 18.5193 65.7147 18.0053C65.4562 17.4883 65.3269 16.8527 65.3269 16.0987C65.3269 15.3447 65.4547 14.6984 65.7101 14.1598C65.9686 13.6212 66.3225 13.2088 66.7719 12.9226C67.2212 12.6333 67.7306 12.4886 68.2999 12.4886C68.74 12.4886 69.0955 12.5625 69.3663 12.7102C69.6372 12.8549 69.848 13.0241 69.9988 13.218C70.1527 13.4119 70.2712 13.5827 70.3543 13.7305H70.4558V12.581H71.8085V19.8288C71.8085 20.4382 71.6669 20.9383 71.3837 21.3292C71.1006 21.7201 70.7174 22.0094 70.2342 22.1971C69.7541 22.3848 69.2125 22.4787 68.6092 22.4787ZM68.5954 18.4208C68.9924 18.4208 69.3279 18.3285 69.6018 18.1438C69.8788 17.9561 70.0881 17.6883 70.2296 17.3406C70.3743 16.9897 70.4466 16.5696 70.4466 16.0803C70.4466 15.6032 70.3758 15.1831 70.2342 14.82C70.0927 14.4568 69.8849 14.1737 69.611 13.9705C69.3371 13.7643 68.9986 13.6612 68.5954 13.6612C68.1799 13.6612 67.8337 13.7689 67.5567 13.9844C67.2797 14.1967 67.0704 14.486 66.9288 14.8523C66.7904 15.2185 66.7211 15.6278 66.7211 16.0803C66.7211 16.545 66.7919 16.9528 66.9335 17.3036C67.075 17.6545 67.2843 17.9284 67.5613 18.1254C67.8414 18.3223 68.1861 18.4208 68.5954 18.4208ZM74.975 10.2173V19.6719H73.5947V10.2173H74.975ZM79.8231 19.815C79.1245 19.815 78.5228 19.6657 78.018 19.3672C77.5164 19.0656 77.1286 18.6424 76.8547 18.0977C76.5839 17.5498 76.4484 16.9081 76.4484 16.1726C76.4484 15.4463 76.5839 14.8061 76.8547 14.2521C77.1286 13.6982 77.5102 13.2657 77.9996 12.9549C78.492 12.6441 79.0675 12.4886 79.7261 12.4886C80.1262 12.4886 80.514 12.5548 80.8895 12.6871C81.265 12.8195 81.602 13.0272 81.9005 13.3104C82.199 13.5935 82.4345 13.9613 82.6068 14.4137C82.7792 14.863 82.8653 15.4093 82.8653 16.0526V16.5419H77.2286V15.5078H81.5127C81.5127 15.1446 81.4388 14.823 81.2911 14.543C81.1434 14.2598 80.9357 14.0367 80.6679 13.8736C80.4032 13.7105 80.0924 13.6289 79.7354 13.6289C79.3476 13.6289 79.009 13.7243 78.7197 13.9151C78.4335 14.1029 78.2119 14.3491 78.055 14.6538C77.9011 14.9554 77.8241 15.2831 77.8241 15.6371V16.445C77.8241 16.9189 77.9072 17.3221 78.0734 17.6545C78.2427 17.9869 78.4781 18.2408 78.7798 18.4162C79.0814 18.5885 79.4338 18.6747 79.8369 18.6747C80.0985 18.6747 80.337 18.6378 80.5525 18.5639C80.7679 18.487 80.9541 18.3731 81.1111 18.2223C81.268 18.0715 81.3881 17.8853 81.4712 17.6637L82.7776 17.8991C82.673 18.2839 82.4853 18.6209 82.2144 18.9102C81.9467 19.1964 81.6097 19.4195 81.2034 19.5795C80.8002 19.7365 80.3401 19.815 79.8231 19.815ZM40.5387 33.6719V24.2173H43.9087C44.6443 24.2173 45.2537 24.3512 45.7369 24.619C46.2201 24.8867 46.5817 25.253 46.8217 25.7177C47.0618 26.1793 47.1818 26.6995 47.1818 27.2781C47.1818 27.8597 47.0603 28.3829 46.8171 28.8477C46.5771 29.3093 46.2139 29.6755 45.7276 29.9464C45.2444 30.2141 44.6366 30.348 43.9041 30.348H41.5866V29.1385H43.7749C44.2396 29.1385 44.6166 29.0585 44.9059 28.8984C45.1952 28.7353 45.4076 28.5137 45.543 28.2337C45.6784 27.9536 45.7461 27.6351 45.7461 27.2781C45.7461 26.921 45.6784 26.604 45.543 26.3271C45.4076 26.0501 45.1937 25.8331 44.9013 25.6761C44.612 25.5192 44.2304 25.4407 43.7564 25.4407H41.9652V33.6719H40.5387ZM50.0587 24.2173V33.6719H48.6783V24.2173H50.0587ZM53.9142 33.8288C53.4649 33.8288 53.0586 33.7457 52.6955 33.5795C52.3323 33.4103 52.0445 33.1656 51.8322 32.8455C51.6229 32.5254 51.5183 32.133 51.5183 31.6683C51.5183 31.2682 51.5952 30.9389 51.7491 30.6804C51.903 30.4219 52.1107 30.2172 52.3723 30.0664C52.6339 29.9156 52.9263 29.8017 53.2494 29.7248C53.5726 29.6478 53.9019 29.5894 54.2374 29.5494C54.6621 29.5001 55.0068 29.4601 55.2715 29.4293C55.5361 29.3955 55.7285 29.3416 55.8485 29.2678C55.9685 29.1939 56.0286 29.0739 56.0286 28.9077V28.8754C56.0286 28.4722 55.9147 28.1598 55.6869 27.9382C55.4623 27.7166 55.1268 27.6058 54.6805 27.6058C54.2158 27.6058 53.8496 27.7089 53.5818 27.9151C53.3171 28.1183 53.134 28.3445 53.0325 28.5938L51.7352 28.2983C51.8891 27.8674 52.1138 27.5196 52.4092 27.255C52.7078 26.9872 53.0509 26.7933 53.4387 26.6733C53.8265 26.5502 54.2343 26.4886 54.6621 26.4886C54.9452 26.4886 55.2453 26.5225 55.5623 26.5902C55.8824 26.6548 56.1809 26.7749 56.4579 26.9503C56.738 27.1257 56.9672 27.3765 57.1457 27.7028C57.3242 28.0259 57.4135 28.446 57.4135 28.9631V33.6719H56.0655V32.7024H56.0101C55.9208 32.8809 55.787 33.0563 55.6085 33.2287C55.43 33.401 55.2007 33.5442 54.9206 33.658C54.6405 33.7719 54.3051 33.8288 53.9142 33.8288ZM54.2143 32.7209C54.5959 32.7209 54.9221 32.6455 55.193 32.4947C55.4669 32.3439 55.6746 32.1469 55.8162 31.9038C55.9608 31.6576 56.0332 31.3944 56.0332 31.1143V30.2003C55.9839 30.2495 55.8885 30.2957 55.747 30.3388C55.6085 30.3788 55.45 30.4142 55.2715 30.445C55.093 30.4727 54.9191 30.4988 54.7498 30.5234C54.5805 30.545 54.439 30.5634 54.3251 30.5788C54.0573 30.6127 53.8126 30.6696 53.5911 30.7496C53.3725 30.8297 53.1971 30.9451 53.0648 31.0959C52.9355 31.2436 52.8709 31.4406 52.8709 31.6868C52.8709 32.0284 52.9971 32.2869 53.2494 32.4624C53.5018 32.6347 53.8234 32.7209 54.2143 32.7209ZM59.8056 36.331C59.5994 36.331 59.4117 36.314 59.2424 36.2802C59.0731 36.2494 58.947 36.2156 58.8639 36.1786L59.1962 35.0476C59.4486 35.1153 59.6733 35.1445 59.8703 35.1353C60.0672 35.1261 60.2411 35.0522 60.3919 34.9137C60.5458 34.7752 60.6812 34.549 60.7982 34.2351L60.969 33.7642L58.3745 26.581H59.8518L61.6476 32.0838H61.7215L63.5173 26.581H64.9992L62.0769 34.6183C61.9415 34.9876 61.7692 35.3 61.5599 35.5554C61.3506 35.8139 61.1013 36.0078 60.812 36.1371C60.5227 36.2663 60.1873 36.331 59.8056 36.331Z" fill="white"/>
<path d="M9.97863 9.26109C9.67464 9.57802 9.5 10.0761 9.5 10.7229V33.7103C9.5 34.3571 9.6811 34.8486 9.97863 35.1721L10.0563 35.2497L22.9341 22.3718V22.0678L10.0563 9.18994L9.97863 9.26756V9.26109Z" fill="#5BC9F4"/>
<path d="M27.2276 26.6659L22.9329 22.3711V22.0671L27.2276 17.7723L27.3247 17.8306L32.4085 20.7218C33.8639 21.5497 33.8639 22.895 32.4085 23.7229L27.3247 26.6142L27.2276 26.6724V26.6659Z" fill="url(#paint0_linear_229_8185)"/>
<path d="M27.3246 26.6063L22.9328 22.2145L9.97729 35.17C10.4559 35.6745 11.245 35.7392 12.1376 35.2346L27.3246 26.6063Z" fill="url(#paint1_linear_229_8185)"/>
<path d="M27.3246 17.8215L12.1376 9.19312C11.245 8.68861 10.4559 8.74682 9.97729 9.2578L22.9328 22.2133L27.3246 17.8215Z" fill="url(#paint2_linear_229_8185)"/>
<defs>
<linearGradient id="paint0_linear_229_8185" x1="31.4642" y1="22.2159" x2="6.31" y2="22.2159" gradientUnits="userSpaceOnUse">
<stop stop-color="#FEE000"/>
<stop offset="0.42" stop-color="#FBBC0E"/>
<stop offset="0.78" stop-color="#F9A318"/>
<stop offset="1" stop-color="#F99B1C"/>
</linearGradient>
<linearGradient id="paint1_linear_229_8185" x1="24.9379" y1="24.6012" x2="1.28425" y2="48.2548" gradientUnits="userSpaceOnUse">
<stop stop-color="#EF4547"/>
<stop offset="1" stop-color="#C6186D"/>
</linearGradient>
<linearGradient id="paint2_linear_229_8185" x1="1.17429" y1="-3.93053" x2="20.4879" y2="15.383" gradientUnits="userSpaceOnUse">
<stop stop-color="#279E6F"/>
<stop offset="0.04" stop-color="#2B9F6E"/>
<stop offset="0.46" stop-color="#52B16B"/>
<stop offset="0.8" stop-color="#6BBC69"/>
<stop offset="1" stop-color="#74C169"/>
</linearGradient>
</defs>
</svg>
