<svg width="190" height="156" viewBox="0 0 190 156" fill="none" xmlns="http://www.w3.org/2000/svg">
<rect width="190" height="156" rx="20" transform="matrix(-1 0 0 1 190 0)" fill="white"/>
<path d="M64.9248 30H62.2884L66.3055 18.3636H69.4759L73.4873 30H70.8509L67.9361 21.0227H67.8452L64.9248 30ZM64.76 25.4261H70.9873V27.3466H64.76V25.4261ZM77.4921 30.142C76.8292 30.142 76.2288 29.9716 75.6909 29.6307C75.1568 29.286 74.7326 28.7803 74.4182 28.1136C74.1076 27.4432 73.9523 26.6212 73.9523 25.6477C73.9523 24.6477 74.1133 23.8163 74.4352 23.1534C74.7572 22.4867 75.1852 21.9886 75.7193 21.6591C76.2572 21.3258 76.8462 21.1591 77.4864 21.1591C77.975 21.1591 78.3822 21.2424 78.708 21.4091C79.0375 21.572 79.3027 21.7765 79.5034 22.0227C79.708 22.2652 79.8633 22.5038 79.9693 22.7386H80.0432V18.3636H82.458V30H80.0716V28.6023H79.9693C79.8557 28.8447 79.6947 29.0852 79.4864 29.3239C79.2818 29.5587 79.0148 29.7538 78.6852 29.9091C78.3595 30.0644 77.9617 30.142 77.4921 30.142ZM78.2591 28.2159C78.6492 28.2159 78.9788 28.1098 79.2477 27.8977C79.5205 27.6818 79.7288 27.3807 79.8727 26.9943C80.0205 26.608 80.0943 26.1553 80.0943 25.6364C80.0943 25.1174 80.0224 24.6667 79.8784 24.2841C79.7345 23.9015 79.5261 23.6061 79.2534 23.3977C78.9807 23.1894 78.6492 23.0852 78.2591 23.0852C77.8614 23.0852 77.5261 23.1932 77.2534 23.4091C76.9807 23.625 76.7742 23.9242 76.6341 24.3068C76.4939 24.6894 76.4239 25.1326 76.4239 25.6364C76.4239 26.1439 76.4939 26.5928 76.6341 26.983C76.778 27.3693 76.9845 27.6723 77.2534 27.892C77.5261 28.108 77.8614 28.2159 78.2591 28.2159ZM87.5039 30.142C86.841 30.142 86.2407 29.9716 85.7028 29.6307C85.1687 29.286 84.7445 28.7803 84.4301 28.1136C84.1195 27.4432 83.9642 26.6212 83.9642 25.6477C83.9642 24.6477 84.1251 23.8163 84.4471 23.1534C84.7691 22.4867 85.1971 21.9886 85.7312 21.6591C86.2691 21.3258 86.8581 21.1591 87.4982 21.1591C87.9869 21.1591 88.3941 21.2424 88.7198 21.4091C89.0494 21.572 89.3145 21.7765 89.5153 22.0227C89.7198 22.2652 89.8751 22.5038 89.9812 22.7386H90.0551V18.3636H92.4698V30H90.0835V28.6023H89.9812C89.8676 28.8447 89.7066 29.0852 89.4982 29.3239C89.2937 29.5587 89.0267 29.7538 88.6971 29.9091C88.3714 30.0644 87.9736 30.142 87.5039 30.142ZM88.271 28.2159C88.6611 28.2159 88.9907 28.1098 89.2596 27.8977C89.5323 27.6818 89.7407 27.3807 89.8846 26.9943C90.0323 26.608 90.1062 26.1553 90.1062 25.6364C90.1062 25.1174 90.0342 24.6667 89.8903 24.2841C89.7464 23.9015 89.538 23.6061 89.2653 23.3977C88.9926 23.1894 88.6611 23.0852 88.271 23.0852C87.8732 23.0852 87.538 23.1932 87.2653 23.4091C86.9926 23.625 86.7861 23.9242 86.646 24.3068C86.5058 24.6894 86.4357 25.1326 86.4357 25.6364C86.4357 26.1439 86.5058 26.5928 86.646 26.983C86.7899 27.3693 86.9964 27.6723 87.2653 27.892C87.538 28.108 87.8732 28.2159 88.271 28.2159ZM102.013 30H97.8885V18.3636H102.048C103.218 18.3636 104.226 18.5966 105.07 19.0625C105.915 19.5246 106.565 20.1894 107.019 21.0568C107.477 21.9242 107.707 22.9621 107.707 24.1705C107.707 25.3826 107.477 26.4242 107.019 27.2955C106.565 28.1667 105.911 28.8352 105.059 29.3011C104.21 29.767 103.195 30 102.013 30ZM100.349 27.892H101.911C102.638 27.892 103.25 27.7633 103.746 27.5057C104.246 27.2443 104.621 26.8409 104.871 26.2955C105.125 25.7462 105.252 25.0379 105.252 24.1705C105.252 23.3106 105.125 22.608 104.871 22.0625C104.621 21.517 104.248 21.1155 103.752 20.858C103.256 20.6004 102.644 20.4716 101.917 20.4716H100.349V27.892ZM113.267 30.1705C112.384 30.1705 111.621 29.983 110.977 29.608C110.337 29.2292 109.843 28.7027 109.494 28.0284C109.146 27.3504 108.971 26.5644 108.971 25.6705C108.971 24.7689 109.146 23.9811 109.494 23.3068C109.843 22.6288 110.337 22.1023 110.977 21.7273C111.621 21.3485 112.384 21.1591 113.267 21.1591C114.149 21.1591 114.911 21.3485 115.551 21.7273C116.195 22.1023 116.691 22.6288 117.04 23.3068C117.388 23.9811 117.562 24.7689 117.562 25.6705C117.562 26.5644 117.388 27.3504 117.04 28.0284C116.691 28.7027 116.195 29.2292 115.551 29.608C114.911 29.983 114.149 30.1705 113.267 30.1705ZM113.278 28.2955C113.68 28.2955 114.015 28.1818 114.284 27.9545C114.553 27.7235 114.755 27.4091 114.892 27.0114C115.032 26.6136 115.102 26.161 115.102 25.6534C115.102 25.1458 115.032 24.6932 114.892 24.2955C114.755 23.8977 114.553 23.5833 114.284 23.3523C114.015 23.1212 113.68 23.0057 113.278 23.0057C112.873 23.0057 112.532 23.1212 112.255 23.3523C111.983 23.5833 111.776 23.8977 111.636 24.2955C111.5 24.6932 111.432 25.1458 111.432 25.6534C111.432 26.161 111.5 26.6136 111.636 27.0114C111.776 27.4091 111.983 27.7235 112.255 27.9545C112.532 28.1818 112.873 28.2955 113.278 28.2955ZM122.908 33.4545C122.124 33.4545 121.452 33.3466 120.891 33.1307C120.334 32.9186 119.891 32.6288 119.561 32.2614C119.232 31.8939 119.018 31.4811 118.919 31.0227L121.158 30.7216C121.226 30.8958 121.334 31.0587 121.482 31.2102C121.63 31.3617 121.825 31.483 122.067 31.5739C122.313 31.6686 122.613 31.7159 122.965 31.7159C123.491 31.7159 123.925 31.5871 124.266 31.3295C124.611 31.0758 124.783 30.6496 124.783 30.0511V28.4545H124.681C124.575 28.697 124.416 28.9261 124.203 29.142C123.991 29.358 123.719 29.5341 123.385 29.6705C123.052 29.8068 122.654 29.875 122.192 29.875C121.537 29.875 120.94 29.7235 120.402 29.4205C119.868 29.1136 119.442 28.6458 119.124 28.017C118.809 27.3845 118.652 26.5852 118.652 25.6193C118.652 24.6307 118.813 23.8049 119.135 23.142C119.457 22.4792 119.885 21.983 120.419 21.6534C120.957 21.3239 121.546 21.1591 122.186 21.1591C122.675 21.1591 123.084 21.2424 123.414 21.4091C123.743 21.572 124.008 21.7765 124.209 22.0227C124.414 22.2652 124.571 22.5038 124.681 22.7386H124.772V21.2727H127.175V30.0852C127.175 30.8277 126.993 31.4489 126.63 31.9489C126.266 32.4489 125.762 32.8239 125.118 33.0739C124.478 33.3277 123.741 33.4545 122.908 33.4545ZM122.959 28.0568C123.349 28.0568 123.679 27.9602 123.948 27.767C124.22 27.5701 124.429 27.2898 124.573 26.9261C124.72 26.5587 124.794 26.1193 124.794 25.608C124.794 25.0966 124.722 24.6534 124.578 24.2784C124.434 23.8996 124.226 23.6061 123.953 23.3977C123.681 23.1894 123.349 23.0852 122.959 23.0852C122.561 23.0852 122.226 23.1932 121.953 23.4091C121.681 23.6212 121.474 23.9167 121.334 24.2955C121.194 24.6742 121.124 25.1117 121.124 25.608C121.124 26.1117 121.194 26.5473 121.334 26.9148C121.478 27.2784 121.684 27.5606 121.953 27.7614C122.226 27.9583 122.561 28.0568 122.959 28.0568Z" fill="#2E2E2E"/>
<path d="M133.284 153.456H52.4751C33.6705 153.456 22.918 142.235 19.9493 134.17C8.90243 104.137 46.809 62.5512 83.1847 49.1692C119.56 35.7873 158.007 49.283 169.054 79.3155C179.033 106.447 163.244 137.79 133.284 153.456Z" fill="#FF314A"/>
<path d="M57.8932 109.382L56.821 147.503L52.7129 150.506V154.002H70.9777L77.0769 110.678C77.0769 110.673 66.3937 100.635 57.8932 109.382Z" fill="#E9E9E9"/>
<path d="M102.037 110.188L102.289 147.5L98.1807 150.503V153.998H116.445L122.545 110.675C122.539 110.67 110.543 101.441 102.037 110.188Z" fill="#E9E9E9"/>
<path d="M57.8931 109.378H93.0058L90.6646 77.1584C90.1395 69.1502 83.4878 62.9197 75.4577 62.9197C67.433 62.9197 60.7813 69.1447 60.2507 77.1584L57.8931 109.378Z" fill="white"/>
<path d="M81.4641 78.8169C81.4641 79.3529 81.8963 79.7851 82.4323 79.7851C82.9684 79.7851 83.4006 79.3529 83.4006 78.8169C83.4006 78.2808 82.9684 77.8486 82.4323 77.8486C81.8963 77.8486 81.4641 78.2808 81.4641 78.8169Z" fill="#28185E"/>
<path d="M68.477 79.7851C69.0117 79.7851 69.4452 79.3516 69.4452 78.8169C69.4452 78.2821 69.0117 77.8486 68.477 77.8486C67.9423 77.8486 67.5088 78.2821 67.5088 78.8169C67.5088 79.3516 67.9423 79.7851 68.477 79.7851Z" fill="#28185E"/>
<path d="M68.2917 86.4079C68.2917 90.5597 71.6559 93.9238 75.8077 93.9238C79.9595 93.9238 83.3237 90.5597 83.3237 86.4079C83.3237 82.256 79.9595 77.1633 75.8077 77.1633C71.6559 77.1633 68.2917 82.256 68.2917 86.4079Z" fill="#F0C7AA"/>
<path d="M77.2789 81.6959C78.0557 81.8163 78.8215 82.418 78.8488 83.2057C78.8652 83.6925 78.6082 84.1411 78.3292 84.5404C77.9244 85.1202 77.4376 85.6891 76.7757 85.9353C76.1083 86.1815 75.3534 86.072 74.7025 85.7876C74.0516 85.5031 73.4881 85.0601 72.9302 84.617C72.509 84.2833 72.055 83.8949 71.9839 83.3643C71.8963 82.7189 72.4433 82.1281 73.0615 81.9312C73.8054 81.6959 74.4016 82.0132 75.1128 81.9859C75.8567 81.9585 76.4912 81.5756 77.2789 81.6959Z" fill="#28185E"/>
<path d="M77.728 65.5269L84.7352 55.0078C85.8128 53.3941 88.3182 54.0177 88.5096 55.9487L90.6648 77.1673C90.6648 77.1618 80.6819 77.501 77.728 65.5269Z" fill="white"/>
<path d="M73.1981 65.5269L66.1908 55.0078C65.1132 53.3941 62.608 54.0177 62.4165 55.9487L60.2612 77.1673C60.2667 77.1618 70.2497 77.501 73.1981 65.5269Z" fill="white"/>
<path d="M72.7608 88.281C72.7444 88.8061 72.7334 89.3367 72.8264 89.8564C72.9194 90.376 73.1218 90.8848 73.4774 91.2731C73.8275 91.6506 74.3033 91.8913 74.8011 92.0226C75.4794 92.1976 76.2124 92.1812 76.8634 91.9186C77.5143 91.6615 78.0722 91.1528 78.3512 90.5128C78.6575 89.8181 78.6302 89.0359 78.5974 88.281C78.0504 88.1005 77.5034 87.9145 77.0001 87.6355C76.4969 87.3511 76.0374 86.9572 75.7748 86.4485C75.742 86.454 75.7037 86.4594 75.6709 86.4649C74.9707 87.4003 73.915 88.1059 72.7608 88.281Z" fill="#E07160"/>
<path d="M83.8702 86.0888C83.2247 87.7025 81.1187 88.4738 79.4996 88.4136C78.4931 88.3753 77.4975 88.0361 76.677 87.4563C75.8291 86.8655 75.4352 86.0067 75.6212 84.9619" stroke="#28185E" stroke-width="0.5" stroke-miterlimit="10" stroke-linecap="round"/>
<path d="M67.5088 86.0888C68.1543 87.7025 70.2603 88.4738 71.8794 88.4136C72.8859 88.3753 73.8815 88.0361 74.702 87.4563C75.5499 86.8655 75.9437 86.0067 75.7577 84.9619" stroke="#28185E" stroke-width="0.5" stroke-miterlimit="10" stroke-linecap="round"/>
<path d="M75.6821 89.938V86.47" stroke="#28185E" stroke-miterlimit="10" stroke-linecap="round"/>
<path d="M83.2026 64.1543C83.5034 64.116 83.7879 64.0394 84.0832 63.9793C84.4443 63.9027 84.7724 64.0121 85.1335 63.9793C85.3523 63.9629 85.4234 63.7003 85.2429 63.5745C84.9366 63.3666 84.6029 63.2025 84.2966 62.9947C84.1215 62.8743 83.8097 62.65 83.9301 62.382C83.9902 62.2398 84.3513 62.0921 84.4826 62.0155C84.5373 61.9827 84.57 61.9389 84.5865 61.8951C84.6247 61.8897 84.6686 61.8842 84.7068 61.8787C84.9804 61.835 84.8654 61.4192 84.5919 61.463C84.023 61.5505 83.3885 61.6052 82.847 61.381C83.1752 60.648 83.5198 59.9204 83.9574 59.2476C84.3567 58.6295 85.407 57.2127 86.2768 57.8363C86.8511 58.2466 86.966 59.3461 87.1137 59.9861C87.3161 60.8504 87.4474 61.731 87.5076 62.6172C87.5677 63.487 87.5622 64.3567 87.4857 65.221C87.431 65.8227 87.2833 66.7526 86.605 66.9878C86.1619 67.141 85.6969 66.873 85.3031 66.6159C84.8108 66.2931 84.3184 65.9704 83.8261 65.6531C83.3721 65.3577 82.8634 65.1006 82.5133 64.6794C82.3437 64.4716 82.2398 64.2473 82.1851 64.0121C82.4695 64.2309 82.8798 64.1981 83.2026 64.1543Z" fill="#F0C7AA"/>
<path d="M85.2106 57.7693C84.7456 58.3491 83.575 60.2144 82.9897 61.1772C82.9022 61.3194 83.0225 61.4945 83.1866 61.4726C83.7282 61.3905 84.2752 61.3686 84.8222 61.4069C85.0082 61.4233 85.0683 61.664 84.9152 61.768L83.9306 62.4134C83.7938 62.501 83.8211 62.7088 83.9743 62.7635C84.4611 62.9331 84.9152 63.1902 85.32 63.5129C85.4677 63.6278 85.3911 63.863 85.2051 63.863C84.1603 63.8849 83.121 63.967 82.0817 64.0982C81.8847 64.1256 81.8465 64.3881 82.027 64.4702C83.7063 65.2196 85.216 66.3465 86.496 67.6702" stroke="#28185E" stroke-width="0.5" stroke-miterlimit="10" stroke-linecap="round"/>
<path d="M67.3943 64.1543C67.0935 64.116 66.8091 64.0394 66.5137 63.9793C66.1526 63.9027 65.8244 64.0121 65.4634 63.9793C65.2446 63.9629 65.1735 63.7003 65.354 63.5745C65.6603 63.3666 65.994 63.2025 66.3003 62.9947C66.4754 62.8743 66.7871 62.65 66.6723 62.382C66.6121 62.2398 66.251 62.0921 66.1198 62.0155C66.0651 61.9827 66.0323 61.9389 66.0159 61.8951C65.9776 61.8897 65.9338 61.8842 65.8955 61.8787C65.622 61.835 65.7369 61.4192 66.0104 61.463C66.5793 61.5505 67.2138 61.6052 67.7553 61.381C67.4271 60.648 67.0826 59.9204 66.6449 59.2476C66.2456 58.6295 65.1954 57.2127 64.3256 57.8363C63.7512 58.2466 63.6364 59.3461 63.4887 59.9861C63.2863 60.8504 63.155 61.731 63.0948 62.6172C63.0347 63.487 63.0401 64.3567 63.1167 65.221C63.1714 65.8227 63.3191 66.7526 63.9973 66.9878C64.4404 67.141 64.9054 66.873 65.2992 66.6159C65.7916 66.2931 66.2839 65.9704 66.7762 65.6531C67.2302 65.3577 67.739 65.1006 68.0891 64.6794C68.2586 64.4716 68.3626 64.2473 68.4173 64.0121C68.1273 64.2309 67.7171 64.1981 67.3943 64.1543Z" fill="#F0C7AA"/>
<path d="M65.3868 57.7693C65.8572 58.3491 67.0224 60.2144 67.6077 61.1772C67.6952 61.3194 67.5748 61.4945 67.4107 61.4726C66.8692 61.3905 66.3222 61.3686 65.7751 61.4069C65.5892 61.4233 65.529 61.664 65.6822 61.768L66.6668 62.4134C66.8035 62.501 66.7762 62.7088 66.623 62.7635C66.1362 62.9331 65.6822 63.1902 65.2774 63.5129C65.1297 63.6278 65.2063 63.863 65.3923 63.863C66.4371 63.8849 67.4764 63.967 68.5157 64.0982C68.7126 64.1256 68.751 64.3881 68.5704 64.4702C66.8911 65.2196 65.3813 66.3465 64.1013 67.6702" stroke="#28185E" stroke-width="0.5" stroke-miterlimit="10" stroke-linecap="round"/>
<path d="M118.519 112.952L121.467 147.496L117.359 150.499V153.994H135.624L139.601 110.523C139.601 110.523 127.025 104.211 118.519 112.952Z" fill="white"/>
<path d="M57.3076 130.189L61.6837 133.274C66.0708 136.37 71.4206 137.798 76.7704 137.294L119.41 132.727L121.921 132.491L128.966 145.237L136.395 145.565L139.338 113.379C155.245 107.05 158.631 85.8367 154.753 74.4971C153.905 72.0246 150.491 71.8277 149.359 74.1853C141.788 90.0159 133.321 100.021 129.732 103.877L91.9719 95.1633L57.893 109.375L57.8601 110.644L57.3076 130.189Z" fill="white"/>
<path d="M57.3076 130.19L62.2526 133.68C66.2732 136.513 71.169 137.82 76.0702 137.361L120.209 132.7C117.889 128.319 112.791 125.053 107.95 123.965C99.2253 122.001 96.0088 126.918 87.448 124.337C82.0107 122.695 79.7188 117.389 76.2179 113.478C73.9697 110.968 70.9173 109.195 67.6352 108.435C66.0708 108.074 64.2219 107.806 62.6192 108.09C60.8633 108.402 59.2878 109.616 57.8656 110.645L57.3076 130.19Z" fill="#E9E9E9"/>
<path d="M77.1912 110.485L77.8422 147.048L73.116 150.499V153.995H91.3808L97.48 110.671C97.4854 110.671 85.6972 101.739 77.1912 110.485Z" fill="white"/>
<path d="M77.1914 123.996L77.6564 137.95" stroke="#28185E" stroke-width="0.5" stroke-miterlimit="10" stroke-linecap="round"/>
<path d="M95.8941 121.955C93.914 136.013 94.5266 131.681 93.9741 135.575" stroke="#28185E" stroke-width="0.5" stroke-miterlimit="10" stroke-linecap="round"/>
<path d="M119.492 125.461L120.203 132.698" stroke="#28185E" stroke-width="0.5" stroke-miterlimit="10" stroke-linecap="round"/>
<path d="M138.08 109.052C138.08 109.052 139.863 111.207 139.365 114.336" stroke="#28185E" stroke-width="0.5" stroke-miterlimit="10" stroke-linecap="round"/>
<path d="M73.8707 137.381C73.8707 137.381 67.591 137.452 62.9797 134.192L57.3071 130.193" stroke="#28185E" stroke-width="0.5" stroke-miterlimit="10" stroke-linecap="round"/>
<path d="M129.177 83.8361L127.341 83.1638L126.669 81.3278C126.493 80.8468 125.813 80.8468 125.637 81.3278L124.965 83.1638L123.129 83.8361C122.648 84.0119 122.648 84.692 123.129 84.8679L124.965 85.5402L125.637 87.3762C125.813 87.8571 126.493 87.8571 126.669 87.3762L127.341 85.5402L129.177 84.8679C129.656 84.6894 129.656 84.0119 129.177 83.8361Z" fill="white"/>
<path d="M116.711 72.2284L114.875 71.5561L114.203 69.7201C114.027 69.2391 113.347 69.2391 113.171 69.7201L112.498 71.5561L110.662 72.2284C110.182 72.4043 110.182 73.0843 110.662 73.2602L112.498 73.9325L113.171 75.7685C113.347 76.2495 114.027 76.2495 114.203 75.7685L114.875 73.9325L116.711 73.2602C117.189 73.0843 117.189 72.4043 116.711 72.2284Z" fill="white"/>
<path d="M54.3859 113.247L52.5499 112.575L51.8776 110.739C51.7018 110.258 51.0217 110.258 50.8458 110.739L50.1735 112.575L48.3375 113.247C47.8566 113.423 47.8566 114.103 48.3375 114.279L50.1735 114.952L50.8458 116.788C51.0217 117.269 51.7018 117.269 51.8776 116.788L52.5499 114.952L54.3859 114.279C54.8669 114.103 54.8669 113.423 54.3859 113.247Z" fill="white"/>
<path d="M40.6213 100.712L38.7853 100.039L38.113 98.2033C37.9371 97.7223 37.257 97.7223 37.0812 98.2033L36.4089 100.039L34.5729 100.712C34.0919 100.887 34.0919 101.568 34.5729 101.743L36.4089 102.416L37.0812 104.252C37.257 104.733 37.9371 104.733 38.113 104.252L38.7853 102.416L40.6213 101.743C41.0997 101.568 41.0997 100.887 40.6213 100.712Z" fill="white"/>
<path d="M153.197 122.644C154.061 122.644 154.819 123.259 154.997 124.11C155.204 125.103 154.565 126.08 153.572 126.29C153.446 126.315 153.319 126.328 153.192 126.328C152.326 126.328 151.571 125.713 151.393 124.862C151.186 123.869 151.824 122.892 152.817 122.682C152.941 122.656 153.071 122.644 153.197 122.644ZM153.197 121.351C152.985 121.351 152.768 121.371 152.554 121.418C150.86 121.772 149.774 123.432 150.125 125.126C150.433 126.605 151.736 127.619 153.19 127.619C153.402 127.619 153.619 127.598 153.834 127.552C155.527 127.197 156.613 125.537 156.262 123.843C155.951 122.364 154.648 121.351 153.197 121.351Z" fill="white"/>
</svg>
