<svg width="50" height="50" viewBox="0 0 50 50" fill="none" xmlns="http://www.w3.org/2000/svg">
<path d="M45.7707 38.1873C45.7707 38.9373 45.604 39.7082 45.2498 40.4582C44.8957 41.2082 44.4373 41.9165 43.8332 42.5832C42.8123 43.7082 41.6873 44.5207 40.4165 45.0415C39.1665 45.5623 37.8123 45.8332 36.354 45.8332C34.229 45.8332 31.9582 45.3332 29.5623 44.3123C27.1665 43.2915 24.7707 41.9165 22.3957 40.1873C19.9998 38.4373 17.729 36.4998 15.5623 34.354C13.4165 32.1873 11.479 29.9165 9.74984 27.5415C8.0415 25.1665 6.6665 22.7915 5.6665 20.4373C4.6665 18.0623 4.1665 15.7915 4.1665 13.6248C4.1665 12.2082 4.4165 10.854 4.9165 9.604C5.4165 8.33317 6.20817 7.1665 7.31234 6.12484C8.64567 4.81234 10.104 4.1665 11.6457 4.1665C12.229 4.1665 12.8123 4.2915 13.3332 4.5415C13.8748 4.7915 14.354 5.1665 14.729 5.70817L19.5623 12.5207C19.9373 13.0415 20.2082 13.5207 20.3957 13.979C20.5832 14.4165 20.6873 14.854 20.6873 15.2498C20.6873 15.7498 20.5415 16.2498 20.2498 16.729C19.979 17.2082 19.5832 17.7082 19.0832 18.2082L17.4998 19.854C17.2707 20.0832 17.1665 20.354 17.1665 20.6873C17.1665 20.854 17.1873 20.9998 17.229 21.1665C17.2915 21.3332 17.354 21.4582 17.3957 21.5832C17.7707 22.2707 18.4165 23.1665 19.3332 24.2498C20.2707 25.3332 21.2707 26.4373 22.354 27.5415C23.479 28.6457 24.5623 29.6665 25.6665 30.604C26.7498 31.5207 27.6457 32.1457 28.354 32.5207C28.4582 32.5623 28.5832 32.6248 28.729 32.6873C28.8957 32.7498 29.0623 32.7707 29.2498 32.7707C29.604 32.7707 29.8748 32.6457 30.104 32.4165L31.6873 30.854C32.2082 30.3332 32.7082 29.9373 33.1873 29.6873C33.6665 29.3957 34.1457 29.2498 34.6665 29.2498C35.0623 29.2498 35.479 29.3332 35.9373 29.5207C36.3957 29.7082 36.8748 29.979 37.3957 30.3332L44.2915 35.229C44.8332 35.604 45.2082 36.0415 45.4373 36.5623C45.6457 37.0832 45.7707 37.604 45.7707 38.1873Z" stroke="#28B446" stroke-width="3" stroke-miterlimit="10"/>
</svg>
