<svg width="15" height="14" viewBox="0 0 15 14" fill="none" xmlns="http://www.w3.org/2000/svg">
<path d="M7.5 5.24609C6.2805 5.24609 5.25 6.27659 5.25 7.49609C5.25 8.71559 6.2805 9.74609 7.5 9.74609C8.7195 9.74609 9.75 8.71559 9.75 7.49609C9.75 6.27659 8.7195 5.24609 7.5 5.24609Z" fill="white"/>
<path d="M13.5 2.25H11.5605L9.53025 0.21975C9.38963 0.079088 9.1989 4.2478e-05 9 0H6C5.8011 4.2478e-05 5.61037 0.079088 5.46975 0.21975L3.4395 2.25H1.5C0.67275 2.25 0 2.92275 0 3.75V12C0 12.8272 0.67275 13.5 1.5 13.5H13.5C14.3273 13.5 15 12.8272 15 12V3.75C15 2.92275 14.3273 2.25 13.5 2.25ZM7.5 11.25C5.4675 11.25 3.75 9.5325 3.75 7.5C3.75 5.4675 5.4675 3.75 7.5 3.75C9.5325 3.75 11.25 5.4675 11.25 7.5C11.25 9.5325 9.5325 11.25 7.5 11.25Z" fill="white"/>
</svg>
