<svg width="27" height="27" viewBox="0 0 27 27" fill="none" xmlns="http://www.w3.org/2000/svg">
<path d="M7.60543 23.625H19.3954C22.5004 23.625 24.3229 21.7237 24.4692 19.4062V11.2387C24.6267 8.80875 22.6917 7.875 20.2504 7.875C19.5642 7.875 18.9342 7.48125 18.6192 6.87375L17.8092 5.2425C17.2917 4.21875 15.9417 3.375 14.7942 3.375H12.2179C11.0592 3.375 9.70918 4.21875 9.19168 5.2425L8.38168 6.87375C8.06668 7.48125 7.43668 7.875 6.75043 7.875C4.30918 7.875 2.37418 8.80875 2.53168 11.2387V19.4062C2.66668 21.7237 4.50043 23.625 7.60543 23.625Z" stroke="#2E2E2E" stroke-width="1.5" stroke-linecap="round" stroke-linejoin="round"/>
<path d="M13.4998 19.125C15.5135 19.125 17.156 17.4825 17.156 15.4687C17.156 13.455 15.5135 11.8125 13.4998 11.8125C11.486 11.8125 9.84351 13.455 9.84351 15.4687C9.84351 17.4825 11.486 19.125 13.4998 19.125Z" stroke="#2E2E2E" stroke-width="1.5" stroke-linecap="round" stroke-linejoin="round"/>
<path d="M12.2947 8.4375H14.7054" stroke="#2E2E2E" stroke-width="1.5" stroke-linecap="round" stroke-linejoin="round"/>
</svg>
