<svg width="30" height="28" viewBox="0 0 30 28" fill="none" xmlns="http://www.w3.org/2000/svg">
<path d="M29.031 10.4974C28.9362 13.2452 28.9012 15.6923 28.2249 18.0457C26.6663 23.4777 23.0001 26.6922 17.5045 27.7204C13.2942 28.5078 9.36839 27.6443 5.94799 24.9726C3.1016 22.7502 1.56798 19.7491 1.06259 16.2151C0.59589 12.9607 0.512283 9.69252 0.955276 6.42436C1.20734 4.56504 1.63411 2.75065 2.37036 1.01736C2.76593 0.0864572 3.46848 -0.261699 4.3582 0.208747C5.28662 0.699158 6.15638 1.3206 6.99495 1.96075C7.71122 2.50732 8.33515 3.17367 9.02273 3.76017C9.17247 3.88745 9.44201 3.98728 9.6217 3.94611C13.1008 3.14498 16.5736 3.14622 20.0526 3.94611C20.2323 3.98728 20.5018 3.88745 20.6541 3.76142C21.7447 2.85672 22.7967 1.90335 23.9023 1.01736C24.3453 0.662971 24.8731 0.389687 25.3997 0.170063C26.262 -0.189322 26.9259 0.112662 27.2902 0.973689C28.1513 3.00147 28.6005 5.13282 28.8189 7.31284C28.9349 8.47461 28.9761 9.64386 29.031 10.4974ZM4.02378 2.14668C3.95265 2.29892 3.894 2.39001 3.8653 2.4886C3.64193 3.24979 3.37614 4.0035 3.21142 4.77718C2.35912 8.76661 2.41902 12.776 3.1328 16.7692C3.59077 19.331 4.81617 21.5248 6.84146 23.2007C9.76521 25.619 13.1606 26.485 16.8631 25.8661C21.6649 25.0637 24.9542 22.3883 26.3319 17.6227C26.9683 15.4202 27.0407 13.1354 27.0631 10.8568C27.0906 8.06531 26.7774 5.32 25.8689 2.66455C25.8115 2.49733 25.7341 2.33636 25.6505 2.13545C24.1219 3.18865 22.8017 4.37662 21.5401 5.62947C21.1245 6.04252 20.7077 6.13985 20.1474 5.98886C16.6097 5.03674 13.0633 5.03549 9.52562 5.98886C8.96408 6.13985 8.55727 6.02629 8.1305 5.63197C7.04361 4.62744 5.92053 3.66284 4.80245 2.692C4.57284 2.49234 4.3033 2.33885 4.02253 2.14419L4.02378 2.14668Z" fill="#7C868A"/>
<path d="M14.7728 20.8068C14.1002 21.6579 13.2604 22.1445 12.2097 22.2381C10.6037 22.3816 9.40075 21.7003 8.51227 20.4062C8.18783 19.9333 8.29265 19.3805 8.72191 19.0835C9.13995 18.794 9.70523 18.9051 10.0297 19.3693C10.4664 19.992 11.0092 20.4112 11.8066 20.4075C12.8124 20.4025 13.7084 19.5802 13.7783 18.5744C13.7857 18.4696 13.6747 18.346 13.5973 18.2474C13.3415 17.9217 13.0133 17.6347 12.8299 17.2729C12.5616 16.7438 12.7625 16.2958 13.3265 16.1311C14.3036 15.8465 15.3019 15.844 16.2777 16.136C16.8168 16.297 17.014 16.7325 16.7669 17.2479C16.5984 17.601 16.3364 17.9405 16.0369 18.19C15.7898 18.3959 15.7674 18.5606 15.8572 18.8215C16.118 19.5814 16.5098 20.2178 17.3746 20.3725C18.2918 20.5373 18.9794 20.1617 19.5035 19.4204C19.8691 18.9038 20.4319 18.7778 20.8736 19.0985C21.3041 19.4104 21.369 19.9608 21.0259 20.4724C19.5035 22.736 16.4312 22.8595 14.7753 20.8068H14.7728Z" fill="#7C868A"/>
<path d="M22.6553 13.3871C22.6453 14.5277 21.7344 15.4199 20.5913 15.4074C19.4508 15.395 18.5536 14.4765 18.5685 13.3397C18.5848 12.2029 19.5094 11.297 20.6388 11.312C21.7706 11.3269 22.664 12.2466 22.6541 13.3871H22.6553Z" fill="#7C868A"/>
<path d="M8.99497 15.4073C7.85442 15.4173 6.93849 14.5201 6.92975 13.3821C6.92101 12.2477 7.82821 11.3218 8.95753 11.3118C10.0794 11.3019 11.019 12.2228 11.0315 13.3446C11.044 14.4702 10.128 15.3974 8.99622 15.4073H8.99497Z" fill="#7C868A"/>
</svg>
