<svg width="13" height="13" viewBox="0 0 13 13" fill="none" xmlns="http://www.w3.org/2000/svg">
<path d="M3.44531 5.08198C3.44531 4.64972 3.61703 4.23517 3.92268 3.92952C4.22833 3.62386 4.64289 3.45215 5.07515 3.45215H10.371C10.5851 3.45215 10.797 3.49431 10.9947 3.57621C11.1925 3.65812 11.3722 3.77817 11.5235 3.92952C11.6748 4.08086 11.7949 4.26053 11.8768 4.45827C11.9587 4.65601 12.0009 4.86795 12.0009 5.08198V10.3779C12.0009 10.5919 11.9587 10.8038 11.8768 11.0016C11.7949 11.1993 11.6748 11.379 11.5235 11.5303C11.3722 11.6817 11.1925 11.8017 10.9947 11.8836C10.797 11.9655 10.5851 12.0077 10.371 12.0077H5.07515C4.86111 12.0077 4.64918 11.9655 4.45144 11.8836C4.2537 11.8017 4.07402 11.6817 3.92268 11.5303C3.77134 11.379 3.65128 11.1993 3.56938 11.0016C3.48747 10.8038 3.44531 10.5919 3.44531 10.3779V5.08198Z" stroke="#2E2E2E" stroke-width="1.5" stroke-linecap="round" stroke-linejoin="round"/>
<path d="M1.61844 9.40265C1.43083 9.29605 1.27479 9.14169 1.16616 8.95525C1.05754 8.7688 1.00021 8.55692 1 8.34115V2.23003C1 1.55781 1.55 1.00781 2.22222 1.00781H8.33333C8.79167 1.00781 9.041 1.24309 9.25 1.61892" stroke="#2E2E2E" stroke-width="1.5" stroke-linecap="round" stroke-linejoin="round"/>
</svg>
