<svg width="51" height="50" viewBox="0 0 51 50" fill="none" xmlns="http://www.w3.org/2000/svg">
<path d="M44.25 12.4585C37.3125 11.771 30.3333 11.4169 23.375 11.4169C19.25 11.4169 15.125 11.6252 11 12.0419L6.75 12.4585" stroke="#FF314A" stroke-width="3" stroke-linecap="round" stroke-linejoin="round"/>
<path d="M18.208 10.3556L18.6663 7.62642C18.9997 5.64726 19.2497 4.16809 22.7705 4.16809H28.2288C31.7497 4.16809 32.0205 5.73059 32.333 7.64726L32.7913 10.3556" stroke="#FF314A" stroke-width="3" stroke-linecap="round" stroke-linejoin="round"/>
<path d="M39.1363 13.6364L37.8423 38.5515C37.6233 42.436 37.4441 45.4545 31.8901 45.4545H19.1097C13.5556 45.4545 13.3765 42.436 13.1575 38.5515L11.8635 13.6364" stroke="#FF314A" stroke-width="3" stroke-linecap="round" stroke-linejoin="round"/>
<path d="M22.021 34.375H28.9585" stroke="#FF314A" stroke-width="3" stroke-linecap="round" stroke-linejoin="round"/>
<path d="M20.292 26.0431H30.7087" stroke="#FF314A" stroke-width="3" stroke-linecap="round" stroke-linejoin="round"/>
</svg>
