<svg width="41" height="40" viewBox="0 0 41 40" fill="none" xmlns="http://www.w3.org/2000/svg">
<path d="M20.2412 1.84766C22.2942 1.96476 24.3747 1.90549 26.3959 2.22934C32.6894 3.23705 36.7231 6.98308 38.7501 12.9412C40.0224 16.68 40.4345 20.546 40.1844 24.4829C40.0152 27.1402 38.5969 29.199 36.3892 29.9031C35.7631 30.1026 35.0822 30.1474 34.4215 30.2038C34.1005 30.2313 33.9096 30.2964 33.7492 30.6043C31.1959 35.5127 27.0711 37.9821 21.619 38.3277C19.1511 38.4838 16.7063 38.3205 14.3583 37.4487C10.9549 36.185 8.42625 33.9325 6.77517 30.6997C6.63203 30.4178 6.51203 30.1937 6.1101 30.2082C3.21998 30.3094 0.673956 28.427 0.328413 24.7547C-0.0619486 20.6009 0.47299 16.5296 1.84938 12.5913C4.20601 5.84525 9.72746 1.99802 17.0388 1.95465C18.1043 1.94886 19.1713 1.95465 20.2369 1.95465C20.2383 1.91995 20.2412 1.88525 20.2426 1.85055L20.2412 1.84766ZM34.8957 27.9571C35.1039 27.9195 35.2976 27.8964 35.4841 27.8472C36.8706 27.4742 37.7829 26.2366 37.9232 24.5436C38.2325 20.8033 37.8234 17.1368 36.6003 13.5947C34.6933 8.07465 30.8359 4.81441 24.9819 4.32573C21.8431 4.0626 18.6508 4.08862 15.5077 4.32139C10.4619 4.69441 6.713 7.25344 4.57758 11.88C2.68938 15.9715 2.18914 20.3306 2.58673 24.798C2.65613 25.5831 2.95251 26.3074 3.48022 26.9132C4.03685 27.5508 4.74095 27.8819 5.58384 27.9484C5.60119 27.8429 5.61999 27.8053 5.61131 27.7749C4.76553 24.8226 4.86962 21.8009 4.98673 18.7865C5.07926 16.4053 5.63589 14.1079 6.50336 11.8886C6.79974 11.131 7.3824 10.8187 8.02433 11.0573C8.65035 11.2901 8.89035 11.9465 8.60119 12.6838C6.86625 17.1151 6.7477 21.7041 7.60215 26.2886C8.36842 30.4005 10.7019 33.4684 14.646 35.1513C16.9 36.1127 19.2754 36.2299 21.674 36.0853C26.9323 35.7658 30.888 32.718 32.5174 27.7026C33.6335 24.2703 33.5019 20.7412 33.0523 17.2366C32.8499 15.6621 32.2701 14.1325 31.8321 12.5913C31.6354 11.8988 31.8509 11.2828 32.4436 11.0573C33.0523 10.8274 33.6422 11.1137 33.927 11.7787C33.9689 11.8785 34.0036 11.9812 34.0441 12.0824C35.6388 16.0626 35.7169 20.2221 35.4494 24.4091C35.3742 25.5715 35.0952 26.7224 34.8957 27.9571Z" fill="#7C868A"/>
<path d="M20.1674 29.9305C18.9833 31.2751 17.5968 31.9589 15.9024 31.9329C13.1742 31.8895 10.9014 29.6587 10.8204 26.9348C10.8016 26.3073 10.8349 25.6683 10.9361 25.051C11.046 24.3772 11.6098 24.0302 12.2474 24.143C12.8373 24.2471 13.1771 24.7661 13.1207 25.4384C13.0816 25.9054 13.0267 26.3767 13.0542 26.8408C13.164 28.6235 14.646 29.8596 16.4084 29.6673C18.0132 29.4924 19.2219 27.9078 18.9934 26.2394C18.9718 26.0818 18.8055 25.9098 18.6609 25.8085C18.0681 25.3922 17.5896 24.8934 17.3785 24.182C17.1761 23.4996 17.3944 22.9618 18.0696 22.7507C19.4995 22.304 20.9597 22.3069 22.391 22.7449C23.0894 22.9589 23.3178 23.5083 23.0922 24.2167C22.8436 24.9989 22.2855 25.5165 21.6031 25.9416C21.4325 26.0471 21.2691 26.3131 21.2619 26.5112C21.204 28.2577 22.4633 29.6384 24.1202 29.6832C25.8479 29.7295 27.1506 28.4702 27.2026 26.6818C27.2142 26.2871 27.1896 25.8866 27.1375 25.4948C27.0522 24.8514 27.3747 24.2919 27.9501 24.1531C28.5703 24.0028 29.1804 24.3425 29.3163 24.9931C29.8079 27.344 29.1992 29.864 26.8339 31.2331C24.6739 32.4837 22.0947 32.0529 20.3207 30.1647C20.2715 30.1127 20.2412 30.0447 20.166 29.9305H20.1674Z" fill="#7C868A"/>
<path d="M29.0487 17.5101C29.0429 18.8373 27.9918 19.884 26.6674 19.8783C25.3619 19.8739 24.279 18.7853 24.2891 17.4884C24.2993 16.1814 25.3793 15.1159 26.6891 15.1231C28.0193 15.1289 29.0544 16.1756 29.0487 17.5101Z" fill="#7C868A"/>
<path d="M16.1675 17.497C16.1675 18.8228 15.1193 19.8782 13.8007 19.8797C12.4822 19.8797 11.4282 18.8257 11.4268 17.5028C11.4268 16.1785 12.4735 15.1245 13.795 15.1231C15.1178 15.1202 16.1675 16.1712 16.1675 17.4985V17.497Z" fill="#7C868A"/>
</svg>
