<svg width="36" height="35" viewBox="0 0 36 35" fill="none" xmlns="http://www.w3.org/2000/svg">
<circle cx="18" cy="17.5" r="16.9067" stroke="#2E2E2E" stroke-width="1.18667"/>
<circle cx="18" cy="17.5" r="16.9067" stroke="black" stroke-opacity="0.2" stroke-width="1.18667"/>
<circle cx="18" cy="17.5" r="16.9067" stroke="black" stroke-opacity="0.2" stroke-width="1.18667"/>
<circle cx="18" cy="17.5" r="16.9067" stroke="black" stroke-opacity="0.2" stroke-width="1.18667"/>
<circle cx="18" cy="17.5" r="16.9067" stroke="black" stroke-opacity="0.2" stroke-width="1.18667"/>
<circle cx="18" cy="17.5" r="16.9067" stroke="black" stroke-opacity="0.2" stroke-width="1.18667"/>
<circle cx="18" cy="17.5" r="16.9067" stroke="black" stroke-opacity="0.2" stroke-width="1.18667"/>
<circle cx="18" cy="17.5" r="16.9067" stroke="black" stroke-opacity="0.2" stroke-width="1.18667"/>
<circle cx="18" cy="17.5" r="16.9067" stroke="black" stroke-opacity="0.2" stroke-width="1.18667"/>
<circle cx="18" cy="17.5" r="16.9067" stroke="black" stroke-opacity="0.2" stroke-width="1.18667"/>
<circle cx="18" cy="17.5" r="16.9067" stroke="black" stroke-opacity="0.2" stroke-width="1.18667"/>
<circle cx="18" cy="17.5" r="16.9067" stroke="black" stroke-opacity="0.2" stroke-width="1.18667"/>
<circle cx="18" cy="17.5" r="16.9067" stroke="black" stroke-opacity="0.2" stroke-width="1.18667"/>
<circle cx="18" cy="17.5" r="16.9067" stroke="black" stroke-opacity="0.2" stroke-width="1.18667"/>
<path d="M19.6269 10.2128L11.4169 18.9028C11.1069 19.2328 10.8069 19.8828 10.7469 20.3328L10.3769 23.5728C10.2469 24.7428 11.0869 25.5428 12.2469 25.3428L15.4669 24.7928C15.9169 24.7128 16.5469 24.3828 16.8569 24.0428L25.0669 15.3528C26.4869 13.8528 27.1269 12.1428 24.9169 10.0528C22.7169 7.98277 21.0469 8.71277 19.6269 10.2128Z" stroke="#2E2E2E" stroke-width="1.5" stroke-miterlimit="10" stroke-linecap="round" stroke-linejoin="round"/>
<path d="M19.6269 10.2128L11.4169 18.9028C11.1069 19.2328 10.8069 19.8828 10.7469 20.3328L10.3769 23.5728C10.2469 24.7428 11.0869 25.5428 12.2469 25.3428L15.4669 24.7928C15.9169 24.7128 16.5469 24.3828 16.8569 24.0428L25.0669 15.3528C26.4869 13.8528 27.1269 12.1428 24.9169 10.0528C22.7169 7.98277 21.0469 8.71277 19.6269 10.2128Z" stroke="black" stroke-opacity="0.2" stroke-width="1.5" stroke-miterlimit="10" stroke-linecap="round" stroke-linejoin="round"/>
<path d="M19.6269 10.2128L11.4169 18.9028C11.1069 19.2328 10.8069 19.8828 10.7469 20.3328L10.3769 23.5728C10.2469 24.7428 11.0869 25.5428 12.2469 25.3428L15.4669 24.7928C15.9169 24.7128 16.5469 24.3828 16.8569 24.0428L25.0669 15.3528C26.4869 13.8528 27.1269 12.1428 24.9169 10.0528C22.7169 7.98277 21.0469 8.71277 19.6269 10.2128Z" stroke="black" stroke-opacity="0.2" stroke-width="1.5" stroke-miterlimit="10" stroke-linecap="round" stroke-linejoin="round"/>
<path d="M19.6269 10.2128L11.4169 18.9028C11.1069 19.2328 10.8069 19.8828 10.7469 20.3328L10.3769 23.5728C10.2469 24.7428 11.0869 25.5428 12.2469 25.3428L15.4669 24.7928C15.9169 24.7128 16.5469 24.3828 16.8569 24.0428L25.0669 15.3528C26.4869 13.8528 27.1269 12.1428 24.9169 10.0528C22.7169 7.98277 21.0469 8.71277 19.6269 10.2128Z" stroke="black" stroke-opacity="0.2" stroke-width="1.5" stroke-miterlimit="10" stroke-linecap="round" stroke-linejoin="round"/>
<path d="M19.6269 10.2128L11.4169 18.9028C11.1069 19.2328 10.8069 19.8828 10.7469 20.3328L10.3769 23.5728C10.2469 24.7428 11.0869 25.5428 12.2469 25.3428L15.4669 24.7928C15.9169 24.7128 16.5469 24.3828 16.8569 24.0428L25.0669 15.3528C26.4869 13.8528 27.1269 12.1428 24.9169 10.0528C22.7169 7.98277 21.0469 8.71277 19.6269 10.2128Z" stroke="black" stroke-opacity="0.2" stroke-width="1.5" stroke-miterlimit="10" stroke-linecap="round" stroke-linejoin="round"/>
<path d="M19.6269 10.2128L11.4169 18.9028C11.1069 19.2328 10.8069 19.8828 10.7469 20.3328L10.3769 23.5728C10.2469 24.7428 11.0869 25.5428 12.2469 25.3428L15.4669 24.7928C15.9169 24.7128 16.5469 24.3828 16.8569 24.0428L25.0669 15.3528C26.4869 13.8528 27.1269 12.1428 24.9169 10.0528C22.7169 7.98277 21.0469 8.71277 19.6269 10.2128Z" stroke="black" stroke-opacity="0.2" stroke-width="1.5" stroke-miterlimit="10" stroke-linecap="round" stroke-linejoin="round"/>
<path d="M19.6269 10.2128L11.4169 18.9028C11.1069 19.2328 10.8069 19.8828 10.7469 20.3328L10.3769 23.5728C10.2469 24.7428 11.0869 25.5428 12.2469 25.3428L15.4669 24.7928C15.9169 24.7128 16.5469 24.3828 16.8569 24.0428L25.0669 15.3528C26.4869 13.8528 27.1269 12.1428 24.9169 10.0528C22.7169 7.98277 21.0469 8.71277 19.6269 10.2128Z" stroke="black" stroke-opacity="0.2" stroke-width="1.5" stroke-miterlimit="10" stroke-linecap="round" stroke-linejoin="round"/>
<path d="M19.6269 10.2128L11.4169 18.9028C11.1069 19.2328 10.8069 19.8828 10.7469 20.3328L10.3769 23.5728C10.2469 24.7428 11.0869 25.5428 12.2469 25.3428L15.4669 24.7928C15.9169 24.7128 16.5469 24.3828 16.8569 24.0428L25.0669 15.3528C26.4869 13.8528 27.1269 12.1428 24.9169 10.0528C22.7169 7.98277 21.0469 8.71277 19.6269 10.2128Z" stroke="black" stroke-opacity="0.2" stroke-width="1.5" stroke-miterlimit="10" stroke-linecap="round" stroke-linejoin="round"/>
<path d="M19.6269 10.2128L11.4169 18.9028C11.1069 19.2328 10.8069 19.8828 10.7469 20.3328L10.3769 23.5728C10.2469 24.7428 11.0869 25.5428 12.2469 25.3428L15.4669 24.7928C15.9169 24.7128 16.5469 24.3828 16.8569 24.0428L25.0669 15.3528C26.4869 13.8528 27.1269 12.1428 24.9169 10.0528C22.7169 7.98277 21.0469 8.71277 19.6269 10.2128Z" stroke="black" stroke-opacity="0.2" stroke-width="1.5" stroke-miterlimit="10" stroke-linecap="round" stroke-linejoin="round"/>
<path d="M19.6269 10.2128L11.4169 18.9028C11.1069 19.2328 10.8069 19.8828 10.7469 20.3328L10.3769 23.5728C10.2469 24.7428 11.0869 25.5428 12.2469 25.3428L15.4669 24.7928C15.9169 24.7128 16.5469 24.3828 16.8569 24.0428L25.0669 15.3528C26.4869 13.8528 27.1269 12.1428 24.9169 10.0528C22.7169 7.98277 21.0469 8.71277 19.6269 10.2128Z" stroke="black" stroke-opacity="0.2" stroke-width="1.5" stroke-miterlimit="10" stroke-linecap="round" stroke-linejoin="round"/>
<path d="M19.6269 10.2128L11.4169 18.9028C11.1069 19.2328 10.8069 19.8828 10.7469 20.3328L10.3769 23.5728C10.2469 24.7428 11.0869 25.5428 12.2469 25.3428L15.4669 24.7928C15.9169 24.7128 16.5469 24.3828 16.8569 24.0428L25.0669 15.3528C26.4869 13.8528 27.1269 12.1428 24.9169 10.0528C22.7169 7.98277 21.0469 8.71277 19.6269 10.2128Z" stroke="black" stroke-opacity="0.2" stroke-width="1.5" stroke-miterlimit="10" stroke-linecap="round" stroke-linejoin="round"/>
<path d="M19.6269 10.2128L11.4169 18.9028C11.1069 19.2328 10.8069 19.8828 10.7469 20.3328L10.3769 23.5728C10.2469 24.7428 11.0869 25.5428 12.2469 25.3428L15.4669 24.7928C15.9169 24.7128 16.5469 24.3828 16.8569 24.0428L25.0669 15.3528C26.4869 13.8528 27.1269 12.1428 24.9169 10.0528C22.7169 7.98277 21.0469 8.71277 19.6269 10.2128Z" stroke="black" stroke-opacity="0.2" stroke-width="1.5" stroke-miterlimit="10" stroke-linecap="round" stroke-linejoin="round"/>
<path d="M19.6269 10.2128L11.4169 18.9028C11.1069 19.2328 10.8069 19.8828 10.7469 20.3328L10.3769 23.5728C10.2469 24.7428 11.0869 25.5428 12.2469 25.3428L15.4669 24.7928C15.9169 24.7128 16.5469 24.3828 16.8569 24.0428L25.0669 15.3528C26.4869 13.8528 27.1269 12.1428 24.9169 10.0528C22.7169 7.98277 21.0469 8.71277 19.6269 10.2128Z" stroke="black" stroke-opacity="0.2" stroke-width="1.5" stroke-miterlimit="10" stroke-linecap="round" stroke-linejoin="round"/>
<path d="M19.6269 10.2128L11.4169 18.9028C11.1069 19.2328 10.8069 19.8828 10.7469 20.3328L10.3769 23.5728C10.2469 24.7428 11.0869 25.5428 12.2469 25.3428L15.4669 24.7928C15.9169 24.7128 16.5469 24.3828 16.8569 24.0428L25.0669 15.3528C26.4869 13.8528 27.1269 12.1428 24.9169 10.0528C22.7169 7.98277 21.0469 8.71277 19.6269 10.2128Z" stroke="black" stroke-opacity="0.2" stroke-width="1.5" stroke-miterlimit="10" stroke-linecap="round" stroke-linejoin="round"/>
<path d="M18.2567 11.6536C18.6867 14.4136 20.9267 16.5236 23.7067 16.8036" stroke="#2E2E2E" stroke-width="1.5" stroke-miterlimit="10" stroke-linecap="round" stroke-linejoin="round"/>
<path d="M18.2567 11.6536C18.6867 14.4136 20.9267 16.5236 23.7067 16.8036" stroke="black" stroke-opacity="0.2" stroke-width="1.5" stroke-miterlimit="10" stroke-linecap="round" stroke-linejoin="round"/>
<path d="M18.2567 11.6536C18.6867 14.4136 20.9267 16.5236 23.7067 16.8036" stroke="black" stroke-opacity="0.2" stroke-width="1.5" stroke-miterlimit="10" stroke-linecap="round" stroke-linejoin="round"/>
<path d="M18.2567 11.6536C18.6867 14.4136 20.9267 16.5236 23.7067 16.8036" stroke="black" stroke-opacity="0.2" stroke-width="1.5" stroke-miterlimit="10" stroke-linecap="round" stroke-linejoin="round"/>
<path d="M18.2567 11.6536C18.6867 14.4136 20.9267 16.5236 23.7067 16.8036" stroke="black" stroke-opacity="0.2" stroke-width="1.5" stroke-miterlimit="10" stroke-linecap="round" stroke-linejoin="round"/>
<path d="M18.2567 11.6536C18.6867 14.4136 20.9267 16.5236 23.7067 16.8036" stroke="black" stroke-opacity="0.2" stroke-width="1.5" stroke-miterlimit="10" stroke-linecap="round" stroke-linejoin="round"/>
<path d="M18.2567 11.6536C18.6867 14.4136 20.9267 16.5236 23.7067 16.8036" stroke="black" stroke-opacity="0.2" stroke-width="1.5" stroke-miterlimit="10" stroke-linecap="round" stroke-linejoin="round"/>
<path d="M18.2567 11.6536C18.6867 14.4136 20.9267 16.5236 23.7067 16.8036" stroke="black" stroke-opacity="0.2" stroke-width="1.5" stroke-miterlimit="10" stroke-linecap="round" stroke-linejoin="round"/>
<path d="M18.2567 11.6536C18.6867 14.4136 20.9267 16.5236 23.7067 16.8036" stroke="black" stroke-opacity="0.2" stroke-width="1.5" stroke-miterlimit="10" stroke-linecap="round" stroke-linejoin="round"/>
<path d="M18.2567 11.6536C18.6867 14.4136 20.9267 16.5236 23.7067 16.8036" stroke="black" stroke-opacity="0.2" stroke-width="1.5" stroke-miterlimit="10" stroke-linecap="round" stroke-linejoin="round"/>
<path d="M18.2567 11.6536C18.6867 14.4136 20.9267 16.5236 23.7067 16.8036" stroke="black" stroke-opacity="0.2" stroke-width="1.5" stroke-miterlimit="10" stroke-linecap="round" stroke-linejoin="round"/>
<path d="M18.2567 11.6536C18.6867 14.4136 20.9267 16.5236 23.7067 16.8036" stroke="black" stroke-opacity="0.2" stroke-width="1.5" stroke-miterlimit="10" stroke-linecap="round" stroke-linejoin="round"/>
<path d="M18.2567 11.6536C18.6867 14.4136 20.9267 16.5236 23.7067 16.8036" stroke="black" stroke-opacity="0.2" stroke-width="1.5" stroke-miterlimit="10" stroke-linecap="round" stroke-linejoin="round"/>
<path d="M18.2567 11.6536C18.6867 14.4136 20.9267 16.5236 23.7067 16.8036" stroke="black" stroke-opacity="0.2" stroke-width="1.5" stroke-miterlimit="10" stroke-linecap="round" stroke-linejoin="round"/>
</svg>
