<svg width="21" height="21" viewBox="0 0 21 21" fill="none" xmlns="http://www.w3.org/2000/svg">
<path d="M11.9235 4.12346L4.73973 11.7272C4.46848 12.016 4.20598 12.5847 4.15348 12.9785L3.82973 15.8135C3.71598 16.8372 4.45098 17.5372 5.46598 17.3622L8.28348 16.881C8.67723 16.811 9.22848 16.5222 9.49973 16.2247L16.6835 8.62096C17.926 7.30846 18.486 5.81221 16.5522 3.98346C14.6272 2.17221 13.166 2.81096 11.9235 4.12346Z" stroke="#2E2E2E" stroke-width="1.5" stroke-miterlimit="10" stroke-linecap="round" stroke-linejoin="round"/>
<path d="M11.9235 4.12346L4.73973 11.7272C4.46848 12.016 4.20598 12.5847 4.15348 12.9785L3.82973 15.8135C3.71598 16.8372 4.45098 17.5372 5.46598 17.3622L8.28348 16.881C8.67723 16.811 9.22848 16.5222 9.49973 16.2247L16.6835 8.62096C17.926 7.30846 18.486 5.81221 16.5522 3.98346C14.6272 2.17221 13.166 2.81096 11.9235 4.12346Z" stroke="black" stroke-opacity="0.2" stroke-width="1.5" stroke-miterlimit="10" stroke-linecap="round" stroke-linejoin="round"/>
<path d="M11.9235 4.12346L4.73973 11.7272C4.46848 12.016 4.20598 12.5847 4.15348 12.9785L3.82973 15.8135C3.71598 16.8372 4.45098 17.5372 5.46598 17.3622L8.28348 16.881C8.67723 16.811 9.22848 16.5222 9.49973 16.2247L16.6835 8.62096C17.926 7.30846 18.486 5.81221 16.5522 3.98346C14.6272 2.17221 13.166 2.81096 11.9235 4.12346Z" stroke="black" stroke-opacity="0.2" stroke-width="1.5" stroke-miterlimit="10" stroke-linecap="round" stroke-linejoin="round"/>
<path d="M11.9235 4.12346L4.73973 11.7272C4.46848 12.016 4.20598 12.5847 4.15348 12.9785L3.82973 15.8135C3.71598 16.8372 4.45098 17.5372 5.46598 17.3622L8.28348 16.881C8.67723 16.811 9.22848 16.5222 9.49973 16.2247L16.6835 8.62096C17.926 7.30846 18.486 5.81221 16.5522 3.98346C14.6272 2.17221 13.166 2.81096 11.9235 4.12346Z" stroke="black" stroke-opacity="0.2" stroke-width="1.5" stroke-miterlimit="10" stroke-linecap="round" stroke-linejoin="round"/>
<path d="M11.9235 4.12346L4.73973 11.7272C4.46848 12.016 4.20598 12.5847 4.15348 12.9785L3.82973 15.8135C3.71598 16.8372 4.45098 17.5372 5.46598 17.3622L8.28348 16.881C8.67723 16.811 9.22848 16.5222 9.49973 16.2247L16.6835 8.62096C17.926 7.30846 18.486 5.81221 16.5522 3.98346C14.6272 2.17221 13.166 2.81096 11.9235 4.12346Z" stroke="black" stroke-opacity="0.2" stroke-width="1.5" stroke-miterlimit="10" stroke-linecap="round" stroke-linejoin="round"/>
<path d="M11.9235 4.12346L4.73973 11.7272C4.46848 12.016 4.20598 12.5847 4.15348 12.9785L3.82973 15.8135C3.71598 16.8372 4.45098 17.5372 5.46598 17.3622L8.28348 16.881C8.67723 16.811 9.22848 16.5222 9.49973 16.2247L16.6835 8.62096C17.926 7.30846 18.486 5.81221 16.5522 3.98346C14.6272 2.17221 13.166 2.81096 11.9235 4.12346Z" stroke="black" stroke-opacity="0.2" stroke-width="1.5" stroke-miterlimit="10" stroke-linecap="round" stroke-linejoin="round"/>
<path d="M11.9235 4.12346L4.73973 11.7272C4.46848 12.016 4.20598 12.5847 4.15348 12.9785L3.82973 15.8135C3.71598 16.8372 4.45098 17.5372 5.46598 17.3622L8.28348 16.881C8.67723 16.811 9.22848 16.5222 9.49973 16.2247L16.6835 8.62096C17.926 7.30846 18.486 5.81221 16.5522 3.98346C14.6272 2.17221 13.166 2.81096 11.9235 4.12346Z" stroke="black" stroke-opacity="0.2" stroke-width="1.5" stroke-miterlimit="10" stroke-linecap="round" stroke-linejoin="round"/>
<path d="M11.9235 4.12346L4.73973 11.7272C4.46848 12.016 4.20598 12.5847 4.15348 12.9785L3.82973 15.8135C3.71598 16.8372 4.45098 17.5372 5.46598 17.3622L8.28348 16.881C8.67723 16.811 9.22848 16.5222 9.49973 16.2247L16.6835 8.62096C17.926 7.30846 18.486 5.81221 16.5522 3.98346C14.6272 2.17221 13.166 2.81096 11.9235 4.12346Z" stroke="black" stroke-opacity="0.2" stroke-width="1.5" stroke-miterlimit="10" stroke-linecap="round" stroke-linejoin="round"/>
<path d="M11.9235 4.12346L4.73973 11.7272C4.46848 12.016 4.20598 12.5847 4.15348 12.9785L3.82973 15.8135C3.71598 16.8372 4.45098 17.5372 5.46598 17.3622L8.28348 16.881C8.67723 16.811 9.22848 16.5222 9.49973 16.2247L16.6835 8.62096C17.926 7.30846 18.486 5.81221 16.5522 3.98346C14.6272 2.17221 13.166 2.81096 11.9235 4.12346Z" stroke="black" stroke-opacity="0.2" stroke-width="1.5" stroke-miterlimit="10" stroke-linecap="round" stroke-linejoin="round"/>
<path d="M11.9235 4.12346L4.73973 11.7272C4.46848 12.016 4.20598 12.5847 4.15348 12.9785L3.82973 15.8135C3.71598 16.8372 4.45098 17.5372 5.46598 17.3622L8.28348 16.881C8.67723 16.811 9.22848 16.5222 9.49973 16.2247L16.6835 8.62096C17.926 7.30846 18.486 5.81221 16.5522 3.98346C14.6272 2.17221 13.166 2.81096 11.9235 4.12346Z" stroke="black" stroke-opacity="0.2" stroke-width="1.5" stroke-miterlimit="10" stroke-linecap="round" stroke-linejoin="round"/>
<path d="M11.9235 4.12346L4.73973 11.7272C4.46848 12.016 4.20598 12.5847 4.15348 12.9785L3.82973 15.8135C3.71598 16.8372 4.45098 17.5372 5.46598 17.3622L8.28348 16.881C8.67723 16.811 9.22848 16.5222 9.49973 16.2247L16.6835 8.62096C17.926 7.30846 18.486 5.81221 16.5522 3.98346C14.6272 2.17221 13.166 2.81096 11.9235 4.12346Z" stroke="black" stroke-opacity="0.2" stroke-width="1.5" stroke-miterlimit="10" stroke-linecap="round" stroke-linejoin="round"/>
<path d="M11.9235 4.12346L4.73973 11.7272C4.46848 12.016 4.20598 12.5847 4.15348 12.9785L3.82973 15.8135C3.71598 16.8372 4.45098 17.5372 5.46598 17.3622L8.28348 16.881C8.67723 16.811 9.22848 16.5222 9.49973 16.2247L16.6835 8.62096C17.926 7.30846 18.486 5.81221 16.5522 3.98346C14.6272 2.17221 13.166 2.81096 11.9235 4.12346Z" stroke="black" stroke-opacity="0.2" stroke-width="1.5" stroke-miterlimit="10" stroke-linecap="round" stroke-linejoin="round"/>
<path d="M11.9235 4.12346L4.73973 11.7272C4.46848 12.016 4.20598 12.5847 4.15348 12.9785L3.82973 15.8135C3.71598 16.8372 4.45098 17.5372 5.46598 17.3622L8.28348 16.881C8.67723 16.811 9.22848 16.5222 9.49973 16.2247L16.6835 8.62096C17.926 7.30846 18.486 5.81221 16.5522 3.98346C14.6272 2.17221 13.166 2.81096 11.9235 4.12346Z" stroke="black" stroke-opacity="0.2" stroke-width="1.5" stroke-miterlimit="10" stroke-linecap="round" stroke-linejoin="round"/>
<path d="M11.9235 4.12346L4.73973 11.7272C4.46848 12.016 4.20598 12.5847 4.15348 12.9785L3.82973 15.8135C3.71598 16.8372 4.45098 17.5372 5.46598 17.3622L8.28348 16.881C8.67723 16.811 9.22848 16.5222 9.49973 16.2247L16.6835 8.62096C17.926 7.30846 18.486 5.81221 16.5522 3.98346C14.6272 2.17221 13.166 2.81096 11.9235 4.12346Z" stroke="black" stroke-opacity="0.2" stroke-width="1.5" stroke-miterlimit="10" stroke-linecap="round" stroke-linejoin="round"/>
<path d="M10.7246 5.38428C11.1009 7.79928 13.0609 9.64553 15.4934 9.89053" stroke="#2E2E2E" stroke-width="1.5" stroke-miterlimit="10" stroke-linecap="round" stroke-linejoin="round"/>
<path d="M10.7246 5.38428C11.1009 7.79928 13.0609 9.64553 15.4934 9.89053" stroke="black" stroke-opacity="0.2" stroke-width="1.5" stroke-miterlimit="10" stroke-linecap="round" stroke-linejoin="round"/>
<path d="M10.7246 5.38428C11.1009 7.79928 13.0609 9.64553 15.4934 9.89053" stroke="black" stroke-opacity="0.2" stroke-width="1.5" stroke-miterlimit="10" stroke-linecap="round" stroke-linejoin="round"/>
<path d="M10.7246 5.38428C11.1009 7.79928 13.0609 9.64553 15.4934 9.89053" stroke="black" stroke-opacity="0.2" stroke-width="1.5" stroke-miterlimit="10" stroke-linecap="round" stroke-linejoin="round"/>
<path d="M10.7246 5.38428C11.1009 7.79928 13.0609 9.64553 15.4934 9.89053" stroke="black" stroke-opacity="0.2" stroke-width="1.5" stroke-miterlimit="10" stroke-linecap="round" stroke-linejoin="round"/>
<path d="M10.7246 5.38428C11.1009 7.79928 13.0609 9.64553 15.4934 9.89053" stroke="black" stroke-opacity="0.2" stroke-width="1.5" stroke-miterlimit="10" stroke-linecap="round" stroke-linejoin="round"/>
<path d="M10.7246 5.38428C11.1009 7.79928 13.0609 9.64553 15.4934 9.89053" stroke="black" stroke-opacity="0.2" stroke-width="1.5" stroke-miterlimit="10" stroke-linecap="round" stroke-linejoin="round"/>
<path d="M10.7246 5.38428C11.1009 7.79928 13.0609 9.64553 15.4934 9.89053" stroke="black" stroke-opacity="0.2" stroke-width="1.5" stroke-miterlimit="10" stroke-linecap="round" stroke-linejoin="round"/>
<path d="M10.7246 5.38428C11.1009 7.79928 13.0609 9.64553 15.4934 9.89053" stroke="black" stroke-opacity="0.2" stroke-width="1.5" stroke-miterlimit="10" stroke-linecap="round" stroke-linejoin="round"/>
<path d="M10.7246 5.38428C11.1009 7.79928 13.0609 9.64553 15.4934 9.89053" stroke="black" stroke-opacity="0.2" stroke-width="1.5" stroke-miterlimit="10" stroke-linecap="round" stroke-linejoin="round"/>
<path d="M10.7246 5.38428C11.1009 7.79928 13.0609 9.64553 15.4934 9.89053" stroke="black" stroke-opacity="0.2" stroke-width="1.5" stroke-miterlimit="10" stroke-linecap="round" stroke-linejoin="round"/>
<path d="M10.7246 5.38428C11.1009 7.79928 13.0609 9.64553 15.4934 9.89053" stroke="black" stroke-opacity="0.2" stroke-width="1.5" stroke-miterlimit="10" stroke-linecap="round" stroke-linejoin="round"/>
<path d="M10.7246 5.38428C11.1009 7.79928 13.0609 9.64553 15.4934 9.89053" stroke="black" stroke-opacity="0.2" stroke-width="1.5" stroke-miterlimit="10" stroke-linecap="round" stroke-linejoin="round"/>
<path d="M10.7246 5.38428C11.1009 7.79928 13.0609 9.64553 15.4934 9.89053" stroke="black" stroke-opacity="0.2" stroke-width="1.5" stroke-miterlimit="10" stroke-linecap="round" stroke-linejoin="round"/>
</svg>
