<svg width="38" height="38" viewBox="0 0 38 38" fill="none" xmlns="http://www.w3.org/2000/svg">
<circle cx="19.2468" cy="19.2468" r="17.0065" fill="#2E2E2E"/>
<circle cx="19.2468" cy="19.2468" r="17.0065" fill="black" fill-opacity="0.2"/>
<circle cx="19.2468" cy="19.2468" r="17.0065" fill="black" fill-opacity="0.2"/>
<circle cx="19.2468" cy="19.2468" r="17.0065" fill="black" fill-opacity="0.2"/>
<circle cx="19.2468" cy="19.2468" r="17.0065" fill="black" fill-opacity="0.2"/>
<circle cx="19.2468" cy="19.2468" r="17.0065" fill="black" fill-opacity="0.2"/>
<circle cx="19.2468" cy="19.2468" r="17.0065" fill="black" fill-opacity="0.2"/>
<circle cx="19.2468" cy="19.2468" r="17.0065" fill="black" fill-opacity="0.2"/>
<circle cx="19.2468" cy="19.2468" r="17.0065" fill="black" fill-opacity="0.2"/>
<circle cx="19.2468" cy="19.2468" r="17.0065" fill="black" fill-opacity="0.2"/>
<circle cx="19.2468" cy="19.2468" r="17.0065" fill="black" fill-opacity="0.2"/>
<circle cx="19.2468" cy="19.2468" r="17.0065" fill="black" fill-opacity="0.2"/>
<circle cx="19.2468" cy="19.2468" r="17.0065" fill="black" fill-opacity="0.2"/>
<circle cx="19.2468" cy="19.2468" r="17.0065" fill="black" fill-opacity="0.2"/>
<circle cx="19.2468" cy="19.2468" r="17.0065" stroke="white" stroke-width="2.51948"/>
<path d="M20.7962 12.492L12.961 20.7853C12.6651 21.1003 12.3788 21.7206 12.3216 22.15L11.9685 25.2421C11.8444 26.3587 12.6461 27.1222 13.7531 26.9313L16.8261 26.4064C17.2556 26.3301 17.8568 26.0152 18.1527 25.6907L25.9879 17.3974C27.343 15.9659 27.9538 14.3339 25.8447 12.3393C23.7451 10.3638 22.1514 11.0605 20.7962 12.492Z" fill="white"/>
<path d="M19.4861 13.8638C19.8965 16.4978 22.0342 18.5114 24.6873 18.7787" stroke="#2E2E2E" stroke-width="1.51169" stroke-miterlimit="10" stroke-linecap="round" stroke-linejoin="round"/>
<path d="M19.4861 13.8638C19.8965 16.4978 22.0342 18.5114 24.6873 18.7787" stroke="black" stroke-opacity="0.2" stroke-width="1.51169" stroke-miterlimit="10" stroke-linecap="round" stroke-linejoin="round"/>
<path d="M19.4861 13.8638C19.8965 16.4978 22.0342 18.5114 24.6873 18.7787" stroke="black" stroke-opacity="0.2" stroke-width="1.51169" stroke-miterlimit="10" stroke-linecap="round" stroke-linejoin="round"/>
<path d="M19.4861 13.8638C19.8965 16.4978 22.0342 18.5114 24.6873 18.7787" stroke="black" stroke-opacity="0.2" stroke-width="1.51169" stroke-miterlimit="10" stroke-linecap="round" stroke-linejoin="round"/>
<path d="M19.4861 13.8638C19.8965 16.4978 22.0342 18.5114 24.6873 18.7787" stroke="black" stroke-opacity="0.2" stroke-width="1.51169" stroke-miterlimit="10" stroke-linecap="round" stroke-linejoin="round"/>
<path d="M19.4861 13.8638C19.8965 16.4978 22.0342 18.5114 24.6873 18.7787" stroke="black" stroke-opacity="0.2" stroke-width="1.51169" stroke-miterlimit="10" stroke-linecap="round" stroke-linejoin="round"/>
<path d="M19.4861 13.8638C19.8965 16.4978 22.0342 18.5114 24.6873 18.7787" stroke="black" stroke-opacity="0.2" stroke-width="1.51169" stroke-miterlimit="10" stroke-linecap="round" stroke-linejoin="round"/>
<path d="M19.4861 13.8638C19.8965 16.4978 22.0342 18.5114 24.6873 18.7787" stroke="black" stroke-opacity="0.2" stroke-width="1.51169" stroke-miterlimit="10" stroke-linecap="round" stroke-linejoin="round"/>
<path d="M19.4861 13.8638C19.8965 16.4978 22.0342 18.5114 24.6873 18.7787" stroke="black" stroke-opacity="0.2" stroke-width="1.51169" stroke-miterlimit="10" stroke-linecap="round" stroke-linejoin="round"/>
<path d="M19.4861 13.8638C19.8965 16.4978 22.0342 18.5114 24.6873 18.7787" stroke="black" stroke-opacity="0.2" stroke-width="1.51169" stroke-miterlimit="10" stroke-linecap="round" stroke-linejoin="round"/>
<path d="M19.4861 13.8638C19.8965 16.4978 22.0342 18.5114 24.6873 18.7787" stroke="black" stroke-opacity="0.2" stroke-width="1.51169" stroke-miterlimit="10" stroke-linecap="round" stroke-linejoin="round"/>
<path d="M19.4861 13.8638C19.8965 16.4978 22.0342 18.5114 24.6873 18.7787" stroke="black" stroke-opacity="0.2" stroke-width="1.51169" stroke-miterlimit="10" stroke-linecap="round" stroke-linejoin="round"/>
<path d="M19.4861 13.8638C19.8965 16.4978 22.0342 18.5114 24.6873 18.7787" stroke="black" stroke-opacity="0.2" stroke-width="1.51169" stroke-miterlimit="10" stroke-linecap="round" stroke-linejoin="round"/>
<path d="M19.4861 13.8638C19.8965 16.4978 22.0342 18.5114 24.6873 18.7787" stroke="black" stroke-opacity="0.2" stroke-width="1.51169" stroke-miterlimit="10" stroke-linecap="round" stroke-linejoin="round"/>
</svg>
