<svg width="21" height="21" viewBox="0 0 21 21" fill="none" xmlns="http://www.w3.org/2000/svg">
<path d="M7.87512 19.25H13.1251C17.5001 19.25 19.2501 17.5 19.2501 13.125V7.875C19.2501 3.5 17.5001 1.75 13.1251 1.75H7.87512C3.50012 1.75 1.75012 3.5 1.75012 7.875V13.125C1.75012 17.5 3.50012 19.25 7.87512 19.25Z" stroke="#292D32" stroke-width="1.5" stroke-linecap="round" stroke-linejoin="round"/>
<path d="M7.87488 8.75C8.84138 8.75 9.62488 7.9665 9.62488 7C9.62488 6.0335 8.84138 5.25 7.87488 5.25C6.90838 5.25 6.12488 6.0335 6.12488 7C6.12488 7.9665 6.90838 8.75 7.87488 8.75Z" stroke="#292D32" stroke-width="1.5" stroke-linecap="round" stroke-linejoin="round"/>
<path d="M2.3363 16.5815L6.65005 13.6852C7.3413 13.2215 8.3388 13.274 8.96005 13.8077L9.2488 14.0615C9.9313 14.6477 11.0338 14.6477 11.7163 14.0615L15.3563 10.9377C16.0388 10.3515 17.1413 10.3515 17.8238 10.9377L19.2501 12.1627" stroke="#292D32" stroke-width="1.5" stroke-linecap="round" stroke-linejoin="round"/>
</svg>
