<svg width="68" height="68" viewBox="0 0 68 68" fill="none" xmlns="http://www.w3.org/2000/svg">
<path d="M65.8084 33.9883C65.8084 51.6522 51.114 65.9881 33.0085 65.9881C14.9029 65.9881 3.84936 48.1962 3.84936 48.1962M3.84936 48.1962L10.4749 49.7572M3.84936 48.1962L3.40918 54.8174" stroke="#0A7170" stroke-width="2.74284" stroke-linecap="round" stroke-linejoin="round"/>
<path d="M1.80883 33.9883C1.80883 16.3244 16.5032 1.98847 34.6087 1.98847C52.7143 1.98847 63.7678 19.7804 63.7678 19.7804M63.7678 19.7804L57.1423 18.2194M63.7678 19.7804L64.208 12.6713" stroke="#0A7170" stroke-width="2.74284" stroke-linecap="round" stroke-linejoin="round"/>
<ellipse cx="33.6055" cy="33.5883" rx="25.6436" ry="25.018" fill="#0A7170"/>
<path d="M33.6051 56.1442C46.4527 56.1442 56.8943 45.9793 56.8943 33.4078C56.8943 20.8363 46.4527 10.6714 33.6051 10.6714C20.7575 10.6714 10.3159 20.8363 10.3159 33.4078C10.3159 45.9793 20.7575 56.1442 33.6051 56.1442Z" stroke="white" stroke-width="1.25489"/>
<path d="M25.4866 30.2432C24.7921 30.6095 24.1967 31.3688 25.1939 31.9249C25.4966 32.0971 26.5136 32.0176 26.9205 31.2143C27.0395 30.9759 27.0395 30.636 27.0098 30.2741L25.4866 30.2432Z" fill="white"/>
<path d="M47.8975 44.776L47.4063 40.2206C47.3567 39.6998 46.9449 38.4329 45.8931 37.2764C46.2602 36.707 46.7514 35.7359 46.9003 34.4602C47.1483 32.3459 46.1908 30.9687 45.7195 30.4875C45.645 30.4081 45.4466 30.3683 45.2928 30.4566C45.1489 30.5405 45.0993 30.7435 45.1936 30.8716L45.2928 30.9775C45.6748 31.3571 46.2652 32.1693 46.037 33.3037C45.8435 34.2748 45.1638 34.9458 44.3997 35.2724C44.0772 35.4093 43.7299 35.5019 43.3876 35.5593C42.8667 35.3563 42.2912 35.193 41.6462 35.0959C40.7432 34.9634 39.8998 34.9237 39.3143 34.6721C37.6771 33.9614 37.0718 33.339 36.5509 32.5004C36.2234 31.9751 36.0498 31.5602 35.9753 31.1143C35.8215 30.2138 35.117 22.3435 35.122 22.1051C35.1567 20.0702 34.1248 19.0594 34.1248 19.0594C34.1248 19.0594 32.9886 19.3066 32.4379 20.3351C32.2295 20.7235 32.1154 21.2091 32.2345 21.827C32.2295 21.8138 31.6937 21.549 31.0735 21.4518C30.6369 21.3856 30.2549 21.4121 29.853 21.4695C29.8381 21.4739 29.8431 21.4474 29.8381 21.4386C29.5355 20.6088 29.2974 18.9005 27.1987 18.6577C27.1987 18.6577 25.6557 20.0437 27.2781 21.6019C26.9804 21.315 26.3652 21.9374 26.0278 21.9771C24.7131 22.1272 24.465 23.1115 24.5245 23.6015C24.6089 24.2945 24.9065 24.2592 25.0306 24.7139C25.1447 25.1244 24.9016 25.5349 24.4551 25.707C23.5422 26.0558 22.1183 25.6717 21.7908 25.5526C21.7908 25.5526 20.8482 25.2965 20.3719 26.0337C19.6277 27.1814 21.2103 27.7331 21.2103 27.7331C21.2103 27.7331 21.761 30.2006 25.3283 30.7259C27.6998 31.0746 29.4462 29.3001 29.4462 29.3001C29.4462 29.3001 30.5575 29.8166 30.3938 31.4719C30.3789 31.6131 30.369 31.8338 30.2053 31.9398C29.6794 32.2797 28.181 33.0212 27.1392 34.778C26.39 36.0361 25.9633 37.6207 26.4297 40.0573L26.8464 45.3631C26.9159 46.1002 27.4815 47.0007 28.3398 47.3759C29.3767 47.8306 30.7361 47.6805 30.7361 47.6805L29.9721 40.8077C29.9721 40.6532 30.1606 40.3133 30.5724 40.331C31.0041 40.3442 31.1331 40.6665 31.1331 40.8209L31.8525 47.3009C31.9914 47.9321 32.8398 47.6937 32.805 47.2523L32.1005 40.8651C32.0608 40.5075 32.3982 40.3222 32.7108 40.331C33.0878 40.3398 33.2565 40.6665 33.2565 40.8209L33.966 47.2082C33.9561 47.4774 34.1496 47.6937 34.4324 47.6937C34.7152 47.6937 34.9235 47.5083 34.9235 47.2567L34.2041 40.8474C34.2041 40.6929 34.3182 40.3619 34.7548 40.3354C35.1319 40.3133 35.3502 40.6311 35.3502 40.7856L36.0895 47.3715C36.1936 47.6496 36.4764 47.7423 36.7344 47.654C36.9378 47.5878 37.0569 47.3847 37.042 47.2567L36.3226 40.9004C36.278 40.64 36.536 40.3398 36.8535 40.331C37.1661 40.3222 37.4141 40.4634 37.4687 40.8033L38.198 47.2788C38.2675 47.9144 39.1953 47.729 39.1506 47.2567L38.4263 40.8739C38.4263 40.5958 38.6842 40.3398 38.9968 40.3398C39.3044 40.3398 39.5277 40.5164 39.5872 40.8077L40.3066 47.2567C40.381 47.9365 41.289 47.7423 41.2691 47.2567L40.5497 40.8739C40.5299 40.6356 40.7482 40.3795 41.0558 40.3398C41.4775 40.2913 41.7008 40.6444 41.7008 40.8033L42.4251 47.2567C42.435 47.526 42.6732 47.6893 42.8816 47.6937C43.1346 47.6981 43.3975 47.5039 43.3876 47.2656L42.6682 40.8872C42.6385 40.5914 42.9212 40.3398 43.2338 40.3398C43.5464 40.3398 43.7796 40.5384 43.8093 40.8033L44.5684 47.7025C44.5684 47.7025 45.9626 47.8438 46.9449 47.0802C47.8925 46.3342 47.967 45.3013 47.8975 44.776Z" fill="white"/>
<path d="M36.4271 30.4662C36.3973 30.3603 36.3824 30.272 36.4668 30.1087C36.6603 29.7379 36.4767 29.4024 35.4844 29.3803C34.2689 29.3539 32.4878 29.4863 31.7237 29.6408C30.9349 29.7997 29.3919 29.9851 29.1736 30.1484C29.0099 30.2676 28.9206 30.528 29.1984 30.7311C29.3423 30.837 29.5258 30.837 29.511 31.1327C29.506 31.2652 29.3224 31.4153 29.5655 31.6492C29.64 31.7198 29.7243 31.7419 29.8285 31.7375L30.3544 31.764C30.3693 31.7419 30.399 31.6095 30.399 31.6095C30.399 31.6095 30.4338 31.6006 30.4487 31.5962C30.9746 31.4638 31.6394 31.3049 31.6394 31.3049C32.4481 31.2078 34.2937 30.9297 35.5043 31.0577C35.6878 31.0754 35.8416 31.1063 35.9756 31.1283L36.0054 31.2696C36.0054 31.2696 36.3874 31.1725 36.5015 30.9959C36.6454 30.7708 36.4717 30.6207 36.4271 30.4662Z" fill="white"/>
</svg>
