<svg width="78" height="78" viewBox="0 0 78 78" fill="none" xmlns="http://www.w3.org/2000/svg">
<rect x="2.5" y="2.50781" width="73" height="73" rx="36.5" fill="#FF314A" stroke="white" stroke-width="5"/>
<path d="M43.1854 23.7693V23.0256H51.1554V22.1889H43.1865V21.4451H51.1548C51.1349 21.1598 51.0587 20.8791 50.9291 20.614H43.1865V19.8702H50.3773C49.3244 18.8736 47.9736 18.9275 47.9736 18.9275H43.5053C43.4867 18.115 44.4504 17.6748 44.8866 17.5214C45.1796 17.4248 45.4896 17.3677 45.8046 17.3522C45.8046 17.3522 48.8442 17.3266 49.5213 17.3522C49.913 17.3644 50.3009 17.4199 50.6746 17.5172C53.6584 18.379 53.699 20.6028 53.699 20.6028L53.7188 40.0769C53.718 40.3825 53.6679 40.6867 53.5698 40.9815C52.9807 42.5117 51.811 43.1197 50.9692 43.3898C50.4783 43.5512 49.9556 43.6372 49.4271 43.6436C49.4271 43.6436 46.3514 43.7124 45.7747 43.6436C45.1981 43.5748 44.8313 43.5404 44.1474 43.1076C44.1474 43.1076 43.5318 42.7948 43.5048 42.0636C43.5048 42.0636 47.8641 42.0636 48.0295 42.0636C48.1601 42.059 48.2903 42.0482 48.4193 42.0311C49.83 41.8214 50.3767 41.1232 50.3767 41.1232V41.12H43.1865V40.3762H50.9286C51.0652 40.1132 51.1417 39.8315 51.1543 39.5456H43.1865V38.8018H51.1554V37.9651H43.1865V37.2214H51.1554V36.3874H43.1865V35.6437H51.1554V34.8102H43.1865V34.0665H51.1554V33.2353H43.1865V32.4916H51.1554V31.6549H43.1865V30.9111H51.1554V30.0777H43.1865V29.3339H51.1554V28.4972H43.1865V27.7535H51.1554V26.9209H43.1865V26.1772H51.1554V25.3479H43.1865V24.6042H51.1554V23.7675L43.1854 23.7693Z" fill="white"/>
<path d="M28.8921 36.892L31.2506 31.5252L27.7914 19.157C27.768 19.0747 27.77 18.9871 27.7965 18.9059L28.2123 17.6318C28.2664 17.4656 28.415 17.3504 28.5855 17.3419C28.7585 17.3291 28.9155 17.4321 28.9857 17.5919L33.1798 30.3233L37.3745 17.5925C37.4446 17.4327 37.6047 17.3302 37.7747 17.3424C37.9456 17.3514 38.0938 17.4666 38.1478 17.6323L38.5636 18.9064C38.5896 18.9877 38.5917 19.0752 38.5688 19.1575L35.1095 31.5258L37.468 36.892C37.5647 36.8841 37.6598 36.8793 37.7533 36.8793C39.588 36.8788 41.0801 38.4029 41.0801 40.2765C41.0801 42.15 39.588 43.6742 37.7539 43.6742C35.9198 43.6742 34.4277 42.15 34.4277 40.2765C34.4277 39.298 34.8434 38.3711 35.5555 37.7292L34.4344 34.4408C34.159 33.9184 33.7115 33.5325 33.1866 33.3291C32.6476 33.5341 32.2001 33.92 31.9257 34.4408L30.8047 37.7292C31.5167 38.3711 31.9325 39.2975 31.9325 40.2765C31.9325 42.15 30.4404 43.6742 28.6063 43.6742C26.7722 43.6742 25.2801 42.15 25.2801 40.2765C25.2801 38.3063 26.9411 36.7126 28.8921 36.892ZM37.7539 41.5506C38.4415 41.5506 39.0012 40.9788 39.0012 40.2765C39.0012 39.5741 38.4415 39.0023 37.7539 39.0023C37.0663 39.0023 36.5065 39.5741 36.5065 40.2765C36.5065 40.9788 37.0663 41.5506 37.7539 41.5506ZM28.6265 41.5708C29.3261 41.5708 29.8936 40.9916 29.8936 40.2765C29.8936 39.5614 29.3266 38.9822 28.6265 38.9822C27.9265 38.9822 27.3595 39.5614 27.3595 40.2765C27.3595 40.9916 27.9265 41.5708 28.6265 41.5708Z" fill="white"/>
<path d="M22.7683 59.6743V50.947H26.2626C26.9047 50.947 27.4402 51.0422 27.8691 51.2326C28.2981 51.4229 28.6206 51.6871 28.8365 52.0252C29.0524 52.3604 29.1603 52.7468 29.1603 53.1843C29.1603 53.5252 29.0922 53.8249 28.9558 54.0834C28.8194 54.3391 28.6319 54.5493 28.3933 54.7141C28.1575 54.876 27.8876 54.9911 27.5836 55.0593V55.1445C27.916 55.1587 28.2271 55.2524 28.5169 55.4257C28.8095 55.599 29.0467 55.8419 29.2285 56.1544C29.4103 56.4641 29.5012 56.8334 29.5012 57.2624C29.5012 57.7255 29.3862 58.1388 29.1561 58.5024C28.9288 58.8632 28.5922 59.1487 28.1461 59.359C27.7001 59.5692 27.1504 59.6743 26.497 59.6743H22.7683ZM24.6135 58.1658H26.1177C26.6319 58.1658 27.0069 58.0678 27.2427 57.8718C27.4785 57.6729 27.5964 57.4087 27.5964 57.0791C27.5964 56.8377 27.5382 56.6246 27.4217 56.4399C27.3052 56.2553 27.139 56.1104 26.9231 56.0053C26.71 55.9002 26.4558 55.8476 26.1603 55.8476H24.6135V58.1658ZM24.6135 54.599H25.9814C26.2342 54.599 26.4586 54.555 26.6547 54.4669C26.8535 54.376 27.0098 54.2482 27.1234 54.0834C27.2399 53.9186 27.2981 53.7212 27.2981 53.4911C27.2981 53.1757 27.1859 52.9215 26.9615 52.7283C26.7399 52.5351 26.4245 52.4385 26.0154 52.4385H24.6135V54.599ZM38.7218 55.3107C38.7218 56.2624 38.5414 57.072 38.1806 57.7397C37.8226 58.4073 37.334 58.9172 36.7147 59.2695C36.0982 59.6189 35.405 59.7936 34.6351 59.7936C33.8596 59.7936 33.1635 59.6175 32.5471 59.2652C31.9306 58.913 31.4434 58.403 31.0854 57.7354C30.7275 57.0678 30.5485 56.2595 30.5485 55.3107C30.5485 54.359 30.7275 53.5493 31.0854 52.8817C31.4434 52.2141 31.9306 51.7056 32.5471 51.3561C33.1635 51.0039 33.8596 50.8277 34.6351 50.8277C35.405 50.8277 36.0982 51.0039 36.7147 51.3561C37.334 51.7056 37.8226 52.2141 38.1806 52.8817C38.5414 53.5493 38.7218 54.359 38.7218 55.3107ZM36.851 55.3107C36.851 54.6942 36.7587 54.1743 36.574 53.751C36.3922 53.3277 36.1351 53.0067 35.8027 52.788C35.4703 52.5692 35.0811 52.4598 34.6351 52.4598C34.1891 52.4598 33.7999 52.5692 33.4675 52.788C33.1351 53.0067 32.8766 53.3277 32.6919 53.751C32.5101 54.1743 32.4192 54.6942 32.4192 55.3107C32.4192 55.9272 32.5101 56.447 32.6919 56.8703C32.8766 57.2936 33.1351 57.6147 33.4675 57.8334C33.7999 58.0522 34.1891 58.1615 34.6351 58.1615C35.0811 58.1615 35.4703 58.0522 35.8027 57.8334C36.1351 57.6147 36.3922 57.2936 36.574 56.8703C36.7587 56.447 36.851 55.9272 36.851 55.3107ZM48.1085 55.3107C48.1085 56.2624 47.9281 57.072 47.5673 57.7397C47.2093 58.4073 46.7207 58.9172 46.1014 59.2695C45.4849 59.6189 44.7917 59.7936 44.0218 59.7936C43.2463 59.7936 42.5502 59.6175 41.9338 59.2652C41.3173 58.913 40.8301 58.403 40.4721 57.7354C40.1142 57.0678 39.9352 56.2595 39.9352 55.3107C39.9352 54.359 40.1142 53.5493 40.4721 52.8817C40.8301 52.2141 41.3173 51.7056 41.9338 51.3561C42.5502 51.0039 43.2463 50.8277 44.0218 50.8277C44.7917 50.8277 45.4849 51.0039 46.1014 51.3561C46.7207 51.7056 47.2093 52.2141 47.5673 52.8817C47.9281 53.5493 48.1085 54.359 48.1085 55.3107ZM46.2377 55.3107C46.2377 54.6942 46.1454 54.1743 45.9608 53.751C45.7789 53.3277 45.5218 53.0067 45.1895 52.788C44.8571 52.5692 44.4679 52.4598 44.0218 52.4598C43.5758 52.4598 43.1866 52.5692 42.8542 52.788C42.5218 53.0067 42.2633 53.3277 42.0787 53.751C41.8968 54.1743 41.8059 54.6942 41.8059 55.3107C41.8059 55.9272 41.8968 56.447 42.0787 56.8703C42.2633 57.2936 42.5218 57.6147 42.8542 57.8334C43.1866 58.0522 43.5758 58.1615 44.0218 58.1615C44.4679 58.1615 44.8571 58.0522 45.1895 57.8334C45.5218 57.6147 45.7789 57.2936 45.9608 56.8703C46.1454 56.447 46.2377 55.9272 46.2377 55.3107ZM49.4753 59.6743V50.947H51.3205V54.7951H51.4355L54.5762 50.947H56.7878L53.5492 54.8547L56.8262 59.6743H54.6188L52.2282 56.0862L51.3205 57.1942V59.6743H49.4753Z" fill="white"/>
</svg>
