<svg width="21" height="22" viewBox="0 0 21 22" fill="none" xmlns="http://www.w3.org/2000/svg">
<path d="M14.875 2.25781H6.125C3.71 2.25781 1.75 4.20906 1.75 6.61531V11.8478V12.7228C1.75 15.1291 3.71 17.0803 6.125 17.0803H7.4375C7.67375 17.0803 7.98875 17.2378 8.1375 17.4303L9.45 19.1716C10.0275 19.9416 10.9725 19.9416 11.55 19.1716L12.8625 17.4303C13.0287 17.2116 13.2912 17.0803 13.5625 17.0803H14.875C17.29 17.0803 19.25 15.1291 19.25 12.7228V6.61531C19.25 4.20906 17.29 2.25781 14.875 2.25781ZM7 11.0078C6.51 11.0078 6.125 10.6141 6.125 10.1328C6.125 9.65156 6.51875 9.25781 7 9.25781C7.48125 9.25781 7.875 9.65156 7.875 10.1328C7.875 10.6141 7.49 11.0078 7 11.0078ZM10.5 11.0078C10.01 11.0078 9.625 10.6141 9.625 10.1328C9.625 9.65156 10.0187 9.25781 10.5 9.25781C10.9812 9.25781 11.375 9.65156 11.375 10.1328C11.375 10.6141 10.99 11.0078 10.5 11.0078ZM14 11.0078C13.51 11.0078 13.125 10.6141 13.125 10.1328C13.125 9.65156 13.5187 9.25781 14 9.25781C14.4812 9.25781 14.875 9.65156 14.875 10.1328C14.875 10.6141 14.49 11.0078 14 11.0078Z" fill="#3064A3"/>
</svg>
