<svg width="61" height="60" viewBox="0 0 61 60" fill="none" xmlns="http://www.w3.org/2000/svg">
<path d="M21.7556 47.5056H20.5056C10.5056 47.5056 5.50562 45.0056 5.50562 32.5056V20.0056C5.50562 10.0056 10.5056 5.00558 20.5056 5.00558H40.5056C50.5056 5.00558 55.5056 10.0056 55.5056 20.0056V32.5056C55.5056 42.5056 50.5056 47.5056 40.5056 47.5056H39.2556C38.4806 47.5056 37.7306 47.8806 37.2556 48.5056L33.5056 53.5056C31.8556 55.7056 29.1556 55.7056 27.5056 53.5056L23.7556 48.5056C23.3556 47.9556 22.4306 47.5056 21.7556 47.5056Z" stroke="#BEC3C5" stroke-width="3.5" stroke-miterlimit="10" stroke-linecap="round" stroke-linejoin="round"/>
<path d="M17.9944 20.0056H42.9944" stroke="#BEC3C5" stroke-width="3.5" stroke-linecap="round" stroke-linejoin="round"/>
<path d="M17.9944 32.4944H32.9944" stroke="#BEC3C5" stroke-width="3.5" stroke-linecap="round" stroke-linejoin="round"/>
</svg>
