<svg width="22" height="21" viewBox="0 0 22 21" fill="none" xmlns="http://www.w3.org/2000/svg">
<path d="M1.00621 5.58521C1.02267 5.50741 0.986252 5.5363 1.00608 5.45922C1.16257 4.85448 1.74579 4.29179 2.38922 4.21363C2.46516 4.20437 2.54235 4.2004 2.61891 4.2004C6.90237 4.1998 11.1858 4.19727 15.4693 4.2022C16.271 4.20317 16.8703 4.5638 17.2402 5.24755C17.7975 6.2775 18.3388 7.31551 18.8864 8.35027C19.0135 8.59065 19.1385 8.83211 19.2651 9.07286C19.2724 9.08693 19.2835 9.09931 19.2939 9.11182C19.6577 9.55434 20.0248 9.99434 20.3846 10.4399C20.6615 10.7827 20.7981 11.1759 20.7987 11.611C20.8 12.4469 20.801 13.2826 20.7985 14.1185C20.7967 14.7089 20.3525 15.1897 19.7458 15.2633C19.6883 15.2702 19.6295 15.2688 19.5714 15.2692C19.4429 15.27 19.3142 15.2694 19.1818 15.2694C19.0576 15.7889 18.7708 16.1988 18.3101 16.4896C17.9635 16.7084 17.5804 16.8067 17.1657 16.7956C16.3211 16.7731 15.4935 16.1787 15.2913 15.2693C15.2711 15.2693 15.2491 15.2693 15.227 15.2693C12.7413 15.2693 10.2556 15.2694 7.76989 15.2683C7.71851 15.2683 7.69632 15.279 7.6826 15.3323C7.48558 16.0979 6.83853 16.6646 6.03473 16.7793C5.03454 16.922 4.06602 16.2843 3.82797 15.3241C3.81663 15.2785 3.7978 15.2683 3.75328 15.2684C3.33767 15.2689 2.9213 15.2812 2.50656 15.2633C1.94193 15.2389 1.51697 14.9706 1.22293 14.5094C1.10746 14.3283 1.04038 14.1291 1.01781 13.9166C1.01656 13.9053 1.01008 13.8944 1.00608 13.8834C1.00608 11.1172 1.00621 8.35135 1.00621 5.58521ZM19.1835 14.5088C19.3158 14.5088 19.4445 14.5089 19.5732 14.5088C19.8506 14.5084 20.0105 14.3557 20.0107 14.0871C20.0115 13.2694 20.0116 12.4516 20.0107 11.6338C20.0105 11.3653 19.9317 11.1197 19.7604 10.9066C19.4956 10.5774 19.2274 10.251 18.9589 9.92472C18.9436 9.90608 18.9132 9.8908 18.8885 9.88876C18.5429 9.85978 18.1973 9.83284 17.8515 9.80663C17.4043 9.77284 16.9569 9.74085 16.5098 9.70682C16.0067 9.66858 15.504 9.62649 15.0007 9.59078C14.5278 9.55723 14.0863 9.21956 13.9653 8.778C13.83 8.28401 13.7045 7.78737 13.5754 7.29182C13.3795 6.53904 13.1833 5.78639 12.9902 5.0329C12.9751 4.97386 12.9499 4.95846 12.8902 4.95991C12.7282 4.96387 12.566 4.96123 12.4039 4.96123C9.14928 4.96123 5.89482 4.96087 2.64024 4.96291C2.53798 4.96291 2.43162 4.97554 2.33411 5.00428C2.05354 5.08677 1.79479 5.35192 1.79542 5.77196C1.79878 8.41556 1.79704 11.0593 1.79766 13.7029C1.79766 13.7607 1.79928 13.8198 1.8105 13.8764C1.88657 14.2601 2.19731 14.5064 2.60881 14.5084C2.98702 14.5104 3.36535 14.508 3.74355 14.5099C3.7948 14.5101 3.81663 14.4994 3.83009 14.4463C4.07824 13.4647 5.06771 12.8252 6.09671 13.0125C6.92444 13.1632 7.45241 13.6565 7.68048 14.4406C7.69669 14.4965 7.71814 14.5101 7.7755 14.5101C10.257 14.5087 12.7383 14.5088 15.2198 14.5088C15.2445 14.5088 15.2692 14.5088 15.2926 14.5088C15.4981 13.5943 16.3139 13.0117 17.1615 12.9809C18.1005 12.9467 18.9728 13.5724 19.1835 14.5088ZM18.3735 9.07658C18.357 9.04352 18.3462 9.02055 18.3343 8.99818C17.7404 7.87191 17.1466 6.74552 16.5522 5.61936C16.3222 5.18369 15.9517 4.96424 15.446 4.96183C14.9161 4.9593 14.3862 4.96123 13.8563 4.96123H13.7899C13.7909 4.97578 13.7904 4.98179 13.7917 4.98744C14.0969 6.16338 14.402 7.33944 14.7078 8.51525C14.7605 8.71788 14.8887 8.81792 15.0974 8.83272C15.6006 8.86831 16.1036 8.90607 16.6066 8.94395C17.1097 8.98195 17.6126 9.02127 18.1156 9.05975C18.1975 9.066 18.2797 9.07057 18.3735 9.07658ZM17.2396 13.7431C16.5696 13.7433 16.0318 14.2643 16.0496 14.9202C16.0658 15.5154 16.5548 16.0269 17.2316 16.0348C17.8872 16.0424 18.4227 15.5293 18.4261 14.8959C18.4295 14.258 17.9022 13.7457 17.2396 13.7431ZM5.75928 13.7431C5.07457 13.7437 4.55471 14.283 4.5678 14.922C4.58014 15.5266 5.11709 16.0379 5.75915 16.0364C6.33625 16.035 6.97557 15.5925 6.92956 14.7956C6.89813 14.2512 6.42678 13.7479 5.75928 13.7431Z" fill="#2E2E2E" stroke="#2E2E2E" stroke-width="0.583333"/>
</svg>
