<svg width="36" height="37" viewBox="0 0 36 37" fill="none" xmlns="http://www.w3.org/2000/svg">
<path d="M14.25 21.1224C14.25 22.5774 15.375 23.7474 16.755 23.7474H19.575C20.775 23.7474 21.75 22.7274 21.75 21.4524C21.75 20.0874 21.15 19.5924 20.265 19.2774L15.75 17.7024C14.865 17.3874 14.265 16.9074 14.265 15.5274C14.265 14.2674 15.24 13.2324 16.44 13.2324H19.26C20.64 13.2324 21.765 14.4024 21.765 15.8574" stroke="#28B446" stroke-width="2" stroke-linecap="round" stroke-linejoin="round"/>
<path d="M18 11.75V25.25" stroke="#28B446" stroke-width="2" stroke-linecap="round" stroke-linejoin="round"/>
<path d="M33 18.5C33 26.78 26.28 33.5 18 33.5C9.72 33.5 3 26.78 3 18.5C3 10.22 9.72 3.5 18 3.5" stroke="#28B446" stroke-width="2" stroke-linecap="round" stroke-linejoin="round"/>
<path d="M25.5 5V11H31.5" stroke="#28B446" stroke-width="2" stroke-linecap="round" stroke-linejoin="round"/>
<path d="M33 3.5L25.5 11" stroke="#28B446" stroke-width="2" stroke-linecap="round" stroke-linejoin="round"/>
</svg>
