<svg width="24" height="24" viewBox="0 0 24 24" fill="none" xmlns="http://www.w3.org/2000/svg">
<path d="M19.9072 14.55C20.118 14.7611 20.2852 15.0117 20.3992 15.2875C20.5132 15.5632 20.5717 15.8588 20.5714 16.1571V16.1571C20.5714 16.7596 20.3321 17.3373 19.9062 17.7633C19.4802 18.1893 18.9024 18.4286 18.3 18.4286H5.70002C5.0976 18.4286 4.51985 18.1893 4.09388 17.7633C3.6679 17.3373 3.42859 16.7596 3.42859 16.1571V16.1571C3.42833 15.8588 3.48686 15.5632 3.60084 15.2875C3.71482 15.0117 3.88202 14.7611 4.09288 14.55L5.57145 13.0714V8.78572C5.57145 7.08076 6.24874 5.44562 7.45433 4.24003C8.65992 3.03444 10.2951 2.35715 12 2.35715V2.35715C13.705 2.35715 15.3401 3.03444 16.5457 4.24003C17.7513 5.44562 18.4286 7.08076 18.4286 8.78572V13.0714L19.9072 14.55ZM15.2143 18.4286H8.78573C8.78573 19.2811 9.12438 20.0986 9.72717 20.7014C10.33 21.3042 11.1475 21.6429 12 21.6429C12.8525 21.6429 13.6701 21.3042 14.2729 20.7014C14.8757 20.0986 15.2143 19.2811 15.2143 18.4286Z" stroke="#FF314A" stroke-width="1.8" stroke-linecap="round" stroke-linejoin="round"/>
</svg>
