<svg width="28" height="29" viewBox="0 0 28 29" fill="none" xmlns="http://www.w3.org/2000/svg">
<path d="M14.0237 3.89877C10.162 3.89877 7.02368 7.03711 7.02368 10.8988V14.2704C7.02368 14.9821 6.72035 16.0671 6.35868 16.6738L5.01701 18.9021C4.18868 20.2788 4.76035 21.8071 6.27701 22.3204C11.3053 24.0004 16.7303 24.0004 21.7587 22.3204C23.1703 21.8538 23.7887 20.1854 23.0187 18.9021L21.677 16.6738C21.327 16.0671 21.0237 14.9821 21.0237 14.2704V10.8988C21.0237 7.04877 17.8737 3.89877 14.0237 3.89877Z" stroke="#2E2E2E" stroke-width="1.8" stroke-miterlimit="10" stroke-linecap="round"/>
<path d="M16.1819 4.23331C15.8202 4.12831 15.4469 4.04664 15.0619 3.99997C13.9419 3.85997 12.8686 3.94164 11.8652 4.23331C12.2036 3.36997 13.0436 2.76331 14.0236 2.76331C15.0036 2.76331 15.8436 3.36997 16.1819 4.23331Z" stroke="#2E2E2E" stroke-width="1.8" stroke-miterlimit="10" stroke-linecap="round" stroke-linejoin="round"/>
<path d="M17.5293 22.7392C17.5293 24.6642 15.9543 26.2392 14.0293 26.2392C13.0726 26.2392 12.186 25.8425 11.556 25.2125C10.926 24.5825 10.5293 23.6959 10.5293 22.7392" stroke="#2E2E2E" stroke-width="1.8" stroke-miterlimit="10"/>
<circle cx="20.5336" cy="7.70223" r="4.7" fill="#FF314A" stroke="white" stroke-width="1.8"/>
</svg>
