<svg width="26" height="24" viewBox="0 0 26 24" fill="none" xmlns="http://www.w3.org/2000/svg">
<path d="M13.1174 10.1236C14.9826 10.1461 16.436 10.9069 17.6215 12.1794C19.1807 13.8534 20.1831 15.8271 20.5707 18.0907C20.7285 19.013 20.6614 19.9279 20.284 20.8004C19.7052 22.1383 18.6083 22.7365 17.1882 22.4159C16.5767 22.2779 15.9952 22.0047 15.402 21.7867C14.8511 21.5843 14.3174 21.3147 13.751 21.1811C12.9574 20.9931 12.1993 21.2186 11.4654 21.5531C10.8093 21.8522 10.1527 22.184 9.46007 22.3612C7.6389 22.8272 6.3133 21.9741 5.887 20.1336C5.64486 19.0877 5.73881 18.0498 6.04592 17.0351C6.63222 15.0985 7.55783 13.3509 9.0225 11.9249C10.2348 10.7453 11.7011 10.1225 13.1169 10.123L13.1174 10.1236ZM19.2639 18.9502C19.2537 17.957 18.9616 17.034 18.5638 16.1369C17.9963 14.859 17.2875 13.6789 16.2288 12.7388C14.4178 11.1308 12.1752 11.0862 10.3057 12.6229C9.57067 13.2269 8.99565 13.9662 8.52425 14.785C7.84293 15.9688 7.27435 17.1978 7.14871 18.5835C7.0859 19.2734 7.15194 19.943 7.5283 20.5475C7.77259 20.94 8.10869 21.1811 8.59674 21.1123C8.87002 21.0742 9.15565 21.0565 9.40907 20.9593C9.93308 20.7585 10.4437 20.5207 10.9516 20.2801C11.9508 19.8061 12.9902 19.6375 14.0828 19.8275C14.8693 19.9644 15.556 20.3564 16.2744 20.6737C16.6868 20.8562 17.1265 21.0001 17.5683 21.0876C18.2534 21.2229 18.6695 20.9835 18.9804 20.3558C19.1995 19.9134 19.2725 19.4399 19.2644 18.9497L19.2639 18.9502Z" fill="#7C868A" stroke="#7C868A" stroke-width="0.3"/>
<path d="M24.8879 10.2015C24.8584 11.2409 24.641 12.3142 23.9462 13.242C22.9508 14.5724 21.3567 14.5891 20.3458 13.2699C19.6107 12.311 19.3783 11.1921 19.3901 10.0136C19.3997 9.04234 19.5989 8.11242 20.1224 7.27754C20.2684 7.04453 20.4408 6.8201 20.6357 6.62736C21.608 5.66523 22.9793 5.7753 23.8678 6.87487C24.5191 7.68022 24.8879 8.8512 24.8874 10.2015H24.8879ZM23.507 10.1618C23.5054 9.40045 23.3841 8.7014 23.0222 8.06303C22.4896 7.12345 21.7583 7.10037 21.2628 8.05175C20.5557 9.4085 20.5551 10.8098 21.2622 12.1671C21.7589 13.1206 22.4858 13.1008 23.0206 12.1623C23.3792 11.5325 23.5017 10.8426 23.5076 10.1623L23.507 10.1618Z" fill="#7C868A" stroke="#7C868A" stroke-width="0.3"/>
<path d="M7.01134 10.2789C6.98879 11.2496 6.76222 12.3379 6.04814 13.2758C5.09407 14.5295 3.58108 14.5859 2.57332 13.3762C2.28715 13.0326 2.04071 12.6235 1.89306 12.2036C1.29496 10.5038 1.34757 8.8303 2.27158 7.24268C2.61412 6.65424 3.09948 6.19895 3.78242 6.03573C4.73219 5.80916 5.46131 6.207 6.03472 6.93182C6.67792 7.74415 7.00865 8.86144 7.01134 10.2799V10.2789ZM5.6315 10.1199C5.63043 9.38492 5.50694 8.67782 5.13165 8.03407C4.6028 7.12725 3.8898 7.10953 3.40068 8.03354C2.67909 9.39727 2.67855 10.805 3.39102 12.1709C3.88335 13.1153 4.59851 13.0997 5.13487 12.1795C5.50533 11.5443 5.62721 10.8453 5.63097 10.1199H5.6315Z" fill="#7C868A" stroke="#7C868A" stroke-width="0.3"/>
<path d="M19.38 4.79365C19.3693 5.74826 19.1416 6.80918 18.4576 7.73158C17.4515 9.08725 15.8354 9.09799 14.825 7.74339C14.0185 6.66261 13.8151 5.41485 13.9112 4.10642C13.982 3.14537 14.2505 2.24391 14.8529 1.46863C15.8252 0.217113 17.306 0.169329 18.332 1.37789C18.5822 1.67265 18.7782 2.02647 18.9414 2.37975C19.2587 3.06591 19.3795 3.79019 19.38 4.79365ZM15.2475 4.62453C15.2781 4.91768 15.291 5.21351 15.3425 5.50236C15.4424 6.06235 15.6244 6.59388 16.0099 7.02985C16.4099 7.48192 16.8502 7.4948 17.2416 7.04166C17.4252 6.82905 17.5846 6.57778 17.6872 6.31738C18.1291 5.19848 18.1355 4.06347 17.6883 2.94672C17.5685 2.6482 17.3699 2.36525 17.1508 2.12687C16.8416 1.7897 16.4604 1.79023 16.1345 2.10969C15.9471 2.29385 15.7876 2.52095 15.6663 2.75504C15.3646 3.33758 15.2631 3.97112 15.247 4.62507L15.2475 4.62453Z" fill="#7C868A" stroke="#7C868A" stroke-width="0.3"/>
<path d="M12.5005 4.6375C12.4866 5.76982 12.2525 6.83772 11.5556 7.76226C10.5596 9.0825 8.94731 9.08196 7.95673 7.75421C7.1444 6.66591 6.93823 5.41225 7.03701 4.09416C7.10896 3.1331 7.38009 2.23272 7.98357 1.45958C8.98167 0.181761 10.5457 0.180688 11.5309 1.46871C11.7456 1.74897 11.9207 2.06843 12.0667 2.39164C12.3883 3.1025 12.5037 3.86007 12.5 4.63804L12.5005 4.6375ZM8.39108 4.62998C8.39162 5.34621 8.51403 6.03559 8.87429 6.66484C9.41012 7.60119 10.1349 7.62159 10.6321 6.66698C11.3338 5.31936 11.3344 3.92718 10.6283 2.5801C10.1355 1.63891 9.41602 1.65394 8.88395 2.57097C8.5151 3.20666 8.39108 3.90409 8.39108 4.62998Z" fill="#7C868A" stroke="#7C868A" stroke-width="0.3"/>
</svg>
