<svg width="21" height="21" viewBox="0 0 21 21" fill="none" xmlns="http://www.w3.org/2000/svg">
<path d="M3.85858 14.656C3.64858 17.1848 5.55608 19.2498 8.09358 19.2498H12.2848C15.1373 19.2498 17.0973 16.9485 16.6248 14.131C16.1261 11.1735 13.2736 8.74976 10.2723 8.74976C7.01733 8.74976 4.12983 11.4098 3.85858 14.656Z" stroke="#2E2E2E" stroke-width="1.5" stroke-linecap="round" stroke-linejoin="round"/>
<path d="M9.16309 6.56226C10.3712 6.56226 11.3506 5.58288 11.3506 4.37476C11.3506 3.16663 10.3712 2.18726 9.16309 2.18726C7.95496 2.18726 6.97559 3.16663 6.97559 4.37476C6.97559 5.58288 7.95496 6.56226 9.16309 6.56226Z" stroke="#2E2E2E" stroke-width="1.5" stroke-linecap="round" stroke-linejoin="round"/>
<path d="M15.1367 7.61255C16.1032 7.61255 16.8867 6.82905 16.8867 5.86255C16.8867 4.89605 16.1032 4.11255 15.1367 4.11255C14.1702 4.11255 13.3867 4.89605 13.3867 5.86255C13.3867 6.82905 14.1702 7.61255 15.1367 7.61255Z" stroke="#2E2E2E" stroke-width="1.5" stroke-linecap="round" stroke-linejoin="round"/>
<path d="M18.375 11.1121C19.0999 11.1121 19.6875 10.5244 19.6875 9.79956C19.6875 9.07469 19.0999 8.48706 18.375 8.48706C17.6501 8.48706 17.0625 9.07469 17.0625 9.79956C17.0625 10.5244 17.6501 11.1121 18.375 11.1121Z" stroke="#2E2E2E" stroke-width="1.5" stroke-linecap="round" stroke-linejoin="round"/>
<path d="M3.47559 9.36206C4.44208 9.36206 5.22559 8.57856 5.22559 7.61206C5.22559 6.64556 4.44208 5.86206 3.47559 5.86206C2.50909 5.86206 1.72559 6.64556 1.72559 7.61206C1.72559 8.57856 2.50909 9.36206 3.47559 9.36206Z" stroke="#2E2E2E" stroke-width="1.5" stroke-linecap="round" stroke-linejoin="round"/>
</svg>
