<svg width="26" height="26" viewBox="0 0 26 26" fill="none" xmlns="http://www.w3.org/2000/svg">
<path d="M12.4226 1.78123C12.7916 1.04588 13.8412 1.04587 14.2102 1.78122L17.2705 7.88008C17.4114 8.16092 17.6762 8.3592 17.9853 8.41544L24.5254 9.60528C25.3015 9.74647 25.6162 10.6886 25.0808 11.2679L20.3968 16.3353C20.1939 16.5548 20.0999 16.8535 20.1404 17.1496L21.0898 24.0916C21.1996 24.8942 20.3594 25.4874 19.6398 25.1154L13.7757 22.0836C13.4876 21.9346 13.1452 21.9346 12.8571 22.0836L6.99302 25.1154C6.27341 25.4874 5.43321 24.8942 5.54298 24.0916L6.49244 17.1496C6.53294 16.8535 6.43888 16.5548 6.23601 16.3353L1.55205 11.2679C1.01661 10.6886 1.33132 9.74647 2.1074 9.60528L8.64751 8.41544C8.95666 8.3592 9.22139 8.16092 9.36231 7.88008L12.4226 1.78123Z" fill="white" stroke="#7C868A"/>
</svg>
