<svg width="73" height="73" viewBox="0 0 73 73" fill="none" xmlns="http://www.w3.org/2000/svg">
<path d="M71.02 36.0205C71.02 55.3405 54.9482 71.0205 35.1454 71.0205C15.3427 71.0205 3.25292 51.5605 3.25292 51.5605M3.25292 51.5605L10.4996 53.2678M3.25292 51.5605L2.77148 58.8025" stroke="#0A7170" stroke-width="2.04188" stroke-linecap="round" stroke-linejoin="round"/>
<path d="M1.02097 36.0205C1.02097 16.7005 17.0928 1.02051 36.8956 1.02051C56.6983 1.02051 68.7881 20.4805 68.7881 20.4805M68.7881 20.4805L61.5414 18.7732M68.7881 20.4805L69.2695 12.705" stroke="#0A7170" stroke-width="2.04188" stroke-linecap="round" stroke-linejoin="round"/>
<ellipse cx="35.7889" cy="35.7888" rx="27.7674" ry="27.7673" fill="#0A7170"/>
<path d="M35.7891 11.3027C49.2009 11.303 60.073 22.1751 60.0732 35.5869C60.0732 48.9989 49.2011 59.8719 35.7891 59.8721C22.3768 59.8721 11.5039 48.9991 11.5039 35.5869C11.5042 22.175 22.377 11.3027 35.7891 11.3027Z" stroke="white" stroke-width="0.507376"/>
<path d="M27.001 32.0742C26.2489 32.4809 25.6042 33.3235 26.684 33.9408C27.0117 34.1319 28.113 34.0437 28.5536 33.152C28.6825 32.8875 28.6825 32.5102 28.6503 32.1085L27.001 32.0742Z" fill="black"/>
<path d="M51.267 48.2043L50.7351 43.1483C50.6814 42.5702 50.2355 41.1642 49.0966 39.8806C49.4941 39.2486 50.026 38.1708 50.1871 36.7549C50.4558 34.4082 49.4189 32.8796 48.9085 32.3456C48.828 32.2575 48.6131 32.2134 48.4465 32.3113C48.2907 32.4044 48.237 32.6298 48.3391 32.7719L48.4465 32.8894C48.8602 33.3108 49.4995 34.2122 49.2524 35.4713C49.0428 36.5491 48.3068 37.2938 47.4795 37.6564C47.1303 37.8082 46.7543 37.9111 46.3836 37.9748C45.8195 37.7494 45.1963 37.5682 44.4979 37.4604C43.5202 37.3134 42.6069 37.2693 41.9729 36.9901C40.2001 36.2013 39.5447 35.5105 38.9806 34.5797C38.626 33.9967 38.438 33.5361 38.3574 33.0413C38.1909 32.0419 37.428 23.3066 37.4334 23.0421C37.471 20.7836 36.3535 19.6616 36.3535 19.6616C36.3535 19.6616 35.1233 19.936 34.527 21.0775C34.3013 21.5086 34.1778 22.0475 34.3067 22.7334C34.3013 22.7187 33.7211 22.4248 33.0496 22.317C32.5768 22.2435 32.1632 22.2729 31.728 22.3366C31.7119 22.3415 31.7173 22.3121 31.7119 22.3023C31.3842 21.3813 31.1263 19.4853 28.8538 19.2158C28.8538 19.2158 27.1831 20.7542 28.9398 22.4836C28.6175 22.1651 27.9513 22.8559 27.586 22.9C26.1623 23.0666 25.8937 24.1591 25.9582 24.7029C26.0495 25.4721 26.3718 25.4329 26.5062 25.9375C26.6297 26.3931 26.3665 26.8488 25.883 27.0398C24.8945 27.4269 23.3526 27.0006 22.9981 26.8683C22.9981 26.8683 21.9773 26.5842 21.4616 27.4024C20.6557 28.6761 22.3695 29.2885 22.3695 29.2885C22.3695 29.2885 22.9658 32.0272 26.8285 32.6102C29.3964 32.9972 31.2875 31.0278 31.2875 31.0278C31.2875 31.0278 32.4909 31.601 32.3136 33.4382C32.2975 33.5949 32.2867 33.8399 32.1094 33.9575C31.54 34.3347 29.9175 35.1578 28.7894 37.1076C27.9782 38.5039 27.5161 40.2627 28.0211 42.9671L28.4724 48.8559C28.5476 49.6741 29.1601 50.6735 30.0895 51.0899C31.2123 51.5945 32.6843 51.428 32.6843 51.428L31.8569 43.7999C31.8569 43.6285 32.0611 43.2512 32.507 43.2708C32.9744 43.2855 33.1141 43.6432 33.1141 43.8146L33.893 51.0066C34.0435 51.7072 34.9621 51.4427 34.9245 50.9527L34.1616 43.8636C34.1187 43.4668 34.484 43.261 34.8224 43.2708C35.2307 43.2806 35.4134 43.6432 35.4134 43.8146L36.1816 50.9037C36.1709 51.2026 36.3804 51.4427 36.6866 51.4427C36.9928 51.4427 37.2185 51.2369 37.2185 50.9576L36.4395 43.844C36.4395 43.6726 36.5631 43.3051 37.0358 43.2757C37.4441 43.2512 37.6805 43.604 37.6805 43.7754L38.481 51.085C38.5938 51.3937 38.9 51.4966 39.1794 51.3986C39.3996 51.3251 39.5286 51.0997 39.5124 50.9576L38.7335 43.9028C38.6851 43.6138 38.9645 43.2806 39.3083 43.2708C39.6467 43.261 39.9154 43.4178 39.9744 43.795L40.7642 50.9821C40.8394 51.6876 41.844 51.4819 41.7957 50.9576L41.0113 43.8734C41.0113 43.5648 41.2907 43.2806 41.6291 43.2806C41.9622 43.2806 42.2039 43.4766 42.2684 43.7999L43.0474 50.9576C43.128 51.7121 44.1111 51.4966 44.0896 50.9576L43.3106 43.8734C43.2891 43.6089 43.5255 43.3247 43.8586 43.2806C44.3152 43.2267 44.557 43.6187 44.557 43.795L45.3414 50.9576C45.3521 51.2565 45.61 51.4378 45.8356 51.4427C46.1096 51.4476 46.3943 51.232 46.3836 50.9674L45.6046 43.8881C45.5724 43.5599 45.8786 43.2806 46.217 43.2806C46.5555 43.2806 46.808 43.5011 46.8402 43.795L47.6622 51.4525C47.6622 51.4525 49.1718 51.6092 50.2355 50.7617C51.2616 49.9337 51.3422 48.7873 51.267 48.2043Z" fill="white"/>
<path d="M38.8433 32.3242C38.8111 32.2066 38.795 32.1086 38.8863 31.9274C39.0958 31.5158 38.8971 31.1435 37.8226 31.119C36.5064 31.0896 34.5778 31.2366 33.7504 31.4081C32.8962 31.5844 31.2255 31.7902 30.9891 31.9715C30.8118 32.1037 30.7151 32.3928 31.0159 32.6182C31.1717 32.7357 31.3705 32.7357 31.3544 33.064C31.349 33.211 31.1502 33.3775 31.4135 33.6372C31.4941 33.7156 31.5854 33.7401 31.6982 33.7352L32.2677 33.7646C32.2838 33.7401 32.316 33.5931 32.316 33.5931C32.316 33.5931 32.3536 33.5833 32.3698 33.5784C32.9392 33.4314 33.6591 33.255 33.6591 33.255C34.5348 33.1473 36.5333 32.8386 37.8441 32.9807C38.0429 33.0003 38.2094 33.0346 38.3545 33.0591L38.3867 33.2159C38.3867 33.2159 38.8004 33.1081 38.9239 32.9121C39.0797 32.6622 38.8917 32.4957 38.8433 32.3242Z" fill="black"/>
</svg>
