<svg width="25" height="24" viewBox="0 0 25 24" fill="none" xmlns="http://www.w3.org/2000/svg">
<path d="M14.23 3.50989L15.99 7.02989C16.23 7.51989 16.87 7.98989 17.41 8.07989L20.6 8.60989C22.64 8.94989 23.12 10.4299 21.65 11.8899L19.17 14.3699C18.75 14.7899 18.52 15.5999 18.65 16.1799L19.36 19.2499C19.92 21.6799 18.63 22.6199 16.48 21.3499L13.49 19.5799C12.95 19.2599 12.06 19.2599 11.51 19.5799L8.52003 21.3499C6.38003 22.6199 5.08003 21.6699 5.64003 19.2499L6.35003 16.1799C6.48003 15.5999 6.25003 14.7899 5.83003 14.3699L3.35003 11.8899C1.89003 10.4299 2.36003 8.94989 4.40003 8.60989L7.59003 8.07989C8.12003 7.98989 8.76003 7.51989 9.00003 7.02989L10.76 3.50989C11.72 1.59989 13.28 1.59989 14.23 3.50989Z" stroke="#FF314A" stroke-width="1.8" stroke-linecap="round" stroke-linejoin="round"/>
</svg>
