<svg width="22" height="21" viewBox="0 0 22 21" fill="none" xmlns="http://www.w3.org/2000/svg">
<path d="M8.86133 16.1875C8.86133 14.4961 7.4902 13.125 5.79883 13.125C4.10746 13.125 2.73633 14.4961 2.73633 16.1875C2.73633 17.8789 4.10746 19.25 5.79883 19.25C7.4902 19.25 8.86133 17.8789 8.86133 16.1875Z" stroke="#2E2E2E" stroke-width="1.5" stroke-linecap="round" stroke-linejoin="round"/>
<path d="M18.4863 16.1875C18.4863 14.4961 17.1152 13.125 15.4238 13.125C13.7325 13.125 12.3613 14.4961 12.3613 16.1875C12.3613 17.8789 13.7325 19.25 15.4238 19.25C17.1152 19.25 18.4863 17.8789 18.4863 16.1875Z" stroke="#2E2E2E" stroke-width="1.5" stroke-linecap="round" stroke-linejoin="round"/>
<path d="M5.36133 1.7499L14.0938 13.4312" stroke="#2E2E2E" stroke-width="1.5" stroke-linecap="round" stroke-linejoin="round"/>
<path d="M15.835 1.7499L7.09375 13.4312" stroke="#2E2E2E" stroke-width="1.5" stroke-linecap="round" stroke-linejoin="round"/>
</svg>
