<svg width="21" height="21" viewBox="0 0 21 21" fill="none" xmlns="http://www.w3.org/2000/svg">
<path d="M15.8153 7.44509L8.32526 3.70009C3.29402 1.18009 1.22901 3.24509 3.74901 8.27634L4.51026 9.79884C4.72901 10.2451 4.72901 10.7613 4.51026 11.2076L3.74901 12.7213C1.22901 17.7526 3.28526 19.8176 8.32526 17.2976L15.8153 13.5526C19.1753 11.8726 19.1753 9.12509 15.8153 7.44509ZM12.989 11.1551H5.84094C5.48219 11.1551 5.18469 10.8576 5.18469 10.4988C5.18469 10.1401 5.48219 9.84259 5.84094 9.84259H12.989C13.3478 9.84259 13.6453 10.1401 13.6453 10.4988C13.6453 10.8576 13.3478 11.1551 12.989 11.1551Z" fill="white"/>
</svg>
