<svg width="25" height="24" viewBox="0 0 25 24" fill="none" xmlns="http://www.w3.org/2000/svg">
<path d="M17.6062 15.4107C17.2352 15.4121 16.8683 15.4896 16.5276 15.6385C16.1869 15.7874 15.8793 16.0045 15.6233 16.277L8.90918 12.8676C9.07434 12.3593 9.07434 11.8108 8.90918 11.3025L15.6343 7.83159C16.116 8.34672 16.7693 8.66169 17.4671 8.71529C18.1649 8.76889 18.8574 8.55729 19.41 8.12161C19.9627 7.68594 20.3359 7.05731 20.4573 6.35793C20.5786 5.65854 20.4394 4.93835 20.0666 4.33734C19.6938 3.73633 19.1142 3.29744 18.4403 3.10598C17.7664 2.91451 17.0464 2.98415 16.4203 3.30135C15.7942 3.61855 15.3067 4.16066 15.0525 4.82231C14.7983 5.48396 14.7956 6.21787 15.045 6.88141L8.38593 10.3188C8.02629 9.8725 7.53942 9.54996 6.99205 9.39544C6.44469 9.24091 5.86362 9.26197 5.32851 9.45571C4.7934 9.64946 4.33043 10.0064 4.00308 10.4776C3.67572 10.9489 3.5 11.5113 3.5 12.0878C3.5 12.6644 3.67572 13.2268 4.00308 13.6981C4.33043 14.1693 4.7934 14.5262 5.32851 14.72C5.86362 14.9137 6.44469 14.9348 6.99205 14.7803C7.53942 14.6257 8.02629 14.3032 8.38593 13.8569L15.0285 17.2496C14.9159 17.5553 14.8581 17.879 14.8577 18.2053C14.8577 18.7581 15.0192 19.2984 15.3218 19.758C15.6245 20.2175 16.0546 20.5757 16.5578 20.7873C17.061 20.9988 17.6147 21.0541 18.1489 20.9463C18.6832 20.8385 19.1739 20.5723 19.559 20.1815C19.9442 19.7906 20.2064 19.2927 20.3127 18.7506C20.419 18.2084 20.3644 17.6465 20.156 17.1359C19.9476 16.6252 19.5946 16.1888 19.1417 15.8817C18.6888 15.5746 18.1564 15.4107 17.6117 15.4107H17.6062Z" fill="#2E2E2E"/>
</svg>
