<svg width="17" height="18" viewBox="0 0 17 18" fill="none" xmlns="http://www.w3.org/2000/svg">
<path d="M14.1062 12.4185C13.7352 12.4199 13.3683 12.4974 13.0276 12.6463C12.6869 12.7952 12.3793 13.0124 12.1233 13.2848L5.40918 9.87537C5.57434 9.36716 5.57434 8.81857 5.40918 8.31036L12.1343 4.8394C12.616 5.35453 13.2693 5.6695 13.9671 5.7231C14.6649 5.7767 15.3574 5.5651 15.91 5.12943C16.4627 4.69375 16.8359 4.06513 16.9573 3.36574C17.0786 2.66635 16.9394 1.94616 16.5666 1.34515C16.1938 0.744146 15.6142 0.305257 14.9403 0.113791C14.2664 -0.0776753 13.5464 -0.00803915 12.9203 0.309164C12.2942 0.626367 11.8067 1.16848 11.5525 1.83012C11.2983 2.49177 11.2956 3.22568 11.545 3.88922L4.88593 7.32664C4.52629 6.88031 4.03942 6.55777 3.49205 6.40325C2.94469 6.24873 2.36362 6.26978 1.82851 6.46352C1.2934 6.65727 0.830432 7.01422 0.503077 7.48545C0.175722 7.95667 0 8.51911 0 9.09566C0 9.67221 0.175722 10.2346 0.503077 10.7059C0.830432 11.1771 1.2934 11.5341 1.82851 11.7278C2.36362 11.9215 2.94469 11.9426 3.49205 11.7881C4.03942 11.6335 4.52629 11.311 4.88593 10.8647L11.5285 14.2574C11.4159 14.5631 11.3581 14.8868 11.3577 15.2132C11.3577 15.7659 11.5192 16.3062 11.8218 16.7658C12.1245 17.2254 12.5546 17.5836 13.0578 17.7951C13.561 18.0066 14.1147 18.0619 14.6489 17.9541C15.1832 17.8463 15.6739 17.5801 16.059 17.1893C16.4442 16.7984 16.7064 16.3005 16.8127 15.7584C16.919 15.2163 16.8644 14.6543 16.656 14.1437C16.4476 13.633 16.0946 13.1966 15.6417 12.8895C15.1888 12.5824 14.6564 12.4185 14.1117 12.4185H14.1062Z" fill="white"/>
</svg>
