<svg width="21" height="22" viewBox="0 0 21 22" fill="none" xmlns="http://www.w3.org/2000/svg">
<path d="M12.0148 3.57131L13.5548 6.65131C13.7648 7.08006 14.3248 7.49131 14.7973 7.57006L17.5885 8.03381C19.3735 8.33131 19.7935 9.62631 18.5073 10.9038L16.3373 13.0738C15.9698 13.4413 15.7685 14.1501 15.8823 14.6576L16.5035 17.3438C16.9935 19.4701 15.8648 20.2926 13.9835 19.1813L11.3673 17.6326C10.8948 17.3526 10.116 17.3526 9.63477 17.6326L7.01852 19.1813C5.14602 20.2926 4.00852 19.4613 4.49852 17.3438L5.11977 14.6576C5.23352 14.1501 5.03227 13.4413 4.66477 13.0738L2.49477 10.9038C1.21727 9.62631 1.62852 8.33131 3.41352 8.03381L6.20477 7.57006C6.66852 7.49131 7.22852 7.08006 7.43852 6.65131L8.97852 3.57131C9.81852 1.90006 11.1835 1.90006 12.0148 3.57131Z" stroke="#2E2E2E" stroke-width="1.2" stroke-linecap="round" stroke-linejoin="round"/>
</svg>
