<svg width="22" height="21" viewBox="0 0 22 21" fill="none" xmlns="http://www.w3.org/2000/svg">
<path d="M7.9043 12.5386C7.9043 13.6674 8.77055 14.5774 9.8468 14.5774H12.043C12.9793 14.5774 13.7405 13.7811 13.7405 12.8011C13.7405 11.7336 13.2768 11.3574 12.5855 11.1124L9.0593 9.88736C8.36805 9.64236 7.9043 9.26611 7.9043 8.19861C7.9043 7.21861 8.66555 6.42236 9.6018 6.42236H11.798C12.8743 6.42236 13.7405 7.33236 13.7405 8.46111" stroke="#2E2E2E" stroke-width="1.5" stroke-linecap="round" stroke-linejoin="round"/>
<path d="M10.8164 5.25V15.75" stroke="#2E2E2E" stroke-width="1.5" stroke-linecap="round" stroke-linejoin="round"/>
<path d="M10.8164 19.25C15.6489 19.25 19.5664 15.3325 19.5664 10.5C19.5664 5.66751 15.6489 1.75 10.8164 1.75C5.98391 1.75 2.06641 5.66751 2.06641 10.5C2.06641 15.3325 5.98391 19.25 10.8164 19.25Z" stroke="#2E2E2E" stroke-width="1.5" stroke-linecap="round" stroke-linejoin="round"/>
</svg>
