<svg width="22" height="22" viewBox="0 0 22 22" fill="none" xmlns="http://www.w3.org/2000/svg">
<path d="M7.94922 13.1358C7.94922 14.3183 8.85672 15.2717 9.98422 15.2717H12.2851C13.2659 15.2717 14.0634 14.4375 14.0634 13.4108C14.0634 12.2925 13.5776 11.8983 12.8534 11.6417L9.15922 10.3583C8.43505 10.1017 7.94922 9.7075 7.94922 8.58917C7.94922 7.5625 8.74672 6.72833 9.72755 6.72833H12.0284C13.1559 6.72833 14.0634 7.68167 14.0634 8.86417" stroke="#3064A3" stroke-width="1.5" stroke-linecap="round" stroke-linejoin="round"/>
<path d="M11 5.5V16.5" stroke="#3064A3" stroke-width="1.5" stroke-linecap="round" stroke-linejoin="round"/>
<path d="M11.0001 20.1665C16.0627 20.1665 20.1667 16.0625 20.1667 10.9999C20.1667 5.93725 16.0627 1.83319 11.0001 1.83319C5.93746 1.83319 1.8334 5.93725 1.8334 10.9999C1.8334 16.0625 5.93746 20.1665 11.0001 20.1665Z" stroke="#3064A3" stroke-width="1.5" stroke-linecap="round" stroke-linejoin="round"/>
</svg>
