<svg width="21" height="21" viewBox="0 0 21 21" fill="none" xmlns="http://www.w3.org/2000/svg">
<path d="M18.375 5.23096C15.4613 4.94221 12.53 4.79346 9.6075 4.79346C7.875 4.79346 6.1425 4.88096 4.41 5.05596L2.625 5.23096" stroke="#2E2E2E" stroke-width="1.5" stroke-linecap="round" stroke-linejoin="round"/>
<path d="M18.375 5.23096C15.4613 4.94221 12.53 4.79346 9.6075 4.79346C7.875 4.79346 6.1425 4.88096 4.41 5.05596L2.625 5.23096" stroke="black" stroke-opacity="0.2" stroke-width="1.5" stroke-linecap="round" stroke-linejoin="round"/>
<path d="M18.375 5.23096C15.4613 4.94221 12.53 4.79346 9.6075 4.79346C7.875 4.79346 6.1425 4.88096 4.41 5.05596L2.625 5.23096" stroke="black" stroke-opacity="0.2" stroke-width="1.5" stroke-linecap="round" stroke-linejoin="round"/>
<path d="M18.375 5.23096C15.4613 4.94221 12.53 4.79346 9.6075 4.79346C7.875 4.79346 6.1425 4.88096 4.41 5.05596L2.625 5.23096" stroke="black" stroke-opacity="0.2" stroke-width="1.5" stroke-linecap="round" stroke-linejoin="round"/>
<path d="M18.375 5.23096C15.4613 4.94221 12.53 4.79346 9.6075 4.79346C7.875 4.79346 6.1425 4.88096 4.41 5.05596L2.625 5.23096" stroke="black" stroke-opacity="0.2" stroke-width="1.5" stroke-linecap="round" stroke-linejoin="round"/>
<path d="M18.375 5.23096C15.4613 4.94221 12.53 4.79346 9.6075 4.79346C7.875 4.79346 6.1425 4.88096 4.41 5.05596L2.625 5.23096" stroke="black" stroke-opacity="0.2" stroke-width="1.5" stroke-linecap="round" stroke-linejoin="round"/>
<path d="M18.375 5.23096C15.4613 4.94221 12.53 4.79346 9.6075 4.79346C7.875 4.79346 6.1425 4.88096 4.41 5.05596L2.625 5.23096" stroke="black" stroke-opacity="0.2" stroke-width="1.5" stroke-linecap="round" stroke-linejoin="round"/>
<path d="M18.375 5.23096C15.4613 4.94221 12.53 4.79346 9.6075 4.79346C7.875 4.79346 6.1425 4.88096 4.41 5.05596L2.625 5.23096" stroke="black" stroke-opacity="0.2" stroke-width="1.5" stroke-linecap="round" stroke-linejoin="round"/>
<path d="M18.375 5.23096C15.4613 4.94221 12.53 4.79346 9.6075 4.79346C7.875 4.79346 6.1425 4.88096 4.41 5.05596L2.625 5.23096" stroke="black" stroke-opacity="0.2" stroke-width="1.5" stroke-linecap="round" stroke-linejoin="round"/>
<path d="M18.375 5.23096C15.4613 4.94221 12.53 4.79346 9.6075 4.79346C7.875 4.79346 6.1425 4.88096 4.41 5.05596L2.625 5.23096" stroke="black" stroke-opacity="0.2" stroke-width="1.5" stroke-linecap="round" stroke-linejoin="round"/>
<path d="M18.375 5.23096C15.4613 4.94221 12.53 4.79346 9.6075 4.79346C7.875 4.79346 6.1425 4.88096 4.41 5.05596L2.625 5.23096" stroke="black" stroke-opacity="0.2" stroke-width="1.5" stroke-linecap="round" stroke-linejoin="round"/>
<path d="M18.375 5.23096C15.4613 4.94221 12.53 4.79346 9.6075 4.79346C7.875 4.79346 6.1425 4.88096 4.41 5.05596L2.625 5.23096" stroke="black" stroke-opacity="0.2" stroke-width="1.5" stroke-linecap="round" stroke-linejoin="round"/>
<path d="M18.375 5.23096C15.4613 4.94221 12.53 4.79346 9.6075 4.79346C7.875 4.79346 6.1425 4.88096 4.41 5.05596L2.625 5.23096" stroke="black" stroke-opacity="0.2" stroke-width="1.5" stroke-linecap="round" stroke-linejoin="round"/>
<path d="M18.375 5.23096C15.4613 4.94221 12.53 4.79346 9.6075 4.79346C7.875 4.79346 6.1425 4.88096 4.41 5.05596L2.625 5.23096" stroke="black" stroke-opacity="0.2" stroke-width="1.5" stroke-linecap="round" stroke-linejoin="round"/>
<path d="M7.43726 4.35363L7.62976 3.20738C7.76976 2.37613 7.87476 1.75488 9.35351 1.75488H11.646C13.1248 1.75488 13.2385 2.41113 13.3698 3.21613L13.5623 4.35363" stroke="#2E2E2E" stroke-width="1.5" stroke-linecap="round" stroke-linejoin="round"/>
<path d="M7.43726 4.35363L7.62976 3.20738C7.76976 2.37613 7.87476 1.75488 9.35351 1.75488H11.646C13.1248 1.75488 13.2385 2.41113 13.3698 3.21613L13.5623 4.35363" stroke="black" stroke-opacity="0.2" stroke-width="1.5" stroke-linecap="round" stroke-linejoin="round"/>
<path d="M7.43726 4.35363L7.62976 3.20738C7.76976 2.37613 7.87476 1.75488 9.35351 1.75488H11.646C13.1248 1.75488 13.2385 2.41113 13.3698 3.21613L13.5623 4.35363" stroke="black" stroke-opacity="0.2" stroke-width="1.5" stroke-linecap="round" stroke-linejoin="round"/>
<path d="M7.43726 4.35363L7.62976 3.20738C7.76976 2.37613 7.87476 1.75488 9.35351 1.75488H11.646C13.1248 1.75488 13.2385 2.41113 13.3698 3.21613L13.5623 4.35363" stroke="black" stroke-opacity="0.2" stroke-width="1.5" stroke-linecap="round" stroke-linejoin="round"/>
<path d="M7.43726 4.35363L7.62976 3.20738C7.76976 2.37613 7.87476 1.75488 9.35351 1.75488H11.646C13.1248 1.75488 13.2385 2.41113 13.3698 3.21613L13.5623 4.35363" stroke="black" stroke-opacity="0.2" stroke-width="1.5" stroke-linecap="round" stroke-linejoin="round"/>
<path d="M7.43726 4.35363L7.62976 3.20738C7.76976 2.37613 7.87476 1.75488 9.35351 1.75488H11.646C13.1248 1.75488 13.2385 2.41113 13.3698 3.21613L13.5623 4.35363" stroke="black" stroke-opacity="0.2" stroke-width="1.5" stroke-linecap="round" stroke-linejoin="round"/>
<path d="M7.43726 4.35363L7.62976 3.20738C7.76976 2.37613 7.87476 1.75488 9.35351 1.75488H11.646C13.1248 1.75488 13.2385 2.41113 13.3698 3.21613L13.5623 4.35363" stroke="black" stroke-opacity="0.2" stroke-width="1.5" stroke-linecap="round" stroke-linejoin="round"/>
<path d="M7.43726 4.35363L7.62976 3.20738C7.76976 2.37613 7.87476 1.75488 9.35351 1.75488H11.646C13.1248 1.75488 13.2385 2.41113 13.3698 3.21613L13.5623 4.35363" stroke="black" stroke-opacity="0.2" stroke-width="1.5" stroke-linecap="round" stroke-linejoin="round"/>
<path d="M7.43726 4.35363L7.62976 3.20738C7.76976 2.37613 7.87476 1.75488 9.35351 1.75488H11.646C13.1248 1.75488 13.2385 2.41113 13.3698 3.21613L13.5623 4.35363" stroke="black" stroke-opacity="0.2" stroke-width="1.5" stroke-linecap="round" stroke-linejoin="round"/>
<path d="M7.43726 4.35363L7.62976 3.20738C7.76976 2.37613 7.87476 1.75488 9.35351 1.75488H11.646C13.1248 1.75488 13.2385 2.41113 13.3698 3.21613L13.5623 4.35363" stroke="black" stroke-opacity="0.2" stroke-width="1.5" stroke-linecap="round" stroke-linejoin="round"/>
<path d="M7.43726 4.35363L7.62976 3.20738C7.76976 2.37613 7.87476 1.75488 9.35351 1.75488H11.646C13.1248 1.75488 13.2385 2.41113 13.3698 3.21613L13.5623 4.35363" stroke="black" stroke-opacity="0.2" stroke-width="1.5" stroke-linecap="round" stroke-linejoin="round"/>
<path d="M7.43726 4.35363L7.62976 3.20738C7.76976 2.37613 7.87476 1.75488 9.35351 1.75488H11.646C13.1248 1.75488 13.2385 2.41113 13.3698 3.21613L13.5623 4.35363" stroke="black" stroke-opacity="0.2" stroke-width="1.5" stroke-linecap="round" stroke-linejoin="round"/>
<path d="M7.43726 4.35363L7.62976 3.20738C7.76976 2.37613 7.87476 1.75488 9.35351 1.75488H11.646C13.1248 1.75488 13.2385 2.41113 13.3698 3.21613L13.5623 4.35363" stroke="black" stroke-opacity="0.2" stroke-width="1.5" stroke-linecap="round" stroke-linejoin="round"/>
<path d="M7.43726 4.35363L7.62976 3.20738C7.76976 2.37613 7.87476 1.75488 9.35351 1.75488H11.646C13.1248 1.75488 13.2385 2.41113 13.3698 3.21613L13.5623 4.35363" stroke="black" stroke-opacity="0.2" stroke-width="1.5" stroke-linecap="round" stroke-linejoin="round"/>
<path d="M16.2272 5.72803L15.6838 16.1924C15.5918 17.8239 15.5166 19.0917 13.1839 19.0917H7.8161C5.48339 19.0917 5.40814 17.8239 5.31617 16.1924L4.77271 5.72803" stroke="#2E2E2E" stroke-width="1.5" stroke-linecap="round" stroke-linejoin="round"/>
<path d="M16.2272 5.72803L15.6838 16.1924C15.5918 17.8239 15.5166 19.0917 13.1839 19.0917H7.8161C5.48339 19.0917 5.40814 17.8239 5.31617 16.1924L4.77271 5.72803" stroke="black" stroke-opacity="0.2" stroke-width="1.5" stroke-linecap="round" stroke-linejoin="round"/>
<path d="M16.2272 5.72803L15.6838 16.1924C15.5918 17.8239 15.5166 19.0917 13.1839 19.0917H7.8161C5.48339 19.0917 5.40814 17.8239 5.31617 16.1924L4.77271 5.72803" stroke="black" stroke-opacity="0.2" stroke-width="1.5" stroke-linecap="round" stroke-linejoin="round"/>
<path d="M16.2272 5.72803L15.6838 16.1924C15.5918 17.8239 15.5166 19.0917 13.1839 19.0917H7.8161C5.48339 19.0917 5.40814 17.8239 5.31617 16.1924L4.77271 5.72803" stroke="black" stroke-opacity="0.2" stroke-width="1.5" stroke-linecap="round" stroke-linejoin="round"/>
<path d="M16.2272 5.72803L15.6838 16.1924C15.5918 17.8239 15.5166 19.0917 13.1839 19.0917H7.8161C5.48339 19.0917 5.40814 17.8239 5.31617 16.1924L4.77271 5.72803" stroke="black" stroke-opacity="0.2" stroke-width="1.5" stroke-linecap="round" stroke-linejoin="round"/>
<path d="M16.2272 5.72803L15.6838 16.1924C15.5918 17.8239 15.5166 19.0917 13.1839 19.0917H7.8161C5.48339 19.0917 5.40814 17.8239 5.31617 16.1924L4.77271 5.72803" stroke="black" stroke-opacity="0.2" stroke-width="1.5" stroke-linecap="round" stroke-linejoin="round"/>
<path d="M16.2272 5.72803L15.6838 16.1924C15.5918 17.8239 15.5166 19.0917 13.1839 19.0917H7.8161C5.48339 19.0917 5.40814 17.8239 5.31617 16.1924L4.77271 5.72803" stroke="black" stroke-opacity="0.2" stroke-width="1.5" stroke-linecap="round" stroke-linejoin="round"/>
<path d="M16.2272 5.72803L15.6838 16.1924C15.5918 17.8239 15.5166 19.0917 13.1839 19.0917H7.8161C5.48339 19.0917 5.40814 17.8239 5.31617 16.1924L4.77271 5.72803" stroke="black" stroke-opacity="0.2" stroke-width="1.5" stroke-linecap="round" stroke-linejoin="round"/>
<path d="M16.2272 5.72803L15.6838 16.1924C15.5918 17.8239 15.5166 19.0917 13.1839 19.0917H7.8161C5.48339 19.0917 5.40814 17.8239 5.31617 16.1924L4.77271 5.72803" stroke="black" stroke-opacity="0.2" stroke-width="1.5" stroke-linecap="round" stroke-linejoin="round"/>
<path d="M16.2272 5.72803L15.6838 16.1924C15.5918 17.8239 15.5166 19.0917 13.1839 19.0917H7.8161C5.48339 19.0917 5.40814 17.8239 5.31617 16.1924L4.77271 5.72803" stroke="black" stroke-opacity="0.2" stroke-width="1.5" stroke-linecap="round" stroke-linejoin="round"/>
<path d="M16.2272 5.72803L15.6838 16.1924C15.5918 17.8239 15.5166 19.0917 13.1839 19.0917H7.8161C5.48339 19.0917 5.40814 17.8239 5.31617 16.1924L4.77271 5.72803" stroke="black" stroke-opacity="0.2" stroke-width="1.5" stroke-linecap="round" stroke-linejoin="round"/>
<path d="M16.2272 5.72803L15.6838 16.1924C15.5918 17.8239 15.5166 19.0917 13.1839 19.0917H7.8161C5.48339 19.0917 5.40814 17.8239 5.31617 16.1924L4.77271 5.72803" stroke="black" stroke-opacity="0.2" stroke-width="1.5" stroke-linecap="round" stroke-linejoin="round"/>
<path d="M16.2272 5.72803L15.6838 16.1924C15.5918 17.8239 15.5166 19.0917 13.1839 19.0917H7.8161C5.48339 19.0917 5.40814 17.8239 5.31617 16.1924L4.77271 5.72803" stroke="black" stroke-opacity="0.2" stroke-width="1.5" stroke-linecap="round" stroke-linejoin="round"/>
<path d="M16.2272 5.72803L15.6838 16.1924C15.5918 17.8239 15.5166 19.0917 13.1839 19.0917H7.8161C5.48339 19.0917 5.40814 17.8239 5.31617 16.1924L4.77271 5.72803" stroke="black" stroke-opacity="0.2" stroke-width="1.5" stroke-linecap="round" stroke-linejoin="round"/>
<path d="M9.03882 14.4375H11.9526" stroke="#2E2E2E" stroke-width="1.5" stroke-linecap="round" stroke-linejoin="round"/>
<path d="M9.03882 14.4375H11.9526" stroke="black" stroke-opacity="0.2" stroke-width="1.5" stroke-linecap="round" stroke-linejoin="round"/>
<path d="M9.03882 14.4375H11.9526" stroke="black" stroke-opacity="0.2" stroke-width="1.5" stroke-linecap="round" stroke-linejoin="round"/>
<path d="M9.03882 14.4375H11.9526" stroke="black" stroke-opacity="0.2" stroke-width="1.5" stroke-linecap="round" stroke-linejoin="round"/>
<path d="M9.03882 14.4375H11.9526" stroke="black" stroke-opacity="0.2" stroke-width="1.5" stroke-linecap="round" stroke-linejoin="round"/>
<path d="M9.03882 14.4375H11.9526" stroke="black" stroke-opacity="0.2" stroke-width="1.5" stroke-linecap="round" stroke-linejoin="round"/>
<path d="M9.03882 14.4375H11.9526" stroke="black" stroke-opacity="0.2" stroke-width="1.5" stroke-linecap="round" stroke-linejoin="round"/>
<path d="M9.03882 14.4375H11.9526" stroke="black" stroke-opacity="0.2" stroke-width="1.5" stroke-linecap="round" stroke-linejoin="round"/>
<path d="M9.03882 14.4375H11.9526" stroke="black" stroke-opacity="0.2" stroke-width="1.5" stroke-linecap="round" stroke-linejoin="round"/>
<path d="M9.03882 14.4375H11.9526" stroke="black" stroke-opacity="0.2" stroke-width="1.5" stroke-linecap="round" stroke-linejoin="round"/>
<path d="M9.03882 14.4375H11.9526" stroke="black" stroke-opacity="0.2" stroke-width="1.5" stroke-linecap="round" stroke-linejoin="round"/>
<path d="M9.03882 14.4375H11.9526" stroke="black" stroke-opacity="0.2" stroke-width="1.5" stroke-linecap="round" stroke-linejoin="round"/>
<path d="M9.03882 14.4375H11.9526" stroke="black" stroke-opacity="0.2" stroke-width="1.5" stroke-linecap="round" stroke-linejoin="round"/>
<path d="M9.03882 14.4375H11.9526" stroke="black" stroke-opacity="0.2" stroke-width="1.5" stroke-linecap="round" stroke-linejoin="round"/>
<path d="M8.31274 10.9351H12.6877" stroke="#2E2E2E" stroke-width="1.5" stroke-linecap="round" stroke-linejoin="round"/>
<path d="M8.31274 10.9351H12.6877" stroke="black" stroke-opacity="0.2" stroke-width="1.5" stroke-linecap="round" stroke-linejoin="round"/>
<path d="M8.31274 10.9351H12.6877" stroke="black" stroke-opacity="0.2" stroke-width="1.5" stroke-linecap="round" stroke-linejoin="round"/>
<path d="M8.31274 10.9351H12.6877" stroke="black" stroke-opacity="0.2" stroke-width="1.5" stroke-linecap="round" stroke-linejoin="round"/>
<path d="M8.31274 10.9351H12.6877" stroke="black" stroke-opacity="0.2" stroke-width="1.5" stroke-linecap="round" stroke-linejoin="round"/>
<path d="M8.31274 10.9351H12.6877" stroke="black" stroke-opacity="0.2" stroke-width="1.5" stroke-linecap="round" stroke-linejoin="round"/>
<path d="M8.31274 10.9351H12.6877" stroke="black" stroke-opacity="0.2" stroke-width="1.5" stroke-linecap="round" stroke-linejoin="round"/>
<path d="M8.31274 10.9351H12.6877" stroke="black" stroke-opacity="0.2" stroke-width="1.5" stroke-linecap="round" stroke-linejoin="round"/>
<path d="M8.31274 10.9351H12.6877" stroke="black" stroke-opacity="0.2" stroke-width="1.5" stroke-linecap="round" stroke-linejoin="round"/>
<path d="M8.31274 10.9351H12.6877" stroke="black" stroke-opacity="0.2" stroke-width="1.5" stroke-linecap="round" stroke-linejoin="round"/>
<path d="M8.31274 10.9351H12.6877" stroke="black" stroke-opacity="0.2" stroke-width="1.5" stroke-linecap="round" stroke-linejoin="round"/>
<path d="M8.31274 10.9351H12.6877" stroke="black" stroke-opacity="0.2" stroke-width="1.5" stroke-linecap="round" stroke-linejoin="round"/>
<path d="M8.31274 10.9351H12.6877" stroke="black" stroke-opacity="0.2" stroke-width="1.5" stroke-linecap="round" stroke-linejoin="round"/>
<path d="M8.31274 10.9351H12.6877" stroke="black" stroke-opacity="0.2" stroke-width="1.5" stroke-linecap="round" stroke-linejoin="round"/>
</svg>
