<svg width="48" height="29" viewBox="0 0 48 29" fill="none" xmlns="http://www.w3.org/2000/svg">
<g clip-path="url(#clip0_229_7376)">
<rect x="0.676147" y="0.494507" width="47.376" height="28.4256" rx="1.89504" fill="#0072CE"/>
<path fill-rule="evenodd" clip-rule="evenodd" d="M43.0375 17.5952H41.1398C40.9503 17.5952 40.8244 17.6023 40.7184 17.6737C40.6085 17.7441 40.5662 17.8485 40.5662 17.9863C40.5662 18.1502 40.659 18.2617 40.7939 18.3099C40.9038 18.348 41.0218 18.3591 41.1952 18.3591L41.7596 18.3742C42.329 18.3882 42.7092 18.4858 42.941 18.7238C42.9831 18.757 43.0085 18.7942 43.0375 18.8314V17.5952ZM43.0373 20.459C42.7844 20.8277 42.2915 21.0147 41.6243 21.0147H39.6134V20.0831H41.6161C41.8148 20.0831 41.9538 20.0571 42.0375 19.9756C42.1101 19.9084 42.1606 19.8108 42.1606 19.6922C42.1606 19.5657 42.1101 19.4652 42.0335 19.4049C41.9579 19.3386 41.8479 19.3085 41.6666 19.3085C40.6889 19.2754 39.4691 19.3386 39.4691 17.9639C39.4691 17.3338 39.8704 16.6705 40.9631 16.6705H43.0372V15.8062H41.1101C40.5286 15.8062 40.1061 15.945 39.8069 16.1609V15.8062H36.9565C36.5007 15.8062 35.9656 15.9188 35.7126 16.1609V15.8062H30.6225V16.1609C30.2174 15.8696 29.5338 15.8062 29.2184 15.8062H25.8609V16.1609C25.5404 15.8515 24.8277 15.8062 24.3933 15.8062H20.6357L19.7758 16.7339L18.9705 15.8062H13.3575V21.8679H18.8649L19.7509 20.9255L20.5855 21.8679L23.9803 21.8709V20.445H24.3141C24.7645 20.4519 25.2957 20.4338 25.7644 20.2318V21.8678H28.5645V20.2879H28.6996C28.872 20.2879 28.8889 20.295 28.8889 20.4667V21.8676H37.3951C37.9352 21.8676 38.4996 21.7298 38.8122 21.4797V21.8676H41.5104C42.0718 21.8676 42.6201 21.7892 43.0373 21.5882V20.459V20.459ZM38.8841 18.7227C39.0869 18.9319 39.1955 19.196 39.1955 19.6432C39.1955 20.5777 38.6099 21.014 37.5598 21.014H35.5317V20.0824H37.5516C37.7491 20.0824 37.8892 20.0563 37.977 19.9749C38.0486 19.9077 38.1 19.8101 38.1 19.6915C38.1 19.565 38.0444 19.4645 37.9729 19.4042C37.8933 19.3379 37.7834 19.3078 37.6021 19.3078C36.6283 19.2747 35.4088 19.3379 35.4088 17.9632C35.4088 17.3331 35.8059 16.6698 36.8975 16.6698H38.9851V17.5944H37.0749C36.8856 17.5944 36.7625 17.6015 36.6577 17.6729C36.5437 17.7432 36.5014 17.8476 36.5014 17.9855C36.5014 18.1493 36.5982 18.2608 36.7292 18.309C36.8391 18.3472 36.9571 18.3583 37.1344 18.3583L37.695 18.3734C38.2603 18.3871 38.6483 18.4846 38.8841 18.7227V18.7227ZM29.4877 18.4549C29.3484 18.5373 29.1762 18.5444 28.9736 18.5444H27.7086V17.5687H28.9908C29.1762 17.5687 29.3617 17.5726 29.4877 17.6471C29.6227 17.7175 29.7033 17.852 29.7033 18.0379C29.7033 18.2238 29.6227 18.3735 29.4877 18.4549V18.4549ZM30.1166 18.9952C30.3484 19.0805 30.5378 19.2334 30.6267 19.3599C30.7737 19.572 30.795 19.77 30.7992 20.1529V21.0141H29.7538V20.4706C29.7538 20.2092 29.779 19.8222 29.5855 19.6202C29.4333 19.4646 29.2014 19.4274 28.8215 19.4274H27.7087V21.0141H26.6624V16.6698H29.0664C29.5936 16.6698 29.9776 16.693 30.3193 16.8748C30.6479 17.0728 30.8546 17.3439 30.8546 17.8395C30.8545 18.5329 30.3907 18.8868 30.1166 18.9952V18.9952ZM31.4324 16.6698H34.9078V17.5682H32.4694V18.358H34.8482V19.2444H32.4694V20.1087L34.9078 20.1127V21.0141H31.4324V16.6698V16.6698ZM24.4068 18.675H23.0611V17.5687H24.4188C24.7948 17.5687 25.0557 17.7214 25.0557 18.1013C25.0557 18.477 24.8069 18.675 24.4068 18.675V18.675ZM22.0252 20.6198L20.4264 18.8502L22.0252 17.1369V20.6198V20.6198ZM17.8952 20.1092H15.335V19.2448H17.6211V18.3585H15.335V17.5687H17.9456L19.0846 18.8347L17.8952 20.1092V20.1092ZM26.1723 18.101C26.1723 19.3078 25.2692 19.557 24.359 19.557H23.0597V21.0141H21.0358L19.7536 19.576L18.4211 21.0141H14.2965V16.6698H18.4846L19.7657 18.0938L21.0902 16.6698H24.4174C25.2438 16.6698 26.1723 16.8979 26.1723 18.101V18.101Z" fill="white"/>
<path fill-rule="evenodd" clip-rule="evenodd" d="M9.32827 11.6685L8.61557 9.93704L7.90694 11.6685H9.32827ZM25.029 10.9753C24.8859 11.0619 24.7167 11.0648 24.5139 11.0648H23.249V10.1001H24.5311C24.7126 10.1001 24.9019 10.1082 25.0249 10.1784C25.16 10.2417 25.2436 10.3764 25.2436 10.5624C25.2436 10.7522 25.1641 10.905 25.029 10.9753V10.9753ZM34.0547 11.6685L33.3341 9.93704L32.6175 11.6685H34.0547V11.6685ZM17.2318 13.5401H16.1643L16.1604 10.1384L14.6505 13.5401H13.7362L12.2224 10.1354V13.5401H10.1045L9.70442 12.5713H7.53636L7.13218 13.5401H6.00123L7.8659 9.19679H9.41298L11.184 13.309V9.19679H12.8835L14.2462 12.1432L15.498 9.19679H17.2317V13.5401H17.2318ZM21.4859 13.5401H18.0074V9.19679H21.4859V10.1012H19.0488V10.8841H21.4275V11.7744H19.0488V12.6418H21.4859V13.5401V13.5401ZM26.3919 10.3665C26.3919 11.059 25.9283 11.4168 25.6581 11.5242C25.886 11.6106 26.0806 11.7634 26.1732 11.8899C26.3203 12.106 26.3456 12.2989 26.3456 12.6868V13.5401H25.2953L25.2914 12.9923C25.2914 12.731 25.3165 12.3551 25.127 12.1462C24.9749 11.9934 24.743 11.9603 24.3681 11.9603H23.2503V13.5401H22.2091V9.19679H24.6041C25.1362 9.19679 25.5283 9.21081 25.865 9.40482C26.1944 9.59884 26.3919 9.88207 26.3919 10.3665V10.3665ZM28.0567 13.5401H26.9943V9.19679H28.0567V13.5401V13.5401ZM40.382 13.5401H38.9064L36.9327 10.2802V13.5401H34.812L34.4068 12.5713H32.2437L31.8506 13.5401H30.6321C30.126 13.5401 29.4852 13.4284 29.1223 13.0597C28.7563 12.6909 28.5659 12.1914 28.5659 11.4016C28.5659 10.7574 28.6797 10.1686 29.1272 9.70325C29.4639 9.35662 29.9911 9.19679 30.7086 9.19679H31.7167V10.1274H30.7298C30.3498 10.1274 30.1352 10.1838 29.9285 10.3847C29.751 10.5676 29.6292 10.9133 29.6292 11.3686C29.6292 11.8339 29.722 12.1694 29.9155 12.3885C30.0758 12.5604 30.3671 12.6126 30.6412 12.6126H31.1089L32.5764 9.19692H34.1367L35.8996 13.305V9.19692H37.4851L39.3154 12.2218V9.19692H40.382V13.5401V13.5401ZM5.98924 14.3951H7.76836L8.16952 13.4304H9.06763L9.46773 14.3951H12.9683V13.6575L13.2808 14.3982H15.098L15.4105 13.6465V14.3951H24.1101L24.106 12.8115H24.2743C24.3922 12.8156 24.4266 12.8265 24.4266 13.0205V14.3951H28.9261V14.0264C29.289 14.2203 29.8535 14.3951 30.5962 14.3951H32.4892L32.8943 13.4304H33.7924L34.1885 14.3951H37.8363V13.4787L38.3887 14.3951H41.3117V8.33752H38.4189V9.05293L38.0138 8.33752H35.0454V9.05293L34.6734 8.33752H30.6638C29.9926 8.33752 29.4026 8.43093 28.9261 8.69123V8.33752H26.1591V8.69123C25.8558 8.42294 25.4426 8.33752 24.9831 8.33752H14.8742L14.196 9.90209L13.4994 8.33752H10.3154V9.05293L9.9656 8.33752H7.25013L5.98911 11.2176V14.3951H5.98924Z" fill="white"/>
</g>
<defs>
<clipPath id="clip0_229_7376">
<rect x="0.5" y="0.287231" width="47.376" height="28.4256" rx="3.92132" fill="white"/>
</clipPath>
</defs>
</svg>
