<svg width="48" height="29" viewBox="0 0 48 29" fill="none" xmlns="http://www.w3.org/2000/svg">
<g clip-path="url(#clip0_229_7366)">
<path fill-rule="evenodd" clip-rule="evenodd" d="M4.46074 0.400024C3.37092 0.400024 2.32575 0.824462 1.55513 1.57997C0.784519 2.33547 0.351593 3.36015 0.351593 4.4286L0.351593 6.95317H47.7276V4.4286C47.7276 3.36015 47.2947 2.33547 46.5241 1.57997C45.7534 0.824462 44.7083 0.400024 43.6185 0.400024H4.46074ZM0.351593 24.5715V10.3103H47.7276V24.5715C47.7276 25.6399 47.2947 26.6646 46.5241 27.4201C45.7534 28.1756 44.7083 28.6 43.6185 28.6H4.46074C3.37092 28.6 2.32575 28.1756 1.55513 27.4201C0.784519 26.6646 0.351593 25.6399 0.351593 24.5715ZM34.2722 18.8643C33.8181 18.8643 33.3826 19.0412 33.0615 19.356C32.7404 19.6707 32.56 20.0977 32.56 20.5429C32.56 20.9881 32.7404 21.415 33.0615 21.7298C33.3826 22.0446 33.8181 22.2215 34.2722 22.2215H39.5093C39.9634 22.2215 40.3989 22.0446 40.72 21.7298C41.0411 21.415 41.2215 20.9881 41.2215 20.5429C41.2215 20.0977 41.0411 19.6707 40.72 19.356C40.3989 19.0412 39.9634 18.8643 39.5093 18.8643H34.2722Z" fill="#BEC3C5"/>
</g>
<rect x="1.064" y="0.851232" width="45.872" height="27.072" rx="3.33593" stroke="#BEC3C5" stroke-width="1.128" stroke-linejoin="bevel"/>
<defs>
<clipPath id="clip0_229_7366">
<rect x="0.5" y="0.287231" width="47" height="28.2" rx="3.89993" fill="white"/>
</clipPath>
</defs>
</svg>
