<svg width="391" height="128" viewBox="0 0 391 128" fill="none" xmlns="http://www.w3.org/2000/svg">
<rect x="0.5" width="390" height="128" rx="20" fill="url(#paint0_linear_229_10162)"/>
<mask id="mask0_229_10162" style="mask-type:alpha" maskUnits="userSpaceOnUse" x="0" y="0" width="391" height="128">
<rect x="0.5" width="390" height="128" rx="20" fill="#FF314A"/>
</mask>
<g mask="url(#mask0_229_10162)">
<ellipse opacity="0.1" cx="360.5" cy="18.9108" rx="110" ry="110.16" fill="white"/>
<ellipse opacity="0.1" cx="274.5" cy="-3.1205" rx="110" ry="110.16" fill="white"/>
<ellipse opacity="0.1" cx="93.5" cy="166.126" rx="110" ry="110.16" fill="white"/>
<ellipse opacity="0.1" cx="7.5" cy="144.094" rx="110" ry="110.16" fill="white"/>
<path d="M93.528 45.6364L93.7055 42.8878L91.4044 44.429L90.4527 42.7528L92.9314 41.5455L90.4527 40.3381L91.4044 38.6619L93.7055 40.2031L93.528 37.4545H95.4385L95.2538 40.2031L97.555 38.6619L98.5067 40.3381L96.0351 41.5455L98.5067 42.7528L97.555 44.429L95.2538 42.8878L95.4385 45.6364H93.528ZM105.817 45.6364L105.995 42.8878L103.693 44.429L102.742 42.7528L105.22 41.5455L102.742 40.3381L103.693 38.6619L105.995 40.2031L105.817 37.4545H107.728L107.543 40.2031L109.844 38.6619L110.796 40.3381L108.324 41.5455L110.796 42.7528L109.844 44.429L107.543 42.8878L107.728 45.6364H105.817ZM118.106 45.6364L118.284 42.8878L115.983 44.429L115.031 42.7528L117.51 41.5455L115.031 40.3381L115.983 38.6619L118.284 40.2031L118.106 37.4545H120.017L119.832 40.2031L122.133 38.6619L123.085 40.3381L120.613 41.5455L123.085 42.7528L122.133 44.429L119.832 42.8878L120.017 45.6364H118.106ZM130.395 45.6364L130.573 42.8878L128.272 44.429L127.32 42.7528L129.799 41.5455L127.32 40.3381L128.272 38.6619L130.573 40.2031L130.395 37.4545H132.306L132.121 40.2031L134.422 38.6619L135.374 40.3381L132.902 41.5455L135.374 42.7528L134.422 44.429L132.121 42.8878L132.306 45.6364H130.395ZM148.313 45.6364L148.491 42.8878L146.19 44.429L145.238 42.7528L147.717 41.5455L145.238 40.3381L146.19 38.6619L148.491 40.2031L148.313 37.4545H150.224L150.039 40.2031L152.34 38.6619L153.292 40.3381L150.82 41.5455L153.292 42.7528L152.34 44.429L150.039 42.8878L150.224 45.6364H148.313ZM160.602 45.6364L160.78 42.8878L158.479 44.429L157.527 42.7528L160.006 41.5455L157.527 40.3381L158.479 38.6619L160.78 40.2031L160.602 37.4545H162.513L162.328 40.2031L164.629 38.6619L165.581 40.3381L163.109 41.5455L165.581 42.7528L164.629 44.429L162.328 42.8878L162.513 45.6364H160.602ZM172.891 45.6364L173.069 42.8878L170.768 44.429L169.816 42.7528L172.295 41.5455L169.816 40.3381L170.768 38.6619L173.069 40.2031L172.891 37.4545H174.802L174.617 40.2031L176.918 38.6619L177.87 40.3381L175.398 41.5455L177.87 42.7528L176.918 44.429L174.617 42.8878L174.802 45.6364H172.891ZM185.18 45.6364L185.358 42.8878L183.057 44.429L182.105 42.7528L184.584 41.5455L182.105 40.3381L183.057 38.6619L185.358 40.2031L185.18 37.4545H187.091L186.906 40.2031L189.207 38.6619L190.159 40.3381L187.687 41.5455L190.159 42.7528L189.207 44.429L186.906 42.8878L187.091 45.6364H185.18ZM205.286 52.3196C204.064 52.3149 203.013 52.0142 202.132 51.4176C201.256 50.821 200.582 49.9569 200.108 48.8253C199.639 47.6937 199.407 46.3324 199.412 44.7415C199.412 43.1553 199.647 41.8035 200.115 40.6861C200.589 39.5687 201.264 38.7187 202.139 38.1364C203.02 37.5492 204.069 37.2557 205.286 37.2557C206.503 37.2557 207.549 37.5492 208.425 38.1364C209.306 38.7235 209.983 39.5758 210.456 40.6932C210.93 41.8059 211.164 43.1553 211.159 44.7415C211.159 46.3371 210.923 47.7008 210.449 48.8324C209.98 49.964 209.308 50.8281 208.432 51.4247C207.556 52.0213 206.507 52.3196 205.286 52.3196ZM205.286 49.7699C206.119 49.7699 206.784 49.3509 207.282 48.5128C207.779 47.6747 208.025 46.4176 208.02 44.7415C208.02 43.6383 207.907 42.7197 207.679 41.9858C207.457 41.2519 207.139 40.7003 206.728 40.331C206.32 39.9616 205.84 39.777 205.286 39.777C204.457 39.777 203.794 40.1913 203.297 41.0199C202.8 41.8485 202.549 43.089 202.544 44.7415C202.544 45.8589 202.656 46.7917 202.878 47.5398C203.105 48.2831 203.425 48.8419 203.837 49.2159C204.249 49.5852 204.732 49.7699 205.286 49.7699ZM214.352 52V49.7841L219.53 44.9901C219.97 44.5639 220.339 44.1804 220.638 43.8395C220.941 43.4986 221.17 43.1648 221.327 42.8381C221.483 42.5066 221.561 42.1491 221.561 41.7656C221.561 41.3395 221.464 40.9725 221.27 40.6648C221.076 40.3523 220.811 40.1132 220.474 39.9474C220.138 39.777 219.757 39.6918 219.331 39.6918C218.886 39.6918 218.498 39.7817 218.166 39.9616C217.835 40.1416 217.579 40.3996 217.399 40.7358C217.219 41.072 217.129 41.4721 217.129 41.9361H214.21C214.21 40.9844 214.426 40.1581 214.856 39.4574C215.287 38.7566 215.891 38.2145 216.668 37.831C217.444 37.4474 218.339 37.2557 219.352 37.2557C220.394 37.2557 221.301 37.4403 222.072 37.8097C222.849 38.1742 223.453 38.6809 223.883 39.3295C224.314 39.9782 224.53 40.7216 224.53 41.5597C224.53 42.1089 224.421 42.651 224.203 43.1861C223.99 43.7211 223.609 44.3153 223.06 44.9687C222.51 45.6174 221.736 46.3963 220.737 47.3054L218.614 49.3864V49.4858H224.722V52H214.352ZM227.95 52V49.7841L233.127 44.9901C233.568 44.5639 233.937 44.1804 234.235 43.8395C234.538 43.4986 234.768 43.1648 234.924 42.8381C235.081 42.5066 235.159 42.1491 235.159 41.7656C235.159 41.3395 235.062 40.9725 234.867 40.6648C234.673 40.3523 234.408 40.1132 234.072 39.9474C233.736 39.777 233.355 39.6918 232.929 39.6918C232.483 39.6918 232.095 39.7817 231.764 39.9616C231.432 40.1416 231.177 40.3996 230.997 40.7358C230.817 41.072 230.727 41.4721 230.727 41.9361H227.808C227.808 40.9844 228.023 40.1581 228.454 39.4574C228.885 38.7566 229.489 38.2145 230.265 37.831C231.042 37.4474 231.937 37.2557 232.95 37.2557C233.992 37.2557 234.898 37.4403 235.67 37.8097C236.447 38.1742 237.05 38.6809 237.481 39.3295C237.912 39.9782 238.127 40.7216 238.127 41.5597C238.127 42.1089 238.018 42.651 237.801 43.1861C237.588 43.7211 237.206 44.3153 236.657 44.9687C236.108 45.6174 235.334 46.3963 234.335 47.3054L232.211 49.3864V49.4858H238.319V52H227.95ZM241.547 52V49.7841L246.725 44.9901C247.165 44.5639 247.535 44.1804 247.833 43.8395C248.136 43.4986 248.366 43.1648 248.522 42.8381C248.678 42.5066 248.756 42.1491 248.756 41.7656C248.756 41.3395 248.659 40.9725 248.465 40.6648C248.271 40.3523 248.006 40.1132 247.67 39.9474C247.333 39.777 246.952 39.6918 246.526 39.6918C246.081 39.6918 245.693 39.7817 245.361 39.9616C245.03 40.1416 244.774 40.3996 244.594 40.7358C244.414 41.072 244.324 41.4721 244.324 41.9361H241.405C241.405 40.9844 241.621 40.1581 242.052 39.4574C242.483 38.7566 243.086 38.2145 243.863 37.831C244.639 37.4474 245.534 37.2557 246.547 37.2557C247.589 37.2557 248.496 37.4403 249.268 37.8097C250.044 38.1742 250.648 38.6809 251.079 39.3295C251.51 39.9782 251.725 40.7216 251.725 41.5597C251.725 42.1089 251.616 42.651 251.398 43.1861C251.185 43.7211 250.804 44.3153 250.255 44.9687C249.706 45.6174 248.931 46.3963 247.932 47.3054L245.809 49.3864V49.4858H251.917V52H241.547ZM266.477 52.3196C265.256 52.3149 264.204 52.0142 263.324 51.4176C262.448 50.821 261.773 49.9569 261.3 48.8253C260.831 47.6937 260.599 46.3324 260.604 44.7415C260.604 43.1553 260.838 41.8035 261.307 40.6861C261.78 39.5687 262.455 38.7187 263.331 38.1364C264.212 37.5492 265.26 37.2557 266.477 37.2557C267.694 37.2557 268.74 37.5492 269.616 38.1364C270.497 38.7235 271.174 39.5758 271.648 40.6932C272.121 41.8059 272.355 43.1553 272.351 44.7415C272.351 46.3371 272.114 47.7008 271.641 48.8324C271.172 49.964 270.499 50.8281 269.623 51.4247C268.748 52.0213 267.699 52.3196 266.477 52.3196ZM266.477 49.7699C267.311 49.7699 267.976 49.3509 268.473 48.5128C268.97 47.6747 269.216 46.4176 269.212 44.7415C269.212 43.6383 269.098 42.7197 268.871 41.9858C268.648 41.2519 268.331 40.7003 267.919 40.331C267.512 39.9616 267.031 39.777 266.477 39.777C265.649 39.777 264.986 40.1913 264.489 41.0199C263.991 41.8485 263.74 43.089 263.736 44.7415C263.736 45.8589 263.847 46.7917 264.07 47.5398C264.297 48.2831 264.616 48.8419 265.028 49.2159C265.44 49.5852 265.923 49.7699 266.477 49.7699ZM281.247 52.3196C280.025 52.3149 278.974 52.0142 278.093 51.4176C277.217 50.821 276.543 49.9569 276.069 48.8253C275.6 47.6937 275.368 46.3324 275.373 44.7415C275.373 43.1553 275.608 41.8035 276.076 40.6861C276.55 39.5687 277.224 38.7187 278.1 38.1364C278.981 37.5492 280.03 37.2557 281.247 37.2557C282.464 37.2557 283.51 37.5492 284.386 38.1364C285.267 38.7235 285.944 39.5758 286.417 40.6932C286.891 41.8059 287.125 43.1553 287.12 44.7415C287.12 46.3371 286.884 47.7008 286.41 48.8324C285.941 49.964 285.269 50.8281 284.393 51.4247C283.517 52.0213 282.468 52.3196 281.247 52.3196ZM281.247 49.7699C282.08 49.7699 282.745 49.3509 283.242 48.5128C283.74 47.6747 283.986 46.4176 283.981 44.7415C283.981 43.6383 283.867 42.7197 283.64 41.9858C283.418 41.2519 283.1 40.7003 282.688 40.331C282.281 39.9616 281.801 39.777 281.247 39.777C280.418 39.777 279.755 40.1913 279.258 41.0199C278.761 41.8485 278.51 43.089 278.505 44.7415C278.505 45.8589 278.617 46.7917 278.839 47.5398C279.066 48.2831 279.386 48.8419 279.798 49.2159C280.21 49.5852 280.693 49.7699 281.247 49.7699ZM295.69 52.1989C294.629 52.1989 293.684 52.0166 292.856 51.652C292.032 51.2827 291.381 50.776 290.903 50.1321C290.429 49.4834 290.185 48.7353 290.171 47.8878H293.268C293.287 48.2429 293.403 48.5554 293.616 48.8253C293.833 49.0904 294.122 49.2964 294.482 49.4432C294.842 49.59 295.247 49.6634 295.697 49.6634C296.165 49.6634 296.58 49.5805 296.94 49.4148C297.299 49.2491 297.581 49.0194 297.785 48.7259C297.988 48.4323 298.09 48.0937 298.09 47.7102C298.09 47.322 297.981 46.9787 297.763 46.6804C297.55 46.3774 297.243 46.1406 296.84 45.9702C296.442 45.7997 295.969 45.7145 295.42 45.7145H294.063V43.456H295.42C295.884 43.456 296.293 43.3755 296.648 43.2145C297.008 43.0535 297.288 42.831 297.486 42.5469C297.685 42.258 297.785 41.9219 297.785 41.5384C297.785 41.1738 297.697 40.8542 297.522 40.5795C297.351 40.3002 297.11 40.0824 296.797 39.9261C296.49 39.7699 296.13 39.6918 295.718 39.6918C295.301 39.6918 294.92 39.7675 294.574 39.919C294.229 40.0658 293.952 40.2765 293.744 40.5511C293.535 40.8258 293.424 41.1477 293.41 41.517H290.462C290.476 40.679 290.716 39.9403 291.18 39.3011C291.644 38.6619 292.269 38.1624 293.055 37.8026C293.845 37.438 294.738 37.2557 295.732 37.2557C296.736 37.2557 297.614 37.438 298.367 37.8026C299.12 38.1671 299.705 38.6596 300.121 39.2798C300.543 39.8954 300.751 40.5866 300.746 41.3537C300.751 42.1681 300.498 42.8475 299.986 43.392C299.48 43.9366 298.819 44.2822 298.005 44.429V44.5426C299.075 44.6799 299.889 45.0516 300.448 45.6577C301.012 46.259 301.291 47.0118 301.286 47.9162C301.291 48.7448 301.052 49.4811 300.569 50.125C300.091 50.7689 299.43 51.2756 298.587 51.6449C297.744 52.0142 296.779 52.1989 295.69 52.1989ZM304.277 49.4432V47.0213L310.349 37.4545H312.437V40.8068H311.201L307.373 46.8651V46.9787H316.002V49.4432H304.277ZM311.258 52V48.7045L311.315 47.6321V37.4545H314.198V52H311.258Z" fill="white"/>
<path d="M94.1516 22.1818V28H93.4697L90.2993 23.4318H90.2425V28H89.5379V22.1818H90.2197L93.4016 26.7614H93.4584V22.1818H94.1516ZM100.18 22.1818H100.884V26.0341C100.884 26.4318 100.79 26.7869 100.603 27.0994C100.417 27.41 100.155 27.6553 99.8159 27.8352C99.4769 28.0133 99.0792 28.1023 98.6227 28.1023C98.1663 28.1023 97.7686 28.0133 97.4295 27.8352C97.0905 27.6553 96.8273 27.41 96.6398 27.0994C96.4542 26.7869 96.3614 26.4318 96.3614 26.0341V22.1818H97.0659V25.9773C97.0659 26.2614 97.1284 26.5142 97.2534 26.7358C97.3784 26.9555 97.5564 27.1288 97.7875 27.2557C98.0204 27.3807 98.2989 27.4432 98.6227 27.4432C98.9466 27.4432 99.225 27.3807 99.4579 27.2557C99.6909 27.1288 99.8689 26.9555 99.992 26.7358C100.117 26.5142 100.18 26.2614 100.18 25.9773V22.1818ZM103.091 22.1818H103.932L105.909 27.0114H105.977L107.955 22.1818H108.796V28H108.136V23.5795H108.08L106.261 28H105.625L103.807 23.5795H103.75V28H103.091V22.1818ZM111.008 28V22.1818H113.042C113.448 22.1818 113.782 22.2519 114.045 22.392C114.308 22.5303 114.504 22.7169 114.633 22.9517C114.762 23.1847 114.826 23.4432 114.826 23.7273C114.826 23.9773 114.782 24.1837 114.693 24.3466C114.606 24.5095 114.49 24.6383 114.346 24.733C114.204 24.8277 114.05 24.8977 113.883 24.9432V25C114.061 25.0114 114.24 25.0739 114.42 25.1875C114.6 25.3011 114.751 25.464 114.872 25.6761C114.993 25.8883 115.054 26.1477 115.054 26.4545C115.054 26.7462 114.987 27.0085 114.855 27.2415C114.722 27.4744 114.513 27.6591 114.227 27.7955C113.941 27.9318 113.569 28 113.111 28H111.008ZM111.713 27.375H113.111C113.571 27.375 113.897 27.286 114.091 27.108C114.286 26.928 114.383 26.7102 114.383 26.4545C114.383 26.2576 114.333 26.0758 114.233 25.9091C114.132 25.7405 113.989 25.6061 113.804 25.5057C113.618 25.4034 113.398 25.3523 113.145 25.3523H111.713V27.375ZM111.713 24.7386H113.02C113.232 24.7386 113.423 24.697 113.593 24.6136C113.766 24.5303 113.902 24.4129 114.003 24.2614C114.105 24.1098 114.156 23.9318 114.156 23.7273C114.156 23.4716 114.067 23.2547 113.889 23.0767C113.711 22.8968 113.429 22.8068 113.042 22.8068H111.713V24.7386ZM117.011 28V22.1818H120.523V22.8068H117.716V24.7727H120.341V25.3977H117.716V27.375H120.568V28H117.011ZM122.593 28V22.1818H124.559C125.013 22.1818 125.386 22.2595 125.678 22.4148C125.969 22.5682 126.185 22.7794 126.326 23.0483C126.466 23.3172 126.536 23.6231 126.536 23.9659C126.536 24.3087 126.466 24.6127 126.326 24.8778C126.185 25.143 125.97 25.3513 125.681 25.5028C125.391 25.6525 125.021 25.7273 124.57 25.7273H122.979V25.0909H124.547C124.858 25.0909 125.108 25.0455 125.297 24.9545C125.488 24.8636 125.627 24.7348 125.712 24.5682C125.799 24.3996 125.843 24.1989 125.843 23.9659C125.843 23.733 125.799 23.5294 125.712 23.3551C125.625 23.1809 125.486 23.0464 125.294 22.9517C125.103 22.8551 124.85 22.8068 124.536 22.8068H123.297V28H122.593ZM125.331 25.3864L126.763 28H125.945L124.536 25.3864H125.331Z" fill="white"/>
<path d="M28.9588 98.7031H27.0923C27.0582 98.4616 26.9886 98.2472 26.8835 98.0597C26.7784 97.8693 26.6435 97.7074 26.4787 97.5739C26.3139 97.4403 26.1236 97.3381 25.9077 97.267C25.6946 97.196 25.4631 97.1605 25.2131 97.1605C24.7614 97.1605 24.3679 97.2727 24.0327 97.4972C23.6974 97.7187 23.4375 98.0426 23.2528 98.4687C23.0682 98.892 22.9759 99.4062 22.9759 100.011C22.9759 100.634 23.0682 101.156 23.2528 101.58C23.4403 102.003 23.7017 102.322 24.0369 102.538C24.3722 102.754 24.7599 102.862 25.2003 102.862C25.4474 102.862 25.6761 102.83 25.8864 102.764C26.0994 102.699 26.2884 102.604 26.4531 102.479C26.6179 102.351 26.7543 102.196 26.8622 102.014C26.973 101.832 27.0497 101.625 27.0923 101.392L28.9588 101.401C28.9105 101.801 28.7898 102.187 28.5966 102.56C28.4062 102.929 28.1491 103.26 27.8253 103.553C27.5043 103.842 27.1207 104.072 26.6747 104.243C26.2315 104.411 25.7301 104.494 25.1705 104.494C24.392 104.494 23.696 104.318 23.0824 103.966C22.4716 103.614 21.9886 103.104 21.6335 102.436C21.2812 101.768 21.1051 100.96 21.1051 100.011C21.1051 99.0597 21.2841 98.25 21.642 97.5824C22 96.9148 22.4858 96.4062 23.0994 96.0568C23.7131 95.7045 24.4034 95.5284 25.1705 95.5284C25.6761 95.5284 26.1449 95.5994 26.5767 95.7415C27.0114 95.8835 27.3963 96.0909 27.7315 96.3636C28.0668 96.6335 28.3395 96.9645 28.5497 97.3565C28.7628 97.7486 28.8991 98.1974 28.9588 98.7031ZM34.002 104.375V95.6477H37.4451C38.1042 95.6477 38.6667 95.7656 39.1326 96.0014C39.6014 96.2344 39.9579 96.5653 40.2022 96.9943C40.4494 97.4205 40.573 97.9219 40.573 98.4986C40.573 99.0781 40.448 99.5767 40.198 99.9943C39.948 100.409 39.5858 100.727 39.1113 100.949C38.6397 101.17 38.0687 101.281 37.3983 101.281H35.0929V99.7983H37.1C37.4522 99.7983 37.7449 99.75 37.9778 99.6534C38.2108 99.5568 38.3841 99.4119 38.4977 99.2187C38.6142 99.0256 38.6724 98.7855 38.6724 98.4986C38.6724 98.2088 38.6142 97.9645 38.4977 97.7656C38.3841 97.5668 38.2093 97.4162 37.9736 97.3139C37.7406 97.2088 37.4466 97.1562 37.0914 97.1562H35.8471V104.375H34.002ZM38.715 100.403L40.8841 104.375H38.8471L36.725 100.403H38.715ZM47.1012 104.375H45.1239L48.1367 95.6477H50.5146L53.5231 104.375H51.5458L49.3597 97.642H49.2916L47.1012 104.375ZM46.9776 100.945H51.6481V102.385H46.9776V100.945ZM60.1387 95.6477V104.375H58.2935V95.6477H60.1387ZM71.1637 98.4687C71.1041 98.2614 71.0203 98.0781 70.9123 97.919C70.8044 97.7571 70.6723 97.6207 70.516 97.5099C70.3626 97.3963 70.1865 97.3097 69.9876 97.25C69.7916 97.1903 69.5742 97.1605 69.3356 97.1605C68.8896 97.1605 68.4975 97.2713 68.1595 97.4929C67.8242 97.7145 67.5629 98.0369 67.3754 98.4602C67.1879 98.8807 67.0941 99.3949 67.0941 100.003C67.0941 100.611 67.1865 101.128 67.3711 101.554C67.5558 101.98 67.8171 102.305 68.1552 102.53C68.4933 102.751 68.8924 102.862 69.3527 102.862C69.7703 102.862 70.1268 102.788 70.4223 102.641C70.7206 102.49 70.9478 102.278 71.1041 102.006C71.2632 101.733 71.3427 101.411 71.3427 101.038L71.7177 101.094H69.4677V99.7045H73.1197V100.804C73.1197 101.571 72.9578 102.23 72.6339 102.781C72.31 103.33 71.864 103.753 71.2958 104.051C70.7277 104.347 70.0771 104.494 69.3441 104.494C68.526 104.494 67.8072 104.314 67.1879 103.953C66.5686 103.589 66.0856 103.074 65.739 102.406C65.3953 101.736 65.2234 100.94 65.2234 100.02C65.2234 99.3125 65.3257 98.6818 65.5302 98.1278C65.7376 97.571 66.0274 97.0994 66.3995 96.7131C66.7717 96.3267 67.2049 96.0327 67.6992 95.831C68.1936 95.6293 68.7291 95.5284 69.3058 95.5284C69.8001 95.5284 70.2603 95.6009 70.6865 95.7457C71.1126 95.8878 71.4904 96.0895 71.82 96.3509C72.1524 96.6122 72.4237 96.9233 72.6339 97.2841C72.8441 97.642 72.9791 98.0369 73.0387 98.4687H71.1637ZM88.2174 95.6477H90.0412V101.733C90.0412 102.295 89.9148 102.784 89.662 103.199C89.412 103.614 89.064 103.933 88.6179 104.158C88.1719 104.382 87.6534 104.494 87.0625 104.494C86.537 104.494 86.0597 104.402 85.6307 104.217C85.2046 104.03 84.8665 103.746 84.6165 103.365C84.3665 102.982 84.2429 102.5 84.2458 101.92L86.0824 101.92C86.0881 102.151 86.135 102.348 86.223 102.513C86.314 102.675 86.4375 102.8 86.5938 102.888C86.7529 102.973 86.9404 103.016 87.1563 103.016C87.3836 103.016 87.5753 102.967 87.7316 102.871C87.8907 102.771 88.0114 102.626 88.0938 102.436C88.1762 102.246 88.2174 102.011 88.2174 101.733V95.6477ZM103.307 100.011C103.307 100.963 103.126 101.773 102.765 102.44C102.408 103.108 101.919 103.618 101.3 103.97C100.683 104.32 99.9899 104.494 99.22 104.494C98.4445 104.494 97.7484 104.318 97.132 103.966C96.5155 103.614 96.0283 103.104 95.6703 102.436C95.3124 101.768 95.1334 100.96 95.1334 100.011C95.1334 99.0597 95.3124 98.25 95.6703 97.5824C96.0283 96.9148 96.5155 96.4062 97.132 96.0568C97.7484 95.7045 98.4445 95.5284 99.22 95.5284C99.9899 95.5284 100.683 95.7045 101.3 96.0568C101.919 96.4062 102.408 96.9148 102.765 97.5824C103.126 98.25 103.307 99.0597 103.307 100.011ZM101.436 100.011C101.436 99.3949 101.344 98.875 101.159 98.4517C100.977 98.0284 100.72 97.7074 100.388 97.4886C100.055 97.2699 99.6661 97.1605 99.22 97.1605C98.774 97.1605 98.3848 97.2699 98.0524 97.4886C97.72 97.7074 97.4615 98.0284 97.2769 98.4517C97.095 98.875 97.0041 99.3949 97.0041 100.011C97.0041 100.628 97.095 101.148 97.2769 101.571C97.4615 101.994 97.72 102.315 98.0524 102.534C98.3848 102.753 98.774 102.862 99.22 102.862C99.6661 102.862 100.055 102.753 100.388 102.534C100.72 102.315 100.977 101.994 101.159 101.571C101.344 101.148 101.436 100.628 101.436 100.011ZM108.394 104.375V95.6477H110.239V99.2486H113.984V95.6477H115.825V104.375H113.984V100.77H110.239V104.375H108.394ZM128.366 95.6477V104.375H126.773L122.976 98.8821H122.912V104.375H121.067V95.6477H122.686L126.453 101.136H126.53V95.6477H128.366ZM138.345 98.1577C138.311 97.8139 138.165 97.5469 137.906 97.3565C137.648 97.1662 137.297 97.071 136.854 97.071C136.553 97.071 136.298 97.1136 136.091 97.1989C135.884 97.2812 135.724 97.3963 135.614 97.544C135.506 97.6918 135.452 97.8594 135.452 98.0469C135.446 98.2031 135.479 98.3395 135.55 98.456C135.624 98.5724 135.724 98.6733 135.852 98.7585C135.98 98.8409 136.128 98.9134 136.296 98.9759C136.463 99.0355 136.642 99.0866 136.832 99.1293L137.617 99.3168C137.997 99.402 138.347 99.5156 138.665 99.6577C138.983 99.7997 139.259 99.9744 139.492 100.182C139.724 100.389 139.905 100.634 140.033 100.915C140.163 101.196 140.23 101.518 140.233 101.882C140.23 102.416 140.094 102.879 139.824 103.271C139.557 103.661 139.171 103.963 138.665 104.179C138.162 104.392 137.555 104.499 136.845 104.499C136.141 104.499 135.527 104.391 135.004 104.175C134.484 103.959 134.078 103.639 133.786 103.216C133.496 102.79 133.344 102.263 133.33 101.635H135.115C135.135 101.928 135.219 102.172 135.367 102.368C135.517 102.561 135.717 102.707 135.967 102.807C136.22 102.903 136.506 102.952 136.824 102.952C137.136 102.952 137.408 102.906 137.638 102.815C137.871 102.724 138.051 102.598 138.179 102.436C138.307 102.274 138.371 102.088 138.371 101.878C138.371 101.682 138.313 101.517 138.196 101.384C138.082 101.25 137.915 101.136 137.693 101.043C137.474 100.949 137.206 100.864 136.888 100.787L135.938 100.548C135.202 100.369 134.621 100.089 134.195 99.7088C133.769 99.3281 133.557 98.8153 133.56 98.1705C133.557 97.642 133.698 97.1804 133.982 96.7855C134.269 96.3906 134.662 96.0824 135.162 95.8608C135.662 95.6392 136.23 95.5284 136.867 95.5284C137.514 95.5284 138.08 95.6392 138.563 95.8608C139.048 96.0824 139.426 96.3906 139.696 96.7855C139.966 97.1804 140.105 97.6378 140.114 98.1577H138.345ZM153.214 100.011C153.214 100.963 153.034 101.773 152.673 102.44C152.315 103.108 151.826 103.618 151.207 103.97C150.59 104.32 149.897 104.494 149.127 104.494C148.352 104.494 147.656 104.318 147.039 103.966C146.423 103.614 145.936 103.104 145.578 102.436C145.22 101.768 145.041 100.96 145.041 100.011C145.041 99.0597 145.22 98.25 145.578 97.5824C145.936 96.9148 146.423 96.4062 147.039 96.0568C147.656 95.7045 148.352 95.5284 149.127 95.5284C149.897 95.5284 150.59 95.7045 151.207 96.0568C151.826 96.4062 152.315 96.9148 152.673 97.5824C153.034 98.25 153.214 99.0597 153.214 100.011ZM151.343 100.011C151.343 99.3949 151.251 98.875 151.066 98.4517C150.884 98.0284 150.627 97.7074 150.295 97.4886C149.963 97.2699 149.573 97.1605 149.127 97.1605C148.681 97.1605 148.292 97.2699 147.96 97.4886C147.627 97.7074 147.369 98.0284 147.184 98.4517C147.002 98.875 146.911 99.3949 146.911 100.011C146.911 100.628 147.002 101.148 147.184 101.571C147.369 101.994 147.627 102.315 147.96 102.534C148.292 102.753 148.681 102.862 149.127 102.862C149.573 102.862 149.963 102.753 150.295 102.534C150.627 102.315 150.884 101.994 151.066 101.571C151.251 101.148 151.343 100.628 151.343 100.011ZM165.601 95.6477V104.375H164.007L160.21 98.8821H160.146V104.375H158.301V95.6477H159.92L163.687 101.136H163.764V95.6477H165.601ZM182.077 98.1577C182.043 97.8139 181.896 97.5469 181.638 97.3565C181.379 97.1662 181.029 97.071 180.585 97.071C180.284 97.071 180.03 97.1136 179.823 97.1989C179.615 97.2812 179.456 97.3963 179.345 97.544C179.237 97.6918 179.183 97.8594 179.183 98.0469C179.178 98.2031 179.21 98.3395 179.281 98.456C179.355 98.5724 179.456 98.6733 179.584 98.7585C179.712 98.8409 179.859 98.9134 180.027 98.9759C180.195 99.0355 180.374 99.0866 180.564 99.1293L181.348 99.3168C181.729 99.402 182.078 99.5156 182.396 99.6577C182.715 99.7997 182.99 99.9744 183.223 100.182C183.456 100.389 183.636 100.634 183.764 100.915C183.895 101.196 183.962 101.518 183.965 101.882C183.962 102.416 183.825 102.879 183.555 103.271C183.288 103.661 182.902 103.963 182.396 104.179C181.894 104.392 181.287 104.499 180.577 104.499C179.872 104.499 179.259 104.391 178.736 104.175C178.216 103.959 177.81 103.639 177.517 103.216C177.227 102.79 177.075 102.263 177.061 101.635H178.847C178.867 101.928 178.95 102.172 179.098 102.368C179.249 102.561 179.449 102.707 179.699 102.807C179.952 102.903 180.237 102.952 180.555 102.952C180.868 102.952 181.139 102.906 181.369 102.815C181.602 102.724 181.783 102.598 181.911 102.436C182.038 102.274 182.102 102.088 182.102 101.878C182.102 101.682 182.044 101.517 181.928 101.384C181.814 101.25 181.646 101.136 181.425 101.043C181.206 100.949 180.938 100.864 180.619 100.787L179.669 100.548C178.933 100.369 178.352 100.089 177.926 99.7088C177.5 99.3281 177.288 98.8153 177.291 98.1705C177.288 97.642 177.429 97.1804 177.713 96.7855C178 96.3906 178.394 96.0824 178.894 95.8608C179.394 95.6392 179.962 95.5284 180.598 95.5284C181.246 95.5284 181.811 95.6392 182.294 95.8608C182.78 96.0824 183.158 96.3906 183.428 96.7855C183.698 97.1804 183.837 97.6378 183.845 98.1577H182.077ZM188.926 104.375V95.6477H190.771V99.2486H194.517V95.6477H196.358V104.375H194.517V100.77H190.771V104.375H188.926ZM203.444 95.6477V104.375H201.599V95.6477H203.444ZM210.527 95.6477V104.375H208.682V95.6477H210.527ZM215.765 104.375V95.6477H217.611V99.4957H217.726L220.866 95.6477H223.078L219.839 99.5554L223.116 104.375H220.909L218.518 100.787L217.611 101.895V104.375H215.765Z" fill="white"/>
<path d="M25.8182 79.1818V85H25.1364L21.9659 80.4318H21.9091V85H21.2045V79.1818H21.8864L25.0682 83.7614H25.125V79.1818H25.8182ZM28.2666 85H27.528L29.6643 79.1818H30.3916L32.528 85H31.7893L30.0507 80.1023H30.0053L28.2666 85ZM28.5393 82.7273H31.5166V83.3523H28.5393V82.7273ZM34.2342 79.1818H35.0751L37.0524 84.0114H37.1206L39.0979 79.1818H39.9388V85H39.2797V80.5795H39.2229L37.4047 85H36.7683L34.9501 80.5795H34.8933V85H34.2342V79.1818ZM42.1514 85V79.1818H45.6628V79.8068H42.856V81.7727H45.481V82.3977H42.856V84.375H45.7082V85H42.1514Z" fill="white"/>
<path d="M262.629 104.567C261.896 104.564 261.266 104.384 260.737 104.026C260.212 103.668 259.807 103.149 259.523 102.47C259.241 101.791 259.102 100.974 259.105 100.02C259.105 99.0682 259.246 98.2571 259.527 97.5866C259.811 96.9162 260.216 96.4062 260.741 96.0568C261.27 95.7045 261.899 95.5284 262.629 95.5284C263.359 95.5284 263.987 95.7045 264.513 96.0568C265.041 96.4091 265.447 96.9205 265.732 97.5909C266.016 98.2585 266.156 99.0682 266.153 100.02C266.153 100.977 266.011 101.795 265.727 102.474C265.446 103.153 265.043 103.672 264.517 104.03C263.991 104.388 263.362 104.567 262.629 104.567ZM262.629 103.037C263.129 103.037 263.528 102.786 263.827 102.283C264.125 101.78 264.273 101.026 264.27 100.02C264.27 99.358 264.202 98.8068 264.065 98.3665C263.932 97.9261 263.741 97.5952 263.494 97.3736C263.25 97.152 262.962 97.0412 262.629 97.0412C262.132 97.0412 261.734 97.2898 261.436 97.7869C261.138 98.2841 260.987 99.0284 260.984 100.02C260.984 100.69 261.051 101.25 261.185 101.699C261.321 102.145 261.513 102.48 261.76 102.705C262.007 102.926 262.297 103.037 262.629 103.037ZM270.627 95.5284C271.076 95.5284 271.507 95.6037 271.922 95.7543C272.34 95.9048 272.712 96.1449 273.039 96.4744C273.368 96.804 273.628 97.2415 273.819 97.7869C274.012 98.3295 274.11 98.9957 274.113 99.7855C274.113 100.527 274.029 101.189 273.861 101.771C273.696 102.351 273.459 102.844 273.15 103.25C272.84 103.656 272.466 103.966 272.029 104.179C271.591 104.389 271.103 104.494 270.563 104.494C269.98 104.494 269.466 104.382 269.02 104.158C268.574 103.93 268.215 103.622 267.942 103.233C267.672 102.841 267.509 102.401 267.452 101.912H269.272C269.343 102.23 269.492 102.477 269.719 102.653C269.946 102.827 270.228 102.913 270.563 102.913C271.131 102.913 271.563 102.666 271.858 102.172C272.154 101.675 272.303 100.994 272.306 100.131H272.246C272.115 100.386 271.939 100.607 271.718 100.791C271.496 100.973 271.242 101.114 270.955 101.213C270.671 101.312 270.368 101.362 270.047 101.362C269.533 101.362 269.074 101.241 268.671 101C268.267 100.759 267.949 100.426 267.716 100.003C267.483 99.5795 267.367 99.0966 267.367 98.554C267.364 97.9687 267.499 97.4474 267.772 96.9901C268.044 96.5327 268.425 96.1747 268.914 95.9162C269.405 95.6548 269.976 95.5256 270.627 95.5284ZM270.64 96.9773C270.353 96.9773 270.097 97.0455 269.873 97.1818C269.651 97.3182 269.475 97.5014 269.344 97.7315C269.216 97.9616 269.154 98.2187 269.157 98.5028C269.157 98.7898 269.219 99.0483 269.344 99.2784C269.472 99.5057 269.645 99.6875 269.864 99.8239C270.086 99.9574 270.338 100.024 270.623 100.024C270.836 100.024 271.033 99.9844 271.215 99.9048C271.397 99.8253 271.554 99.7159 271.688 99.5767C271.824 99.4347 271.931 99.2713 272.007 99.0866C272.084 98.902 272.123 98.706 272.123 98.4986C272.12 98.223 272.054 97.9702 271.926 97.7401C271.799 97.5099 271.623 97.3253 271.398 97.1861C271.174 97.0469 270.921 96.9773 270.64 96.9773ZM279.209 95.2386L276.397 105.687H274.833L277.645 95.2386H279.209ZM280.067 104.375V103.045L283.173 100.169C283.437 99.9134 283.659 99.6832 283.838 99.4787C284.02 99.2741 284.158 99.0739 284.251 98.8778C284.345 98.679 284.392 98.4645 284.392 98.2344C284.392 97.9787 284.334 97.7585 284.217 97.5739C284.101 97.3864 283.942 97.2429 283.74 97.1435C283.538 97.0412 283.31 96.9901 283.054 96.9901C282.787 96.9901 282.554 97.044 282.355 97.152C282.156 97.2599 282.003 97.4148 281.895 97.6165C281.787 97.8182 281.733 98.0582 281.733 98.3366H279.982C279.982 97.7656 280.111 97.2699 280.369 96.8494C280.628 96.429 280.99 96.1037 281.456 95.8736C281.922 95.6435 282.459 95.5284 283.067 95.5284C283.692 95.5284 284.236 95.6392 284.699 95.8608C285.165 96.0795 285.527 96.3835 285.786 96.7727C286.044 97.1619 286.173 97.608 286.173 98.1108C286.173 98.4403 286.108 98.7656 285.977 99.0866C285.849 99.4077 285.621 99.7642 285.291 100.156C284.962 100.545 284.497 101.013 283.898 101.558L282.624 102.807V102.866H286.288V104.375H280.067ZM290.813 104.494C290.211 104.494 289.674 104.384 289.202 104.162C288.733 103.94 288.361 103.635 288.086 103.246C287.81 102.857 287.667 102.411 287.655 101.908H289.445C289.465 102.246 289.607 102.52 289.871 102.73C290.135 102.94 290.449 103.045 290.813 103.045C291.103 103.045 291.358 102.982 291.58 102.854C291.804 102.723 291.979 102.543 292.104 102.312C292.232 102.08 292.296 101.812 292.296 101.511C292.296 101.205 292.23 100.935 292.1 100.702C291.972 100.469 291.794 100.287 291.567 100.156C291.34 100.026 291.08 99.9588 290.787 99.956C290.532 99.956 290.283 100.009 290.042 100.114C289.803 100.219 289.617 100.362 289.483 100.544L287.843 100.25L288.256 95.6477H293.591V97.1562H289.777L289.551 99.3423H289.603C289.756 99.1264 289.988 98.9474 290.297 98.8054C290.607 98.6634 290.953 98.5923 291.337 98.5923C291.863 98.5923 292.331 98.7159 292.743 98.9631C293.155 99.2102 293.48 99.5497 293.719 99.9815C293.958 100.411 294.076 100.905 294.073 101.464C294.076 102.053 293.939 102.575 293.664 103.033C293.391 103.487 293.009 103.845 292.517 104.107C292.029 104.365 291.461 104.494 290.813 104.494Z" fill="white"/>
<path d="M259.205 85V79.1818H262.716V79.8068H259.909V81.7727H262.534V82.3977H259.909V84.375H262.761V85H259.205ZM269.399 79.1818V85H268.718L265.547 80.4318H265.49V85H264.786V79.1818H265.468L268.649 83.7614H268.706V79.1818H269.399ZM273.405 85H271.609V79.1818H273.484C274.049 79.1818 274.532 79.2983 274.933 79.5312C275.335 79.7623 275.642 80.0947 275.856 80.5284C276.07 80.9602 276.177 81.4773 276.177 82.0795C276.177 82.6856 276.069 83.2074 275.854 83.6449C275.638 84.0805 275.323 84.4157 274.91 84.6506C274.497 84.8835 273.996 85 273.405 85ZM272.314 84.375H273.359C273.84 84.375 274.239 84.2822 274.555 84.0966C274.872 83.911 275.107 83.6468 275.263 83.304C275.418 82.9612 275.496 82.553 275.496 82.0795C275.496 81.6098 275.419 81.2055 275.265 80.8665C275.112 80.5256 274.883 80.2642 274.578 80.0824C274.273 79.8987 273.893 79.8068 273.439 79.8068H272.314V84.375ZM283.005 85H281.209V79.1818H283.084C283.649 79.1818 284.132 79.2983 284.533 79.5312C284.935 79.7623 285.242 80.0947 285.456 80.5284C285.67 80.9602 285.777 81.4773 285.777 82.0795C285.777 82.6856 285.669 83.2074 285.454 83.6449C285.238 84.0805 284.923 84.4157 284.51 84.6506C284.097 84.8835 283.596 85 283.005 85ZM281.914 84.375H282.959C283.44 84.375 283.839 84.2822 284.155 84.0966C284.472 83.911 284.707 83.6468 284.863 83.304C285.018 82.9612 285.096 82.553 285.096 82.0795C285.096 81.6098 285.019 81.2055 284.865 80.8665C284.712 80.5256 284.483 80.2642 284.178 80.0824C283.873 79.8987 283.493 79.8068 283.039 79.8068H281.914V84.375ZM287.724 85H286.986L289.122 79.1818H289.849L291.986 85H291.247L289.509 80.1023H289.463L287.724 85ZM287.997 82.7273H290.974V83.3523H287.997V82.7273ZM292.694 79.8068V79.1818H297.058V79.8068H295.228V85H294.524V79.8068H292.694ZM298.945 85V79.1818H302.457V79.8068H299.65V81.7727H302.275V82.3977H299.65V84.375H302.502V85H298.945Z" fill="white"/>
</g>
<g clip-path="url(#clip0_229_10162)">
<rect x="20.5" y="20" width="48.3333" height="29" rx="1.93333" fill="white"/>
<path fill-rule="evenodd" clip-rule="evenodd" d="M37.7588 40.0332L39.6646 28.2104H42.711L40.8054 40.0332H37.7588Z" fill="#26337A"/>
<path fill-rule="evenodd" clip-rule="evenodd" d="M51.8552 28.4971C51.2529 28.2599 50.3055 28.0011 49.1254 28.0011C46.1135 28.0011 43.9934 29.6055 43.9758 31.9029C43.9566 33.6023 45.4887 34.55 46.6437 35.1149C47.8308 35.6938 48.2296 36.0643 48.2249 36.582C48.2167 37.3738 47.2774 37.7367 46.4015 37.7367C45.1819 37.7367 44.5339 37.558 43.532 37.1167L43.1401 36.9284L42.7141 39.5749C43.4245 39.9042 44.7414 40.19 46.1081 40.205C49.309 40.205 51.3889 38.62 51.4133 36.1667C51.4243 34.8191 50.6125 33.7977 48.8545 32.9543C47.7899 32.4061 47.1365 32.0429 47.144 31.4881C47.1447 30.9967 47.6959 30.4707 48.8891 30.4707C49.8856 30.4546 50.6069 30.6847 51.169 30.925L51.4426 31.0601L51.8552 28.4971Z" fill="#26337A"/>
<path fill-rule="evenodd" clip-rule="evenodd" d="M55.9128 35.8404C56.1653 35.1608 57.1264 32.5357 57.1264 32.5357C57.1086 32.567 57.3774 31.8509 57.5313 31.4078L57.7369 32.4275C57.7369 32.4275 58.3215 35.2494 58.4419 35.8404C57.9676 35.8404 56.5076 35.8404 55.9128 35.8404ZM59.6701 28.2198H57.3158C56.5855 28.2198 56.039 28.429 55.7191 29.1999L51.1949 40.0347H54.3947C54.3947 40.0347 54.9167 38.5772 55.0352 38.2573C55.3842 38.2573 58.4933 38.2634 58.9371 38.2634C59.0284 38.676 59.308 40.0347 59.308 40.0347H62.1356L59.6701 28.2198Z" fill="#26337A"/>
<path fill-rule="evenodd" clip-rule="evenodd" d="M35.202 28.2168L32.2202 36.2771L31.9008 34.6386C31.3452 32.7508 29.6155 30.7047 27.6808 29.6794L30.4087 40.0193L33.6328 40.0174L38.4303 28.2168H35.202Z" fill="#26337A"/>
<path fill-rule="evenodd" clip-rule="evenodd" d="M29.4537 28.2104H24.541L24.5006 28.4554C28.3232 29.4347 30.8525 31.7987 31.9023 34.6403L30.8347 29.2079C30.6505 28.4587 30.1153 28.2366 29.4537 28.2104Z" fill="#EC982D"/>
</g>
<rect x="20.5" y="20" width="48.3333" height="29" rx="4.00056" stroke="#BEC3C5" stroke-width="0.800113" stroke-linejoin="bevel"/>
<defs>
<linearGradient id="paint0_linear_229_10162" x1="195.5" y1="0" x2="195.5" y2="128" gradientUnits="userSpaceOnUse">
<stop stop-color="#FF314A"/>
<stop offset="1" stop-color="#B02536"/>
</linearGradient>
<clipPath id="clip0_229_10162">
<rect x="20.5" y="20" width="48.3333" height="29" rx="4.00056" fill="white"/>
</clipPath>
</defs>
</svg>
