<svg width="43" height="26" viewBox="0 0 43 26" fill="none" xmlns="http://www.w3.org/2000/svg">
<g clip-path="url(#clip0_770_8539)">
<rect x="0.408142" y="0.900009" width="41.7708" height="25.0625" rx="1.67083" fill="#26337A"/>
<path fill-rule="evenodd" clip-rule="evenodd" d="M15.3239 18.2113L16.971 7.99376H19.6037L17.9568 18.2113H15.3239Z" fill="white"/>
<path fill-rule="evenodd" clip-rule="evenodd" d="M27.5064 8.24276C26.9858 8.0377 26.1671 7.81407 25.1472 7.81407C22.5443 7.81407 20.712 9.20064 20.6968 11.1861C20.6802 12.6548 22.0043 13.4738 23.0025 13.962C24.0284 14.4623 24.3731 14.7825 24.369 15.2299C24.362 15.9142 23.5502 16.2278 22.7932 16.2278C21.7391 16.2278 21.1791 16.0734 20.3133 15.692L19.9746 15.5293L19.6065 17.8164C20.2204 18.101 21.3585 18.348 22.5396 18.361C25.306 18.361 27.1034 16.9912 27.1245 14.8709C27.134 13.7063 26.4325 12.8236 24.9131 12.0948C23.993 11.621 23.4284 11.3071 23.4348 10.8276C23.4354 10.403 23.9119 9.94832 24.9431 9.94832C25.8042 9.93444 26.4276 10.1333 26.9134 10.3409L27.1498 10.4577L27.5064 8.24276Z" fill="white"/>
<path fill-rule="evenodd" clip-rule="evenodd" d="M31.0132 14.5862C31.2314 13.9989 32.062 11.7302 32.062 11.7302C32.0466 11.7572 32.279 11.1384 32.4119 10.7554L32.5896 11.6367C32.5896 11.6367 33.0948 14.0754 33.1989 14.5862C32.789 14.5862 31.5273 14.5862 31.0132 14.5862ZM34.2602 8.00153H32.2256C31.5945 8.00153 31.1221 8.1823 30.8456 8.8485L26.9358 18.2122H29.7011C29.7011 18.2122 30.1522 16.9526 30.2546 16.6761C30.5562 16.6761 33.2432 16.6814 33.6267 16.6814C33.7056 17.038 33.9473 18.2122 33.9473 18.2122H36.391L34.2602 8.00153Z" fill="white"/>
<path fill-rule="evenodd" clip-rule="evenodd" d="M13.1142 8.00157L10.5373 14.9675L10.2613 13.5515C9.78107 11.92 8.28625 10.1517 6.6142 9.26561L8.9717 18.2016L11.7581 18.1999L15.9042 8.00157H13.1142Z" fill="white"/>
<path fill-rule="evenodd" clip-rule="evenodd" d="M8.14648 7.99376H3.90084L3.86591 8.20546C7.16951 9.05183 9.35535 11.0948 10.2626 13.5506L9.33999 8.85582C9.18082 8.20833 8.71824 8.01639 8.14648 7.99376Z" fill="#EC982D"/>
<rect x="0.408142" y="1" width="41.9999" height="25.2" rx="1.68" fill="#12438C"/>
<path fill-rule="evenodd" clip-rule="evenodd" d="M27.0725 13.9405H27.0865H27.1135H27.1406H27.1676H27.1946H27.2217H27.2487H27.2757H27.3028H27.3298H27.3568H27.3839H27.4109H27.4379H27.465H27.492H27.519H27.5461H27.5731H27.6001H27.6272H27.6542H27.6812H27.7083H27.7353H27.7623H27.7894H27.8164H27.8434H27.8705H27.8975H27.9246H27.9516H27.9786H28.0057H28.0327H28.0597H28.0868H28.1138H28.1408H28.1679H28.1949H28.2219H28.249H28.276H28.303H28.3301H28.3571H28.3841H28.4112H28.4382H28.4652H28.4923H28.5193H28.5463H28.5734H28.6004H28.6275H28.6545H28.6815H28.704L28.7086 13.9406C28.7169 13.9408 28.726 13.9412 28.7356 13.9417C28.7443 13.9422 28.7533 13.9428 28.7626 13.9435C28.7715 13.9442 28.7806 13.9449 28.7897 13.9457C28.7988 13.9466 28.8078 13.9475 28.8167 13.9485C28.826 13.9495 28.8351 13.9506 28.8437 13.9518C28.8534 13.9531 28.8625 13.9544 28.8708 13.9558C28.8767 13.9568 28.8822 13.9579 28.8871 13.9589L28.8978 13.9613C28.9068 13.9635 28.9158 13.9657 28.9248 13.9682C28.9339 13.9707 28.9429 13.9734 28.9519 13.9762C28.9609 13.9791 28.9699 13.9822 28.9789 13.9855C28.988 13.9888 28.997 13.9922 29.0059 13.9959C29.015 13.9996 29.024 14.0035 29.033 14.0076C29.0421 14.0118 29.0511 14.0161 29.06 14.0206C29.0691 14.0253 29.0781 14.0301 29.087 14.0351C29.0961 14.0402 29.1052 14.0456 29.1141 14.0512C29.1232 14.0569 29.1322 14.0627 29.1411 14.0688C29.1502 14.0751 29.1593 14.0815 29.1681 14.0882C29.1773 14.0951 29.1863 14.1023 29.1952 14.1097C29.2043 14.1173 29.2134 14.1252 29.2222 14.1333C29.2314 14.1418 29.2405 14.1505 29.2492 14.1595C29.2585 14.1689 29.2675 14.1787 29.2763 14.1886C29.2856 14.1992 29.2946 14.2101 29.3033 14.2213C29.3127 14.2333 29.3217 14.2457 29.3303 14.2584C29.3398 14.2723 29.3488 14.2865 29.3574 14.3011C29.367 14.3176 29.376 14.3346 29.3844 14.3521C29.3943 14.3727 29.4034 14.394 29.4114 14.4159C29.4223 14.4453 29.4313 14.4758 29.4385 14.5073C29.4508 14.5619 29.4575 14.6194 29.4575 14.6794C29.4575 14.7397 29.4509 14.7974 29.4385 14.8522C29.4313 14.8837 29.4223 14.9143 29.4114 14.9438C29.4034 14.9657 29.3943 14.9871 29.3844 15.0078C29.376 15.0252 29.367 15.0422 29.3574 15.0587C29.3488 15.0734 29.3398 15.0877 29.3303 15.1016C29.3217 15.1142 29.3127 15.1266 29.3033 15.1386C29.2946 15.1498 29.2856 15.1607 29.2763 15.1713C29.2675 15.1813 29.2585 15.191 29.2492 15.2004C29.2405 15.2094 29.2314 15.2181 29.2222 15.2265C29.2134 15.2346 29.2043 15.2425 29.1952 15.2501C29.1863 15.2575 29.1773 15.2646 29.1681 15.2715C29.1593 15.2782 29.1502 15.2846 29.1411 15.2908C29.1322 15.2969 29.1232 15.3028 29.1141 15.3084C29.1052 15.3139 29.0961 15.3193 29.087 15.3244C29.0781 15.3294 29.0691 15.3342 29.06 15.3388C29.0511 15.3433 29.0421 15.3476 29.033 15.3517C29.024 15.3558 29.015 15.3596 29.0059 15.3633C28.997 15.3669 28.988 15.3704 28.9789 15.3737C28.9699 15.3769 28.9609 15.3799 28.9519 15.3827C28.9429 15.3856 28.9339 15.3882 28.9248 15.3907C28.9158 15.3931 28.9068 15.3953 28.8978 15.3974L28.8871 15.3998C28.8822 15.4009 28.8767 15.402 28.8708 15.4031C28.8625 15.4046 28.8534 15.4059 28.8437 15.4073C28.8351 15.4084 28.826 15.4095 28.8167 15.4106C28.8078 15.4116 28.7988 15.4125 28.7897 15.4133C28.7806 15.4141 28.7715 15.4148 28.7626 15.4155C28.7533 15.4161 28.7443 15.4167 28.7356 15.4172C28.726 15.4177 28.7169 15.418 28.7086 15.4182L28.6941 15.4184H28.6815H28.6545H28.6275H28.6004H28.5734H28.5463H28.5193H28.4923H28.4652H28.4382H28.4112H28.3841H28.3571H28.3301H28.303H28.276H28.249H28.2219H28.1949H28.1679H28.1408H28.1138H28.0868H28.0597H28.0327H28.0057H27.9786H27.9516H27.9246H27.8975H27.8705H27.8434H27.8164H27.7894H27.7623H27.7353H27.7083H27.6812H27.6542H27.6272H27.6001H27.5731H27.5461H27.519H27.492H27.465H27.4379H27.4109H27.3839H27.3568H27.3298H27.3028H27.2757H27.2487H27.2217H27.1946H27.1676H27.1406H27.1135H27.0865H27.0725V13.9405ZM29.2493 12.2679C29.2602 12.3175 29.266 12.37 29.266 12.4253C29.266 12.4806 29.2602 12.5331 29.2493 12.5827C29.2423 12.6145 29.2333 12.6451 29.2223 12.6745C29.2143 12.6959 29.2052 12.7166 29.1953 12.7366C29.1869 12.7534 29.1779 12.7697 29.1682 12.7855C29.1597 12.7994 29.1506 12.8129 29.1412 12.8261C29.1325 12.838 29.1235 12.8496 29.1142 12.8609C29.1054 12.8714 29.0964 12.8816 29.0871 12.8915C29.0784 12.9007 29.0694 12.9097 29.0601 12.9184C29.0513 12.9267 29.0423 12.9348 29.033 12.9426C29.0242 12.95 29.0152 12.9572 29.006 12.9642C28.9972 12.9709 28.9882 12.9774 28.979 12.9836C28.9701 12.9897 28.9611 12.9955 28.9519 13.0011C28.9431 13.0066 28.934 13.0119 28.9249 13.0169C28.916 13.0218 28.907 13.0266 28.8979 13.0311C28.889 13.0356 28.8799 13.0398 28.8708 13.0438C28.8619 13.0478 28.8529 13.0516 28.8438 13.0552C28.8349 13.0587 28.8259 13.062 28.8168 13.0652C28.8079 13.0683 28.7988 13.0712 28.7898 13.074C28.7808 13.0767 28.7718 13.0792 28.7627 13.0816C28.7538 13.0839 28.7448 13.0861 28.7357 13.088C28.7268 13.09 28.7177 13.0918 28.7087 13.0934L28.7021 13.0946C28.6968 13.0955 28.6898 13.0965 28.6816 13.0975C28.6736 13.0986 28.6645 13.0996 28.6546 13.1006C28.646 13.1015 28.6369 13.1023 28.6276 13.1031C28.6187 13.1038 28.6096 13.1045 28.6005 13.1051C28.5914 13.1057 28.5823 13.1061 28.5735 13.1065C28.5641 13.1069 28.555 13.1071 28.5465 13.1072L28.5422 13.1072H28.5194H28.4924H28.4654H28.4383H28.4113H28.3843H28.3572H28.3302H28.3032H28.2761H28.2491H28.2221H28.195H28.168H28.141H28.1139H28.0869H28.0599H28.0328H28.0058H27.9788H27.9517H27.9247H27.8977H27.8706H27.8436H27.8166H27.7896H27.7625H27.7355H27.7085H27.6814H27.6544H27.6274H27.6003H27.5733H27.5463H27.5192H27.4922H27.4652H27.4381H27.4111H27.384H27.357H27.33H27.3029H27.2759H27.2489H27.2218H27.1948H27.1678H27.1407H27.1137H27.0867H27.0725V11.7434H27.0867H27.1137H27.1407H27.1678H27.1948H27.2218H27.2489H27.2759H27.3029H27.33H27.357H27.384H27.4111H27.4381H27.4652H27.4922H27.5192H27.5463H27.5733H27.6003H27.6274H27.6544H27.6814H27.7085H27.7355H27.7625H27.7896H27.8166H27.8436H27.8706H27.8977H27.9247H27.9517H27.9788H28.0058H28.0328H28.0599H28.0869H28.1139H28.141H28.168H28.195H28.2221H28.2491H28.2761H28.3032H28.3302H28.3572H28.3843H28.4113H28.4383H28.4654H28.4924H28.5194H28.5465H28.5579L28.5735 11.7439C28.5823 11.7443 28.5914 11.7448 28.6005 11.7454C28.6096 11.746 28.6187 11.7467 28.6276 11.7474C28.6369 11.7481 28.646 11.749 28.6546 11.7498C28.6645 11.7508 28.6736 11.7518 28.6816 11.7527C28.6898 11.7536 28.6968 11.7545 28.7021 11.7552L28.7087 11.7564C28.7177 11.7581 28.7268 11.7599 28.7357 11.7619C28.7448 11.7639 28.7538 11.766 28.7627 11.7684C28.7718 11.7708 28.7808 11.7733 28.7898 11.7761C28.7988 11.7788 28.8079 11.7818 28.8168 11.7849C28.8259 11.7881 28.8349 11.7915 28.8438 11.795C28.8529 11.7986 28.8619 11.8024 28.8708 11.8064C28.8799 11.8105 28.889 11.8147 28.8979 11.8191C28.907 11.8237 28.916 11.8284 28.9249 11.8333C28.934 11.8384 28.9431 11.8437 28.9519 11.8492C28.9611 11.8548 28.9701 11.8606 28.979 11.8667C28.9882 11.8729 28.9972 11.8795 29.006 11.8862C29.0152 11.8932 29.0242 11.9004 29.033 11.9078C29.0423 11.9156 29.0513 11.9237 29.0601 11.9319C29.0694 11.9407 29.0784 11.9497 29.0871 11.9589C29.0964 11.9688 29.1054 11.979 29.1142 11.9895C29.1235 12.0007 29.1325 12.0124 29.1412 12.0243C29.1506 12.0375 29.1597 12.051 29.1682 12.0649C29.1779 12.0807 29.1869 12.097 29.1953 12.1138C29.2052 12.1338 29.2143 12.1546 29.2223 12.176C29.2333 12.2053 29.2423 12.236 29.2493 12.2679ZM32.602 5.19608H32.613L32.613 19.2026C32.613 19.2862 32.6091 19.369 32.602 19.4508C32.5956 19.5228 32.5866 19.5941 32.5749 19.6644C32.5671 19.7117 32.5581 19.7585 32.5479 19.8049C32.5396 19.8427 32.5306 19.8802 32.5208 19.9174C32.5124 19.9495 32.5033 19.9813 32.4938 20.0129C32.4852 20.0415 32.4763 20.07 32.4668 20.0982C32.4581 20.1238 32.449 20.1492 32.4397 20.1744C32.431 20.1979 32.422 20.2213 32.4127 20.2445C32.4039 20.2663 32.3949 20.2879 32.3857 20.3095C32.3769 20.3299 32.3678 20.3501 32.3586 20.3703C32.3498 20.3895 32.3408 20.4086 32.3316 20.4275C32.3227 20.4457 32.3137 20.4637 32.3045 20.4817C32.2957 20.4989 32.2867 20.516 32.2775 20.5329C32.2687 20.5493 32.2596 20.5654 32.2505 20.5816C32.2416 20.5972 32.2326 20.6127 32.2234 20.6281C32.2145 20.6431 32.2055 20.6581 32.1964 20.6729C32.1875 20.6873 32.1785 20.7017 32.1693 20.716C32.1605 20.7298 32.1514 20.7435 32.1423 20.7571C32.1334 20.7704 32.1244 20.7835 32.1153 20.7967C32.1063 20.8096 32.0973 20.8224 32.0882 20.8351C32.0793 20.8476 32.0703 20.8599 32.0612 20.8722C32.0523 20.8842 32.0432 20.896 32.0341 20.9078C32.0252 20.9194 32.0162 20.931 32.0071 20.9425C31.9982 20.9538 31.9892 20.965 31.9801 20.9761C31.9711 20.9869 31.9621 20.9977 31.953 21.0085C31.944 21.0191 31.9351 21.0297 31.926 21.0402C31.9171 21.0505 31.908 21.0606 31.899 21.0707C31.89 21.0807 31.881 21.0906 31.8719 21.1005C31.8629 21.1102 31.854 21.1199 31.8449 21.1295C31.836 21.1389 31.8269 21.1482 31.8178 21.1575C31.8088 21.1667 31.7999 21.176 31.7908 21.1851C31.7819 21.194 31.7728 21.2027 31.7638 21.2115C31.7548 21.2202 31.7458 21.2289 31.7367 21.2375C31.7278 21.246 31.7187 21.2543 31.7097 21.2627C31.7007 21.2709 31.6917 21.2792 31.6826 21.2873C31.6737 21.2953 31.6647 21.3033 31.6556 21.3113C31.6466 21.3191 31.6376 21.3269 31.6286 21.3346C31.6196 21.3423 31.6106 21.3499 31.6015 21.3575C31.5926 21.3649 31.5835 21.3722 31.5745 21.3796C31.5655 21.3868 31.5565 21.3941 31.5475 21.4013C31.5385 21.4084 31.5294 21.4153 31.5204 21.4223C31.5114 21.4292 31.5025 21.4362 31.4934 21.443C31.4844 21.4497 31.4754 21.4563 31.4663 21.4629C31.4573 21.4695 31.4484 21.4762 31.4393 21.4827C31.4303 21.4891 31.4213 21.4953 31.4123 21.5016C31.4033 21.5079 31.3943 21.5142 31.3852 21.5204C31.3762 21.5265 31.3672 21.5324 31.3582 21.5384C31.3492 21.5444 31.3402 21.5504 31.3311 21.5562C31.3222 21.562 31.3131 21.5677 31.3041 21.5734C31.2951 21.5791 31.2861 21.5848 31.2771 21.5903C31.2681 21.5958 31.2591 21.6013 31.25 21.6067L31.223 21.6227C31.214 21.6279 31.205 21.6332 31.196 21.6383C31.187 21.6435 31.1779 21.6485 31.1689 21.6535C31.1599 21.6585 31.1509 21.6635 31.1419 21.6684C31.1329 21.6732 31.1239 21.6779 31.1148 21.6827C31.1058 21.6874 31.0969 21.6923 31.0878 21.6969C31.0788 21.7015 31.0698 21.7059 31.0608 21.7104C31.0518 21.7149 31.0428 21.7194 31.0337 21.7238C31.0248 21.7282 31.0157 21.7324 31.0067 21.7367L30.9796 21.7493L30.9526 21.7616C30.9436 21.7656 30.9346 21.7695 30.9256 21.7734C30.9166 21.7773 30.9076 21.7813 30.8985 21.7852C30.8896 21.7889 30.8805 21.7925 30.8715 21.7962C30.8625 21.7999 30.8535 21.8037 30.8445 21.8072C30.8355 21.8108 30.8264 21.8142 30.8174 21.8177C30.8084 21.8211 30.7994 21.8246 30.7904 21.8279L30.7633 21.8379C30.7544 21.8412 30.7453 21.8443 30.7363 21.8474C30.7273 21.8506 30.7183 21.8539 30.7093 21.8569C30.7003 21.86 30.6912 21.8628 30.6822 21.8657L30.6552 21.8745C30.6462 21.8773 30.6372 21.8801 30.6281 21.8828L30.6011 21.8909C30.5921 21.8935 30.5831 21.8962 30.5741 21.8988C30.5651 21.9013 30.5561 21.9037 30.547 21.9061C30.538 21.9085 30.529 21.911 30.52 21.9134L30.493 21.9202L30.4659 21.9268L30.4389 21.9333C30.4299 21.9353 30.4209 21.9372 30.4118 21.9391C30.4028 21.9411 30.3939 21.9432 30.3848 21.945L30.3578 21.9504L30.3307 21.9556C30.3217 21.9573 30.3127 21.9591 30.3037 21.9607C30.2947 21.9623 30.2857 21.9637 30.2766 21.9652L30.2496 21.9697L30.2226 21.9737L30.1955 21.9775C30.1865 21.9787 30.1776 21.9801 30.1685 21.9813C30.1595 21.9824 30.1505 21.9833 30.1415 21.9844C30.1325 21.9854 30.1235 21.9865 30.1144 21.9875C30.1054 21.9885 30.0964 21.9894 30.0874 21.9903C30.0784 21.9912 30.0694 21.9919 30.0603 21.9927C30.0513 21.9935 30.0423 21.9944 30.0333 21.9951C30.0243 21.9958 30.0153 21.9964 30.0063 21.997L29.9792 21.9987C29.9702 21.9992 29.9612 21.9999 29.9522 22.0003C29.9432 22.0008 29.9342 22.001 29.9251 22.0014L29.8981 22.0024L29.8711 22.0031C29.8621 22.0033 29.8531 22.0033 29.844 22.0034L29.817 22.0038L29.8114 22.0038H29.79H29.7629H29.7359H29.7089H29.6818H29.6548H29.6277H29.6007H29.5737H29.5466H29.5196H29.4926H29.4655H29.4385H29.4114H29.3844H29.3574H29.3303H29.3033H29.2762H29.2492H29.2222H29.1951H29.1681H29.1411H29.114H29.087H29.0599H29.0329H29.0059H28.9788H28.9518H28.9247H28.8977H28.8707H28.8436H28.8166H28.7896H28.7625H28.7355H28.7084H28.6814H28.6544H28.6273H28.6003H28.5732H28.5462H28.5192H28.4921H28.4651H28.4381H28.411H28.384H28.3569H28.3299H28.3029H28.2758H28.2488H28.2217H28.1947H28.1677H28.1406H28.1136H28.0866H28.0595H28.0325H28.0054H27.9784H27.9514H27.9243H27.8973H27.8702H27.8432H27.8162H27.7891H27.7621H27.7351H27.708H27.681H27.6539H27.6269H27.5999H27.5728H27.5458H27.5187H27.4917H27.4647H27.4376H27.4106H27.3836H27.3565H27.3295H27.3024H27.2754H27.2484H27.2213H27.1943H27.1672H27.1402H27.1132H27.0861H27.0591H27.0321H27.005H26.978H26.9509H26.9239H26.8969H26.8698H26.8428H26.8158H26.7887H26.7617H26.7346H26.7076H26.6806H26.6535H26.6265H26.5995H26.5724H26.5454H26.5183H26.4913H26.4643H26.4372H26.4102H26.3832H26.3561H26.3291H26.302H26.275H26.248H26.2209H26.1939H26.1668H26.1398H26.1128H26.0857H26.0587H26.0317H26.0046H25.9776H25.9505H25.9235H25.8965H25.8694H25.8424H25.8153H25.7883H25.7613H25.7029V16.2929H25.7613H25.7883H25.8153H25.8424H25.8694H25.8965H25.9235H25.9505H25.9776H26.0046H26.0317H26.0587H26.0857H26.1128H26.1398H26.1668H26.1939H26.2209H26.248H26.275H26.302H26.3291H26.3561H26.3832H26.4102H26.4372H26.4643H26.4913H26.5183H26.5454H26.5724H26.5995H26.6265H26.6535H26.6806H26.7076H26.7346H26.7617H26.7887H26.8158H26.8428H26.8698H26.8969H26.9239H26.9509H26.978H27.005H27.0321H27.0591H27.0861H27.1132H27.1402H27.1672H27.1943H27.2213H27.2484H27.2754H27.3024H27.3295H27.3565H27.3836H27.4106H27.4376H27.4647H27.4917H27.5187H27.5458H27.5728H27.5999H27.6269H27.6539H27.681H27.708H27.7351H27.7621H27.7891H27.8162H27.8432H27.8702H27.8973H27.9243H27.9514H27.9784H28.0054H28.0325H28.0595H28.0866H28.1136H28.1406H28.1677H28.1947H28.2217H28.2488H28.2758H28.3029H28.3299H28.3569H28.384H28.411H28.4381H28.4651H28.4921H28.5192H28.5462H28.5732H28.6003H28.6273H28.6544H28.6814H28.7084H28.7355H28.7625H28.7896H28.8166H28.8436H28.8707H28.8977H28.9247H28.9518H28.9788H29.0059H29.0329H29.0599H29.087H29.114H29.1411H29.1681H29.1951H29.2222H29.2492H29.2762H29.3033H29.3303H29.3574H29.3844H29.4114H29.4385H29.4655H29.4926H29.5196H29.5466H29.5737H29.6007H29.6277H29.6548H29.6818H29.7089H29.7359H29.7629H29.79H29.817H29.844H29.8711H29.8981H29.9251H29.9522H29.9792H30.0063H30.0333H30.0476L30.0603 16.2928L30.0874 16.2926L30.1144 16.292C30.1235 16.2918 30.1325 16.2917 30.1415 16.2913C30.1505 16.291 30.1595 16.2906 30.1685 16.2902L30.1955 16.2889L30.2226 16.2873L30.2496 16.2855L30.2766 16.2833L30.3037 16.2809C30.3127 16.28 30.3218 16.2792 30.3307 16.2782C30.3398 16.2773 30.3488 16.2762 30.3578 16.2752L30.3848 16.2719C30.3939 16.2707 30.4029 16.2696 30.4118 16.2683C30.4209 16.2671 30.4299 16.2657 30.4389 16.2643C30.4479 16.263 30.457 16.2616 30.4659 16.2602L30.493 16.2556L30.52 16.2508C30.529 16.2491 30.5381 16.2474 30.547 16.2457C30.5561 16.2439 30.5651 16.242 30.5741 16.2401L30.6011 16.2342C30.6101 16.2322 30.6192 16.2302 30.6281 16.2281C30.6372 16.226 30.6462 16.2237 30.6552 16.2214C30.6642 16.2192 30.6733 16.2169 30.6822 16.2146C30.6913 16.2122 30.7003 16.2098 30.7093 16.2073C30.7183 16.2048 30.7273 16.2022 30.7363 16.1996C30.7453 16.197 30.7544 16.1943 30.7633 16.1916L30.7904 16.1831C30.7995 16.1802 30.8084 16.1772 30.8174 16.1742C30.8265 16.1711 30.8355 16.1681 30.8445 16.1649C30.8535 16.1617 30.8626 16.1586 30.8715 16.1553C30.8806 16.1519 30.8896 16.1484 30.8985 16.145C30.9076 16.1415 30.9166 16.1379 30.9256 16.1343C30.9346 16.1307 30.9437 16.1271 30.9526 16.1233C30.9617 16.1195 30.9707 16.1156 30.9796 16.1116C30.9887 16.1077 30.9977 16.1036 31.0067 16.0995C31.0157 16.0953 31.0248 16.0911 31.0337 16.0868C31.0428 16.0825 31.0518 16.0781 31.0608 16.0737C31.0699 16.0691 31.0788 16.0645 31.0878 16.0598C31.0969 16.0551 31.1059 16.0502 31.1148 16.0453C31.1239 16.0404 31.1329 16.0354 31.1419 16.0303C31.151 16.0251 31.16 16.0199 31.1689 16.0146C31.178 16.0092 31.187 16.0038 31.196 15.9983C31.2051 15.9926 31.214 15.9869 31.223 15.9811C31.2321 15.9751 31.2411 15.9691 31.25 15.9631C31.2591 15.9569 31.2681 15.9506 31.2771 15.9443C31.2862 15.9378 31.2952 15.9313 31.3041 15.9246C31.3132 15.9179 31.3222 15.911 31.3311 15.9041C31.3403 15.8969 31.3493 15.8898 31.3582 15.8825C31.3673 15.875 31.3763 15.8675 31.3852 15.8598C31.3944 15.852 31.4034 15.844 31.4123 15.836C31.4214 15.8277 31.4304 15.8193 31.4393 15.8108C31.4485 15.8021 31.4575 15.7932 31.4663 15.7843C31.4755 15.775 31.4845 15.7656 31.4934 15.7561C31.5026 15.7463 31.5116 15.7363 31.5204 15.7263C31.5296 15.7158 31.5386 15.7052 31.5475 15.6945C31.5567 15.6833 31.5657 15.672 31.5745 15.6605C31.5837 15.6485 31.5928 15.6364 31.6015 15.6241C31.6108 15.6111 31.6198 15.5978 31.6286 15.5844C31.6379 15.5702 31.6469 15.5558 31.6556 15.5412C31.665 15.5255 31.674 15.5096 31.6826 15.4936C31.692 15.4761 31.7011 15.4584 31.7097 15.4404C31.7193 15.4203 31.7282 15.3998 31.7367 15.3791C31.7464 15.3554 31.7555 15.3313 31.7638 15.3068C31.7739 15.2766 31.7829 15.2458 31.7908 15.2144C31.8023 15.1686 31.8114 15.1215 31.8178 15.0734C31.8257 15.0149 31.8298 14.9548 31.8298 14.8931C31.8298 14.8329 31.8257 14.7745 31.8178 14.7178C31.8114 14.6712 31.8023 14.6258 31.7908 14.5816C31.7829 14.5515 31.7739 14.5219 31.7638 14.4929C31.7555 14.4691 31.7465 14.4457 31.7367 14.4227C31.7283 14.4028 31.7192 14.3831 31.7097 14.3638C31.7011 14.3464 31.6921 14.3293 31.6826 14.3124C31.674 14.2968 31.665 14.2815 31.6556 14.2663C31.6469 14.2523 31.6379 14.2384 31.6286 14.2248C31.6198 14.2119 31.6108 14.199 31.6015 14.1865C31.5928 14.1746 31.5837 14.1629 31.5745 14.1514C31.5657 14.1403 31.5567 14.1294 31.5475 14.1186C31.5386 14.1082 31.5296 14.0979 31.5204 14.0878C31.5116 14.0781 31.5026 14.0685 31.4934 14.059C31.4845 14.0499 31.4755 14.0409 31.4663 14.032C31.4575 14.0233 31.4484 14.0148 31.4393 14.0063C31.4304 13.9982 31.4214 13.9901 31.4123 13.9821C31.4034 13.9743 31.3944 13.9667 31.3852 13.9591C31.3763 13.9517 31.3673 13.9444 31.3582 13.9372C31.3493 13.9301 31.3403 13.9232 31.3311 13.9163C31.3222 13.9096 31.3132 13.903 31.3041 13.8964C31.2952 13.89 31.2862 13.8836 31.2771 13.8774C31.2681 13.8713 31.2591 13.8652 31.25 13.8592C31.2411 13.8533 31.2321 13.8475 31.223 13.8418C31.214 13.8362 31.2051 13.8307 31.196 13.8252C31.187 13.8198 31.178 13.8146 31.1689 13.8093C31.16 13.8042 31.151 13.7991 31.1419 13.7941C31.1329 13.7892 31.1239 13.7844 31.1148 13.7796C31.1059 13.7749 31.0969 13.7702 31.0878 13.7656C31.0788 13.7611 31.0698 13.7566 31.0608 13.7521C31.0518 13.7478 31.0428 13.7435 31.0337 13.7392C31.0248 13.7351 31.0157 13.731 31.0067 13.727C30.9977 13.723 30.9887 13.7191 30.9796 13.7152C30.9707 13.7114 30.9617 13.7076 30.9526 13.7039C30.9436 13.7002 30.9347 13.6965 30.9256 13.693C30.9166 13.6894 30.9076 13.686 30.8985 13.6826C30.8896 13.6792 30.8805 13.676 30.8715 13.6727C30.8625 13.6695 30.8535 13.6663 30.8445 13.6632C30.8355 13.6601 30.8265 13.657 30.8174 13.654C30.8085 13.6511 30.7994 13.6482 30.7904 13.6453C30.7814 13.6425 30.7724 13.6398 30.7633 13.637L30.7363 13.6291C30.7273 13.6265 30.7183 13.624 30.7093 13.6215C30.7003 13.6191 30.6913 13.6167 30.6822 13.6144C30.6733 13.612 30.6642 13.6098 30.6552 13.6076C30.6462 13.6053 30.6372 13.6031 30.6281 13.601C30.6192 13.5989 30.6101 13.5969 30.6011 13.5949C30.5922 13.5929 30.5831 13.591 30.5741 13.5891C30.5651 13.5872 30.5561 13.5854 30.547 13.5836L30.52 13.5784L30.493 13.5736C30.484 13.572 30.475 13.5704 30.4659 13.569L30.4389 13.5647C30.4299 13.5634 30.4209 13.5621 30.4118 13.5608L30.3848 13.5571L30.3578 13.5537L30.3307 13.5507L30.3037 13.5478L30.2766 13.5453L30.2496 13.5431L30.2247 13.5411L30.2246 13.5087L30.2496 13.5049L30.2766 13.5004C30.2857 13.4988 30.2947 13.4973 30.3037 13.4957L30.3307 13.4905C30.3398 13.4887 30.3488 13.4868 30.3578 13.4849L30.3848 13.479C30.3939 13.477 30.4029 13.4749 30.4118 13.4728C30.4209 13.4706 30.4299 13.4683 30.4389 13.466C30.448 13.4637 30.457 13.4613 30.4659 13.4588C30.475 13.4564 30.484 13.4539 30.493 13.4513C30.502 13.4487 30.5111 13.4461 30.52 13.4434C30.529 13.4406 30.5381 13.4378 30.547 13.4349C30.5561 13.432 30.5651 13.429 30.5741 13.426C30.5832 13.4229 30.5922 13.4198 30.6011 13.4166C30.6102 13.4134 30.6192 13.4101 30.6281 13.4067C30.6372 13.4033 30.6463 13.3999 30.6552 13.3963C30.6643 13.3928 30.6733 13.3891 30.6822 13.3854C30.6913 13.3817 30.7003 13.3779 30.7093 13.374C30.7184 13.37 30.7274 13.366 30.7363 13.3619C30.7454 13.3577 30.7544 13.3535 30.7633 13.3492C30.7724 13.3448 30.7814 13.3403 30.7904 13.3358C30.7995 13.3312 30.8085 13.3266 30.8174 13.3218C30.8265 13.317 30.8355 13.3121 30.8445 13.3072C30.8536 13.3021 30.8626 13.297 30.8715 13.2918C30.8806 13.2864 30.8896 13.281 30.8985 13.2756C30.9077 13.27 30.9166 13.2644 30.9256 13.2586C30.9347 13.2528 30.9437 13.2468 30.9526 13.2408C30.9617 13.2346 30.9707 13.2283 30.9796 13.222C30.9888 13.2155 30.9978 13.2089 31.0067 13.2023C31.0158 13.1954 31.0248 13.1885 31.0337 13.1815C31.0429 13.1743 31.0519 13.1671 31.0608 13.1597C31.0699 13.152 31.0789 13.1443 31.0878 13.1365C31.097 13.1284 31.106 13.1202 31.1148 13.112C31.124 13.1034 31.133 13.0948 31.1419 13.086C31.1511 13.077 31.1601 13.0678 31.1689 13.0586C31.1781 13.0489 31.1871 13.0391 31.196 13.0292C31.2052 13.0189 31.2142 13.0085 31.223 12.9979C31.2322 12.9869 31.2413 12.9756 31.25 12.9643C31.2593 12.9524 31.2683 12.9403 31.2771 12.9281C31.2864 12.9151 31.2954 12.9019 31.3041 12.8887C31.3134 12.8745 31.3225 12.8602 31.3311 12.8457C31.3405 12.83 31.3496 12.8141 31.3582 12.7981C31.3677 12.7804 31.3767 12.7625 31.3852 12.7444C31.3948 12.7241 31.4038 12.7034 31.4123 12.6826C31.4221 12.6583 31.4311 12.6337 31.4393 12.6087C31.4496 12.5774 31.4586 12.5455 31.4663 12.5132C31.4788 12.4609 31.4878 12.4074 31.4934 12.3531C31.4978 12.3102 31.5001 12.2667 31.5001 12.2228C31.5001 12.1764 31.4978 12.1312 31.4934 12.0871C31.4878 12.0308 31.4787 11.9764 31.4663 11.9239C31.4586 11.8911 31.4496 11.859 31.4393 11.8277C31.4311 11.8027 31.4221 11.7781 31.4123 11.7541C31.4038 11.7333 31.3948 11.713 31.3852 11.693C31.3767 11.6751 31.3676 11.6576 31.3582 11.6403C31.3495 11.6245 31.3405 11.609 31.3311 11.5937C31.3224 11.5794 31.3134 11.5654 31.3041 11.5516C31.2954 11.5387 31.2863 11.5259 31.2771 11.5134C31.2683 11.5015 31.2593 11.4898 31.25 11.4783C31.2412 11.4672 31.2322 11.4563 31.223 11.4456C31.2142 11.4354 31.2052 11.4254 31.196 11.4154C31.1871 11.4059 31.1781 11.3965 31.1689 11.3872C31.1601 11.3782 31.1511 11.3694 31.1419 11.3607C31.133 11.3522 31.124 11.3439 31.1148 11.3357C31.106 11.3277 31.0969 11.3198 31.0878 11.3121C31.0789 11.3046 31.0699 11.2971 31.0608 11.2898C31.0519 11.2827 31.0429 11.2756 31.0337 11.2687C31.0248 11.2619 31.0158 11.2553 31.0067 11.2487C30.9978 11.2423 30.9888 11.2359 30.9796 11.2297C30.9707 11.2236 30.9617 11.2176 30.9526 11.2116C30.9437 11.2058 30.9347 11.2001 30.9256 11.1944C30.9166 11.1889 30.9076 11.1835 30.8985 11.1781C30.8896 11.1728 30.8806 11.1676 30.8715 11.1625C30.8626 11.1574 30.8536 11.1524 30.8445 11.1476C30.8355 11.1427 30.8265 11.138 30.8174 11.1333C30.8085 11.1288 30.7995 11.1242 30.7904 11.1198C30.7814 11.1154 30.7724 11.111 30.7633 11.1068C30.7544 11.1026 30.7454 11.0984 30.7363 11.0944C30.7274 11.0904 30.7183 11.0866 30.7093 11.0827C30.7003 11.0789 30.6913 11.0751 30.6822 11.0714C30.6733 11.0678 30.6642 11.0642 30.6552 11.0607C30.6462 11.0572 30.6372 11.0538 30.6281 11.0504C30.6192 11.0471 30.6102 11.0438 30.6011 11.0406C30.5922 11.0375 30.5831 11.0344 30.5741 11.0314C30.5651 11.0284 30.5561 11.0254 30.547 11.0225C30.5381 11.0197 30.5291 11.0168 30.52 11.0141C30.511 11.0113 30.502 11.0086 30.493 11.006C30.484 11.0034 30.475 11.0009 30.4659 10.9985C30.457 10.996 30.4479 10.9936 30.4389 10.9913L30.4118 10.9844C30.4029 10.9822 30.3939 10.98 30.3848 10.9779C30.3758 10.9758 30.3668 10.9738 30.3578 10.9718L30.3307 10.9661C30.3217 10.9642 30.3128 10.9623 30.3037 10.9606C30.2947 10.9588 30.2857 10.9572 30.2766 10.9555L30.2496 10.9508C30.2406 10.9493 30.2316 10.9477 30.2226 10.9463L30.1955 10.9422L30.1685 10.9384L30.1415 10.9348L30.1144 10.9316L30.0874 10.9287L30.0603 10.926L30.0333 10.9236L30.0063 10.9215L29.9792 10.9196L29.9522 10.918L29.9415 10.9174L29.9251 10.9164L29.8981 10.9148L29.8711 10.9133L29.844 10.9119L29.817 10.9106L29.79 10.9095L29.7629 10.9085L29.7359 10.9076L29.7089 10.907L29.6818 10.9067L29.6669 10.9066H29.6548H29.6277H29.6007H29.5737H29.5466H29.5196H29.4926H29.4655H29.4385H29.4114H29.3844H29.3574H29.3303H29.3033H29.2762H29.2492H29.2222H29.1951H29.1681H29.1411H29.114H29.087H29.0599H29.0329H29.0059H28.9788H28.9518H28.9247H28.8977H28.8707H28.8436H28.8166H28.7896H28.7625H28.7355H28.7084H28.6814H28.6544H28.6273H28.6003H28.5732H28.5462H28.5192H28.4921H28.4651H28.4381H28.411H28.384H28.3569H28.3299H28.3029H28.2758H28.2488H28.2217H28.1947H28.1677H28.1406H28.1136H28.0866H28.0595H28.0325H28.0054H27.9784H27.9514H27.9243H27.8973H27.8702H27.8432H27.8162H27.7891H27.7621H27.7351H27.708H27.681H27.6539H27.6269H27.5999H27.5728H27.5458H27.5187H27.4917H27.4647H27.4376H27.4106H27.3836H27.3565H27.3295H27.3024H27.2754H27.2484H27.2213H27.1943H27.1672H27.1402H27.1132H27.0861H27.0591H27.0321H27.005H26.978H26.9509H26.9239H26.8969H26.8698H26.8428H26.8158H26.7887H26.7617H26.7346H26.7076H26.6806H26.6535H26.6265H26.5995H26.5724H26.5454H26.5183H26.4913H26.4643H26.4372H26.4102H26.3832H26.3561H26.3291H26.302H26.275H26.248H26.2209H26.1939H26.1668H26.1398H26.1128H26.0857H26.0587H26.0317H26.0046H25.9776H25.9505H25.9235H25.8965H25.8694H25.8424H25.8153H25.7883H25.7613H25.7029V7.9976C25.7029 7.8019 25.7231 7.61092 25.7613 7.42654C25.7695 7.38705 25.7785 7.3479 25.7883 7.30906C25.7967 7.27583 25.8058 7.24284 25.8153 7.2101C25.8239 7.18086 25.8329 7.15182 25.8424 7.12297C25.851 7.09662 25.86 7.0704 25.8694 7.04441C25.8781 7.02029 25.8871 6.99631 25.8965 6.97252C25.9052 6.95028 25.9142 6.92817 25.9235 6.90623C25.9323 6.88552 25.9413 6.8649 25.9505 6.84444C25.9593 6.82501 25.9684 6.80572 25.9776 6.78654C25.9864 6.76823 25.9954 6.75005 26.0046 6.73197C26.0134 6.71458 26.0225 6.69732 26.0317 6.68014C26.0405 6.66357 26.0495 6.64713 26.0587 6.63077C26.0676 6.6149 26.0766 6.59917 26.0857 6.58351C26.0946 6.56831 26.1036 6.55318 26.1128 6.53819C26.1217 6.52365 26.1307 6.50922 26.1398 6.49485C26.1487 6.48094 26.1577 6.46715 26.1668 6.45342C26.1758 6.43997 26.1847 6.42657 26.1939 6.41328C26.2028 6.40026 26.2117 6.38724 26.2209 6.37438C26.2298 6.36192 26.2389 6.34962 26.248 6.33731C26.2569 6.32521 26.2659 6.3132 26.275 6.30125C26.284 6.28949 26.2929 6.27768 26.302 6.26607C26.3109 6.25478 26.32 6.24366 26.3291 6.2325C26.338 6.2215 26.347 6.21059 26.3561 6.19974C26.3651 6.18903 26.374 6.17832 26.3832 6.16774C26.392 6.15743 26.4011 6.1473 26.4102 6.13713C26.4192 6.12704 26.4281 6.11694 26.4372 6.10699C26.4461 6.09724 26.4552 6.08758 26.4643 6.07794C26.4732 6.06844 26.4822 6.05901 26.4913 6.04962C26.5003 6.04036 26.5092 6.03111 26.5183 6.02196C26.5273 6.01298 26.5363 6.00412 26.5454 5.99527C26.5544 5.98647 26.5633 5.97757 26.5724 5.9689C26.5813 5.9604 26.5904 5.95211 26.5995 5.94373C26.6084 5.93539 26.6174 5.92704 26.6265 5.91881C26.6354 5.91072 26.6445 5.90279 26.6535 5.89483C26.6625 5.88692 26.6715 5.87901 26.6806 5.87121C26.6895 5.86353 26.6985 5.85595 26.7076 5.84838C26.7166 5.84087 26.7256 5.83338 26.7346 5.82599C26.7436 5.81866 26.7526 5.81142 26.7617 5.80423L26.7887 5.78296L26.8158 5.76226C26.8247 5.75547 26.8337 5.74872 26.8428 5.74204C26.8518 5.73543 26.8608 5.72884 26.8698 5.72232L26.8969 5.70312C26.9058 5.69682 26.9148 5.69057 26.9239 5.68438L26.9509 5.66607L26.978 5.64826C26.987 5.64241 26.996 5.63658 27.005 5.63085L27.0321 5.61395C27.0411 5.60837 27.05 5.60279 27.0591 5.59732C27.0681 5.5919 27.0771 5.58663 27.0861 5.58132C27.0952 5.57601 27.1041 5.57065 27.1132 5.56545C27.1221 5.56032 27.1312 5.55537 27.1402 5.55033C27.1492 5.54529 27.1582 5.54015 27.1672 5.53522C27.1762 5.53036 27.1853 5.52565 27.1943 5.52088C27.2033 5.51611 27.2123 5.51131 27.2213 5.50663C27.2303 5.50199 27.2393 5.49749 27.2484 5.49296C27.2574 5.48845 27.2664 5.48393 27.2754 5.47951L27.3024 5.46645C27.3114 5.46217 27.3205 5.458 27.3295 5.45381C27.3385 5.44964 27.3475 5.44541 27.3565 5.44133C27.3655 5.43729 27.3746 5.43344 27.3836 5.42949C27.3926 5.42555 27.4015 5.42154 27.4106 5.41769C27.4196 5.41388 27.4286 5.41024 27.4376 5.40652C27.4466 5.40283 27.4556 5.39908 27.4647 5.39548L27.4917 5.38483L27.5187 5.37455C27.5278 5.37114 27.5367 5.36769 27.5458 5.36439C27.5548 5.36112 27.5638 5.35805 27.5728 5.35487C27.5819 5.35169 27.5908 5.34844 27.5999 5.34535C27.6088 5.34228 27.6179 5.33939 27.6269 5.33641L27.6539 5.32764C27.663 5.32477 27.6719 5.32188 27.681 5.3191C27.69 5.31635 27.699 5.31375 27.708 5.31108C27.717 5.30839 27.726 5.30561 27.7351 5.30304C27.744 5.30048 27.7531 5.29811 27.7621 5.29564C27.7711 5.29318 27.7801 5.29069 27.7891 5.28831L27.8162 5.28132C27.8252 5.27906 27.8342 5.27691 27.8432 5.27473C27.8522 5.27256 27.8612 5.27023 27.8702 5.26815C27.8792 5.26608 27.8883 5.2642 27.8973 5.26221L27.9243 5.25631L27.9514 5.25073C27.9603 5.24894 27.9694 5.24726 27.9784 5.24556C27.9874 5.24383 27.9964 5.24199 28.0054 5.24036C28.0144 5.23872 28.0235 5.23733 28.0325 5.23581L28.0595 5.23133C28.0685 5.22989 28.0775 5.22841 28.0866 5.22707C28.0955 5.22572 28.1046 5.22454 28.1136 5.22328C28.1226 5.22203 28.1316 5.22066 28.1406 5.21949C28.1496 5.21833 28.1587 5.2173 28.1677 5.21622L28.1947 5.21313C28.2037 5.21214 28.2127 5.21105 28.2217 5.21015C28.2307 5.20925 28.2398 5.20856 28.2488 5.20775L28.2758 5.20535L28.3029 5.20331C28.3118 5.20266 28.3209 5.20215 28.3299 5.20159C28.3389 5.20105 28.3479 5.20036 28.3569 5.19989C28.3659 5.19941 28.375 5.19915 28.384 5.19876L28.411 5.19776C28.42 5.19746 28.429 5.19708 28.4381 5.19688C28.447 5.19668 28.4561 5.19666 28.4651 5.19652C28.4741 5.19639 28.4831 5.19623 28.4921 5.19619L28.4989 5.1961H28.5192H28.5462H28.5732H28.6003H28.6273H28.6544H28.6814H28.7084H28.7355H28.7625H28.7896H28.8166H28.8436H28.8707H28.8977H28.9247H28.9518H28.9788H29.0059H29.0329H29.0599H29.087H29.114H29.1411H29.1681H29.1951H29.2222H29.2492H29.2762H29.3033H29.3303H29.3574H29.3844H29.4114H29.4385H29.4655H29.4926H29.5196H29.5466H29.5737H29.6007H29.6277H29.6548H29.6818H29.7089H29.7359H29.7629H29.79H29.817H29.844H29.8711H29.8981H29.9251H29.9522H29.9792H30.0063H30.0333H30.0603H30.0874H30.1144H30.1415H30.1685H30.1955H30.2226H30.2496H30.2766H30.3037H30.3307H30.3578H30.3848H30.4118H30.4389H30.4659H30.493H30.52H30.547H30.5741H30.6011H30.6281H30.6552H30.6822H30.7093H30.7363H30.7633H30.7904H30.8174H30.8445H30.8715H30.8985H30.9256H30.9526H30.9796H31.0067H31.0337H31.0608H31.0878H31.1148H31.1419H31.1689H31.196H31.223H31.25H31.2771H31.3041H31.3311H31.3582H31.3852H31.4123H31.4393H31.4663H31.4934H31.5204H31.5475H31.5745H31.6015H31.6286H31.6556H31.6826H31.7097H31.7367H31.7638H31.7908H31.8178H31.8449H31.8719H31.899H31.926H31.953H31.9801H32.0071H32.0341H32.0612H32.0882H32.1153H32.1423H32.1693H32.1964H32.2234H32.2505H32.2775H32.3045H32.3316H32.3586H32.3857H32.4127H32.4397H32.4668H32.4938H32.5208H32.5479H32.5749H32.602V5.19608Z" fill="white"/>
<path fill-rule="evenodd" clip-rule="evenodd" d="M10.2612 14.9437C10.2418 14.9345 10.2225 14.9252 10.2032 14.9159V7.99758C10.2032 7.80244 10.2232 7.61195 10.2612 7.42806C10.2693 7.38857 10.2784 7.34945 10.2882 7.31059C10.2966 7.27731 10.3056 7.2443 10.3152 7.21151C10.3237 7.18229 10.3327 7.15329 10.3421 7.12448C10.3508 7.0981 10.3597 7.07184 10.3691 7.04579C10.3779 7.0217 10.3868 6.99775 10.3961 6.97397C10.4048 6.95174 10.4139 6.92958 10.4231 6.90762C10.4319 6.88691 10.4409 6.86634 10.4501 6.8459C10.4589 6.82647 10.4679 6.8072 10.4771 6.78802C10.4859 6.76968 10.4949 6.75149 10.5041 6.73338C10.5129 6.71599 10.5219 6.69874 10.5311 6.68157C10.5399 6.66501 10.5489 6.64856 10.5581 6.6322C10.5669 6.61636 10.5759 6.6006 10.5851 6.58496C10.5939 6.56977 10.6029 6.55462 10.612 6.5396C10.6209 6.52508 10.6299 6.51067 10.639 6.49633C10.6479 6.48244 10.657 6.46863 10.666 6.4549C10.6749 6.44145 10.6839 6.42805 10.693 6.41476C10.702 6.40172 10.7108 6.3887 10.72 6.37581C10.7289 6.36337 10.7379 6.35109 10.747 6.33879C10.7559 6.32669 10.7649 6.31468 10.774 6.30273C10.7829 6.29099 10.7919 6.27916 10.801 6.26755C10.8099 6.25628 10.8189 6.24519 10.828 6.23405C10.8369 6.22304 10.8459 6.21209 10.855 6.20122C10.8639 6.19053 10.8728 6.17986 10.8819 6.16931C10.8908 6.15898 10.8999 6.14882 10.909 6.13863C10.9179 6.12852 10.9268 6.11844 10.9359 6.10849C10.9448 6.09874 10.9539 6.08912 10.9629 6.07951C10.9719 6.06999 10.9808 6.06055 10.9899 6.05116C10.9989 6.04191 11.0078 6.03265 11.0169 6.02351C11.0258 6.01452 11.0349 6.00567 11.0439 5.99682C11.0529 5.98801 11.0618 5.97914 11.0709 5.97047C11.0798 5.96197 11.0889 5.95368 11.0979 5.9453C11.1069 5.93694 11.1158 5.92856 11.1249 5.92033C11.1338 5.91227 11.1428 5.90436 11.1519 5.8964C11.1608 5.88849 11.1698 5.88056 11.1789 5.87276C11.1878 5.86507 11.1968 5.85752 11.2058 5.84995C11.2148 5.84244 11.2238 5.83493 11.2328 5.82754C11.2418 5.82023 11.2508 5.81299 11.2598 5.80578C11.2688 5.79863 11.2777 5.79155 11.2868 5.78451C11.2957 5.77754 11.3048 5.77066 11.3138 5.7638C11.3228 5.75701 11.3318 5.75025 11.3408 5.74357L11.3678 5.72389C11.3767 5.71741 11.3857 5.71098 11.3948 5.70462C11.4037 5.69832 11.4127 5.69209 11.4218 5.68591C11.4307 5.67974 11.4397 5.67363 11.4487 5.66758C11.4577 5.66159 11.4667 5.6557 11.4757 5.6498C11.4847 5.64396 11.4937 5.63806 11.5027 5.6323C11.5117 5.62661 11.5207 5.62105 11.5297 5.61545C11.5387 5.60987 11.5477 5.60422 11.5567 5.59876C11.5656 5.59335 11.5747 5.58811 11.5837 5.5828C11.5927 5.57749 11.6016 5.57209 11.6107 5.56687C11.6196 5.56173 11.6287 5.55683 11.6377 5.55178C11.6467 5.54674 11.6556 5.54163 11.6647 5.53668C11.6736 5.5318 11.6826 5.52709 11.6917 5.52232C11.7006 5.51754 11.7096 5.51275 11.7186 5.50806C11.7276 5.50342 11.7366 5.49888 11.7456 5.49433L11.7726 5.48093C11.7816 5.47651 11.7906 5.4721 11.7996 5.46779C11.8086 5.46351 11.8176 5.45937 11.8266 5.45518C11.8356 5.45099 11.8445 5.44671 11.8536 5.44263C11.8625 5.43857 11.8716 5.43476 11.8806 5.43082C11.8896 5.42687 11.8985 5.42286 11.9076 5.41901C11.9165 5.4152 11.9256 5.41152 11.9346 5.4078L11.9616 5.39678L11.9885 5.38606L12.0155 5.3758C12.0246 5.37239 12.0335 5.36888 12.0425 5.36556C12.0515 5.36229 12.0605 5.35924 12.0695 5.35606C12.0785 5.35288 12.0875 5.34965 12.0965 5.34656L12.1235 5.33753L12.1505 5.32876C12.1595 5.32589 12.1684 5.32296 12.1775 5.32018C12.1864 5.31742 12.1955 5.3148 12.2045 5.31214C12.2135 5.30945 12.2224 5.30671 12.2315 5.30411C12.2404 5.30154 12.2494 5.29914 12.2584 5.29665L12.2854 5.28932C12.2944 5.28695 12.3034 5.28453 12.3124 5.28224C12.3214 5.27995 12.3304 5.27787 12.3394 5.27567C12.3484 5.27348 12.3574 5.27119 12.3664 5.26909C12.3754 5.267 12.3844 5.26505 12.3934 5.26306L12.4204 5.25719C12.4294 5.25526 12.4384 5.25331 12.4474 5.25149C12.4563 5.2497 12.4654 5.24804 12.4744 5.24632C12.4834 5.24459 12.4923 5.2428 12.5014 5.24116C12.5104 5.23953 12.5193 5.23805 12.5283 5.2365L12.5554 5.23202C12.5643 5.23059 12.5733 5.22904 12.5823 5.22767C12.5913 5.22631 12.6003 5.22516 12.6093 5.22389C12.6183 5.22263 12.6273 5.22129 12.6363 5.2201L12.6633 5.21671L12.6903 5.21364C12.6993 5.21264 12.7083 5.21147 12.7173 5.21055C12.7262 5.20963 12.7353 5.20896 12.7443 5.20813L12.7713 5.20576C12.7803 5.20499 12.7892 5.20425 12.7983 5.20361C12.8072 5.20296 12.8162 5.20244 12.8253 5.20188C12.8343 5.20132 12.8432 5.20067 12.8522 5.20018C12.8612 5.19968 12.8702 5.19935 12.8792 5.19894L12.9062 5.19791C12.9152 5.1976 12.9242 5.19713 12.9332 5.1969C12.9422 5.19668 12.9512 5.1967 12.9602 5.19657C12.9692 5.19643 12.9782 5.19628 12.9872 5.19623L12.9992 5.19608H13.0142H13.0412H13.0682H13.0951H13.1221H13.1491H13.1761H13.2031H13.2301H13.2571H13.2841H13.3111H13.3381H13.365H13.392H13.419H13.446H13.473H13.5H13.527H13.554H13.581H13.608H13.6349H13.6619H13.6889H13.7159H13.7429H13.7699H13.7969H13.8239H13.8509H13.8779H13.9048H13.9319H13.9588H13.9858H14.0128H14.0398H14.0668H14.0938H14.1208H14.1478H14.1747H14.2018H14.2287H14.2557H14.2827H14.3097H14.3367H14.3637H14.3907H14.4177H14.4447H14.4717H14.4986H14.5256H14.5526H14.5796H14.6066H14.6336H14.6606H14.6876H14.7146H14.7416H14.7685H14.7955H14.8225H14.8495H14.8765H14.9035H14.9305H14.9575H14.9845H15.0114H15.0384H15.0654H15.0924H15.1194H15.1464H15.1734H15.2004H15.2274H15.2544H15.2813H15.3083H15.3353H15.3623H15.3893H15.4163H15.4433H15.4703H15.4973H15.5243H15.5512H15.5783H15.6052H15.6322H15.6592H15.6862H15.7132H15.7402H15.7672H15.7942H15.8212H15.8482H15.8751H15.9021H15.9291H15.9561H15.9831H16.0101H16.0371H16.0641H16.0911H16.1181H16.145H16.172H16.199H16.226H16.253H16.28H16.307H16.334H16.361H16.388H16.4149H16.4419H16.4689H16.4959H16.5229H16.5499H16.5769H16.6039H16.6309H16.6578H16.6848H16.7118H16.7388H16.7658H16.7928H16.8198H16.8468H16.8738H16.9008H16.9277H16.9547H16.9817H17.0087H17.0357H17.0627H17.0897H17.1126V19.2026C17.1126 19.3244 17.1048 19.4444 17.0897 19.5622C17.0824 19.6189 17.0733 19.675 17.0627 19.7305C17.0546 19.7728 17.0457 19.8148 17.0357 19.8563C17.0273 19.8914 17.0184 19.9261 17.0087 19.9606C17.0002 19.9909 16.9912 20.021 16.9817 20.0508C16.9731 20.0778 16.9641 20.1046 16.9547 20.1313C16.9461 20.156 16.9371 20.1805 16.9277 20.2049C16.919 20.2276 16.91 20.2502 16.9008 20.2727C16.892 20.2938 16.883 20.3148 16.8738 20.3357C16.865 20.3555 16.856 20.3752 16.8468 20.3948C16.838 20.4135 16.829 20.432 16.8198 20.4504C16.811 20.4681 16.802 20.4857 16.7928 20.5032C16.784 20.52 16.775 20.5368 16.7658 20.5534C16.7569 20.5695 16.748 20.5855 16.7388 20.6014C16.73 20.6167 16.721 20.632 16.7118 20.6471C16.703 20.6618 16.6939 20.6763 16.6848 20.6908C16.676 20.7049 16.667 20.7189 16.6578 20.7329C16.6489 20.7466 16.64 20.7602 16.6309 20.7736C16.622 20.7867 16.613 20.7997 16.6039 20.8126C16.595 20.8252 16.586 20.8377 16.5769 20.8502C16.568 20.8625 16.559 20.8747 16.5499 20.8868C16.541 20.8986 16.532 20.9103 16.5229 20.922C16.514 20.9334 16.505 20.9447 16.4959 20.956C16.487 20.9671 16.478 20.9783 16.4689 20.9892C16.46 21 16.451 21.0106 16.4419 21.0212C16.433 21.0316 16.424 21.042 16.4149 21.0523C16.406 21.0625 16.3971 21.0727 16.388 21.0827C16.3791 21.0925 16.37 21.1022 16.361 21.1119C16.352 21.1215 16.3431 21.1311 16.334 21.1406C16.3251 21.1499 16.316 21.1591 16.307 21.1683C16.298 21.1773 16.2891 21.1863 16.28 21.1953C16.271 21.2042 16.2621 21.2129 16.253 21.2217C16.2441 21.2303 16.235 21.2387 16.226 21.2472C16.217 21.2556 16.2081 21.264 16.199 21.2723C16.1901 21.2805 16.1811 21.2884 16.172 21.2965C16.163 21.3045 16.1541 21.3125 16.145 21.3204C16.1361 21.3281 16.127 21.3356 16.1181 21.3432C16.1091 21.3508 16.1001 21.3585 16.0911 21.366C16.0821 21.3733 16.0731 21.3805 16.0641 21.3877C16.0551 21.395 16.0461 21.4022 16.0371 21.4093C16.0281 21.4163 16.0191 21.4231 16.0101 21.43C16.0011 21.4369 15.9922 21.4438 15.9831 21.4505C15.9742 21.4572 15.9651 21.4637 15.9561 21.4702C15.9471 21.4767 15.9382 21.4833 15.9291 21.4898C15.9202 21.4961 15.9111 21.5023 15.9021 21.5085C15.8931 21.5147 15.8842 21.521 15.8751 21.5271C15.8662 21.5331 15.8572 21.539 15.8482 21.5449C15.8391 21.5508 15.8302 21.5568 15.8212 21.5627C15.8122 21.5684 15.8032 21.5739 15.7942 21.5795C15.7852 21.5851 15.7762 21.5908 15.7672 21.5963C15.7582 21.6018 15.7492 21.6071 15.7402 21.6124C15.7312 21.6178 15.7223 21.6231 15.7132 21.6284C15.7042 21.6335 15.6952 21.6386 15.6862 21.6437C15.6772 21.6488 15.6682 21.6538 15.6592 21.6588C15.6503 21.6637 15.6413 21.6686 15.6322 21.6734L15.6052 21.6877C15.5962 21.6924 15.5873 21.697 15.5783 21.7016C15.5693 21.7062 15.5603 21.7106 15.5512 21.7151C15.5423 21.7195 15.5333 21.7241 15.5243 21.7284C15.5153 21.7327 15.5063 21.7368 15.4973 21.741C15.4883 21.7452 15.4793 21.7495 15.4703 21.7536C15.4613 21.7577 15.4523 21.7616 15.4433 21.7656L15.4163 21.7774L15.3893 21.7889C15.3804 21.7926 15.3713 21.7962 15.3623 21.7999C15.3533 21.8035 15.3444 21.8073 15.3353 21.8108C15.3264 21.8144 15.3174 21.8176 15.3083 21.8211C15.2993 21.8245 15.2904 21.828 15.2813 21.8313C15.2724 21.8347 15.2634 21.8378 15.2544 21.841L15.2274 21.8505L15.2004 21.8598C15.1914 21.8628 15.1824 21.8657 15.1734 21.8686C15.1644 21.8715 15.1554 21.8745 15.1464 21.8773C15.1375 21.8801 15.1284 21.8827 15.1194 21.8854L15.0924 21.8934L15.0654 21.9011C15.0565 21.9036 15.0475 21.906 15.0384 21.9084C15.0294 21.9108 15.0205 21.9134 15.0114 21.9157C15.0025 21.918 14.9934 21.9201 14.9845 21.9223C14.9755 21.9245 14.9665 21.9268 14.9575 21.9289L14.9305 21.9351L14.9035 21.941C14.8945 21.9429 14.8855 21.945 14.8765 21.9469C14.8675 21.9487 14.8585 21.9503 14.8495 21.952C14.8405 21.9538 14.8315 21.9556 14.8225 21.9572L14.7955 21.9621C14.7866 21.9636 14.7776 21.9651 14.7685 21.9665C14.7595 21.968 14.7506 21.9696 14.7416 21.971C14.7326 21.9724 14.7236 21.9736 14.7146 21.9749L14.6876 21.9787C14.6786 21.9799 14.6696 21.9811 14.6606 21.9822C14.6516 21.9833 14.6426 21.9843 14.6336 21.9853C14.6246 21.9863 14.6156 21.9875 14.6066 21.9884C14.5976 21.9893 14.5886 21.9902 14.5796 21.991L14.5526 21.9934C14.5436 21.9942 14.5347 21.9951 14.5256 21.9958C14.5167 21.9965 14.5076 21.9969 14.4986 21.9975L14.4717 21.9992L14.4447 22.0006C14.4357 22.001 14.4267 22.0013 14.4177 22.0016C14.4087 22.002 14.3997 22.0024 14.3907 22.0027C14.3817 22.0029 14.3727 22.003 14.3637 22.0032L14.3367 22.0035C14.3284 22.0036 14.3201 22.0038 14.3117 22.0038H14.3097H14.2827H14.2557H14.2287H14.2018H14.1747H14.1478H14.1208H14.0938H14.0668H14.0398H14.0128H13.9858H13.9588H13.9319H13.9048H13.8779H13.8509H13.8239H13.7969H13.7699H13.7429H13.7159H13.6889H13.6619H13.6349H13.608H13.581H13.554H13.527H13.5H13.473H13.446H13.419H13.392H13.365H13.3381H13.3111H13.2841H13.2571H13.2301H13.2031H13.1761H13.1491H13.1221H13.0951H13.0682H13.0412H13.0142H12.9872H12.9602H12.9332H12.9062H12.8792H12.8522H12.8253H12.7983H12.7713H12.7443H12.7173H12.6903H12.6633H12.6363H12.6093H12.5823H12.5554H12.5283H12.5014H12.4744H12.4474H12.4204H12.3934H12.3664H12.3394H12.3124H12.2854H12.2584H12.2315H12.2045H12.1775H12.1505H12.1235H12.0965H12.0695H12.0425H12.0155H11.9885H11.9616H11.9346H11.9076H11.8806H11.8536H11.8266H11.7996H11.7726H11.7456H11.7186H11.6917H11.6647H11.6377H11.6107H11.5837H11.5567H11.5297H11.5027H11.4757H11.4487H11.4218H11.3948H11.3678H11.3408H11.3138H11.2868H11.2598H11.2328H11.2058H11.1789H11.1519H11.1249H11.0979H11.0709H11.0439H11.0169H10.9899H10.9629H10.9359H10.909H10.8819H10.855H10.828H10.801H10.774H10.747H10.72H10.693H10.666H10.639H10.612H10.5851H10.5581H10.5311H10.5041H10.4771H10.4501H10.4231H10.3961H10.3691H10.3421H10.3152H10.2882H10.2612H10.2032V16.1003C10.2032 16.1003 10.2231 16.1057 10.2612 16.1153L10.2882 16.1221L10.3152 16.1287L10.3421 16.1351L10.3691 16.1415L10.3961 16.1478L10.4231 16.154L10.4501 16.1601L10.4771 16.1661L10.5041 16.172L10.5311 16.1779L10.5581 16.1836L10.5851 16.1893L10.612 16.1949L10.639 16.2005L10.666 16.2059L10.693 16.2113L10.72 16.2167L10.747 16.2219L10.774 16.2271L10.801 16.2323L10.828 16.2373L10.855 16.2423L10.8819 16.2472L10.909 16.2521L10.9359 16.2569L10.9629 16.2616L10.9899 16.2663L11.0169 16.2709L11.0439 16.2755L11.0709 16.2799L11.0979 16.2844L11.1249 16.2887L11.1519 16.293L11.1789 16.2973L11.2058 16.3015L11.2328 16.3056L11.2598 16.3097L11.2868 16.3137L11.3138 16.3177L11.3408 16.3216L11.3678 16.3254L11.3948 16.3292L11.4218 16.3329L11.4487 16.3365L11.4757 16.3401L11.5027 16.3437L11.5297 16.3472L11.5567 16.3506L11.5837 16.354L11.6107 16.3573L11.6377 16.3605L11.6647 16.3637L11.6917 16.3668L11.7186 16.3699L11.7456 16.3729L11.7726 16.3759L11.7996 16.3788L11.8266 16.3817L11.8536 16.3844L11.8806 16.3872L11.9076 16.3898L11.9346 16.3924L11.9616 16.395L11.9885 16.3975L12.0155 16.4L12.0425 16.4023L12.0695 16.4046L12.0965 16.4069L12.1235 16.4091L12.1505 16.4113L12.1775 16.4133L12.2045 16.4154L12.2315 16.4173L12.2584 16.4192L12.2854 16.4211L12.3124 16.4228L12.3394 16.4246L12.3664 16.4263L12.3934 16.4279L12.4204 16.4295L12.4474 16.4309L12.4744 16.4323L12.5014 16.4337L12.5283 16.435L12.5554 16.4363L12.5823 16.4375L12.6093 16.4386L12.6363 16.4397L12.6633 16.4406L12.6903 16.4416L12.7173 16.4425L12.7443 16.4433L12.7713 16.4441L12.7983 16.4448L12.8253 16.4454L12.8522 16.446L12.8792 16.4464L12.9062 16.4469L12.9332 16.4473L12.9602 16.4476L12.9872 16.4479L13.0142 16.4481L13.0412 16.4481L13.0682 16.4482L13.0786 16.4483L13.0951 16.4482L13.1221 16.448L13.1491 16.4478L13.1761 16.4477L13.2031 16.4475L13.2301 16.447L13.2571 16.4465L13.2841 16.446L13.3111 16.4455L13.3381 16.4449L13.365 16.444L13.392 16.4432L13.419 16.4424L13.446 16.4415L13.473 16.4403L13.5 16.4391L13.527 16.4379L13.554 16.4367L13.581 16.4352L13.608 16.4336L13.6349 16.4321L13.6619 16.4305L13.6889 16.4287L13.7159 16.4268L13.7429 16.4248L13.7699 16.4229L13.7969 16.4207L13.8239 16.4184L13.8509 16.4161L13.8779 16.4137L13.9048 16.4112L13.9319 16.4084L13.9588 16.4057L13.9858 16.4029L14.0128 16.3999L14.0398 16.3968L14.0668 16.3936L14.0938 16.3904L14.1208 16.3869L14.1478 16.3833L14.1747 16.3797L14.2018 16.376C14.2109 16.3747 14.2197 16.3733 14.2287 16.372L14.2557 16.3679L14.2827 16.3638L14.3097 16.3596C14.3188 16.3581 14.3277 16.3565 14.3367 16.355L14.3637 16.3505C14.3726 16.349 14.3818 16.3475 14.3907 16.3459C14.3998 16.3443 14.4086 16.3426 14.4177 16.3409L14.4447 16.3359L14.4717 16.3309L14.4986 16.3256C14.5077 16.3238 14.5166 16.3218 14.5256 16.32L14.5526 16.3144L14.5796 16.3088C14.5887 16.3069 14.5976 16.3047 14.6066 16.3027L14.6336 16.2966C14.6425 16.2946 14.6517 16.2926 14.6606 16.2906C14.6697 16.2884 14.6785 16.2861 14.6876 16.284L14.7146 16.2773C14.7235 16.2751 14.7327 16.2729 14.7416 16.2707C14.7506 16.2684 14.7596 16.266 14.7685 16.2636L14.7955 16.2564C14.8045 16.254 14.8136 16.2516 14.8225 16.2491C14.8316 16.2467 14.8405 16.2441 14.8495 16.2415L14.8765 16.2337C14.8855 16.2311 14.8946 16.2285 14.9035 16.2258L14.9305 16.2176L14.9575 16.2091C14.9664 16.2063 14.9756 16.2035 14.9845 16.2006L15.0114 16.1916L15.0384 16.1825C15.0474 16.1794 15.0566 16.1765 15.0654 16.1734C15.0745 16.1702 15.0834 16.1668 15.0924 16.1636L15.1194 16.1537C15.1284 16.1504 15.1375 16.1471 15.1464 16.1437C15.1555 16.1403 15.1644 16.1367 15.1734 16.1332C15.1824 16.1297 15.1915 16.1262 15.2004 16.1226L15.2274 16.1116L15.2544 16.1003C15.2633 16.0965 15.2725 16.0928 15.2813 16.089C15.2905 16.085 15.2993 16.0808 15.3083 16.0768L15.3353 16.0647L15.3623 16.0521C15.3714 16.0479 15.3804 16.0435 15.3893 16.0391C15.3983 16.0348 15.4074 16.0305 15.4163 16.0261C15.4254 16.0215 15.4343 16.0168 15.4433 16.0122C15.4523 16.0076 15.4614 16.003 15.4703 15.9983C15.4794 15.9935 15.4883 15.9886 15.4973 15.9837C15.5063 15.9788 15.5153 15.9739 15.5243 15.9689C15.5333 15.9638 15.5423 15.9587 15.5512 15.9536C15.5603 15.9484 15.5693 15.9431 15.5783 15.9378C15.5873 15.9324 15.5963 15.9271 15.6052 15.9216C15.6144 15.916 15.6233 15.9104 15.6322 15.9048C15.6413 15.8991 15.6503 15.8934 15.6592 15.8877C15.6683 15.8817 15.6772 15.8757 15.6862 15.8697C15.6952 15.8636 15.7043 15.8576 15.7132 15.8514C15.7223 15.8451 15.7312 15.8387 15.7402 15.8323C15.7492 15.8258 15.7583 15.8194 15.7672 15.8128C15.7763 15.8061 15.7852 15.7992 15.7942 15.7924C15.8032 15.7855 15.8123 15.7785 15.8212 15.7715C15.8302 15.7643 15.8392 15.757 15.8482 15.7497C15.8573 15.7422 15.8662 15.7347 15.8751 15.7271C15.8842 15.7194 15.8933 15.7117 15.9021 15.7039C15.9113 15.6959 15.9202 15.6876 15.9291 15.6795C15.9382 15.6712 15.9473 15.6629 15.9561 15.6545C15.9653 15.6458 15.9742 15.637 15.9831 15.6282C15.9922 15.6191 16.0012 15.61 16.0101 15.6008C16.0192 15.5914 16.0283 15.5821 16.0371 15.5726C16.0463 15.5627 16.0552 15.5526 16.0641 15.5426C16.0732 15.5322 16.0822 15.5218 16.0911 15.5114C16.1002 15.5006 16.1093 15.4898 16.1181 15.4788C16.1272 15.4675 16.1362 15.4561 16.145 15.4446C16.1542 15.4326 16.1632 15.4204 16.172 15.4082C16.1812 15.3956 16.1902 15.3828 16.199 15.3699C16.2082 15.3565 16.2172 15.343 16.226 15.3294C16.2352 15.3152 16.2442 15.3008 16.253 15.2863C16.2622 15.271 16.2713 15.2557 16.28 15.2402C16.2893 15.2237 16.2983 15.2072 16.307 15.1905C16.3163 15.1727 16.3253 15.1547 16.334 15.1367C16.3433 15.1172 16.3523 15.0976 16.361 15.0778C16.3703 15.0564 16.3794 15.0348 16.388 15.013C16.3974 14.9889 16.4064 14.9647 16.4149 14.9402C16.4246 14.9125 16.4335 14.8844 16.4419 14.8562C16.4517 14.8232 16.4607 14.7898 16.4689 14.7561C16.4791 14.7143 16.4881 14.672 16.4959 14.6293C16.5075 14.5657 16.5164 14.5011 16.5229 14.4356C16.532 14.3443 16.5364 14.2513 16.5364 14.1569V10.9067H16.5229H16.4959H16.4689H16.4419H16.4149H16.388H16.361H16.334H16.307H16.28H16.253H16.226H16.199H16.172H16.145H16.1181H16.0911H16.0641H16.0371H16.0101H15.9831H15.9561H15.9291H15.9021H15.8751H15.8482H15.8212H15.7942H15.7672H15.7402H15.7132H15.6862H15.6592H15.6322H15.6052H15.5783H15.5512H15.5243H15.4973H15.4703H15.4433H15.4163H15.3893H15.3623H15.3353H15.3083H15.2813H15.2544H15.2274H15.2004H15.1734H15.1464H15.1194H15.0924H15.0654H15.0384H15.0114H14.9845H14.9575H14.9305H14.9035H14.8765H14.8495H14.8225H14.7955H14.7685H14.7416H14.7146H14.6876H14.6606H14.6336H14.6066H14.5796H14.5526H14.5256H14.4986H14.4717H14.4447H14.4177H14.3907H14.3637H14.3367H14.3097H14.2827H14.2557H14.2287H14.2018H14.1747H14.1478H14.1273V14.1569C14.1273 14.2078 14.1251 14.2578 14.1208 14.3069C14.1153 14.3695 14.1062 14.4304 14.0938 14.4897C14.0861 14.5264 14.0771 14.5623 14.0668 14.5976C14.0586 14.6257 14.0496 14.6533 14.0398 14.6805C14.0314 14.7037 14.0224 14.7264 14.0128 14.7489C14.0043 14.7689 13.9953 14.7886 13.9858 14.8081C13.9772 14.8258 13.9682 14.8433 13.9588 14.8605C13.9502 14.8763 13.9411 14.8918 13.9319 14.9072C13.9231 14.9216 13.9141 14.9359 13.9048 14.95C13.8961 14.9631 13.8871 14.9761 13.8779 14.989C13.8691 15.0012 13.8601 15.0133 13.8509 15.0252C13.8421 15.0365 13.8331 15.0476 13.8239 15.0585C13.8151 15.0691 13.8061 15.0794 13.7969 15.0896C13.7881 15.0995 13.7791 15.1093 13.7699 15.1188C13.761 15.1281 13.7521 15.1372 13.7429 15.1462C13.7341 15.1549 13.7251 15.1635 13.7159 15.1719C13.7071 15.18 13.698 15.188 13.6889 15.196C13.6801 15.2037 13.6711 15.2113 13.6619 15.2187C13.6531 15.226 13.644 15.2331 13.6349 15.2402C13.6261 15.2471 13.6171 15.2538 13.608 15.2605C13.5991 15.267 13.5901 15.2734 13.581 15.2797C13.5721 15.2859 13.5631 15.2919 13.554 15.2979C13.5451 15.3037 13.5361 15.3095 13.527 15.3151C13.5181 15.3206 13.5091 15.326 13.5 15.3314C13.4911 15.3366 13.4821 15.3417 13.473 15.3468C13.4641 15.3517 13.4551 15.3565 13.446 15.3613C13.4371 15.366 13.4281 15.3706 13.419 15.3752C13.4101 15.3796 13.4011 15.384 13.392 15.3883C13.3831 15.3925 13.3741 15.3967 13.365 15.4007C13.3561 15.4047 13.3471 15.4087 13.3381 15.4125C13.3292 15.4163 13.3201 15.4199 13.3111 15.4235C13.3022 15.4271 13.2931 15.4305 13.2841 15.4339C13.2751 15.4373 13.2662 15.4406 13.2571 15.4438C13.2482 15.447 13.2392 15.4502 13.2301 15.4532C13.2212 15.4562 13.2122 15.4591 13.2031 15.4619C13.1942 15.4647 13.1852 15.4674 13.1761 15.4701C13.1672 15.4727 13.1582 15.4753 13.1491 15.4778C13.1402 15.4803 13.1312 15.4828 13.1221 15.4851C13.1132 15.4874 13.1042 15.4896 13.0951 15.4918C13.0862 15.494 13.0772 15.496 13.0682 15.498C13.0592 15.5 13.0502 15.502 13.0412 15.5039C13.0322 15.5057 13.0232 15.5076 13.0142 15.5093C13.0052 15.511 12.9962 15.5126 12.9872 15.5142C12.9782 15.5157 12.9692 15.5173 12.9602 15.5188L12.9332 15.5229C12.9243 15.5242 12.9153 15.5254 12.9062 15.5266C12.8973 15.5278 12.8883 15.5289 12.8792 15.53L12.8522 15.533C12.8433 15.5339 12.8343 15.5347 12.8253 15.5355C12.8163 15.5363 12.8073 15.5372 12.7983 15.5379C12.7893 15.5386 12.7803 15.5392 12.7713 15.5397C12.7623 15.5403 12.7533 15.5408 12.7443 15.5413C12.7353 15.5418 12.7263 15.5422 12.7173 15.5426C12.7083 15.5429 12.6993 15.5432 12.6903 15.5434L12.6633 15.544C12.6544 15.5442 12.6454 15.5442 12.6363 15.5443L12.6262 15.5444L12.6093 15.5443L12.5823 15.5442L12.5554 15.5438L12.5283 15.5432L12.5014 15.5425L12.4744 15.5416L12.4474 15.5405L12.4204 15.5393L12.3934 15.5379L12.3664 15.5363L12.3394 15.5345L12.3124 15.5326L12.2854 15.5305L12.2584 15.5283L12.2315 15.5259L12.2045 15.5233L12.1775 15.5205L12.1505 15.5176L12.1235 15.5145L12.0965 15.5112L12.0695 15.5078L12.0425 15.5043L12.0155 15.5005L11.9885 15.4966L11.9616 15.4926L11.9346 15.4883L11.9076 15.4839L11.8806 15.4794L11.8536 15.4747L11.8266 15.4698L11.7996 15.4649L11.7726 15.4597L11.7456 15.4544L11.7186 15.4489L11.6917 15.4433L11.6647 15.4375L11.6377 15.4316L11.6107 15.4255L11.5837 15.4193L11.5567 15.4129L11.5297 15.4063L11.5027 15.3997L11.4757 15.3929L11.4487 15.3858L11.4218 15.3787L11.3948 15.3715L11.3678 15.3641L11.3408 15.3565L11.3138 15.3488L11.2868 15.341L11.2598 15.3329L11.2328 15.3248L11.2058 15.3166L11.1789 15.3081L11.1519 15.2996L11.1249 15.2909L11.0979 15.2821L11.0709 15.2731L11.0439 15.264L11.0169 15.2548L10.9899 15.2454L10.9629 15.2359L10.9359 15.2262L10.909 15.2165L10.8819 15.2066L10.855 15.1965L10.828 15.1863L10.801 15.1761L10.774 15.1656L10.747 15.1551L10.72 15.1444L10.693 15.1335L10.666 15.1226L10.639 15.1115L10.612 15.1004L10.5851 15.089L10.5581 15.0776L10.5311 15.066L10.5041 15.0543L10.4771 15.0425L10.4501 15.0306L10.4231 15.0185L10.3961 15.0063L10.3691 14.994L10.3421 14.9816L10.3152 14.9691L10.2882 14.9564L10.2612 14.9437V14.9437Z" fill="white"/>
<path fill-rule="evenodd" clip-rule="evenodd" d="M18.0111 11.6168C17.9914 11.6327 17.9721 11.6488 17.9532 11.665V7.99758C17.9532 7.80255 17.9732 7.61218 18.0111 7.42835C18.0193 7.38889 18.0283 7.34978 18.0381 7.31095C18.0465 7.27762 18.0555 7.24457 18.0651 7.21174C18.0736 7.18249 18.0826 7.15345 18.0921 7.12461C18.1007 7.09826 18.1097 7.07204 18.1191 7.04604C18.1278 7.02195 18.1367 6.99797 18.1461 6.9742C18.1548 6.95197 18.1638 6.92985 18.1731 6.90789C18.1818 6.88718 18.1908 6.86661 18.2 6.84615C18.2088 6.82672 18.2179 6.80742 18.227 6.78824C18.2358 6.76991 18.2449 6.75176 18.254 6.73365C18.2628 6.71626 18.2719 6.699 18.281 6.68182C18.2899 6.66526 18.2989 6.64881 18.308 6.63245C18.3169 6.6166 18.3258 6.60083 18.335 6.58519C18.3439 6.56999 18.3528 6.55487 18.362 6.53985C18.3708 6.52535 18.3799 6.51094 18.389 6.49662C18.3979 6.48268 18.4069 6.4689 18.416 6.45514C18.4249 6.44167 18.4338 6.4283 18.443 6.41501C18.4519 6.40196 18.4608 6.38892 18.47 6.37606C18.4788 6.3636 18.4879 6.35134 18.4969 6.33906C18.5059 6.32696 18.5149 6.31492 18.524 6.30298C18.5329 6.29122 18.5418 6.27943 18.5509 6.26782C18.5598 6.25655 18.5689 6.24543 18.5779 6.23429C18.5869 6.22329 18.5958 6.21233 18.6049 6.20149C18.6139 6.19077 18.6228 6.18011 18.6319 6.16955C18.6408 6.15924 18.6499 6.14907 18.6589 6.1389C18.6678 6.12881 18.6768 6.11868 18.6859 6.10871C18.6948 6.09896 18.7038 6.08933 18.7129 6.07971C18.7218 6.07021 18.7308 6.06078 18.7398 6.05139C18.7488 6.04213 18.7578 6.03288 18.7669 6.02373C18.7758 6.01477 18.7848 6.00592 18.7938 5.99707C18.8028 5.98826 18.8117 5.97938 18.8208 5.97069C18.8297 5.9622 18.8388 5.9539 18.8478 5.94552C18.8568 5.93716 18.8657 5.92878 18.8748 5.92056C18.8837 5.91249 18.8928 5.90456 18.9018 5.8966C18.9108 5.88867 18.9197 5.88076 18.9288 5.87296C18.9377 5.86527 18.9468 5.85772 18.9558 5.85015C18.9648 5.84264 18.9737 5.83513 18.9828 5.82772C18.9917 5.82041 19.0007 5.81317 19.0098 5.80598C19.0187 5.79883 19.0277 5.79173 19.0368 5.78469C19.0457 5.77774 19.0547 5.77086 19.0638 5.764C19.0727 5.75721 19.0817 5.75045 19.0907 5.74377C19.0997 5.73714 19.1087 5.73059 19.1177 5.72407C19.1267 5.71762 19.1357 5.71116 19.1447 5.7048C19.1537 5.6985 19.1627 5.69229 19.1717 5.68609C19.1807 5.67992 19.1897 5.67378 19.1987 5.66773C19.2077 5.66175 19.2167 5.65586 19.2257 5.64996C19.2347 5.64409 19.2436 5.63822 19.2527 5.63246C19.2617 5.62677 19.2707 5.62121 19.2797 5.61561C19.2887 5.61003 19.2976 5.60438 19.3067 5.59891C19.3156 5.59349 19.3247 5.58825 19.3337 5.58293C19.3427 5.57762 19.3516 5.5722 19.3607 5.567C19.3696 5.56187 19.3787 5.55694 19.3877 5.5519C19.3967 5.54685 19.4056 5.54177 19.4146 5.53684C19.4236 5.53195 19.4326 5.52725 19.4416 5.52245C19.4506 5.51768 19.4596 5.51288 19.4686 5.5082L19.4956 5.49446L19.5226 5.48104C19.5316 5.47664 19.5406 5.47221 19.5496 5.46791C19.5586 5.46362 19.5676 5.45948 19.5766 5.45529C19.5856 5.45112 19.5945 5.44682 19.6036 5.44274C19.6125 5.43868 19.6216 5.43487 19.6306 5.43093C19.6396 5.42699 19.6485 5.42297 19.6576 5.41912C19.6665 5.41531 19.6755 5.41161 19.6846 5.40789L19.7116 5.39687C19.7205 5.39326 19.7295 5.38965 19.7385 5.38613C19.7475 5.38264 19.7565 5.37927 19.7655 5.37587C19.7746 5.37246 19.7835 5.36894 19.7925 5.36563C19.8015 5.36236 19.8105 5.35931 19.8195 5.35613C19.8285 5.35294 19.8375 5.34972 19.8465 5.34662C19.8555 5.34353 19.8645 5.34057 19.8735 5.33759L19.9005 5.32883C19.9095 5.32596 19.9185 5.32303 19.9275 5.32023C19.9364 5.31747 19.9455 5.31487 19.9545 5.3122C19.9635 5.30951 19.9725 5.30676 19.9815 5.30416C19.9904 5.30158 19.9995 5.29918 20.0085 5.2967L20.0354 5.28937C20.0445 5.28699 20.0534 5.28457 20.0624 5.28229C20.0714 5.28002 20.0804 5.27789 20.0894 5.2757C20.0984 5.2735 20.1074 5.27122 20.1164 5.26911C20.1254 5.26702 20.1344 5.26507 20.1434 5.26308L20.1704 5.25721C20.1794 5.2553 20.1884 5.25333 20.1974 5.25152C20.2064 5.2497 20.2154 5.24807 20.2244 5.24634C20.2334 5.24461 20.2424 5.2428 20.2514 5.24116L20.2784 5.2365L20.3054 5.23204C20.3144 5.23059 20.3233 5.22904 20.3324 5.22767C20.3413 5.22631 20.3504 5.22516 20.3594 5.22389C20.3683 5.22263 20.3773 5.22131 20.3863 5.22012L20.4133 5.21674L20.4403 5.21364C20.4493 5.21264 20.4583 5.21147 20.4673 5.21055C20.4763 5.20963 20.4853 5.20896 20.4943 5.20813L20.5213 5.20576C20.5303 5.20499 20.5393 5.20425 20.5483 5.20361C20.5573 5.20296 20.5663 5.20244 20.5753 5.20188C20.5843 5.20132 20.5932 5.20067 20.6023 5.20018C20.6113 5.19968 20.6203 5.19935 20.6293 5.19894L20.6563 5.19791C20.6653 5.1976 20.6742 5.19713 20.6833 5.1969C20.6922 5.19668 20.7013 5.1967 20.7102 5.19657C20.7193 5.19643 20.7282 5.19628 20.7373 5.19623L20.7492 5.19608H20.7642H20.7912H20.8182H20.8452H20.8722H20.8992H20.9262H20.9532H20.9802H21.0072H21.0342H21.0611H21.0881H21.1151H21.1421H21.1691H21.1961H21.2231H21.2501H21.2771H21.3041H21.331H21.358H21.385H21.412H21.439H21.466H21.493H21.52H21.547H21.574H21.601H21.628H21.655H21.682H21.7089H21.7359H21.7629H21.7899H21.8169H21.8439H21.8709H21.8979H21.9249H21.9519H21.9788H22.0058H22.0328H22.0598H22.0868H22.1138H22.1408H22.1678H22.1948H22.2218H22.2488H22.2758H22.3028H22.3298H22.3567H22.3837H22.4107H22.4377H22.4647H22.4917H22.5187H22.5457H22.5727H22.5997H22.6267H22.6536H22.6806H22.7076H22.7346H22.7616H22.7886H22.8156H22.8426H22.8696H22.8966H22.9235H22.9506H22.9775H23.0045H23.0315H23.0585H23.0855H23.1125H23.1395H23.1665H23.1935H23.2205H23.2475H23.2745H23.3014H23.3284H23.3554H23.3824H23.4094H23.4364H23.4634H23.4904H23.5174H23.5444H23.5714H23.5984H23.6253H23.6523H23.6793H23.7063H23.7333H23.7603H23.7873H23.8143H23.8413H23.8683H23.8953H23.9222H23.9492H23.9762H24.0032H24.0302H24.0572H24.0842H24.1112H24.1382H24.1652H24.1922H24.2192H24.2462H24.2732H24.3001H24.3271H24.3541H24.3811H24.4081H24.4351H24.4621H24.4891H24.5161H24.5431H24.57H24.597H24.624H24.651H24.678H24.705H24.732H24.759H24.786H24.813H24.84H24.8628V19.2026C24.8628 19.3244 24.855 19.4443 24.84 19.562C24.8327 19.6187 24.8236 19.6747 24.813 19.7303C24.8049 19.7726 24.7959 19.8146 24.786 19.8561C24.7776 19.8912 24.7687 19.926 24.759 19.9605C24.7505 19.9908 24.7415 20.0208 24.732 20.0507C24.7234 20.0777 24.7144 20.1045 24.705 20.1312C24.6963 20.1558 24.6873 20.1804 24.678 20.2047C24.6693 20.2275 24.6603 20.25 24.651 20.2725C24.6423 20.2936 24.6333 20.3147 24.624 20.3356C24.6153 20.3554 24.6063 20.375 24.597 20.3946C24.5882 20.4133 24.5792 20.4319 24.57 20.4503C24.5612 20.468 24.5522 20.4856 24.5431 20.503C24.5342 20.5199 24.5252 20.5366 24.5161 20.5533C24.5072 20.5694 24.4983 20.5854 24.4891 20.6013C24.4802 20.6166 24.4712 20.6318 24.4621 20.6469C24.4532 20.6616 24.4442 20.6761 24.4351 20.6906C24.4262 20.7047 24.4172 20.7188 24.4081 20.7327C24.3992 20.7464 24.3903 20.76 24.3811 20.7735C24.3722 20.7866 24.3632 20.7995 24.3541 20.8124C24.3452 20.8251 24.3362 20.8376 24.3271 20.85C24.3182 20.8623 24.3092 20.8745 24.3001 20.8866C24.2912 20.8984 24.2822 20.9101 24.2732 20.9218C24.2643 20.9332 24.2552 20.9446 24.2462 20.9558C24.2372 20.967 24.2283 20.9781 24.2192 20.9891C24.2103 20.9998 24.2012 21.0104 24.1922 21.021C24.1832 21.0315 24.1743 21.0418 24.1652 21.0521C24.1562 21.0623 24.1473 21.0725 24.1382 21.0826C24.1293 21.0924 24.1202 21.102 24.1112 21.1117C24.1022 21.1213 24.0933 21.131 24.0842 21.1405C24.0753 21.1498 24.0662 21.1589 24.0572 21.1681C24.0483 21.1772 24.0393 21.1862 24.0302 21.1951C24.0213 21.204 24.0123 21.2128 24.0032 21.2215C23.9943 21.2301 23.9853 21.2386 23.9762 21.247C23.9673 21.2555 23.9583 21.2639 23.9492 21.2722C23.9403 21.2803 23.9313 21.2883 23.9222 21.2964C23.9133 21.3044 23.9044 21.3124 23.8953 21.3203C23.8863 21.328 23.8773 21.3355 23.8683 21.3431C23.8593 21.3507 23.8503 21.3584 23.8413 21.3659C23.8324 21.3732 23.8233 21.3804 23.8143 21.3876C23.8053 21.3948 23.7964 21.4021 23.7873 21.4092C23.7784 21.4162 23.7693 21.423 23.7603 21.4299C23.7513 21.4367 23.7424 21.4436 23.7333 21.4504C23.7244 21.4571 23.7153 21.4636 23.7063 21.4701C23.6973 21.4766 23.6884 21.4832 23.6793 21.4897C23.6704 21.496 23.6613 21.5021 23.6523 21.5084C23.6433 21.5146 23.6344 21.5209 23.6253 21.527C23.6164 21.533 23.6074 21.5389 23.5984 21.5448C23.5894 21.5507 23.5804 21.5567 23.5714 21.5625C23.5624 21.5683 23.5534 21.5738 23.5444 21.5794C23.5354 21.585 23.5264 21.5907 23.5174 21.5962C23.5084 21.6017 23.4994 21.6069 23.4904 21.6123C23.4814 21.6176 23.4724 21.623 23.4634 21.6283C23.4544 21.6334 23.4454 21.6385 23.4364 21.6436L23.4094 21.6587L23.3824 21.6733L23.3554 21.6876C23.3464 21.6922 23.3375 21.6969 23.3284 21.7015C23.3195 21.7061 23.3105 21.7105 23.3014 21.715C23.2925 21.7194 23.2835 21.724 23.2745 21.7283C23.2655 21.7326 23.2564 21.7367 23.2475 21.7409C23.2385 21.7451 23.2295 21.7495 23.2205 21.7536C23.2115 21.7576 23.2025 21.7616 23.1935 21.7655L23.1665 21.7773L23.1395 21.7888L23.1125 21.7998C23.1035 21.8035 23.0945 21.8072 23.0855 21.8108C23.0766 21.8143 23.0675 21.8176 23.0585 21.821C23.0495 21.8244 23.0406 21.8279 23.0315 21.8313C23.0226 21.8346 23.0135 21.8377 23.0045 21.841L22.9775 21.8505L22.9506 21.8597C22.9416 21.8627 22.9326 21.8656 22.9235 21.8685C22.9145 21.8714 22.9056 21.8745 22.8966 21.8773C22.8876 21.8801 22.8786 21.8826 22.8696 21.8853L22.8426 21.8934L22.8156 21.9011C22.8066 21.9036 22.7976 21.906 22.7886 21.9084C22.7796 21.9108 22.7707 21.9133 22.7616 21.9157C22.7527 21.918 22.7436 21.92 22.7346 21.9223C22.7256 21.9245 22.7166 21.9267 22.7076 21.9288L22.6806 21.9351L22.6536 21.9409C22.6446 21.9429 22.6357 21.945 22.6267 21.9468C22.6177 21.9487 22.6086 21.9503 22.5997 21.952L22.5727 21.9572L22.5457 21.962C22.5367 21.9636 22.5277 21.965 22.5187 21.9665C22.5097 21.968 22.5007 21.9696 22.4917 21.971C22.4827 21.9724 22.4737 21.9735 22.4647 21.9748L22.4377 21.9786C22.4287 21.9798 22.4197 21.9811 22.4107 21.9822C22.4018 21.9833 22.3927 21.9843 22.3837 21.9853C22.3747 21.9863 22.3658 21.9874 22.3567 21.9884C22.3478 21.9893 22.3388 21.9901 22.3298 21.991L22.3028 21.9934C22.2937 21.9942 22.2848 21.9951 22.2758 21.9958C22.2668 21.9964 22.2578 21.9969 22.2488 21.9975L22.2218 21.9992L22.1948 22.0006C22.1858 22.001 22.1768 22.0013 22.1678 22.0016C22.1588 22.002 22.1498 22.0024 22.1408 22.0027C22.1318 22.0029 22.1228 22.003 22.1138 22.0032L22.0868 22.0035C22.0784 22.0036 22.07 22.0038 22.0616 22.0038H22.0598H22.0328H22.0058H21.9788H21.9519H21.9249H21.8979H21.8709H21.8439H21.8169H21.7899H21.7629H21.7359H21.7089H21.682H21.655H21.628H21.601H21.574H21.547H21.52H21.493H21.466H21.439H21.412H21.385H21.358H21.331H21.3041H21.2771H21.2501H21.2231H21.1961H21.1691H21.1421H21.1151H21.0881H21.0611H21.0342H21.0072H20.9802H20.9532H20.9262H20.8992H20.8722H20.8452H20.8182H20.7912H20.7642H20.7373H20.7102H20.6833H20.6563H20.6293H20.6023H20.5753H20.5483H20.5213H20.4943H20.4673H20.4403H20.4133H20.3863H20.3594H20.3324H20.3054H20.2784H20.2514H20.2244H20.1974H20.1704H20.1434H20.1164H20.0894H20.0624H20.0354H20.0085H19.9815H19.9545H19.9275H19.9005H19.8735H19.8465H19.8195H19.7925H19.7655H19.7385H19.7116H19.6846H19.6576H19.6306H19.6036H19.5766H19.5496H19.5226H19.4956H19.4686H19.4416H19.4146H19.3877H19.3607H19.3337H19.3067H19.2797H19.2527H19.2257H19.1987H19.1717H19.1447H19.1177H19.0907H19.0638H19.0368H19.0098H18.9828H18.9558H18.9288H18.9018H18.8748H18.8478H18.8208H18.7938H18.7669H18.7398H18.7129H18.6859H18.6589H18.6319H18.6049H18.5779H18.5509H18.524H18.4969H18.47H18.443H18.416H18.389H18.362H18.335H18.308H18.281H18.254H18.227H18.2H18.1731H18.1461H18.1191H18.0921H18.0651H18.0381H18.0111H17.9532V15.536C17.9721 15.5522 17.9914 15.5683 18.0111 15.5842C18.02 15.5914 18.029 15.5985 18.0381 15.6057C18.047 15.6127 18.056 15.6197 18.0651 15.6267C18.0741 15.6336 18.083 15.6404 18.0921 15.6472C18.101 15.6539 18.11 15.6604 18.1191 15.667C18.128 15.6735 18.137 15.68 18.1461 15.6864C18.155 15.6928 18.164 15.6991 18.1731 15.7054L18.2 15.7239C18.209 15.7299 18.218 15.7359 18.227 15.7419L18.254 15.7595C18.263 15.7653 18.272 15.771 18.281 15.7768C18.2899 15.7824 18.299 15.7879 18.308 15.7935L18.335 15.8099C18.344 15.8153 18.3529 15.8207 18.362 15.826C18.3709 15.8312 18.3799 15.8364 18.389 15.8415L18.416 15.8569L18.443 15.8718L18.47 15.8864C18.4789 15.8912 18.4879 15.8961 18.4969 15.9008C18.5059 15.9055 18.5149 15.9101 18.524 15.9147L18.5509 15.9284L18.5779 15.9419L18.6049 15.9549C18.6139 15.9592 18.6228 15.9636 18.6319 15.9678L18.6589 15.9803L18.6859 15.9926L18.7129 16.0046L18.7398 16.0164L18.7669 16.0279L18.7938 16.0391L18.8208 16.0502L18.8478 16.061L18.8748 16.0716L18.9018 16.0819C18.9108 16.0853 18.9197 16.0887 18.9288 16.0921L18.9558 16.1019C18.9648 16.1052 18.9737 16.1085 18.9828 16.1118C18.9917 16.115 19.0008 16.118 19.0098 16.1212L19.0368 16.1306L19.0638 16.1396C19.0727 16.1426 19.0817 16.1457 19.0907 16.1486C19.0997 16.1516 19.1087 16.1544 19.1177 16.1573L19.1447 16.1659L19.1717 16.1742L19.1987 16.1825L19.2257 16.1905L19.2527 16.1983L19.2797 16.206L19.3067 16.2136L19.3337 16.2209L19.3607 16.2281L19.3877 16.2352L19.4146 16.242L19.4416 16.2488L19.4686 16.2554L19.4956 16.2619L19.5226 16.2682L19.5496 16.2743L19.5766 16.2803L19.6036 16.2862L19.6306 16.292L19.6576 16.2976L19.6846 16.3032L19.7116 16.3085L19.7385 16.3137L19.7655 16.3188L19.7925 16.3238L19.8195 16.3287L19.8465 16.3334L19.8735 16.3381L19.9005 16.3426L19.9275 16.347L19.9545 16.3513L19.9815 16.3554L20.0085 16.3596L20.0354 16.3635L20.0624 16.3673L20.0894 16.3711L20.1164 16.3747L20.1434 16.3783L20.1704 16.3817L20.1974 16.385L20.2244 16.3883L20.2514 16.3914L20.2784 16.3945L20.3054 16.3975L20.3324 16.4003L20.3594 16.403L20.3863 16.4057L20.4133 16.4083L20.4403 16.4108L20.4673 16.4132L20.4943 16.4154L20.5213 16.4177L20.5483 16.4198L20.5753 16.4219L20.6023 16.4239L20.6293 16.4257L20.6563 16.4276L20.6833 16.4293L20.7102 16.4309L20.7373 16.4325L20.7642 16.434L20.7912 16.4353L20.8182 16.4367L20.8452 16.438L20.8722 16.4391L20.8992 16.4402L20.9262 16.4413L20.9532 16.4422L20.9802 16.4431L21.0072 16.444L21.0342 16.4446L21.0611 16.4453L21.0881 16.446L21.1151 16.4465L21.1421 16.4469L21.1691 16.4474L21.1961 16.4477L21.2231 16.4479L21.2501 16.4481L21.2771 16.4483L21.3041 16.4483L21.331 16.4483L21.358 16.4483L21.385 16.4481L21.412 16.448L21.439 16.4477L21.466 16.4474L21.493 16.447L21.52 16.4467L21.547 16.4461L21.574 16.4456L21.601 16.445L21.628 16.4443L21.655 16.4436L21.682 16.4428L21.7089 16.442L21.7359 16.4411L21.7629 16.4401L21.7899 16.4392L21.8169 16.4381L21.8439 16.437L21.8709 16.4358L21.8841 16.4353L21.8979 16.4346L21.9249 16.4333L21.9519 16.4319L21.9788 16.4304L22.0058 16.4288L22.0328 16.4271L22.0598 16.4253L22.0868 16.4234L22.1138 16.4215L22.1408 16.4194L22.1678 16.4173L22.1948 16.4151L22.2218 16.4128L22.2488 16.4104L22.2758 16.408L22.3028 16.4054L22.3298 16.4028L22.3567 16.4001L22.3837 16.3974L22.4107 16.3945L22.4377 16.3917L22.4647 16.3887L22.4917 16.3856L22.5187 16.3825L22.5457 16.3793L22.5727 16.3761L22.5997 16.3728L22.6267 16.3694L22.6536 16.3659L22.6806 16.3625L22.7076 16.3588L22.7346 16.3552L22.7616 16.3515L22.7886 16.3477L22.8156 16.3439L22.8426 16.34L22.8696 16.3361L22.8966 16.3321L22.9235 16.328L22.9506 16.3239L22.9775 16.3197L23.0045 16.3155L23.0315 16.3112L23.0585 16.3069L23.0855 16.3025L23.1125 16.298L23.1395 16.2935L23.1665 16.2889L23.1935 16.2843L23.2205 16.2796L23.2475 16.2749L23.2745 16.2701L23.3014 16.2653L23.3284 16.2604L23.3554 16.2554L23.3824 16.2504L23.4094 16.2454L23.4364 16.2403L23.4634 16.2351L23.4904 16.2299L23.5174 16.2247L23.5444 16.2193L23.5714 16.214L23.5984 16.2086L23.6253 16.2031L23.6523 16.1976L23.6793 16.192L23.7063 16.1863L23.7333 16.1807L23.7603 16.1749L23.7873 16.1691L23.8143 16.1632L23.8413 16.1573L23.8683 16.1513L23.8953 16.1453L23.9222 16.1392L23.9492 16.133L23.9762 16.1267L24.0032 16.1204L24.0302 16.114L24.0572 16.1075L24.0841 16.1009V14.9159L24.0572 14.9292L24.0302 14.9426L24.0032 14.9558L23.9762 14.9689L23.9492 14.9819L23.9222 14.9947L23.8953 15.0074L23.8683 15.02L23.8413 15.0324L23.8143 15.0447L23.7873 15.0569L23.7603 15.069L23.7333 15.0808L23.7063 15.0926L23.6793 15.1042L23.6523 15.1157L23.6253 15.127L23.5984 15.1382L23.5714 15.1493L23.5444 15.1601L23.5174 15.1709L23.4904 15.1815L23.4634 15.1919L23.4364 15.2023L23.4094 15.2124L23.3824 15.2224L23.3554 15.2322L23.3284 15.2419L23.3014 15.2515L23.2745 15.2609L23.2475 15.2701L23.2205 15.2791L23.1935 15.2881L23.1665 15.2968L23.1395 15.3055L23.1125 15.3139L23.0855 15.3222L23.0585 15.3304L23.0315 15.3384L23.0045 15.3463L22.9775 15.354L22.9506 15.3615L22.9235 15.3689L22.8966 15.3761L22.8696 15.3832L22.8426 15.3901L22.8156 15.3969L22.7886 15.4035L22.7616 15.41L22.7346 15.4163L22.7076 15.4225L22.6806 15.4285L22.6536 15.4344L22.6267 15.4401L22.5997 15.4456L22.5727 15.451L22.5457 15.4563L22.5187 15.4614L22.4917 15.4664L22.4647 15.4712L22.4377 15.4759L22.4107 15.4803L22.3837 15.4847L22.3567 15.489L22.3298 15.493L22.3028 15.4969L22.2758 15.5008L22.2488 15.5044L22.2218 15.5079L22.1948 15.5112L22.1678 15.5144L22.1408 15.5175L22.1138 15.5204L22.0868 15.5232L22.0598 15.5258L22.0328 15.5283L22.0058 15.5307L21.9788 15.5329L21.9625 15.5342L21.9519 15.5349L21.9249 15.5367L21.8979 15.5385L21.8709 15.54L21.8439 15.5413L21.8169 15.5426L21.7899 15.5435L21.7629 15.5443L21.7359 15.5449L21.7089 15.5453L21.682 15.5457C21.6729 15.5457 21.664 15.5456 21.655 15.5456L21.628 15.5455L21.601 15.5451L21.574 15.5445L21.547 15.5438C21.5379 15.5435 21.529 15.5431 21.52 15.5427C21.511 15.5423 21.502 15.5421 21.493 15.5416L21.466 15.5401L21.439 15.5385L21.412 15.5366L21.385 15.5345C21.376 15.5337 21.367 15.5331 21.358 15.5323C21.349 15.5315 21.3401 15.5305 21.331 15.5296L21.3041 15.5269L21.2771 15.5237L21.2501 15.5205L21.2231 15.5169L21.1961 15.5131C21.1871 15.5117 21.1781 15.5105 21.1691 15.509C21.1601 15.5076 21.1511 15.5061 21.1421 15.5046C21.1331 15.5031 21.124 15.5017 21.1151 15.5001C21.106 15.4985 21.0971 15.4967 21.0881 15.495C21.0791 15.4934 21.0701 15.4918 21.0611 15.49C21.0521 15.4882 21.0432 15.4862 21.0342 15.4843C21.0251 15.4825 21.0161 15.4807 21.0072 15.4787C20.9981 15.4767 20.9891 15.4746 20.9802 15.4725L20.9532 15.4661C20.9441 15.4639 20.9352 15.4616 20.9262 15.4593C20.9172 15.457 20.9081 15.4547 20.8992 15.4523C20.8901 15.4499 20.8812 15.4474 20.8722 15.4449C20.8632 15.4423 20.8541 15.4398 20.8452 15.4372C20.8361 15.4345 20.8272 15.4317 20.8182 15.429C20.8092 15.4262 20.8002 15.4234 20.7912 15.4205C20.7822 15.4176 20.7732 15.4146 20.7642 15.4116C20.7552 15.4086 20.7462 15.4056 20.7373 15.4025C20.7282 15.3993 20.7192 15.396 20.7102 15.3927C20.7012 15.3894 20.6922 15.3862 20.6833 15.3828C20.6742 15.3794 20.6652 15.3758 20.6563 15.3722C20.6473 15.3686 20.6382 15.3651 20.6293 15.3615C20.6202 15.3577 20.6113 15.3538 20.6023 15.35C20.5932 15.3461 20.5842 15.3422 20.5753 15.3383C20.5662 15.3342 20.5573 15.33 20.5483 15.3258C20.5393 15.3216 20.5302 15.3174 20.5213 15.3131C20.5123 15.3087 20.5032 15.3042 20.4943 15.2997C20.4853 15.2952 20.4763 15.2905 20.4673 15.2858C20.4583 15.2811 20.4492 15.2764 20.4403 15.2716C20.4312 15.2666 20.4223 15.2615 20.4133 15.2564C20.4043 15.2513 20.3953 15.2462 20.3863 15.2409C20.3773 15.2356 20.3683 15.2301 20.3594 15.2246C20.3503 15.2191 20.3413 15.2134 20.3324 15.2077C20.3233 15.2019 20.3142 15.1962 20.3054 15.1903C20.2962 15.1842 20.2874 15.178 20.2784 15.1718C20.2693 15.1655 20.2603 15.1591 20.2514 15.1527C20.2423 15.1462 20.2333 15.1397 20.2244 15.133C20.2153 15.1261 20.2063 15.1191 20.1974 15.1121C20.1883 15.105 20.1793 15.0978 20.1704 15.0905C20.1614 15.0831 20.1523 15.0757 20.1434 15.0681C20.1343 15.0603 20.1254 15.0524 20.1164 15.0444C20.1073 15.0363 20.0983 15.028 20.0894 15.0197C20.0804 15.0112 20.0713 15.0026 20.0624 14.994C20.0534 14.9851 20.0443 14.9762 20.0354 14.9671C20.0263 14.9578 20.0174 14.9482 20.0085 14.9386C19.9993 14.9288 19.9904 14.9188 19.9815 14.9087C19.9723 14.8984 19.9633 14.8879 19.9545 14.8773C19.9454 14.8664 19.9363 14.8554 19.9275 14.8443C19.9184 14.8328 19.9093 14.8211 19.9005 14.8093C19.8913 14.7972 19.8823 14.7849 19.8735 14.7724C19.8643 14.7594 19.8553 14.7463 19.8465 14.733C19.8373 14.7191 19.8283 14.7051 19.8195 14.6909C19.8103 14.676 19.8013 14.6609 19.7925 14.6457C19.7833 14.6297 19.7743 14.6134 19.7655 14.597C19.7562 14.5796 19.7473 14.5619 19.7385 14.5441C19.7292 14.5251 19.7202 14.5058 19.7116 14.4864C19.7022 14.4654 19.6932 14.4442 19.6846 14.4227C19.6751 14.399 19.6662 14.3747 19.6576 14.3502C19.648 14.3231 19.639 14.2956 19.6306 14.2677C19.6208 14.2352 19.6118 14.2023 19.6036 14.1687C19.5934 14.127 19.5844 14.0844 19.5766 14.0411C19.565 13.9767 19.5559 13.9106 19.5496 13.8427C19.5423 13.7643 19.5386 13.6835 19.5386 13.6004C19.5386 13.5172 19.5423 13.4364 19.5496 13.3579C19.5559 13.29 19.565 13.2239 19.5766 13.1595C19.5844 13.1161 19.5934 13.0735 19.6036 13.0317C19.6118 12.9982 19.6208 12.9653 19.6306 12.9328C19.639 12.9048 19.648 12.8773 19.6576 12.8502C19.6662 12.8257 19.6751 12.8014 19.6846 12.7776C19.6932 12.7561 19.7022 12.7349 19.7116 12.714C19.7202 12.6945 19.7292 12.6752 19.7385 12.6562C19.7473 12.6384 19.7562 12.6207 19.7655 12.6033C19.7743 12.5868 19.7833 12.5706 19.7925 12.5545C19.8013 12.5393 19.8103 12.5242 19.8195 12.5093C19.8283 12.4951 19.8373 12.4811 19.8465 12.4672C19.8553 12.4539 19.8643 12.4408 19.8735 12.4278C19.8823 12.4153 19.8913 12.403 19.9005 12.3908C19.9093 12.379 19.9184 12.3674 19.9275 12.3559C19.9363 12.3447 19.9454 12.3337 19.9545 12.3228C19.9633 12.3122 19.9723 12.3018 19.9815 12.2914C19.9904 12.2814 19.9993 12.2713 20.0085 12.2615C20.0174 12.2519 20.0263 12.2423 20.0354 12.233C20.0443 12.2239 20.0534 12.215 20.0624 12.2061C20.0713 12.1975 20.0804 12.1889 20.0894 12.1804C20.0983 12.1721 20.1073 12.1638 20.1164 12.1557C20.1254 12.1477 20.1343 12.1397 20.1434 12.1319C20.1523 12.1243 20.1614 12.117 20.1704 12.1095C20.1793 12.1023 20.1883 12.0951 20.1974 12.0879C20.2063 12.0809 20.2153 12.0739 20.2244 12.067C20.2333 12.0603 20.2423 12.0538 20.2514 12.0473C20.2603 12.0409 20.2693 12.0345 20.2784 12.0282C20.2874 12.022 20.2962 12.0158 20.3054 12.0097C20.3142 12.0038 20.3233 11.9981 20.3324 11.9923C20.3413 11.9866 20.3503 11.9809 20.3594 11.9754C20.3683 11.9699 20.3773 11.9644 20.3863 11.9591C20.3953 11.9538 20.4043 11.9487 20.4133 11.9436C20.4223 11.9385 20.4312 11.9334 20.4403 11.9284C20.4492 11.9236 20.4583 11.9189 20.4673 11.9141C20.4763 11.9094 20.4853 11.9048 20.4943 11.9002C20.5032 11.8957 20.5123 11.8913 20.5213 11.8869C20.5302 11.8825 20.5393 11.8783 20.5483 11.8741C20.5573 11.87 20.5662 11.8657 20.5753 11.8617C20.5842 11.8577 20.5932 11.8539 20.6023 11.85C20.6113 11.8461 20.6202 11.8422 20.6293 11.8385C20.6382 11.8348 20.6473 11.8313 20.6563 11.8277C20.6652 11.8241 20.6742 11.8206 20.6833 11.8171C20.6922 11.8137 20.7012 11.8105 20.7102 11.8072C20.7192 11.8039 20.7282 11.8006 20.7373 11.7974C20.7462 11.7943 20.7552 11.7913 20.7642 11.7883C20.7732 11.7853 20.7822 11.7823 20.7912 11.7794C20.8002 11.7765 20.8092 11.7737 20.8182 11.7709C20.8272 11.7682 20.8361 11.7654 20.8452 11.7628L20.8722 11.7551C20.8812 11.7526 20.8901 11.75 20.8992 11.7476C20.9081 11.7452 20.9172 11.7429 20.9262 11.7406C20.9352 11.7383 20.9441 11.736 20.9532 11.7338L20.9802 11.7274C20.9891 11.7253 20.9981 11.7232 21.0072 11.7212C21.0161 11.7192 21.0251 11.7174 21.0342 11.7155C21.0432 11.7136 21.0521 11.7117 21.0611 11.7099C21.0701 11.7081 21.0791 11.7065 21.0881 11.7048C21.0971 11.7032 21.106 11.7014 21.1151 11.6998C21.124 11.6982 21.1331 11.6968 21.1421 11.6953C21.1511 11.6938 21.1601 11.6922 21.1691 11.6908L21.1961 11.6868L21.2231 11.683L21.2501 11.6794L21.2771 11.6761L21.3041 11.673L21.331 11.6703C21.3401 11.6694 21.349 11.6684 21.358 11.6676C21.367 11.6667 21.376 11.6661 21.385 11.6654L21.412 11.6632L21.439 11.6614L21.466 11.6598L21.493 11.6582C21.502 11.6578 21.511 11.6575 21.52 11.6572C21.529 11.6568 21.5379 11.6563 21.547 11.6561L21.574 11.6554L21.601 11.6548L21.628 11.6544L21.655 11.6543C21.664 11.6543 21.6729 11.6541 21.682 11.6542L21.7089 11.6545L21.7359 11.6549L21.7629 11.6555L21.7899 11.6564L21.8169 11.6573L21.8439 11.6585L21.8709 11.6599L21.8979 11.6613L21.9249 11.6631L21.9519 11.665L21.9625 11.6657L21.9788 11.667L22.0058 11.6691L22.0328 11.6714L22.0598 11.6739L22.0868 11.6765L22.1138 11.6792L22.1408 11.6821L22.1678 11.6851L22.1948 11.6883L22.2218 11.6916L22.2488 11.695L22.2758 11.6986L22.3028 11.7024L22.3298 11.7063L22.3567 11.7103L22.3837 11.7145L22.4107 11.7188L22.4377 11.7232L22.4647 11.7279L22.4917 11.7326L22.5187 11.7375L22.5457 11.7426L22.5727 11.7478L22.5997 11.7532L22.6267 11.7587L22.6536 11.7643L22.6806 11.7702L22.7076 11.7761L22.7346 11.7822L22.7616 11.7885L22.7886 11.795L22.8156 11.8016L22.8426 11.8083L22.8696 11.8152L22.8966 11.8222L22.9235 11.8294L22.9506 11.8368L22.9775 11.8443L23.0045 11.852L23.0315 11.8598L23.0585 11.8678L23.0855 11.876L23.1125 11.8843L23.1395 11.8927L23.1665 11.9014L23.1935 11.9102L23.2205 11.9191L23.2475 11.9282L23.2745 11.9374L23.3014 11.9468L23.3284 11.9564L23.3554 11.9661L23.3824 11.976L23.4094 11.986L23.4364 11.9962L23.4634 12.0066L23.4904 12.0171L23.5174 12.0277L23.5444 12.0385L23.5714 12.0495L23.5984 12.0606L23.6253 12.0719L23.6523 12.0833L23.6793 12.0948L23.7063 12.1065L23.7333 12.1184L23.7603 12.1304L23.7873 12.1425L23.8143 12.1548L23.8413 12.1672L23.8683 12.1797L23.8953 12.1925L23.9222 12.2053L23.9492 12.2182L23.9762 12.2313L24.0032 12.2445L24.0302 12.2579L24.0572 12.2713L24.0841 12.2848V11.099L24.0572 11.0924L24.0302 11.0859L24.0032 11.0795L23.9762 11.0731L23.9492 11.0669L23.9222 11.0607L23.8953 11.0546L23.8683 11.0485L23.8413 11.0426L23.8143 11.0366L23.7873 11.0308L23.7603 11.025L23.7333 11.0192L23.7063 11.0135L23.6793 11.0079L23.6523 11.0023L23.6253 10.9968L23.5984 10.9913L23.5714 10.9859L23.5444 10.9806L23.5174 10.9753L23.4904 10.97L23.4634 10.9648L23.4364 10.9596L23.4094 10.9545L23.3824 10.9495L23.3554 10.9445L23.3284 10.9396L23.3014 10.9347L23.2745 10.9298L23.2475 10.9251L23.2205 10.9203L23.1935 10.9157L23.1665 10.9111L23.1395 10.9065L23.1125 10.902L23.0855 10.8975L23.0585 10.8931L23.0315 10.8888L23.0045 10.8845L22.9775 10.8803L22.9506 10.8761L22.9235 10.872L22.8966 10.8679L22.8696 10.8639L22.8426 10.86L22.8156 10.8561L22.7886 10.8523L22.7616 10.8486L22.7346 10.8449L22.7076 10.8413L22.6806 10.8377L22.6536 10.8342L22.6267 10.8307L22.5997 10.8274L22.5727 10.824L22.5457 10.8208L22.5187 10.8177L22.4917 10.8145L22.4647 10.8115L22.4377 10.8085L22.4107 10.8057L22.3837 10.8028L22.3567 10.8001L22.3298 10.7974L22.3028 10.7948L22.2758 10.7923L22.2488 10.7899L22.2218 10.7875L22.1948 10.7852L22.1678 10.783L22.1408 10.7809L22.1138 10.7789L22.0868 10.7769L22.0598 10.7751L22.0328 10.7733L22.0058 10.7716L21.9788 10.77L21.9519 10.7685L21.9249 10.7671L21.8979 10.7658L21.8841 10.7652L21.8709 10.7646L21.8439 10.7635L21.8169 10.7624L21.7899 10.7613L21.7629 10.7603L21.7359 10.7594L21.7089 10.7585L21.682 10.7576L21.655 10.7569L21.628 10.7561L21.601 10.7555L21.574 10.7549L21.547 10.7544L21.52 10.7538L21.493 10.7534L21.466 10.7531L21.439 10.7527L21.412 10.7525L21.385 10.7524L21.358 10.7522L21.331 10.7521L21.3041 10.7522L21.2771 10.7522L21.2501 10.7523L21.2231 10.7526L21.1961 10.7528L21.1691 10.7531L21.1421 10.7536L21.1151 10.754L21.0881 10.7545L21.0611 10.7552L21.0342 10.7558L21.0072 10.7565L20.9802 10.7574L20.9532 10.7583L20.9262 10.7592L20.8992 10.7603L20.8722 10.7614L20.8452 10.7625L20.8182 10.7638L20.7912 10.7652L20.7642 10.7665L20.7373 10.768L20.7102 10.7696L20.6833 10.7712L20.6563 10.773L20.6293 10.7748L20.6023 10.7766L20.5753 10.7786L20.5483 10.7807L20.5213 10.7828L20.4943 10.7851L20.4673 10.7873L20.4403 10.7897L20.4133 10.7923L20.3863 10.7948L20.3594 10.7975L20.3324 10.8003L20.3054 10.8031L20.2784 10.8061L20.2514 10.8091L20.2244 10.8122L20.1974 10.8155L20.1704 10.8188L20.1434 10.8223L20.1164 10.8259L20.0894 10.8294L20.0624 10.8332L20.0354 10.8371L20.0085 10.841L19.9815 10.8451L19.9545 10.8492L19.9275 10.8536L19.9005 10.858L19.8735 10.8625L19.8465 10.8672L19.8195 10.8718L19.7925 10.8768L19.7655 10.8818L19.7385 10.8869L19.7116 10.8922L19.6846 10.8974L19.6576 10.903L19.6306 10.9086L19.6036 10.9144L19.5766 10.9203L19.5496 10.9263L19.5226 10.9325L19.4956 10.9387L19.4686 10.9453L19.4416 10.9518L19.4146 10.9586L19.3877 10.9655L19.3607 10.9726L19.3337 10.9798L19.3067 10.9871L19.2797 10.9947L19.2527 11.0023L19.2257 11.0103L19.1987 11.0182L19.1717 11.0265L19.1447 11.0348L19.1177 11.0434C19.1087 11.0463 19.0997 11.0492 19.0907 11.0521L19.0638 11.0611C19.0548 11.0641 19.0457 11.0671 19.0368 11.0702L19.0098 11.0796L18.9828 11.089C18.9737 11.0922 18.9648 11.0955 18.9558 11.0988C18.9468 11.1021 18.9377 11.1053 18.9288 11.1087L18.9018 11.1189C18.8928 11.1223 18.8837 11.1257 18.8748 11.1292L18.8478 11.1398L18.8208 11.1506L18.7938 11.1617L18.7669 11.1729L18.7398 11.1844L18.7129 11.1962L18.6859 11.2082L18.6589 11.2205L18.6319 11.233C18.6228 11.2373 18.6139 11.2416 18.6049 11.2459L18.5779 11.259L18.5509 11.2724L18.524 11.2861C18.5149 11.2908 18.5059 11.2953 18.4969 11.3C18.4879 11.3048 18.4789 11.3096 18.47 11.3144L18.443 11.3291L18.416 11.344C18.4069 11.3491 18.3979 11.3542 18.389 11.3594C18.3799 11.3645 18.3709 11.3697 18.362 11.3749C18.3529 11.3803 18.344 11.3856 18.335 11.391C18.3259 11.3965 18.317 11.402 18.308 11.4075C18.299 11.413 18.2899 11.4186 18.281 11.4242C18.272 11.4299 18.263 11.4357 18.254 11.4414L18.227 11.4591C18.218 11.4651 18.209 11.471 18.2 11.477L18.1731 11.4956C18.164 11.5019 18.155 11.5082 18.1461 11.5145C18.137 11.521 18.128 11.5274 18.1191 11.534C18.11 11.5406 18.101 11.5471 18.0921 11.5538C18.083 11.5606 18.0741 11.5674 18.0651 11.5743C18.056 11.5813 18.047 11.5883 18.0381 11.5953C18.029 11.6025 18.02 11.6096 18.0111 11.6169V11.6168Z" fill="white"/>
</g>
<defs>
<clipPath id="clip0_770_8539">
<rect x="0.408142" y="0.900009" width="41.6667" height="25" rx="3.45738" fill="white"/>
</clipPath>
</defs>
</svg>
