<svg width="43" height="26" viewBox="0 0 43 26" fill="none" xmlns="http://www.w3.org/2000/svg">
<g clip-path="url(#clip0_518_33196)">
<rect x="0.408142" y="-0.172089" width="42" height="25.2" rx="1.68" fill="#171717"/>
<path fill-rule="evenodd" clip-rule="evenodd" d="M23.9817 12.63C23.9817 17.1569 20.3123 20.8261 15.7856 20.8261C11.2587 20.8261 7.58905 17.1569 7.58905 12.63C7.58905 8.10325 11.2587 4.43359 15.7856 4.43359C20.3123 4.43359 23.9817 8.10325 23.9817 12.63Z" fill="#CC0000"/>
<path fill-rule="evenodd" clip-rule="evenodd" d="M26.7894 4.43359C24.6711 4.43359 22.7416 5.23705 21.2868 6.55513C20.9908 6.82377 20.7145 7.11391 20.4595 7.42284H22.1155C22.3416 7.69821 22.5501 7.98771 22.7403 8.29093H19.8345C19.6607 8.56955 19.5027 8.85904 19.3622 9.15903H23.2123C23.3439 9.43997 23.4597 9.72934 23.5595 10.0267H19.0151C18.9206 10.3094 18.8408 10.599 18.777 10.8943H23.7973C23.9175 11.4539 23.9815 12.0344 23.9815 12.63C23.9815 13.5399 23.8332 14.4158 23.5595 15.2338H19.0151C19.1148 15.5309 19.2306 15.8206 19.362 16.102H23.2123C23.0717 16.4012 22.9144 16.6909 22.7396 16.9699H19.8345C20.024 17.2723 20.2328 17.5621 20.4595 17.8371H22.115C21.8604 18.1463 21.5839 18.4365 21.287 18.7051C22.7418 20.0232 24.6711 20.8261 26.7894 20.8261C31.316 20.8261 34.9855 17.1569 34.9855 12.63C34.9855 8.10363 31.316 4.43359 26.7894 4.43359Z" fill="#FF9900"/>
<path fill-rule="evenodd" clip-rule="evenodd" d="M13.8714 13.5257C13.778 13.5151 13.7368 13.5117 13.6727 13.5117C13.1683 13.5117 12.9133 13.6848 12.9133 14.0266C12.9133 14.2371 13.0377 14.3709 13.232 14.3709C13.5946 14.3709 13.8558 14.0258 13.8714 13.5257ZM14.5184 15.0308C14.3997 15.0308 13.7808 15.0308 13.7808 15.0308L13.7978 14.6804C13.573 14.9571 13.2728 15.0892 12.8652 15.0892C12.3831 15.0892 12.0524 14.7128 12.0524 14.1658C12.0524 13.3424 12.6274 12.8622 13.6145 12.8622C13.7157 12.8622 13.845 12.8716 13.9773 12.8883C14.0048 12.7766 14.0121 12.7292 14.0121 12.669C14.0121 12.4452 13.8571 12.3612 13.4415 12.3612C13.0061 12.3568 12.6471 12.4652 12.4996 12.5137C12.5089 12.4575 12.623 11.7532 12.623 11.7532C13.0662 11.6229 13.3587 11.5742 13.6878 11.5742C14.4521 11.5742 14.8568 11.9172 14.8559 12.5656C14.8575 12.7396 14.8286 12.9534 14.7839 13.2355C14.7067 13.7252 14.5409 14.7752 14.5184 15.0308Z" fill="#000066"/>
<path fill-rule="evenodd" clip-rule="evenodd" d="M11.68 15.0325H10.79L11.3001 11.8367L10.1617 15.0325H9.55534L9.48035 11.8546L8.94462 15.0325H8.11176L8.80745 10.875H10.0871L10.1644 13.2021L10.945 10.875H12.3682L11.68 15.0325Z" fill="#000066"/>
<path fill-rule="evenodd" clip-rule="evenodd" d="M27.8904 13.5257C27.797 13.5151 27.7563 13.5117 27.6924 13.5117C27.1876 13.5117 26.9328 13.6848 26.9328 14.0266C26.9328 14.2371 27.0568 14.3709 27.2516 14.3709C27.6139 14.3709 27.8752 14.0258 27.8904 13.5257ZM28.5378 15.0308C28.4189 15.0308 27.8005 15.0308 27.8005 15.0308L27.8172 14.6804C27.5924 14.9571 27.2924 15.0892 26.885 15.0892C26.4023 15.0892 26.072 14.7128 26.072 14.1658C26.072 13.3424 26.6472 12.8622 27.6341 12.8622C27.7351 12.8622 27.8641 12.8716 27.9966 12.8883C28.0242 12.7766 28.0313 12.7292 28.0313 12.669C28.0313 12.4452 27.8764 12.3612 27.4608 12.3612C27.0254 12.3568 26.6665 12.4652 26.5184 12.5137C26.5283 12.4575 26.6427 11.7532 26.6427 11.7532C27.0856 11.6229 27.3784 11.5742 27.707 11.5742C28.4717 11.5742 28.876 11.9172 28.8752 12.5656C28.8768 12.7396 28.8481 12.9534 28.8032 13.2355C28.7262 13.7252 28.5601 14.7752 28.5378 15.0308Z" fill="#000066"/>
<path fill-rule="evenodd" clip-rule="evenodd" d="M18.4726 14.982C18.229 15.0587 18.0392 15.0919 17.8333 15.0919C17.3785 15.0919 17.1302 14.8305 17.1302 14.349C17.1239 14.1996 17.1956 13.8064 17.2521 13.4479C17.3037 13.132 17.6381 11.1406 17.6381 11.1406H18.5224L18.4191 11.6524H18.9534L18.8329 12.465H18.2967C18.194 13.1079 18.0475 13.9089 18.0458 14.0151C18.0458 14.1895 18.1388 14.2656 18.3506 14.2656C18.452 14.2656 18.5305 14.2553 18.5905 14.2337L18.4726 14.982Z" fill="#000066"/>
<path fill-rule="evenodd" clip-rule="evenodd" d="M21.1851 14.952C20.8812 15.0449 20.5883 15.0903 20.2776 15.0892C19.2873 15.0879 18.7712 14.5711 18.7712 13.5809C18.7712 12.4252 19.4278 11.5742 20.3193 11.5742C21.0484 11.5742 21.5143 12.0506 21.5143 12.7975C21.5143 13.0458 21.4825 13.2877 21.4051 13.6292H19.6438C19.5844 14.1197 19.8981 14.324 20.4129 14.324C20.7291 14.324 21.0149 14.2587 21.3323 14.1114L21.1851 14.952ZM20.6875 12.9473C20.6926 12.8768 20.7812 12.3438 20.2756 12.3438C19.9943 12.3438 19.7926 12.5585 19.7109 12.9473H20.6875Z" fill="#000066"/>
<path fill-rule="evenodd" clip-rule="evenodd" d="M15.0524 12.7226C15.0524 13.1499 15.2597 13.4449 15.7298 13.6665C16.0901 13.8361 16.1461 13.8862 16.1461 14.0397C16.1461 14.2502 15.9871 14.3457 15.6352 14.3457C15.3695 14.3457 15.1226 14.304 14.8378 14.2119C14.8378 14.2119 14.7211 14.9575 14.7155 14.9931C14.9177 15.0369 15.098 15.0777 15.6415 15.0931C16.5803 15.0931 17.014 14.7356 17.014 13.963C17.014 13.4985 16.8326 13.2258 16.3868 13.0207C16.0139 12.8496 15.9708 12.8112 15.9708 12.6535C15.9708 12.4707 16.1188 12.3773 16.4062 12.3773C16.581 12.3773 16.8194 12.396 17.0457 12.428L17.1723 11.6438C16.942 11.6071 16.5925 11.5781 16.3891 11.5781C15.3939 11.5781 15.0492 12.0979 15.0524 12.7226Z" fill="#000066"/>
<path fill-rule="evenodd" clip-rule="evenodd" d="M25.5122 11.6665C25.7594 11.6665 25.9902 11.7307 26.3074 11.8909L26.4531 10.9886C26.3223 10.9374 25.8636 10.6367 25.475 10.6367C24.8797 10.6367 24.3759 10.9326 24.0221 11.4197C23.5056 11.2487 23.293 11.5943 23.0329 11.9389L22.8017 11.9927C22.8192 11.8794 22.8351 11.7668 22.8301 11.6527H22.0125C21.9011 12.6994 21.7033 13.7592 21.5485 14.8063L21.508 15.0338H22.3982C22.5468 14.0683 22.628 13.4503 22.6775 13.0317L23.0127 12.8459C23.0631 12.6593 23.2194 12.5966 23.5339 12.6042C23.4929 12.8247 23.4706 13.0569 23.4706 13.2972C23.4706 14.4035 24.0682 15.0922 25.0257 15.0922C25.2725 15.0922 25.4844 15.0598 25.8125 14.9705L25.9684 14.0231C25.6734 14.168 25.4318 14.2363 25.2127 14.2363C24.6954 14.2363 24.3823 13.8543 24.3823 13.2234C24.3823 12.3078 24.8476 11.6665 25.5122 11.6665Z" fill="#000066"/>
<path fill-rule="evenodd" clip-rule="evenodd" d="M33.0473 10.8789L32.8495 12.08C32.6067 11.76 32.3453 11.5281 32.0002 11.5281C31.5513 11.5281 31.1426 11.8685 30.875 12.3698C30.5024 12.2924 30.1173 12.161 30.1173 12.161L30.117 12.1642C30.1467 11.884 30.1592 11.7136 30.1563 11.6553H29.3388C29.2278 12.702 29.0298 13.7618 28.8751 14.8089L28.8342 15.0364H29.7247C29.8449 14.2561 29.9367 13.6074 30.0045 13.0937C30.3088 12.8186 30.4612 12.5793 30.768 12.5949C30.6319 12.9242 30.5525 13.3031 30.5525 13.692C30.5525 14.5369 30.9797 15.0948 31.6268 15.0948C31.9529 15.0948 32.2032 14.9822 32.4472 14.7216L32.4052 15.0361H33.2472L33.925 10.8789H33.0473ZM31.9344 14.2554C31.6316 14.2554 31.4782 14.0308 31.4782 13.5888C31.4782 12.9242 31.7649 12.4531 32.1683 12.4531C32.4741 12.4531 32.6399 12.6858 32.6399 13.1153C32.6399 13.7856 32.3485 14.2554 31.9344 14.2554Z" fill="#000066"/>
<path fill-rule="evenodd" clip-rule="evenodd" d="M11.9364 14.7899H11.0467L11.5567 11.5942L10.4185 14.7899H9.81193L9.73707 11.6127L9.20121 14.7899H8.36835L9.06404 10.6328H10.3436L10.3794 13.2063L11.2428 10.6328H12.6248L11.9364 14.7899Z" fill="white"/>
<path fill-rule="evenodd" clip-rule="evenodd" d="M14.126 13.2834C14.0328 13.2725 13.9916 13.2695 13.9275 13.2695C13.4231 13.2695 13.1679 13.4423 13.1679 13.7839C13.1679 13.9941 13.2925 14.1287 13.4869 14.1287C13.8494 14.1287 14.1106 13.7836 14.126 13.2834ZM14.7728 14.7886C14.6542 14.7886 14.0356 14.7886 14.0356 14.7886L14.0525 14.4385C13.8276 14.715 13.5275 14.8473 13.1199 14.8473C12.6376 14.8473 12.3071 14.4704 12.3071 13.9235C12.3071 13.1 12.8822 12.6204 13.8693 12.6204C13.9702 12.6204 14.0995 12.6296 14.232 12.6467C14.2594 12.5348 14.2667 12.4873 14.2667 12.4268C14.2667 12.2031 14.1118 12.1198 13.6961 12.1198C13.2607 12.1146 12.9017 12.2231 12.7541 12.2714C12.7635 12.2154 12.8775 11.5112 12.8775 11.5112C13.3209 11.3811 13.6134 11.332 13.9425 11.332C14.7066 11.332 15.1112 11.6754 15.1106 12.3236C15.112 12.4973 15.0834 12.7122 15.0386 12.9935C14.9612 13.4827 14.7954 14.5334 14.7728 14.7886Z" fill="white"/>
<path fill-rule="evenodd" clip-rule="evenodd" d="M26.7103 10.7433L26.5646 11.6454C26.2469 11.4857 26.0167 11.4211 25.7698 11.4211C25.1055 11.4211 24.6394 12.0632 24.6394 12.9789C24.6394 13.6098 24.9526 13.991 25.47 13.991C25.6891 13.991 25.9312 13.9233 26.2256 13.7778L26.0693 14.7252C25.7417 14.8145 25.5297 14.8471 25.2831 14.8471C24.3249 14.8471 23.7282 14.1583 23.7282 13.0522C23.7282 11.566 24.5532 10.5273 25.7324 10.5273C26.121 10.5273 26.5799 10.692 26.7103 10.7433Z" fill="white"/>
<path fill-rule="evenodd" clip-rule="evenodd" d="M28.1449 13.2834C28.0522 13.2725 28.0108 13.2695 27.9469 13.2695C27.4427 13.2695 27.1874 13.4423 27.1874 13.7839C27.1874 13.9941 27.3119 14.1287 27.5062 14.1287C27.8685 14.1287 28.13 13.7836 28.1449 13.2834ZM28.7922 14.7886C28.6738 14.7886 28.055 14.7886 28.055 14.7886L28.0717 14.4385C27.8469 14.715 27.5468 14.8473 27.1395 14.8473C26.6568 14.8473 26.3266 14.4704 26.3266 13.9235C26.3266 13.1 26.9012 12.6204 27.8886 12.6204C27.9895 12.6204 28.1185 12.6296 28.2509 12.6467C28.2785 12.5348 28.2857 12.4873 28.2857 12.4268C28.2857 12.2031 28.1312 12.1198 27.7153 12.1198C27.2802 12.1146 26.9214 12.2231 26.7735 12.2714C26.7828 12.2154 26.8969 11.5112 26.8969 11.5112C27.3403 11.3811 27.6325 11.332 27.9616 11.332C28.7257 11.332 29.1307 11.6754 29.1297 12.3236C29.1315 12.4973 29.1026 12.7122 29.0578 12.9935C28.9808 13.4827 28.815 14.5334 28.7922 14.7886Z" fill="white"/>
<path fill-rule="evenodd" clip-rule="evenodd" d="M18.7295 14.7357C18.4861 14.8124 18.2961 14.8456 18.0904 14.8456C17.6355 14.8456 17.387 14.5841 17.387 14.1032C17.3808 13.9532 17.4527 13.5607 17.5093 13.2018C17.5605 12.8856 17.895 10.8945 17.895 10.8945H18.7796L18.6761 11.4062H19.1302L19.0092 12.2186H18.5537C18.451 12.8621 18.3045 13.6625 18.3027 13.7688C18.3027 13.9436 18.3961 14.0193 18.6076 14.0193C18.709 14.0193 18.7874 14.0093 18.8476 13.9873L18.7295 14.7357Z" fill="white"/>
<path fill-rule="evenodd" clip-rule="evenodd" d="M21.4408 14.7105C21.1368 14.8036 20.8433 14.8475 20.5329 14.8473C19.5426 14.8466 19.0268 14.3292 19.0268 13.3391C19.0268 12.183 19.6832 11.332 20.5741 11.332C21.304 11.332 21.7697 11.8084 21.7697 12.5562C21.7697 12.804 21.7373 13.0458 21.6609 13.3874H19.8993C19.8396 13.8779 20.1537 14.0826 20.668 14.0826C20.9845 14.0826 21.2701 14.017 21.5879 13.8694L21.4408 14.7105ZM20.9434 12.705C20.9482 12.6343 21.0372 12.1016 20.5318 12.1016C20.2502 12.1016 20.0485 12.3167 19.9665 12.705H20.9434Z" fill="white"/>
<path fill-rule="evenodd" clip-rule="evenodd" d="M15.3087 12.4726C15.3087 12.9007 15.5163 13.195 15.9866 13.4169C16.3468 13.5863 16.4026 13.6364 16.4026 13.7901C16.4026 14.0008 16.2437 14.0959 15.8915 14.0959C15.6261 14.0959 15.3791 14.0547 15.0941 13.9629C15.0941 13.9629 14.9775 14.7079 14.9721 14.743C15.1742 14.7873 15.3546 14.8277 15.8978 14.8434C16.8369 14.8434 17.2706 14.486 17.2706 13.7134C17.2706 13.2486 17.089 12.9761 16.6433 12.7715C16.2702 12.5998 16.2274 12.5619 16.2274 12.4039C16.2274 12.2211 16.3753 12.1271 16.663 12.1271C16.8373 12.1271 17.076 12.1465 17.3022 12.1783L17.4289 11.3943C17.1984 11.3579 16.8492 11.3281 16.6457 11.3281C15.6502 11.3281 15.3058 11.848 15.3087 12.4726Z" fill="white"/>
<path fill-rule="evenodd" clip-rule="evenodd" d="M33.5034 14.7861H32.6617L32.7034 14.4715C32.4593 14.7322 32.2091 14.8448 31.883 14.8448C31.2364 14.8448 30.8086 14.2875 30.8086 13.4417C30.8086 12.3172 31.4719 11.3693 32.2564 11.3693C32.6015 11.3693 32.8627 11.5102 33.1061 11.8304L33.3035 10.629H34.1811L33.5034 14.7861ZM32.1909 14.0055C32.6055 14.0055 32.8964 13.536 32.8964 12.8663C32.8964 12.4367 32.7308 12.2032 32.425 12.2032C32.0213 12.2032 31.7348 12.6745 31.7348 13.3393C31.7348 13.7818 31.8883 14.0055 32.1909 14.0055Z" fill="white"/>
<path fill-rule="evenodd" clip-rule="evenodd" d="M29.5938 11.4074C29.4825 12.4538 29.2846 13.5136 29.1298 14.5609L29.0893 14.7882H29.9793C30.2977 12.7207 30.3742 12.3172 30.8737 12.3676C30.9531 11.9444 31.1011 11.5738 31.2113 11.3871C30.8387 11.3093 30.6305 11.52 30.3578 11.9202C30.3795 11.747 30.4188 11.579 30.4114 11.4074H29.5938Z" fill="white"/>
<path fill-rule="evenodd" clip-rule="evenodd" d="M22.2695 11.4074C22.1577 12.4538 21.9595 13.5136 21.805 14.5609L21.7646 14.7882H22.6548C22.9733 12.7207 23.0496 12.3172 23.5483 12.3676C23.6282 11.9444 23.7765 11.5738 23.8865 11.3871C23.5142 11.3093 23.3057 11.52 23.0334 11.9202C23.0549 11.747 23.0944 11.579 23.0867 11.4074H22.2695Z" fill="white"/>
</g>
<defs>
<clipPath id="clip0_518_33196">
<rect x="0.408142" width="42" height="25.2" rx="3.47635" fill="white"/>
</clipPath>
</defs>
</svg>
