<svg width="48" height="29" viewBox="0 0 48 29" fill="none" xmlns="http://www.w3.org/2000/svg">
<g clip-path="url(#clip0_229_7355)">
<rect x="0.5" y="0.400024" width="47.1175" height="28.2705" rx="1.8847" fill="#26337A"/>
<path fill-rule="evenodd" clip-rule="evenodd" d="M17.325 19.9271L19.1829 8.40173H22.1526L20.2949 19.9271H17.325" fill="white"/>
<path fill-rule="evenodd" clip-rule="evenodd" d="M31.0668 8.68266C30.4796 8.45135 29.5561 8.1991 28.4057 8.1991C25.4696 8.1991 23.4028 9.76314 23.3856 12.0027C23.3669 13.6594 24.8605 14.5833 25.9865 15.1339C27.1437 15.6983 27.5325 16.0595 27.5279 16.5642C27.5199 17.3361 26.6042 17.6898 25.7504 17.6898C24.5614 17.6898 23.9297 17.5156 22.953 17.0854L22.571 16.9019L22.1557 19.4817C22.8482 19.8027 24.132 20.0814 25.4643 20.096C28.5847 20.096 30.6123 18.5508 30.6361 16.1592C30.6468 14.8456 29.8554 13.8499 28.1416 13.0277C27.1038 12.4933 26.4668 12.1393 26.4741 11.5983C26.4748 11.1194 27.0122 10.6065 28.1754 10.6065C29.1468 10.5909 29.85 10.8152 30.3979 11.0494L30.6646 11.1812L31.0668 8.68266" fill="white"/>
<path fill-rule="evenodd" clip-rule="evenodd" d="M35.0225 15.8381C35.2686 15.1756 36.2055 12.6165 36.2055 12.6165C36.1882 12.647 36.4503 11.949 36.6003 11.517L36.8007 12.511C36.8007 12.511 37.3706 15.2619 37.4879 15.8381C37.0256 15.8381 35.6024 15.8381 35.0225 15.8381V15.8381ZM38.6851 8.41064H36.39C35.6782 8.41064 35.1453 8.61455 34.8335 9.36603L30.4232 19.9283H33.5424C33.5424 19.9283 34.0513 18.5074 34.1668 18.1956C34.507 18.1956 37.5379 18.2016 37.9706 18.2016C38.0596 18.6038 38.3322 19.9283 38.3322 19.9283H41.0886L38.6851 8.41064V8.41064Z" fill="white"/>
<path fill-rule="evenodd" clip-rule="evenodd" d="M14.8324 8.41064L11.9257 16.2682L11.6143 14.6709C11.0727 12.8306 9.3865 10.8359 7.50043 9.83648L10.1597 19.9162L13.3027 19.9144L17.9795 8.41064H14.8324" fill="white"/>
<path fill-rule="evenodd" clip-rule="evenodd" d="M9.22885 8.40173H4.43977L4.40036 8.64054C8.12682 9.59524 10.5924 11.8997 11.6158 14.6698L10.5751 9.37414C10.3956 8.64377 9.87379 8.42726 9.22885 8.40173" fill="#EC982D"/>
</g>
<defs>
<clipPath id="clip0_229_7355">
<rect x="0.5" y="0.400024" width="47" height="28.2" rx="3.89993" fill="white"/>
</clipPath>
</defs>
</svg>
