<svg width="60" height="60" viewBox="0 0 60 60" fill="none" xmlns="http://www.w3.org/2000/svg">
<path d="M10.8865 23.9229C9.50681 24.6794 8.3242 26.2473 10.3051 27.3958C10.9062 27.7513 12.9265 27.5872 13.7346 25.9282C13.9711 25.436 13.9711 24.7341 13.912 23.9867L10.8865 23.9229Z" fill="black"/>
<path d="M55.4025 53.9353L54.4269 44.5283C54.3283 43.4527 53.5103 40.8366 51.4211 38.4484C52.1504 37.2725 53.126 35.2671 53.4217 32.6328C53.9144 28.2666 52.0124 25.4226 51.0762 24.429C50.9283 24.265 50.5341 24.1829 50.2286 24.3652C49.9428 24.5384 49.8443 24.9577 50.0315 25.2221L50.2286 25.4408C50.9875 26.2247 52.1602 27.902 51.7069 30.2446C51.3225 32.25 49.9724 33.6355 48.4547 34.31C47.8141 34.5926 47.1243 34.784 46.4443 34.9025C45.4095 34.4832 44.2663 34.1459 42.9852 33.9454C41.1916 33.6719 39.5162 33.5899 38.3533 33.0703C35.1012 31.6028 33.8989 30.3175 32.8641 28.5856C32.2136 27.5009 31.8687 26.644 31.7209 25.7234C31.4154 23.8639 30.016 7.61128 30.0258 7.11906C30.0948 2.9169 28.045 0.829493 28.045 0.829493C28.045 0.829493 25.7882 1.33995 24.6943 3.46382C24.2804 4.26596 24.0537 5.26865 24.2902 6.54479C24.2804 6.51745 23.216 5.97053 21.9841 5.76999C21.1169 5.63326 20.3581 5.68795 19.5598 5.80645C19.5302 5.81557 19.5401 5.76088 19.5302 5.74264C18.9291 4.02897 18.456 0.501342 14.2874 0C14.2874 0 11.2224 2.86221 14.445 6.07991C13.8537 5.48742 12.6317 6.77267 11.9616 6.85471C9.34999 7.16463 8.85724 9.19735 8.9755 10.2091C9.14304 11.6402 9.73434 11.5673 9.98072 12.5062C10.2074 13.3539 9.72449 14.2017 8.83753 14.5571C7.02421 15.2773 4.19582 14.4842 3.54539 14.2381C3.54539 14.2381 1.67293 13.7094 0.726851 15.2317C-0.751403 17.6017 2.39235 18.7411 2.39235 18.7411C2.39235 18.7411 3.48626 23.8365 10.572 24.9213C15.2827 25.6414 18.7517 21.977 18.7517 21.977C18.7517 21.977 20.9592 23.0435 20.634 26.4617C20.6044 26.7534 20.5847 27.2092 20.2595 27.428C19.2149 28.1298 16.2387 29.6612 14.1691 33.2891C12.681 35.887 11.8335 39.1594 12.7598 44.191L13.5877 55.1476C13.7256 56.6699 14.8491 58.5294 16.554 59.3042C18.6137 60.2431 21.314 59.9332 21.314 59.9332L19.7963 45.7406C19.7963 45.4216 20.1708 44.7197 20.9888 44.7562C21.8462 44.7835 22.1024 45.4489 22.1024 45.768L23.5314 59.1492C23.8073 60.4527 25.4925 59.9605 25.4235 59.049L24.0241 45.8591C23.9453 45.1208 24.6154 44.7379 25.2363 44.7562C25.9853 44.7744 26.3203 45.4489 26.3203 45.768L27.7296 58.9578C27.7099 59.5139 28.0942 59.9605 28.656 59.9605C29.2177 59.9605 29.6316 59.5777 29.6316 59.0581L28.2027 45.8227C28.2027 45.5036 28.4293 44.82 29.2966 44.7653C30.0455 44.7197 30.4792 45.376 30.4792 45.695L31.9476 59.2951C32.1545 59.8694 32.7163 60.0608 33.2287 59.8785C33.6328 59.7417 33.8693 59.3224 33.8397 59.0581L32.4107 45.932C32.3221 45.3942 32.8345 44.7744 33.4652 44.7562C34.0861 44.7379 34.5788 45.0296 34.6873 45.7315L36.1359 59.1037C36.2739 60.4163 38.1168 60.0334 38.0281 59.0581L36.5893 45.8773C36.5893 45.3031 37.1017 44.7744 37.7226 44.7744C38.3336 44.7744 38.7771 45.139 38.8954 45.7406L40.3243 59.0581C40.4722 60.4618 42.2756 60.0608 42.2362 59.0581L40.8072 45.8773C40.7678 45.3851 41.2014 44.8564 41.8124 44.7744C42.6501 44.6741 43.0936 45.4034 43.0936 45.7315L44.5324 59.0581C44.5521 59.6141 45.0252 59.9514 45.4391 59.9605C45.9417 59.9696 46.464 59.5685 46.4443 59.0763L45.0153 45.9047C44.9562 45.294 45.5179 44.7744 46.1388 44.7744C46.7597 44.7744 47.2228 45.1846 47.282 45.7315L48.7898 59.9787C48.7898 59.9787 51.5591 60.2704 53.5103 58.6935C55.3927 57.153 55.5405 55.02 55.4025 53.9353Z" fill="#EA2529"/>
<path d="M32.6153 24.3812C32.5562 24.1624 32.5266 23.9801 32.6941 23.6429C33.0785 22.8772 32.7138 22.1844 30.7428 22.1388C28.3284 22.0842 24.7904 22.3576 23.2727 22.6766C21.7058 23.0048 18.6409 23.3876 18.2072 23.7249C17.882 23.971 17.7046 24.5088 18.2565 24.9281C18.5423 25.1469 18.907 25.1469 18.8774 25.7576C18.8675 26.0311 18.5029 26.341 18.9858 26.8241C19.1336 26.97 19.3012 27.0155 19.5081 27.0064L20.5527 27.0611C20.5823 27.0155 20.6414 26.7421 20.6414 26.7421C20.6414 26.7421 20.7104 26.7238 20.74 26.7147C21.7846 26.4413 23.1052 26.1131 23.1052 26.1131C24.7116 25.9126 28.3776 25.3383 30.7823 25.6027C31.1469 25.6391 31.4524 25.7029 31.7185 25.7485L31.7776 26.0402C31.7776 26.0402 32.5364 25.8397 32.7631 25.475C33.0489 25.0102 32.704 24.7002 32.6153 24.3812Z" fill="black"/>
</svg>
