<svg width="26" height="25" viewBox="0 0 26 25" fill="none" xmlns="http://www.w3.org/2000/svg">
<path d="M13 0.5C19.6274 0.500001 25 5.87259 25 12.5C25 19.1274 19.6274 24.5 13 24.5C6.37258 24.5 1 19.1274 1 12.5C1 5.87258 6.37258 0.5 13 0.5Z" stroke="#2E2E2E"/>
<path d="M13 0.5C19.6274 0.500001 25 5.87259 25 12.5C25 19.1274 19.6274 24.5 13 24.5C6.37258 24.5 1 19.1274 1 12.5C1 5.87258 6.37258 0.5 13 0.5Z" stroke="black" stroke-opacity="0.2"/>
<path d="M13 0.5C19.6274 0.500001 25 5.87259 25 12.5C25 19.1274 19.6274 24.5 13 24.5C6.37258 24.5 1 19.1274 1 12.5C1 5.87258 6.37258 0.5 13 0.5Z" stroke="black" stroke-opacity="0.2"/>
<path d="M13 0.5C19.6274 0.500001 25 5.87259 25 12.5C25 19.1274 19.6274 24.5 13 24.5C6.37258 24.5 1 19.1274 1 12.5C1 5.87258 6.37258 0.5 13 0.5Z" stroke="black" stroke-opacity="0.2"/>
<path d="M13 0.5C19.6274 0.500001 25 5.87259 25 12.5C25 19.1274 19.6274 24.5 13 24.5C6.37258 24.5 1 19.1274 1 12.5C1 5.87258 6.37258 0.5 13 0.5Z" stroke="black" stroke-opacity="0.2"/>
<path d="M13 0.5C19.6274 0.500001 25 5.87259 25 12.5C25 19.1274 19.6274 24.5 13 24.5C6.37258 24.5 1 19.1274 1 12.5C1 5.87258 6.37258 0.5 13 0.5Z" stroke="black" stroke-opacity="0.2"/>
<path d="M13 0.5C19.6274 0.500001 25 5.87259 25 12.5C25 19.1274 19.6274 24.5 13 24.5C6.37258 24.5 1 19.1274 1 12.5C1 5.87258 6.37258 0.5 13 0.5Z" stroke="black" stroke-opacity="0.2"/>
<path d="M13 0.5C19.6274 0.500001 25 5.87259 25 12.5C25 19.1274 19.6274 24.5 13 24.5C6.37258 24.5 1 19.1274 1 12.5C1 5.87258 6.37258 0.5 13 0.5Z" stroke="black" stroke-opacity="0.2"/>
<path d="M13 0.5C19.6274 0.500001 25 5.87259 25 12.5C25 19.1274 19.6274 24.5 13 24.5C6.37258 24.5 1 19.1274 1 12.5C1 5.87258 6.37258 0.5 13 0.5Z" stroke="black" stroke-opacity="0.2"/>
<path d="M13 0.5C19.6274 0.500001 25 5.87259 25 12.5C25 19.1274 19.6274 24.5 13 24.5C6.37258 24.5 1 19.1274 1 12.5C1 5.87258 6.37258 0.5 13 0.5Z" stroke="black" stroke-opacity="0.2"/>
<path d="M13 0.5C19.6274 0.500001 25 5.87259 25 12.5C25 19.1274 19.6274 24.5 13 24.5C6.37258 24.5 1 19.1274 1 12.5C1 5.87258 6.37258 0.5 13 0.5Z" stroke="black" stroke-opacity="0.2"/>
<path d="M13 0.5C19.6274 0.500001 25 5.87259 25 12.5C25 19.1274 19.6274 24.5 13 24.5C6.37258 24.5 1 19.1274 1 12.5C1 5.87258 6.37258 0.5 13 0.5Z" stroke="black" stroke-opacity="0.2"/>
<path d="M13 0.5C19.6274 0.500001 25 5.87259 25 12.5C25 19.1274 19.6274 24.5 13 24.5C6.37258 24.5 1 19.1274 1 12.5C1 5.87258 6.37258 0.5 13 0.5Z" stroke="black" stroke-opacity="0.2"/>
<path d="M13 0.5C19.6274 0.500001 25 5.87259 25 12.5C25 19.1274 19.6274 24.5 13 24.5C6.37258 24.5 1 19.1274 1 12.5C1 5.87258 6.37258 0.5 13 0.5Z" stroke="black" stroke-opacity="0.2"/>
<path d="M16.7869 8.81909H15.199C14.77 8.81914 14.5643 8.9516 14.4558 9.07983C14.3345 9.22326 14.2654 9.44389 14.2654 9.72144V10.8757H16.7712L16.6824 11.4519L16.2869 14.0076L16.2214 14.4314H14.2654V20.6423L13.821 20.6921C13.3786 20.742 12.907 20.7956 12.3806 20.7957C11.8543 20.7957 11.3825 20.7419 10.9402 20.6921L10.4958 20.6423V14.4812H8.27026V10.9255H10.4958V9.47144C10.4958 8.24483 10.8608 7.24115 11.5564 6.5437C12.2515 5.84687 13.219 5.51343 14.3093 5.51343C14.8267 5.51344 15.3394 5.55304 15.7195 5.59155C15.9101 5.61087 16.0693 5.62969 16.1814 5.64429C16.2375 5.6516 16.2825 5.65751 16.3132 5.66187C16.3284 5.66402 16.3401 5.66651 16.3484 5.66772C16.3524 5.66832 16.3559 5.66836 16.3582 5.6687C16.3593 5.66887 16.3604 5.66958 16.3611 5.66968H16.3621L16.7869 5.73413V8.81909Z" stroke="#2E2E2E"/>
<path d="M16.7869 8.81909H15.199C14.77 8.81914 14.5643 8.9516 14.4558 9.07983C14.3345 9.22326 14.2654 9.44389 14.2654 9.72144V10.8757H16.7712L16.6824 11.4519L16.2869 14.0076L16.2214 14.4314H14.2654V20.6423L13.821 20.6921C13.3786 20.742 12.907 20.7956 12.3806 20.7957C11.8543 20.7957 11.3825 20.7419 10.9402 20.6921L10.4958 20.6423V14.4812H8.27026V10.9255H10.4958V9.47144C10.4958 8.24483 10.8608 7.24115 11.5564 6.5437C12.2515 5.84687 13.219 5.51343 14.3093 5.51343C14.8267 5.51344 15.3394 5.55304 15.7195 5.59155C15.9101 5.61087 16.0693 5.62969 16.1814 5.64429C16.2375 5.6516 16.2825 5.65751 16.3132 5.66187C16.3284 5.66402 16.3401 5.66651 16.3484 5.66772C16.3524 5.66832 16.3559 5.66836 16.3582 5.6687C16.3593 5.66887 16.3604 5.66958 16.3611 5.66968H16.3621L16.7869 5.73413V8.81909Z" stroke="black" stroke-opacity="0.2"/>
<path d="M16.7869 8.81909H15.199C14.77 8.81914 14.5643 8.9516 14.4558 9.07983C14.3345 9.22326 14.2654 9.44389 14.2654 9.72144V10.8757H16.7712L16.6824 11.4519L16.2869 14.0076L16.2214 14.4314H14.2654V20.6423L13.821 20.6921C13.3786 20.742 12.907 20.7956 12.3806 20.7957C11.8543 20.7957 11.3825 20.7419 10.9402 20.6921L10.4958 20.6423V14.4812H8.27026V10.9255H10.4958V9.47144C10.4958 8.24483 10.8608 7.24115 11.5564 6.5437C12.2515 5.84687 13.219 5.51343 14.3093 5.51343C14.8267 5.51344 15.3394 5.55304 15.7195 5.59155C15.9101 5.61087 16.0693 5.62969 16.1814 5.64429C16.2375 5.6516 16.2825 5.65751 16.3132 5.66187C16.3284 5.66402 16.3401 5.66651 16.3484 5.66772C16.3524 5.66832 16.3559 5.66836 16.3582 5.6687C16.3593 5.66887 16.3604 5.66958 16.3611 5.66968H16.3621L16.7869 5.73413V8.81909Z" stroke="black" stroke-opacity="0.2"/>
<path d="M16.7869 8.81909H15.199C14.77 8.81914 14.5643 8.9516 14.4558 9.07983C14.3345 9.22326 14.2654 9.44389 14.2654 9.72144V10.8757H16.7712L16.6824 11.4519L16.2869 14.0076L16.2214 14.4314H14.2654V20.6423L13.821 20.6921C13.3786 20.742 12.907 20.7956 12.3806 20.7957C11.8543 20.7957 11.3825 20.7419 10.9402 20.6921L10.4958 20.6423V14.4812H8.27026V10.9255H10.4958V9.47144C10.4958 8.24483 10.8608 7.24115 11.5564 6.5437C12.2515 5.84687 13.219 5.51343 14.3093 5.51343C14.8267 5.51344 15.3394 5.55304 15.7195 5.59155C15.9101 5.61087 16.0693 5.62969 16.1814 5.64429C16.2375 5.6516 16.2825 5.65751 16.3132 5.66187C16.3284 5.66402 16.3401 5.66651 16.3484 5.66772C16.3524 5.66832 16.3559 5.66836 16.3582 5.6687C16.3593 5.66887 16.3604 5.66958 16.3611 5.66968H16.3621L16.7869 5.73413V8.81909Z" stroke="black" stroke-opacity="0.2"/>
<path d="M16.7869 8.81909H15.199C14.77 8.81914 14.5643 8.9516 14.4558 9.07983C14.3345 9.22326 14.2654 9.44389 14.2654 9.72144V10.8757H16.7712L16.6824 11.4519L16.2869 14.0076L16.2214 14.4314H14.2654V20.6423L13.821 20.6921C13.3786 20.742 12.907 20.7956 12.3806 20.7957C11.8543 20.7957 11.3825 20.7419 10.9402 20.6921L10.4958 20.6423V14.4812H8.27026V10.9255H10.4958V9.47144C10.4958 8.24483 10.8608 7.24115 11.5564 6.5437C12.2515 5.84687 13.219 5.51343 14.3093 5.51343C14.8267 5.51344 15.3394 5.55304 15.7195 5.59155C15.9101 5.61087 16.0693 5.62969 16.1814 5.64429C16.2375 5.6516 16.2825 5.65751 16.3132 5.66187C16.3284 5.66402 16.3401 5.66651 16.3484 5.66772C16.3524 5.66832 16.3559 5.66836 16.3582 5.6687C16.3593 5.66887 16.3604 5.66958 16.3611 5.66968H16.3621L16.7869 5.73413V8.81909Z" stroke="black" stroke-opacity="0.2"/>
<path d="M16.7869 8.81909H15.199C14.77 8.81914 14.5643 8.9516 14.4558 9.07983C14.3345 9.22326 14.2654 9.44389 14.2654 9.72144V10.8757H16.7712L16.6824 11.4519L16.2869 14.0076L16.2214 14.4314H14.2654V20.6423L13.821 20.6921C13.3786 20.742 12.907 20.7956 12.3806 20.7957C11.8543 20.7957 11.3825 20.7419 10.9402 20.6921L10.4958 20.6423V14.4812H8.27026V10.9255H10.4958V9.47144C10.4958 8.24483 10.8608 7.24115 11.5564 6.5437C12.2515 5.84687 13.219 5.51343 14.3093 5.51343C14.8267 5.51344 15.3394 5.55304 15.7195 5.59155C15.9101 5.61087 16.0693 5.62969 16.1814 5.64429C16.2375 5.6516 16.2825 5.65751 16.3132 5.66187C16.3284 5.66402 16.3401 5.66651 16.3484 5.66772C16.3524 5.66832 16.3559 5.66836 16.3582 5.6687C16.3593 5.66887 16.3604 5.66958 16.3611 5.66968H16.3621L16.7869 5.73413V8.81909Z" stroke="black" stroke-opacity="0.2"/>
<path d="M16.7869 8.81909H15.199C14.77 8.81914 14.5643 8.9516 14.4558 9.07983C14.3345 9.22326 14.2654 9.44389 14.2654 9.72144V10.8757H16.7712L16.6824 11.4519L16.2869 14.0076L16.2214 14.4314H14.2654V20.6423L13.821 20.6921C13.3786 20.742 12.907 20.7956 12.3806 20.7957C11.8543 20.7957 11.3825 20.7419 10.9402 20.6921L10.4958 20.6423V14.4812H8.27026V10.9255H10.4958V9.47144C10.4958 8.24483 10.8608 7.24115 11.5564 6.5437C12.2515 5.84687 13.219 5.51343 14.3093 5.51343C14.8267 5.51344 15.3394 5.55304 15.7195 5.59155C15.9101 5.61087 16.0693 5.62969 16.1814 5.64429C16.2375 5.6516 16.2825 5.65751 16.3132 5.66187C16.3284 5.66402 16.3401 5.66651 16.3484 5.66772C16.3524 5.66832 16.3559 5.66836 16.3582 5.6687C16.3593 5.66887 16.3604 5.66958 16.3611 5.66968H16.3621L16.7869 5.73413V8.81909Z" stroke="black" stroke-opacity="0.2"/>
<path d="M16.7869 8.81909H15.199C14.77 8.81914 14.5643 8.9516 14.4558 9.07983C14.3345 9.22326 14.2654 9.44389 14.2654 9.72144V10.8757H16.7712L16.6824 11.4519L16.2869 14.0076L16.2214 14.4314H14.2654V20.6423L13.821 20.6921C13.3786 20.742 12.907 20.7956 12.3806 20.7957C11.8543 20.7957 11.3825 20.7419 10.9402 20.6921L10.4958 20.6423V14.4812H8.27026V10.9255H10.4958V9.47144C10.4958 8.24483 10.8608 7.24115 11.5564 6.5437C12.2515 5.84687 13.219 5.51343 14.3093 5.51343C14.8267 5.51344 15.3394 5.55304 15.7195 5.59155C15.9101 5.61087 16.0693 5.62969 16.1814 5.64429C16.2375 5.6516 16.2825 5.65751 16.3132 5.66187C16.3284 5.66402 16.3401 5.66651 16.3484 5.66772C16.3524 5.66832 16.3559 5.66836 16.3582 5.6687C16.3593 5.66887 16.3604 5.66958 16.3611 5.66968H16.3621L16.7869 5.73413V8.81909Z" stroke="black" stroke-opacity="0.2"/>
<path d="M16.7869 8.81909H15.199C14.77 8.81914 14.5643 8.9516 14.4558 9.07983C14.3345 9.22326 14.2654 9.44389 14.2654 9.72144V10.8757H16.7712L16.6824 11.4519L16.2869 14.0076L16.2214 14.4314H14.2654V20.6423L13.821 20.6921C13.3786 20.742 12.907 20.7956 12.3806 20.7957C11.8543 20.7957 11.3825 20.7419 10.9402 20.6921L10.4958 20.6423V14.4812H8.27026V10.9255H10.4958V9.47144C10.4958 8.24483 10.8608 7.24115 11.5564 6.5437C12.2515 5.84687 13.219 5.51343 14.3093 5.51343C14.8267 5.51344 15.3394 5.55304 15.7195 5.59155C15.9101 5.61087 16.0693 5.62969 16.1814 5.64429C16.2375 5.6516 16.2825 5.65751 16.3132 5.66187C16.3284 5.66402 16.3401 5.66651 16.3484 5.66772C16.3524 5.66832 16.3559 5.66836 16.3582 5.6687C16.3593 5.66887 16.3604 5.66958 16.3611 5.66968H16.3621L16.7869 5.73413V8.81909Z" stroke="black" stroke-opacity="0.2"/>
<path d="M16.7869 8.81909H15.199C14.77 8.81914 14.5643 8.9516 14.4558 9.07983C14.3345 9.22326 14.2654 9.44389 14.2654 9.72144V10.8757H16.7712L16.6824 11.4519L16.2869 14.0076L16.2214 14.4314H14.2654V20.6423L13.821 20.6921C13.3786 20.742 12.907 20.7956 12.3806 20.7957C11.8543 20.7957 11.3825 20.7419 10.9402 20.6921L10.4958 20.6423V14.4812H8.27026V10.9255H10.4958V9.47144C10.4958 8.24483 10.8608 7.24115 11.5564 6.5437C12.2515 5.84687 13.219 5.51343 14.3093 5.51343C14.8267 5.51344 15.3394 5.55304 15.7195 5.59155C15.9101 5.61087 16.0693 5.62969 16.1814 5.64429C16.2375 5.6516 16.2825 5.65751 16.3132 5.66187C16.3284 5.66402 16.3401 5.66651 16.3484 5.66772C16.3524 5.66832 16.3559 5.66836 16.3582 5.6687C16.3593 5.66887 16.3604 5.66958 16.3611 5.66968H16.3621L16.7869 5.73413V8.81909Z" stroke="black" stroke-opacity="0.2"/>
<path d="M16.7869 8.81909H15.199C14.77 8.81914 14.5643 8.9516 14.4558 9.07983C14.3345 9.22326 14.2654 9.44389 14.2654 9.72144V10.8757H16.7712L16.6824 11.4519L16.2869 14.0076L16.2214 14.4314H14.2654V20.6423L13.821 20.6921C13.3786 20.742 12.907 20.7956 12.3806 20.7957C11.8543 20.7957 11.3825 20.7419 10.9402 20.6921L10.4958 20.6423V14.4812H8.27026V10.9255H10.4958V9.47144C10.4958 8.24483 10.8608 7.24115 11.5564 6.5437C12.2515 5.84687 13.219 5.51343 14.3093 5.51343C14.8267 5.51344 15.3394 5.55304 15.7195 5.59155C15.9101 5.61087 16.0693 5.62969 16.1814 5.64429C16.2375 5.6516 16.2825 5.65751 16.3132 5.66187C16.3284 5.66402 16.3401 5.66651 16.3484 5.66772C16.3524 5.66832 16.3559 5.66836 16.3582 5.6687C16.3593 5.66887 16.3604 5.66958 16.3611 5.66968H16.3621L16.7869 5.73413V8.81909Z" stroke="black" stroke-opacity="0.2"/>
<path d="M16.7869 8.81909H15.199C14.77 8.81914 14.5643 8.9516 14.4558 9.07983C14.3345 9.22326 14.2654 9.44389 14.2654 9.72144V10.8757H16.7712L16.6824 11.4519L16.2869 14.0076L16.2214 14.4314H14.2654V20.6423L13.821 20.6921C13.3786 20.742 12.907 20.7956 12.3806 20.7957C11.8543 20.7957 11.3825 20.7419 10.9402 20.6921L10.4958 20.6423V14.4812H8.27026V10.9255H10.4958V9.47144C10.4958 8.24483 10.8608 7.24115 11.5564 6.5437C12.2515 5.84687 13.219 5.51343 14.3093 5.51343C14.8267 5.51344 15.3394 5.55304 15.7195 5.59155C15.9101 5.61087 16.0693 5.62969 16.1814 5.64429C16.2375 5.6516 16.2825 5.65751 16.3132 5.66187C16.3284 5.66402 16.3401 5.66651 16.3484 5.66772C16.3524 5.66832 16.3559 5.66836 16.3582 5.6687C16.3593 5.66887 16.3604 5.66958 16.3611 5.66968H16.3621L16.7869 5.73413V8.81909Z" stroke="black" stroke-opacity="0.2"/>
<path d="M16.7869 8.81909H15.199C14.77 8.81914 14.5643 8.9516 14.4558 9.07983C14.3345 9.22326 14.2654 9.44389 14.2654 9.72144V10.8757H16.7712L16.6824 11.4519L16.2869 14.0076L16.2214 14.4314H14.2654V20.6423L13.821 20.6921C13.3786 20.742 12.907 20.7956 12.3806 20.7957C11.8543 20.7957 11.3825 20.7419 10.9402 20.6921L10.4958 20.6423V14.4812H8.27026V10.9255H10.4958V9.47144C10.4958 8.24483 10.8608 7.24115 11.5564 6.5437C12.2515 5.84687 13.219 5.51343 14.3093 5.51343C14.8267 5.51344 15.3394 5.55304 15.7195 5.59155C15.9101 5.61087 16.0693 5.62969 16.1814 5.64429C16.2375 5.6516 16.2825 5.65751 16.3132 5.66187C16.3284 5.66402 16.3401 5.66651 16.3484 5.66772C16.3524 5.66832 16.3559 5.66836 16.3582 5.6687C16.3593 5.66887 16.3604 5.66958 16.3611 5.66968H16.3621L16.7869 5.73413V8.81909Z" stroke="black" stroke-opacity="0.2"/>
<path d="M16.7869 8.81909H15.199C14.77 8.81914 14.5643 8.9516 14.4558 9.07983C14.3345 9.22326 14.2654 9.44389 14.2654 9.72144V10.8757H16.7712L16.6824 11.4519L16.2869 14.0076L16.2214 14.4314H14.2654V20.6423L13.821 20.6921C13.3786 20.742 12.907 20.7956 12.3806 20.7957C11.8543 20.7957 11.3825 20.7419 10.9402 20.6921L10.4958 20.6423V14.4812H8.27026V10.9255H10.4958V9.47144C10.4958 8.24483 10.8608 7.24115 11.5564 6.5437C12.2515 5.84687 13.219 5.51343 14.3093 5.51343C14.8267 5.51344 15.3394 5.55304 15.7195 5.59155C15.9101 5.61087 16.0693 5.62969 16.1814 5.64429C16.2375 5.6516 16.2825 5.65751 16.3132 5.66187C16.3284 5.66402 16.3401 5.66651 16.3484 5.66772C16.3524 5.66832 16.3559 5.66836 16.3582 5.6687C16.3593 5.66887 16.3604 5.66958 16.3611 5.66968H16.3621L16.7869 5.73413V8.81909Z" stroke="black" stroke-opacity="0.2"/>
</svg>
