<svg width="26" height="25" viewBox="0 0 26 25" fill="none" xmlns="http://www.w3.org/2000/svg">
<path d="M13 0.5C19.6274 0.500001 25 5.87259 25 12.5C25 19.1274 19.6274 24.5 13 24.5C6.37258 24.5 1 19.1274 1 12.5C1 5.87258 6.37258 0.5 13 0.5Z" stroke="#2E2E2E"/>
<path d="M13 0.5C19.6274 0.500001 25 5.87259 25 12.5C25 19.1274 19.6274 24.5 13 24.5C6.37258 24.5 1 19.1274 1 12.5C1 5.87258 6.37258 0.5 13 0.5Z" stroke="black" stroke-opacity="0.2"/>
<path d="M13 0.5C19.6274 0.500001 25 5.87259 25 12.5C25 19.1274 19.6274 24.5 13 24.5C6.37258 24.5 1 19.1274 1 12.5C1 5.87258 6.37258 0.5 13 0.5Z" stroke="black" stroke-opacity="0.2"/>
<path d="M13 0.5C19.6274 0.500001 25 5.87259 25 12.5C25 19.1274 19.6274 24.5 13 24.5C6.37258 24.5 1 19.1274 1 12.5C1 5.87258 6.37258 0.5 13 0.5Z" stroke="black" stroke-opacity="0.2"/>
<path d="M13 0.5C19.6274 0.500001 25 5.87259 25 12.5C25 19.1274 19.6274 24.5 13 24.5C6.37258 24.5 1 19.1274 1 12.5C1 5.87258 6.37258 0.5 13 0.5Z" stroke="black" stroke-opacity="0.2"/>
<path d="M13 0.5C19.6274 0.500001 25 5.87259 25 12.5C25 19.1274 19.6274 24.5 13 24.5C6.37258 24.5 1 19.1274 1 12.5C1 5.87258 6.37258 0.5 13 0.5Z" stroke="black" stroke-opacity="0.2"/>
<path d="M13 0.5C19.6274 0.500001 25 5.87259 25 12.5C25 19.1274 19.6274 24.5 13 24.5C6.37258 24.5 1 19.1274 1 12.5C1 5.87258 6.37258 0.5 13 0.5Z" stroke="black" stroke-opacity="0.2"/>
<path d="M13 0.5C19.6274 0.500001 25 5.87259 25 12.5C25 19.1274 19.6274 24.5 13 24.5C6.37258 24.5 1 19.1274 1 12.5C1 5.87258 6.37258 0.5 13 0.5Z" stroke="black" stroke-opacity="0.2"/>
<path d="M13 0.5C19.6274 0.500001 25 5.87259 25 12.5C25 19.1274 19.6274 24.5 13 24.5C6.37258 24.5 1 19.1274 1 12.5C1 5.87258 6.37258 0.5 13 0.5Z" stroke="black" stroke-opacity="0.2"/>
<path d="M13 0.5C19.6274 0.500001 25 5.87259 25 12.5C25 19.1274 19.6274 24.5 13 24.5C6.37258 24.5 1 19.1274 1 12.5C1 5.87258 6.37258 0.5 13 0.5Z" stroke="black" stroke-opacity="0.2"/>
<path d="M13 0.5C19.6274 0.500001 25 5.87259 25 12.5C25 19.1274 19.6274 24.5 13 24.5C6.37258 24.5 1 19.1274 1 12.5C1 5.87258 6.37258 0.5 13 0.5Z" stroke="black" stroke-opacity="0.2"/>
<path d="M13 0.5C19.6274 0.500001 25 5.87259 25 12.5C25 19.1274 19.6274 24.5 13 24.5C6.37258 24.5 1 19.1274 1 12.5C1 5.87258 6.37258 0.5 13 0.5Z" stroke="black" stroke-opacity="0.2"/>
<path d="M13 0.5C19.6274 0.500001 25 5.87259 25 12.5C25 19.1274 19.6274 24.5 13 24.5C6.37258 24.5 1 19.1274 1 12.5C1 5.87258 6.37258 0.5 13 0.5Z" stroke="black" stroke-opacity="0.2"/>
<path d="M13 0.5C19.6274 0.500001 25 5.87259 25 12.5C25 19.1274 19.6274 24.5 13 24.5C6.37258 24.5 1 19.1274 1 12.5C1 5.87258 6.37258 0.5 13 0.5Z" stroke="black" stroke-opacity="0.2"/>
<path d="M15.7469 8.99509H16.5988M10.2094 6.43933H15.3209C17.2029 6.43933 18.7286 7.965 18.7286 9.847V14.9585C18.7286 16.8405 17.2029 18.3662 15.3209 18.3662H10.2094C8.32743 18.3662 6.80176 16.8405 6.80176 14.9585V9.847C6.80176 7.965 8.32743 6.43933 10.2094 6.43933ZM12.7652 14.9585C11.3537 14.9585 10.2094 13.8143 10.2094 12.4028C10.2094 10.9913 11.3537 9.847 12.7652 9.847C14.1767 9.847 15.3209 10.9913 15.3209 12.4028C15.3209 13.8143 14.1767 14.9585 12.7652 14.9585Z" stroke="#2E2E2E"/>
<path d="M15.7469 8.99509H16.5988M10.2094 6.43933H15.3209C17.2029 6.43933 18.7286 7.965 18.7286 9.847V14.9585C18.7286 16.8405 17.2029 18.3662 15.3209 18.3662H10.2094C8.32743 18.3662 6.80176 16.8405 6.80176 14.9585V9.847C6.80176 7.965 8.32743 6.43933 10.2094 6.43933ZM12.7652 14.9585C11.3537 14.9585 10.2094 13.8143 10.2094 12.4028C10.2094 10.9913 11.3537 9.847 12.7652 9.847C14.1767 9.847 15.3209 10.9913 15.3209 12.4028C15.3209 13.8143 14.1767 14.9585 12.7652 14.9585Z" stroke="black" stroke-opacity="0.2"/>
<path d="M15.7469 8.99509H16.5988M10.2094 6.43933H15.3209C17.2029 6.43933 18.7286 7.965 18.7286 9.847V14.9585C18.7286 16.8405 17.2029 18.3662 15.3209 18.3662H10.2094C8.32743 18.3662 6.80176 16.8405 6.80176 14.9585V9.847C6.80176 7.965 8.32743 6.43933 10.2094 6.43933ZM12.7652 14.9585C11.3537 14.9585 10.2094 13.8143 10.2094 12.4028C10.2094 10.9913 11.3537 9.847 12.7652 9.847C14.1767 9.847 15.3209 10.9913 15.3209 12.4028C15.3209 13.8143 14.1767 14.9585 12.7652 14.9585Z" stroke="black" stroke-opacity="0.2"/>
<path d="M15.7469 8.99509H16.5988M10.2094 6.43933H15.3209C17.2029 6.43933 18.7286 7.965 18.7286 9.847V14.9585C18.7286 16.8405 17.2029 18.3662 15.3209 18.3662H10.2094C8.32743 18.3662 6.80176 16.8405 6.80176 14.9585V9.847C6.80176 7.965 8.32743 6.43933 10.2094 6.43933ZM12.7652 14.9585C11.3537 14.9585 10.2094 13.8143 10.2094 12.4028C10.2094 10.9913 11.3537 9.847 12.7652 9.847C14.1767 9.847 15.3209 10.9913 15.3209 12.4028C15.3209 13.8143 14.1767 14.9585 12.7652 14.9585Z" stroke="black" stroke-opacity="0.2"/>
<path d="M15.7469 8.99509H16.5988M10.2094 6.43933H15.3209C17.2029 6.43933 18.7286 7.965 18.7286 9.847V14.9585C18.7286 16.8405 17.2029 18.3662 15.3209 18.3662H10.2094C8.32743 18.3662 6.80176 16.8405 6.80176 14.9585V9.847C6.80176 7.965 8.32743 6.43933 10.2094 6.43933ZM12.7652 14.9585C11.3537 14.9585 10.2094 13.8143 10.2094 12.4028C10.2094 10.9913 11.3537 9.847 12.7652 9.847C14.1767 9.847 15.3209 10.9913 15.3209 12.4028C15.3209 13.8143 14.1767 14.9585 12.7652 14.9585Z" stroke="black" stroke-opacity="0.2"/>
<path d="M15.7469 8.99509H16.5988M10.2094 6.43933H15.3209C17.2029 6.43933 18.7286 7.965 18.7286 9.847V14.9585C18.7286 16.8405 17.2029 18.3662 15.3209 18.3662H10.2094C8.32743 18.3662 6.80176 16.8405 6.80176 14.9585V9.847C6.80176 7.965 8.32743 6.43933 10.2094 6.43933ZM12.7652 14.9585C11.3537 14.9585 10.2094 13.8143 10.2094 12.4028C10.2094 10.9913 11.3537 9.847 12.7652 9.847C14.1767 9.847 15.3209 10.9913 15.3209 12.4028C15.3209 13.8143 14.1767 14.9585 12.7652 14.9585Z" stroke="black" stroke-opacity="0.2"/>
<path d="M15.7469 8.99509H16.5988M10.2094 6.43933H15.3209C17.2029 6.43933 18.7286 7.965 18.7286 9.847V14.9585C18.7286 16.8405 17.2029 18.3662 15.3209 18.3662H10.2094C8.32743 18.3662 6.80176 16.8405 6.80176 14.9585V9.847C6.80176 7.965 8.32743 6.43933 10.2094 6.43933ZM12.7652 14.9585C11.3537 14.9585 10.2094 13.8143 10.2094 12.4028C10.2094 10.9913 11.3537 9.847 12.7652 9.847C14.1767 9.847 15.3209 10.9913 15.3209 12.4028C15.3209 13.8143 14.1767 14.9585 12.7652 14.9585Z" stroke="black" stroke-opacity="0.2"/>
<path d="M15.7469 8.99509H16.5988M10.2094 6.43933H15.3209C17.2029 6.43933 18.7286 7.965 18.7286 9.847V14.9585C18.7286 16.8405 17.2029 18.3662 15.3209 18.3662H10.2094C8.32743 18.3662 6.80176 16.8405 6.80176 14.9585V9.847C6.80176 7.965 8.32743 6.43933 10.2094 6.43933ZM12.7652 14.9585C11.3537 14.9585 10.2094 13.8143 10.2094 12.4028C10.2094 10.9913 11.3537 9.847 12.7652 9.847C14.1767 9.847 15.3209 10.9913 15.3209 12.4028C15.3209 13.8143 14.1767 14.9585 12.7652 14.9585Z" stroke="black" stroke-opacity="0.2"/>
<path d="M15.7469 8.99509H16.5988M10.2094 6.43933H15.3209C17.2029 6.43933 18.7286 7.965 18.7286 9.847V14.9585C18.7286 16.8405 17.2029 18.3662 15.3209 18.3662H10.2094C8.32743 18.3662 6.80176 16.8405 6.80176 14.9585V9.847C6.80176 7.965 8.32743 6.43933 10.2094 6.43933ZM12.7652 14.9585C11.3537 14.9585 10.2094 13.8143 10.2094 12.4028C10.2094 10.9913 11.3537 9.847 12.7652 9.847C14.1767 9.847 15.3209 10.9913 15.3209 12.4028C15.3209 13.8143 14.1767 14.9585 12.7652 14.9585Z" stroke="black" stroke-opacity="0.2"/>
<path d="M15.7469 8.99509H16.5988M10.2094 6.43933H15.3209C17.2029 6.43933 18.7286 7.965 18.7286 9.847V14.9585C18.7286 16.8405 17.2029 18.3662 15.3209 18.3662H10.2094C8.32743 18.3662 6.80176 16.8405 6.80176 14.9585V9.847C6.80176 7.965 8.32743 6.43933 10.2094 6.43933ZM12.7652 14.9585C11.3537 14.9585 10.2094 13.8143 10.2094 12.4028C10.2094 10.9913 11.3537 9.847 12.7652 9.847C14.1767 9.847 15.3209 10.9913 15.3209 12.4028C15.3209 13.8143 14.1767 14.9585 12.7652 14.9585Z" stroke="black" stroke-opacity="0.2"/>
<path d="M15.7469 8.99509H16.5988M10.2094 6.43933H15.3209C17.2029 6.43933 18.7286 7.965 18.7286 9.847V14.9585C18.7286 16.8405 17.2029 18.3662 15.3209 18.3662H10.2094C8.32743 18.3662 6.80176 16.8405 6.80176 14.9585V9.847C6.80176 7.965 8.32743 6.43933 10.2094 6.43933ZM12.7652 14.9585C11.3537 14.9585 10.2094 13.8143 10.2094 12.4028C10.2094 10.9913 11.3537 9.847 12.7652 9.847C14.1767 9.847 15.3209 10.9913 15.3209 12.4028C15.3209 13.8143 14.1767 14.9585 12.7652 14.9585Z" stroke="black" stroke-opacity="0.2"/>
<path d="M15.7469 8.99509H16.5988M10.2094 6.43933H15.3209C17.2029 6.43933 18.7286 7.965 18.7286 9.847V14.9585C18.7286 16.8405 17.2029 18.3662 15.3209 18.3662H10.2094C8.32743 18.3662 6.80176 16.8405 6.80176 14.9585V9.847C6.80176 7.965 8.32743 6.43933 10.2094 6.43933ZM12.7652 14.9585C11.3537 14.9585 10.2094 13.8143 10.2094 12.4028C10.2094 10.9913 11.3537 9.847 12.7652 9.847C14.1767 9.847 15.3209 10.9913 15.3209 12.4028C15.3209 13.8143 14.1767 14.9585 12.7652 14.9585Z" stroke="black" stroke-opacity="0.2"/>
<path d="M15.7469 8.99509H16.5988M10.2094 6.43933H15.3209C17.2029 6.43933 18.7286 7.965 18.7286 9.847V14.9585C18.7286 16.8405 17.2029 18.3662 15.3209 18.3662H10.2094C8.32743 18.3662 6.80176 16.8405 6.80176 14.9585V9.847C6.80176 7.965 8.32743 6.43933 10.2094 6.43933ZM12.7652 14.9585C11.3537 14.9585 10.2094 13.8143 10.2094 12.4028C10.2094 10.9913 11.3537 9.847 12.7652 9.847C14.1767 9.847 15.3209 10.9913 15.3209 12.4028C15.3209 13.8143 14.1767 14.9585 12.7652 14.9585Z" stroke="black" stroke-opacity="0.2"/>
<path d="M15.7469 8.99509H16.5988M10.2094 6.43933H15.3209C17.2029 6.43933 18.7286 7.965 18.7286 9.847V14.9585C18.7286 16.8405 17.2029 18.3662 15.3209 18.3662H10.2094C8.32743 18.3662 6.80176 16.8405 6.80176 14.9585V9.847C6.80176 7.965 8.32743 6.43933 10.2094 6.43933ZM12.7652 14.9585C11.3537 14.9585 10.2094 13.8143 10.2094 12.4028C10.2094 10.9913 11.3537 9.847 12.7652 9.847C14.1767 9.847 15.3209 10.9913 15.3209 12.4028C15.3209 13.8143 14.1767 14.9585 12.7652 14.9585Z" stroke="black" stroke-opacity="0.2"/>
</svg>
