<svg width="26" height="25" viewBox="0 0 26 25" fill="none" xmlns="http://www.w3.org/2000/svg">
<path d="M13 0.5C19.6274 0.500001 25 5.87259 25 12.5C25 19.1274 19.6274 24.5 13 24.5C6.37258 24.5 1 19.1274 1 12.5C1 5.87258 6.37258 0.5 13 0.5Z" stroke="#2E2E2E"/>
<path d="M13 0.5C19.6274 0.500001 25 5.87259 25 12.5C25 19.1274 19.6274 24.5 13 24.5C6.37258 24.5 1 19.1274 1 12.5C1 5.87258 6.37258 0.5 13 0.5Z" stroke="black" stroke-opacity="0.2"/>
<path d="M13 0.5C19.6274 0.500001 25 5.87259 25 12.5C25 19.1274 19.6274 24.5 13 24.5C6.37258 24.5 1 19.1274 1 12.5C1 5.87258 6.37258 0.5 13 0.5Z" stroke="black" stroke-opacity="0.2"/>
<path d="M13 0.5C19.6274 0.500001 25 5.87259 25 12.5C25 19.1274 19.6274 24.5 13 24.5C6.37258 24.5 1 19.1274 1 12.5C1 5.87258 6.37258 0.5 13 0.5Z" stroke="black" stroke-opacity="0.2"/>
<path d="M13 0.5C19.6274 0.500001 25 5.87259 25 12.5C25 19.1274 19.6274 24.5 13 24.5C6.37258 24.5 1 19.1274 1 12.5C1 5.87258 6.37258 0.5 13 0.5Z" stroke="black" stroke-opacity="0.2"/>
<path d="M13 0.5C19.6274 0.500001 25 5.87259 25 12.5C25 19.1274 19.6274 24.5 13 24.5C6.37258 24.5 1 19.1274 1 12.5C1 5.87258 6.37258 0.5 13 0.5Z" stroke="black" stroke-opacity="0.2"/>
<path d="M13 0.5C19.6274 0.500001 25 5.87259 25 12.5C25 19.1274 19.6274 24.5 13 24.5C6.37258 24.5 1 19.1274 1 12.5C1 5.87258 6.37258 0.5 13 0.5Z" stroke="black" stroke-opacity="0.2"/>
<path d="M13 0.5C19.6274 0.500001 25 5.87259 25 12.5C25 19.1274 19.6274 24.5 13 24.5C6.37258 24.5 1 19.1274 1 12.5C1 5.87258 6.37258 0.5 13 0.5Z" stroke="black" stroke-opacity="0.2"/>
<path d="M13 0.5C19.6274 0.500001 25 5.87259 25 12.5C25 19.1274 19.6274 24.5 13 24.5C6.37258 24.5 1 19.1274 1 12.5C1 5.87258 6.37258 0.5 13 0.5Z" stroke="black" stroke-opacity="0.2"/>
<path d="M13 0.5C19.6274 0.500001 25 5.87259 25 12.5C25 19.1274 19.6274 24.5 13 24.5C6.37258 24.5 1 19.1274 1 12.5C1 5.87258 6.37258 0.5 13 0.5Z" stroke="black" stroke-opacity="0.2"/>
<path d="M13 0.5C19.6274 0.500001 25 5.87259 25 12.5C25 19.1274 19.6274 24.5 13 24.5C6.37258 24.5 1 19.1274 1 12.5C1 5.87258 6.37258 0.5 13 0.5Z" stroke="black" stroke-opacity="0.2"/>
<path d="M13 0.5C19.6274 0.500001 25 5.87259 25 12.5C25 19.1274 19.6274 24.5 13 24.5C6.37258 24.5 1 19.1274 1 12.5C1 5.87258 6.37258 0.5 13 0.5Z" stroke="black" stroke-opacity="0.2"/>
<path d="M13 0.5C19.6274 0.500001 25 5.87259 25 12.5C25 19.1274 19.6274 24.5 13 24.5C6.37258 24.5 1 19.1274 1 12.5C1 5.87258 6.37258 0.5 13 0.5Z" stroke="black" stroke-opacity="0.2"/>
<path d="M13 0.5C19.6274 0.500001 25 5.87259 25 12.5C25 19.1274 19.6274 24.5 13 24.5C6.37258 24.5 1 19.1274 1 12.5C1 5.87258 6.37258 0.5 13 0.5Z" stroke="black" stroke-opacity="0.2"/>
<path fill-rule="evenodd" clip-rule="evenodd" d="M15.3997 10.4765C15.0263 10.7197 14.8353 11.0004 14.7855 11.1726C14.7363 11.3424 14.5768 11.4487 14.4104 11.4225C14.244 11.3963 14.1209 11.2455 14.1209 11.068V10.1354H12.0448C12.0545 10.8997 12.0537 12.5602 12.05 14.1473C12.0478 15.1329 12.0444 16.0969 12.0416 16.8146C12.0403 17.1538 12.0391 17.438 12.0382 17.6434H14.1209V13.5511C14.1209 13.5258 14.1207 13.4987 14.1206 13.4706C14.12 13.3754 14.1193 13.2676 14.1246 13.1685C14.1314 13.0395 14.1492 12.8859 14.207 12.7408C14.4271 12.1685 14.9323 11.513 15.853 11.513C16.4289 11.513 16.8846 11.7475 17.1843 12.1785C17.4721 12.5923 17.588 13.1467 17.588 13.745V17.6434H19.6981V13.4286C19.6981 12.2222 19.374 11.388 18.888 10.8569C18.4023 10.3262 17.7169 10.0569 16.9157 10.0569C16.2737 10.0569 15.7627 10.2401 15.3997 10.4765ZM11.6969 18.0018C11.3572 18 11.3572 18 11.3572 17.9999L11.3587 17.6749C11.3596 17.4674 11.3608 17.1703 11.3622 16.8116C11.365 16.0942 11.3684 15.1306 11.3707 14.1456C11.3752 12.1655 11.375 10.126 11.3577 9.79678C11.3525 9.69842 11.386 9.60217 11.4501 9.53061C11.5143 9.45906 11.6035 9.41853 11.6969 9.41853H14.4606C14.6482 9.41853 14.8003 9.57901 14.8003 9.77697V10.0434C14.8763 9.98138 14.9574 9.92214 15.0429 9.86647C15.5145 9.55925 16.1494 9.33997 16.9157 9.33997C17.8628 9.33997 18.7385 9.66162 19.3767 10.3589C20.0147 11.056 20.3775 12.0869 20.3775 13.4286V18.0018C20.3775 18.1998 20.2254 18.3603 20.0378 18.3603H17.2483C17.0607 18.3603 16.9086 18.1998 16.9086 18.0018V13.745C16.9086 13.2294 16.8066 12.847 16.6366 12.6026C16.4785 12.3753 16.2366 12.2299 15.853 12.2299C15.3066 12.2299 14.9944 12.5983 14.8358 13.0122L14.8335 13.018C14.8204 13.0507 14.8082 13.1084 14.8029 13.2085C14.799 13.2833 14.7994 13.3595 14.7999 13.4489C14.8001 13.4811 14.8003 13.515 14.8003 13.5511V18.0018C14.8003 18.1998 14.6482 18.3603 14.4606 18.3603H11.6969C11.6065 18.3603 11.5198 18.3223 11.4561 18.2547C11.3923 18.187 11.3567 18.0953 11.3572 17.9999L11.6969 18.0018Z" fill="#2E2E2E"/>
<path fill-rule="evenodd" clip-rule="evenodd" d="M15.3997 10.4765C15.0263 10.7197 14.8353 11.0004 14.7855 11.1726C14.7363 11.3424 14.5768 11.4487 14.4104 11.4225C14.244 11.3963 14.1209 11.2455 14.1209 11.068V10.1354H12.0448C12.0545 10.8997 12.0537 12.5602 12.05 14.1473C12.0478 15.1329 12.0444 16.0969 12.0416 16.8146C12.0403 17.1538 12.0391 17.438 12.0382 17.6434H14.1209V13.5511C14.1209 13.5258 14.1207 13.4987 14.1206 13.4706C14.12 13.3754 14.1193 13.2676 14.1246 13.1685C14.1314 13.0395 14.1492 12.8859 14.207 12.7408C14.4271 12.1685 14.9323 11.513 15.853 11.513C16.4289 11.513 16.8846 11.7475 17.1843 12.1785C17.4721 12.5923 17.588 13.1467 17.588 13.745V17.6434H19.6981V13.4286C19.6981 12.2222 19.374 11.388 18.888 10.8569C18.4023 10.3262 17.7169 10.0569 16.9157 10.0569C16.2737 10.0569 15.7627 10.2401 15.3997 10.4765ZM11.6969 18.0018C11.3572 18 11.3572 18 11.3572 17.9999L11.3587 17.6749C11.3596 17.4674 11.3608 17.1703 11.3622 16.8116C11.365 16.0942 11.3684 15.1306 11.3707 14.1456C11.3752 12.1655 11.375 10.126 11.3577 9.79678C11.3525 9.69842 11.386 9.60217 11.4501 9.53061C11.5143 9.45906 11.6035 9.41853 11.6969 9.41853H14.4606C14.6482 9.41853 14.8003 9.57901 14.8003 9.77697V10.0434C14.8763 9.98138 14.9574 9.92214 15.0429 9.86647C15.5145 9.55925 16.1494 9.33997 16.9157 9.33997C17.8628 9.33997 18.7385 9.66162 19.3767 10.3589C20.0147 11.056 20.3775 12.0869 20.3775 13.4286V18.0018C20.3775 18.1998 20.2254 18.3603 20.0378 18.3603H17.2483C17.0607 18.3603 16.9086 18.1998 16.9086 18.0018V13.745C16.9086 13.2294 16.8066 12.847 16.6366 12.6026C16.4785 12.3753 16.2366 12.2299 15.853 12.2299C15.3066 12.2299 14.9944 12.5983 14.8358 13.0122L14.8335 13.018C14.8204 13.0507 14.8082 13.1084 14.8029 13.2085C14.799 13.2833 14.7994 13.3595 14.7999 13.4489C14.8001 13.4811 14.8003 13.515 14.8003 13.5511V18.0018C14.8003 18.1998 14.6482 18.3603 14.4606 18.3603H11.6969C11.6065 18.3603 11.5198 18.3223 11.4561 18.2547C11.3923 18.187 11.3567 18.0953 11.3572 17.9999L11.6969 18.0018Z" fill="black" fill-opacity="0.2"/>
<path fill-rule="evenodd" clip-rule="evenodd" d="M15.3997 10.4765C15.0263 10.7197 14.8353 11.0004 14.7855 11.1726C14.7363 11.3424 14.5768 11.4487 14.4104 11.4225C14.244 11.3963 14.1209 11.2455 14.1209 11.068V10.1354H12.0448C12.0545 10.8997 12.0537 12.5602 12.05 14.1473C12.0478 15.1329 12.0444 16.0969 12.0416 16.8146C12.0403 17.1538 12.0391 17.438 12.0382 17.6434H14.1209V13.5511C14.1209 13.5258 14.1207 13.4987 14.1206 13.4706C14.12 13.3754 14.1193 13.2676 14.1246 13.1685C14.1314 13.0395 14.1492 12.8859 14.207 12.7408C14.4271 12.1685 14.9323 11.513 15.853 11.513C16.4289 11.513 16.8846 11.7475 17.1843 12.1785C17.4721 12.5923 17.588 13.1467 17.588 13.745V17.6434H19.6981V13.4286C19.6981 12.2222 19.374 11.388 18.888 10.8569C18.4023 10.3262 17.7169 10.0569 16.9157 10.0569C16.2737 10.0569 15.7627 10.2401 15.3997 10.4765ZM11.6969 18.0018C11.3572 18 11.3572 18 11.3572 17.9999L11.3587 17.6749C11.3596 17.4674 11.3608 17.1703 11.3622 16.8116C11.365 16.0942 11.3684 15.1306 11.3707 14.1456C11.3752 12.1655 11.375 10.126 11.3577 9.79678C11.3525 9.69842 11.386 9.60217 11.4501 9.53061C11.5143 9.45906 11.6035 9.41853 11.6969 9.41853H14.4606C14.6482 9.41853 14.8003 9.57901 14.8003 9.77697V10.0434C14.8763 9.98138 14.9574 9.92214 15.0429 9.86647C15.5145 9.55925 16.1494 9.33997 16.9157 9.33997C17.8628 9.33997 18.7385 9.66162 19.3767 10.3589C20.0147 11.056 20.3775 12.0869 20.3775 13.4286V18.0018C20.3775 18.1998 20.2254 18.3603 20.0378 18.3603H17.2483C17.0607 18.3603 16.9086 18.1998 16.9086 18.0018V13.745C16.9086 13.2294 16.8066 12.847 16.6366 12.6026C16.4785 12.3753 16.2366 12.2299 15.853 12.2299C15.3066 12.2299 14.9944 12.5983 14.8358 13.0122L14.8335 13.018C14.8204 13.0507 14.8082 13.1084 14.8029 13.2085C14.799 13.2833 14.7994 13.3595 14.7999 13.4489C14.8001 13.4811 14.8003 13.515 14.8003 13.5511V18.0018C14.8003 18.1998 14.6482 18.3603 14.4606 18.3603H11.6969C11.6065 18.3603 11.5198 18.3223 11.4561 18.2547C11.3923 18.187 11.3567 18.0953 11.3572 17.9999L11.6969 18.0018Z" fill="black" fill-opacity="0.2"/>
<path fill-rule="evenodd" clip-rule="evenodd" d="M15.3997 10.4765C15.0263 10.7197 14.8353 11.0004 14.7855 11.1726C14.7363 11.3424 14.5768 11.4487 14.4104 11.4225C14.244 11.3963 14.1209 11.2455 14.1209 11.068V10.1354H12.0448C12.0545 10.8997 12.0537 12.5602 12.05 14.1473C12.0478 15.1329 12.0444 16.0969 12.0416 16.8146C12.0403 17.1538 12.0391 17.438 12.0382 17.6434H14.1209V13.5511C14.1209 13.5258 14.1207 13.4987 14.1206 13.4706C14.12 13.3754 14.1193 13.2676 14.1246 13.1685C14.1314 13.0395 14.1492 12.8859 14.207 12.7408C14.4271 12.1685 14.9323 11.513 15.853 11.513C16.4289 11.513 16.8846 11.7475 17.1843 12.1785C17.4721 12.5923 17.588 13.1467 17.588 13.745V17.6434H19.6981V13.4286C19.6981 12.2222 19.374 11.388 18.888 10.8569C18.4023 10.3262 17.7169 10.0569 16.9157 10.0569C16.2737 10.0569 15.7627 10.2401 15.3997 10.4765ZM11.6969 18.0018C11.3572 18 11.3572 18 11.3572 17.9999L11.3587 17.6749C11.3596 17.4674 11.3608 17.1703 11.3622 16.8116C11.365 16.0942 11.3684 15.1306 11.3707 14.1456C11.3752 12.1655 11.375 10.126 11.3577 9.79678C11.3525 9.69842 11.386 9.60217 11.4501 9.53061C11.5143 9.45906 11.6035 9.41853 11.6969 9.41853H14.4606C14.6482 9.41853 14.8003 9.57901 14.8003 9.77697V10.0434C14.8763 9.98138 14.9574 9.92214 15.0429 9.86647C15.5145 9.55925 16.1494 9.33997 16.9157 9.33997C17.8628 9.33997 18.7385 9.66162 19.3767 10.3589C20.0147 11.056 20.3775 12.0869 20.3775 13.4286V18.0018C20.3775 18.1998 20.2254 18.3603 20.0378 18.3603H17.2483C17.0607 18.3603 16.9086 18.1998 16.9086 18.0018V13.745C16.9086 13.2294 16.8066 12.847 16.6366 12.6026C16.4785 12.3753 16.2366 12.2299 15.853 12.2299C15.3066 12.2299 14.9944 12.5983 14.8358 13.0122L14.8335 13.018C14.8204 13.0507 14.8082 13.1084 14.8029 13.2085C14.799 13.2833 14.7994 13.3595 14.7999 13.4489C14.8001 13.4811 14.8003 13.515 14.8003 13.5511V18.0018C14.8003 18.1998 14.6482 18.3603 14.4606 18.3603H11.6969C11.6065 18.3603 11.5198 18.3223 11.4561 18.2547C11.3923 18.187 11.3567 18.0953 11.3572 17.9999L11.6969 18.0018Z" fill="black" fill-opacity="0.2"/>
<path fill-rule="evenodd" clip-rule="evenodd" d="M15.3997 10.4765C15.0263 10.7197 14.8353 11.0004 14.7855 11.1726C14.7363 11.3424 14.5768 11.4487 14.4104 11.4225C14.244 11.3963 14.1209 11.2455 14.1209 11.068V10.1354H12.0448C12.0545 10.8997 12.0537 12.5602 12.05 14.1473C12.0478 15.1329 12.0444 16.0969 12.0416 16.8146C12.0403 17.1538 12.0391 17.438 12.0382 17.6434H14.1209V13.5511C14.1209 13.5258 14.1207 13.4987 14.1206 13.4706C14.12 13.3754 14.1193 13.2676 14.1246 13.1685C14.1314 13.0395 14.1492 12.8859 14.207 12.7408C14.4271 12.1685 14.9323 11.513 15.853 11.513C16.4289 11.513 16.8846 11.7475 17.1843 12.1785C17.4721 12.5923 17.588 13.1467 17.588 13.745V17.6434H19.6981V13.4286C19.6981 12.2222 19.374 11.388 18.888 10.8569C18.4023 10.3262 17.7169 10.0569 16.9157 10.0569C16.2737 10.0569 15.7627 10.2401 15.3997 10.4765ZM11.6969 18.0018C11.3572 18 11.3572 18 11.3572 17.9999L11.3587 17.6749C11.3596 17.4674 11.3608 17.1703 11.3622 16.8116C11.365 16.0942 11.3684 15.1306 11.3707 14.1456C11.3752 12.1655 11.375 10.126 11.3577 9.79678C11.3525 9.69842 11.386 9.60217 11.4501 9.53061C11.5143 9.45906 11.6035 9.41853 11.6969 9.41853H14.4606C14.6482 9.41853 14.8003 9.57901 14.8003 9.77697V10.0434C14.8763 9.98138 14.9574 9.92214 15.0429 9.86647C15.5145 9.55925 16.1494 9.33997 16.9157 9.33997C17.8628 9.33997 18.7385 9.66162 19.3767 10.3589C20.0147 11.056 20.3775 12.0869 20.3775 13.4286V18.0018C20.3775 18.1998 20.2254 18.3603 20.0378 18.3603H17.2483C17.0607 18.3603 16.9086 18.1998 16.9086 18.0018V13.745C16.9086 13.2294 16.8066 12.847 16.6366 12.6026C16.4785 12.3753 16.2366 12.2299 15.853 12.2299C15.3066 12.2299 14.9944 12.5983 14.8358 13.0122L14.8335 13.018C14.8204 13.0507 14.8082 13.1084 14.8029 13.2085C14.799 13.2833 14.7994 13.3595 14.7999 13.4489C14.8001 13.4811 14.8003 13.515 14.8003 13.5511V18.0018C14.8003 18.1998 14.6482 18.3603 14.4606 18.3603H11.6969C11.6065 18.3603 11.5198 18.3223 11.4561 18.2547C11.3923 18.187 11.3567 18.0953 11.3572 17.9999L11.6969 18.0018Z" fill="black" fill-opacity="0.2"/>
<path fill-rule="evenodd" clip-rule="evenodd" d="M15.3997 10.4765C15.0263 10.7197 14.8353 11.0004 14.7855 11.1726C14.7363 11.3424 14.5768 11.4487 14.4104 11.4225C14.244 11.3963 14.1209 11.2455 14.1209 11.068V10.1354H12.0448C12.0545 10.8997 12.0537 12.5602 12.05 14.1473C12.0478 15.1329 12.0444 16.0969 12.0416 16.8146C12.0403 17.1538 12.0391 17.438 12.0382 17.6434H14.1209V13.5511C14.1209 13.5258 14.1207 13.4987 14.1206 13.4706C14.12 13.3754 14.1193 13.2676 14.1246 13.1685C14.1314 13.0395 14.1492 12.8859 14.207 12.7408C14.4271 12.1685 14.9323 11.513 15.853 11.513C16.4289 11.513 16.8846 11.7475 17.1843 12.1785C17.4721 12.5923 17.588 13.1467 17.588 13.745V17.6434H19.6981V13.4286C19.6981 12.2222 19.374 11.388 18.888 10.8569C18.4023 10.3262 17.7169 10.0569 16.9157 10.0569C16.2737 10.0569 15.7627 10.2401 15.3997 10.4765ZM11.6969 18.0018C11.3572 18 11.3572 18 11.3572 17.9999L11.3587 17.6749C11.3596 17.4674 11.3608 17.1703 11.3622 16.8116C11.365 16.0942 11.3684 15.1306 11.3707 14.1456C11.3752 12.1655 11.375 10.126 11.3577 9.79678C11.3525 9.69842 11.386 9.60217 11.4501 9.53061C11.5143 9.45906 11.6035 9.41853 11.6969 9.41853H14.4606C14.6482 9.41853 14.8003 9.57901 14.8003 9.77697V10.0434C14.8763 9.98138 14.9574 9.92214 15.0429 9.86647C15.5145 9.55925 16.1494 9.33997 16.9157 9.33997C17.8628 9.33997 18.7385 9.66162 19.3767 10.3589C20.0147 11.056 20.3775 12.0869 20.3775 13.4286V18.0018C20.3775 18.1998 20.2254 18.3603 20.0378 18.3603H17.2483C17.0607 18.3603 16.9086 18.1998 16.9086 18.0018V13.745C16.9086 13.2294 16.8066 12.847 16.6366 12.6026C16.4785 12.3753 16.2366 12.2299 15.853 12.2299C15.3066 12.2299 14.9944 12.5983 14.8358 13.0122L14.8335 13.018C14.8204 13.0507 14.8082 13.1084 14.8029 13.2085C14.799 13.2833 14.7994 13.3595 14.7999 13.4489C14.8001 13.4811 14.8003 13.515 14.8003 13.5511V18.0018C14.8003 18.1998 14.6482 18.3603 14.4606 18.3603H11.6969C11.6065 18.3603 11.5198 18.3223 11.4561 18.2547C11.3923 18.187 11.3567 18.0953 11.3572 17.9999L11.6969 18.0018Z" fill="black" fill-opacity="0.2"/>
<path fill-rule="evenodd" clip-rule="evenodd" d="M15.3997 10.4765C15.0263 10.7197 14.8353 11.0004 14.7855 11.1726C14.7363 11.3424 14.5768 11.4487 14.4104 11.4225C14.244 11.3963 14.1209 11.2455 14.1209 11.068V10.1354H12.0448C12.0545 10.8997 12.0537 12.5602 12.05 14.1473C12.0478 15.1329 12.0444 16.0969 12.0416 16.8146C12.0403 17.1538 12.0391 17.438 12.0382 17.6434H14.1209V13.5511C14.1209 13.5258 14.1207 13.4987 14.1206 13.4706C14.12 13.3754 14.1193 13.2676 14.1246 13.1685C14.1314 13.0395 14.1492 12.8859 14.207 12.7408C14.4271 12.1685 14.9323 11.513 15.853 11.513C16.4289 11.513 16.8846 11.7475 17.1843 12.1785C17.4721 12.5923 17.588 13.1467 17.588 13.745V17.6434H19.6981V13.4286C19.6981 12.2222 19.374 11.388 18.888 10.8569C18.4023 10.3262 17.7169 10.0569 16.9157 10.0569C16.2737 10.0569 15.7627 10.2401 15.3997 10.4765ZM11.6969 18.0018C11.3572 18 11.3572 18 11.3572 17.9999L11.3587 17.6749C11.3596 17.4674 11.3608 17.1703 11.3622 16.8116C11.365 16.0942 11.3684 15.1306 11.3707 14.1456C11.3752 12.1655 11.375 10.126 11.3577 9.79678C11.3525 9.69842 11.386 9.60217 11.4501 9.53061C11.5143 9.45906 11.6035 9.41853 11.6969 9.41853H14.4606C14.6482 9.41853 14.8003 9.57901 14.8003 9.77697V10.0434C14.8763 9.98138 14.9574 9.92214 15.0429 9.86647C15.5145 9.55925 16.1494 9.33997 16.9157 9.33997C17.8628 9.33997 18.7385 9.66162 19.3767 10.3589C20.0147 11.056 20.3775 12.0869 20.3775 13.4286V18.0018C20.3775 18.1998 20.2254 18.3603 20.0378 18.3603H17.2483C17.0607 18.3603 16.9086 18.1998 16.9086 18.0018V13.745C16.9086 13.2294 16.8066 12.847 16.6366 12.6026C16.4785 12.3753 16.2366 12.2299 15.853 12.2299C15.3066 12.2299 14.9944 12.5983 14.8358 13.0122L14.8335 13.018C14.8204 13.0507 14.8082 13.1084 14.8029 13.2085C14.799 13.2833 14.7994 13.3595 14.7999 13.4489C14.8001 13.4811 14.8003 13.515 14.8003 13.5511V18.0018C14.8003 18.1998 14.6482 18.3603 14.4606 18.3603H11.6969C11.6065 18.3603 11.5198 18.3223 11.4561 18.2547C11.3923 18.187 11.3567 18.0953 11.3572 17.9999L11.6969 18.0018Z" fill="black" fill-opacity="0.2"/>
<path fill-rule="evenodd" clip-rule="evenodd" d="M15.3997 10.4765C15.0263 10.7197 14.8353 11.0004 14.7855 11.1726C14.7363 11.3424 14.5768 11.4487 14.4104 11.4225C14.244 11.3963 14.1209 11.2455 14.1209 11.068V10.1354H12.0448C12.0545 10.8997 12.0537 12.5602 12.05 14.1473C12.0478 15.1329 12.0444 16.0969 12.0416 16.8146C12.0403 17.1538 12.0391 17.438 12.0382 17.6434H14.1209V13.5511C14.1209 13.5258 14.1207 13.4987 14.1206 13.4706C14.12 13.3754 14.1193 13.2676 14.1246 13.1685C14.1314 13.0395 14.1492 12.8859 14.207 12.7408C14.4271 12.1685 14.9323 11.513 15.853 11.513C16.4289 11.513 16.8846 11.7475 17.1843 12.1785C17.4721 12.5923 17.588 13.1467 17.588 13.745V17.6434H19.6981V13.4286C19.6981 12.2222 19.374 11.388 18.888 10.8569C18.4023 10.3262 17.7169 10.0569 16.9157 10.0569C16.2737 10.0569 15.7627 10.2401 15.3997 10.4765ZM11.6969 18.0018C11.3572 18 11.3572 18 11.3572 17.9999L11.3587 17.6749C11.3596 17.4674 11.3608 17.1703 11.3622 16.8116C11.365 16.0942 11.3684 15.1306 11.3707 14.1456C11.3752 12.1655 11.375 10.126 11.3577 9.79678C11.3525 9.69842 11.386 9.60217 11.4501 9.53061C11.5143 9.45906 11.6035 9.41853 11.6969 9.41853H14.4606C14.6482 9.41853 14.8003 9.57901 14.8003 9.77697V10.0434C14.8763 9.98138 14.9574 9.92214 15.0429 9.86647C15.5145 9.55925 16.1494 9.33997 16.9157 9.33997C17.8628 9.33997 18.7385 9.66162 19.3767 10.3589C20.0147 11.056 20.3775 12.0869 20.3775 13.4286V18.0018C20.3775 18.1998 20.2254 18.3603 20.0378 18.3603H17.2483C17.0607 18.3603 16.9086 18.1998 16.9086 18.0018V13.745C16.9086 13.2294 16.8066 12.847 16.6366 12.6026C16.4785 12.3753 16.2366 12.2299 15.853 12.2299C15.3066 12.2299 14.9944 12.5983 14.8358 13.0122L14.8335 13.018C14.8204 13.0507 14.8082 13.1084 14.8029 13.2085C14.799 13.2833 14.7994 13.3595 14.7999 13.4489C14.8001 13.4811 14.8003 13.515 14.8003 13.5511V18.0018C14.8003 18.1998 14.6482 18.3603 14.4606 18.3603H11.6969C11.6065 18.3603 11.5198 18.3223 11.4561 18.2547C11.3923 18.187 11.3567 18.0953 11.3572 17.9999L11.6969 18.0018Z" fill="black" fill-opacity="0.2"/>
<path fill-rule="evenodd" clip-rule="evenodd" d="M15.3997 10.4765C15.0263 10.7197 14.8353 11.0004 14.7855 11.1726C14.7363 11.3424 14.5768 11.4487 14.4104 11.4225C14.244 11.3963 14.1209 11.2455 14.1209 11.068V10.1354H12.0448C12.0545 10.8997 12.0537 12.5602 12.05 14.1473C12.0478 15.1329 12.0444 16.0969 12.0416 16.8146C12.0403 17.1538 12.0391 17.438 12.0382 17.6434H14.1209V13.5511C14.1209 13.5258 14.1207 13.4987 14.1206 13.4706C14.12 13.3754 14.1193 13.2676 14.1246 13.1685C14.1314 13.0395 14.1492 12.8859 14.207 12.7408C14.4271 12.1685 14.9323 11.513 15.853 11.513C16.4289 11.513 16.8846 11.7475 17.1843 12.1785C17.4721 12.5923 17.588 13.1467 17.588 13.745V17.6434H19.6981V13.4286C19.6981 12.2222 19.374 11.388 18.888 10.8569C18.4023 10.3262 17.7169 10.0569 16.9157 10.0569C16.2737 10.0569 15.7627 10.2401 15.3997 10.4765ZM11.6969 18.0018C11.3572 18 11.3572 18 11.3572 17.9999L11.3587 17.6749C11.3596 17.4674 11.3608 17.1703 11.3622 16.8116C11.365 16.0942 11.3684 15.1306 11.3707 14.1456C11.3752 12.1655 11.375 10.126 11.3577 9.79678C11.3525 9.69842 11.386 9.60217 11.4501 9.53061C11.5143 9.45906 11.6035 9.41853 11.6969 9.41853H14.4606C14.6482 9.41853 14.8003 9.57901 14.8003 9.77697V10.0434C14.8763 9.98138 14.9574 9.92214 15.0429 9.86647C15.5145 9.55925 16.1494 9.33997 16.9157 9.33997C17.8628 9.33997 18.7385 9.66162 19.3767 10.3589C20.0147 11.056 20.3775 12.0869 20.3775 13.4286V18.0018C20.3775 18.1998 20.2254 18.3603 20.0378 18.3603H17.2483C17.0607 18.3603 16.9086 18.1998 16.9086 18.0018V13.745C16.9086 13.2294 16.8066 12.847 16.6366 12.6026C16.4785 12.3753 16.2366 12.2299 15.853 12.2299C15.3066 12.2299 14.9944 12.5983 14.8358 13.0122L14.8335 13.018C14.8204 13.0507 14.8082 13.1084 14.8029 13.2085C14.799 13.2833 14.7994 13.3595 14.7999 13.4489C14.8001 13.4811 14.8003 13.515 14.8003 13.5511V18.0018C14.8003 18.1998 14.6482 18.3603 14.4606 18.3603H11.6969C11.6065 18.3603 11.5198 18.3223 11.4561 18.2547C11.3923 18.187 11.3567 18.0953 11.3572 17.9999L11.6969 18.0018Z" fill="black" fill-opacity="0.2"/>
<path fill-rule="evenodd" clip-rule="evenodd" d="M15.3997 10.4765C15.0263 10.7197 14.8353 11.0004 14.7855 11.1726C14.7363 11.3424 14.5768 11.4487 14.4104 11.4225C14.244 11.3963 14.1209 11.2455 14.1209 11.068V10.1354H12.0448C12.0545 10.8997 12.0537 12.5602 12.05 14.1473C12.0478 15.1329 12.0444 16.0969 12.0416 16.8146C12.0403 17.1538 12.0391 17.438 12.0382 17.6434H14.1209V13.5511C14.1209 13.5258 14.1207 13.4987 14.1206 13.4706C14.12 13.3754 14.1193 13.2676 14.1246 13.1685C14.1314 13.0395 14.1492 12.8859 14.207 12.7408C14.4271 12.1685 14.9323 11.513 15.853 11.513C16.4289 11.513 16.8846 11.7475 17.1843 12.1785C17.4721 12.5923 17.588 13.1467 17.588 13.745V17.6434H19.6981V13.4286C19.6981 12.2222 19.374 11.388 18.888 10.8569C18.4023 10.3262 17.7169 10.0569 16.9157 10.0569C16.2737 10.0569 15.7627 10.2401 15.3997 10.4765ZM11.6969 18.0018C11.3572 18 11.3572 18 11.3572 17.9999L11.3587 17.6749C11.3596 17.4674 11.3608 17.1703 11.3622 16.8116C11.365 16.0942 11.3684 15.1306 11.3707 14.1456C11.3752 12.1655 11.375 10.126 11.3577 9.79678C11.3525 9.69842 11.386 9.60217 11.4501 9.53061C11.5143 9.45906 11.6035 9.41853 11.6969 9.41853H14.4606C14.6482 9.41853 14.8003 9.57901 14.8003 9.77697V10.0434C14.8763 9.98138 14.9574 9.92214 15.0429 9.86647C15.5145 9.55925 16.1494 9.33997 16.9157 9.33997C17.8628 9.33997 18.7385 9.66162 19.3767 10.3589C20.0147 11.056 20.3775 12.0869 20.3775 13.4286V18.0018C20.3775 18.1998 20.2254 18.3603 20.0378 18.3603H17.2483C17.0607 18.3603 16.9086 18.1998 16.9086 18.0018V13.745C16.9086 13.2294 16.8066 12.847 16.6366 12.6026C16.4785 12.3753 16.2366 12.2299 15.853 12.2299C15.3066 12.2299 14.9944 12.5983 14.8358 13.0122L14.8335 13.018C14.8204 13.0507 14.8082 13.1084 14.8029 13.2085C14.799 13.2833 14.7994 13.3595 14.7999 13.4489C14.8001 13.4811 14.8003 13.515 14.8003 13.5511V18.0018C14.8003 18.1998 14.6482 18.3603 14.4606 18.3603H11.6969C11.6065 18.3603 11.5198 18.3223 11.4561 18.2547C11.3923 18.187 11.3567 18.0953 11.3572 17.9999L11.6969 18.0018Z" fill="black" fill-opacity="0.2"/>
<path fill-rule="evenodd" clip-rule="evenodd" d="M15.3997 10.4765C15.0263 10.7197 14.8353 11.0004 14.7855 11.1726C14.7363 11.3424 14.5768 11.4487 14.4104 11.4225C14.244 11.3963 14.1209 11.2455 14.1209 11.068V10.1354H12.0448C12.0545 10.8997 12.0537 12.5602 12.05 14.1473C12.0478 15.1329 12.0444 16.0969 12.0416 16.8146C12.0403 17.1538 12.0391 17.438 12.0382 17.6434H14.1209V13.5511C14.1209 13.5258 14.1207 13.4987 14.1206 13.4706C14.12 13.3754 14.1193 13.2676 14.1246 13.1685C14.1314 13.0395 14.1492 12.8859 14.207 12.7408C14.4271 12.1685 14.9323 11.513 15.853 11.513C16.4289 11.513 16.8846 11.7475 17.1843 12.1785C17.4721 12.5923 17.588 13.1467 17.588 13.745V17.6434H19.6981V13.4286C19.6981 12.2222 19.374 11.388 18.888 10.8569C18.4023 10.3262 17.7169 10.0569 16.9157 10.0569C16.2737 10.0569 15.7627 10.2401 15.3997 10.4765ZM11.6969 18.0018C11.3572 18 11.3572 18 11.3572 17.9999L11.3587 17.6749C11.3596 17.4674 11.3608 17.1703 11.3622 16.8116C11.365 16.0942 11.3684 15.1306 11.3707 14.1456C11.3752 12.1655 11.375 10.126 11.3577 9.79678C11.3525 9.69842 11.386 9.60217 11.4501 9.53061C11.5143 9.45906 11.6035 9.41853 11.6969 9.41853H14.4606C14.6482 9.41853 14.8003 9.57901 14.8003 9.77697V10.0434C14.8763 9.98138 14.9574 9.92214 15.0429 9.86647C15.5145 9.55925 16.1494 9.33997 16.9157 9.33997C17.8628 9.33997 18.7385 9.66162 19.3767 10.3589C20.0147 11.056 20.3775 12.0869 20.3775 13.4286V18.0018C20.3775 18.1998 20.2254 18.3603 20.0378 18.3603H17.2483C17.0607 18.3603 16.9086 18.1998 16.9086 18.0018V13.745C16.9086 13.2294 16.8066 12.847 16.6366 12.6026C16.4785 12.3753 16.2366 12.2299 15.853 12.2299C15.3066 12.2299 14.9944 12.5983 14.8358 13.0122L14.8335 13.018C14.8204 13.0507 14.8082 13.1084 14.8029 13.2085C14.799 13.2833 14.7994 13.3595 14.7999 13.4489C14.8001 13.4811 14.8003 13.515 14.8003 13.5511V18.0018C14.8003 18.1998 14.6482 18.3603 14.4606 18.3603H11.6969C11.6065 18.3603 11.5198 18.3223 11.4561 18.2547C11.3923 18.187 11.3567 18.0953 11.3572 17.9999L11.6969 18.0018Z" fill="black" fill-opacity="0.2"/>
<path fill-rule="evenodd" clip-rule="evenodd" d="M15.3997 10.4765C15.0263 10.7197 14.8353 11.0004 14.7855 11.1726C14.7363 11.3424 14.5768 11.4487 14.4104 11.4225C14.244 11.3963 14.1209 11.2455 14.1209 11.068V10.1354H12.0448C12.0545 10.8997 12.0537 12.5602 12.05 14.1473C12.0478 15.1329 12.0444 16.0969 12.0416 16.8146C12.0403 17.1538 12.0391 17.438 12.0382 17.6434H14.1209V13.5511C14.1209 13.5258 14.1207 13.4987 14.1206 13.4706C14.12 13.3754 14.1193 13.2676 14.1246 13.1685C14.1314 13.0395 14.1492 12.8859 14.207 12.7408C14.4271 12.1685 14.9323 11.513 15.853 11.513C16.4289 11.513 16.8846 11.7475 17.1843 12.1785C17.4721 12.5923 17.588 13.1467 17.588 13.745V17.6434H19.6981V13.4286C19.6981 12.2222 19.374 11.388 18.888 10.8569C18.4023 10.3262 17.7169 10.0569 16.9157 10.0569C16.2737 10.0569 15.7627 10.2401 15.3997 10.4765ZM11.6969 18.0018C11.3572 18 11.3572 18 11.3572 17.9999L11.3587 17.6749C11.3596 17.4674 11.3608 17.1703 11.3622 16.8116C11.365 16.0942 11.3684 15.1306 11.3707 14.1456C11.3752 12.1655 11.375 10.126 11.3577 9.79678C11.3525 9.69842 11.386 9.60217 11.4501 9.53061C11.5143 9.45906 11.6035 9.41853 11.6969 9.41853H14.4606C14.6482 9.41853 14.8003 9.57901 14.8003 9.77697V10.0434C14.8763 9.98138 14.9574 9.92214 15.0429 9.86647C15.5145 9.55925 16.1494 9.33997 16.9157 9.33997C17.8628 9.33997 18.7385 9.66162 19.3767 10.3589C20.0147 11.056 20.3775 12.0869 20.3775 13.4286V18.0018C20.3775 18.1998 20.2254 18.3603 20.0378 18.3603H17.2483C17.0607 18.3603 16.9086 18.1998 16.9086 18.0018V13.745C16.9086 13.2294 16.8066 12.847 16.6366 12.6026C16.4785 12.3753 16.2366 12.2299 15.853 12.2299C15.3066 12.2299 14.9944 12.5983 14.8358 13.0122L14.8335 13.018C14.8204 13.0507 14.8082 13.1084 14.8029 13.2085C14.799 13.2833 14.7994 13.3595 14.7999 13.4489C14.8001 13.4811 14.8003 13.515 14.8003 13.5511V18.0018C14.8003 18.1998 14.6482 18.3603 14.4606 18.3603H11.6969C11.6065 18.3603 11.5198 18.3223 11.4561 18.2547C11.3923 18.187 11.3567 18.0953 11.3572 17.9999L11.6969 18.0018Z" fill="black" fill-opacity="0.2"/>
<path fill-rule="evenodd" clip-rule="evenodd" d="M15.3997 10.4765C15.0263 10.7197 14.8353 11.0004 14.7855 11.1726C14.7363 11.3424 14.5768 11.4487 14.4104 11.4225C14.244 11.3963 14.1209 11.2455 14.1209 11.068V10.1354H12.0448C12.0545 10.8997 12.0537 12.5602 12.05 14.1473C12.0478 15.1329 12.0444 16.0969 12.0416 16.8146C12.0403 17.1538 12.0391 17.438 12.0382 17.6434H14.1209V13.5511C14.1209 13.5258 14.1207 13.4987 14.1206 13.4706C14.12 13.3754 14.1193 13.2676 14.1246 13.1685C14.1314 13.0395 14.1492 12.8859 14.207 12.7408C14.4271 12.1685 14.9323 11.513 15.853 11.513C16.4289 11.513 16.8846 11.7475 17.1843 12.1785C17.4721 12.5923 17.588 13.1467 17.588 13.745V17.6434H19.6981V13.4286C19.6981 12.2222 19.374 11.388 18.888 10.8569C18.4023 10.3262 17.7169 10.0569 16.9157 10.0569C16.2737 10.0569 15.7627 10.2401 15.3997 10.4765ZM11.6969 18.0018C11.3572 18 11.3572 18 11.3572 17.9999L11.3587 17.6749C11.3596 17.4674 11.3608 17.1703 11.3622 16.8116C11.365 16.0942 11.3684 15.1306 11.3707 14.1456C11.3752 12.1655 11.375 10.126 11.3577 9.79678C11.3525 9.69842 11.386 9.60217 11.4501 9.53061C11.5143 9.45906 11.6035 9.41853 11.6969 9.41853H14.4606C14.6482 9.41853 14.8003 9.57901 14.8003 9.77697V10.0434C14.8763 9.98138 14.9574 9.92214 15.0429 9.86647C15.5145 9.55925 16.1494 9.33997 16.9157 9.33997C17.8628 9.33997 18.7385 9.66162 19.3767 10.3589C20.0147 11.056 20.3775 12.0869 20.3775 13.4286V18.0018C20.3775 18.1998 20.2254 18.3603 20.0378 18.3603H17.2483C17.0607 18.3603 16.9086 18.1998 16.9086 18.0018V13.745C16.9086 13.2294 16.8066 12.847 16.6366 12.6026C16.4785 12.3753 16.2366 12.2299 15.853 12.2299C15.3066 12.2299 14.9944 12.5983 14.8358 13.0122L14.8335 13.018C14.8204 13.0507 14.8082 13.1084 14.8029 13.2085C14.799 13.2833 14.7994 13.3595 14.7999 13.4489C14.8001 13.4811 14.8003 13.515 14.8003 13.5511V18.0018C14.8003 18.1998 14.6482 18.3603 14.4606 18.3603H11.6969C11.6065 18.3603 11.5198 18.3223 11.4561 18.2547C11.3923 18.187 11.3567 18.0953 11.3572 17.9999L11.6969 18.0018Z" fill="black" fill-opacity="0.2"/>
<path fill-rule="evenodd" clip-rule="evenodd" d="M15.3997 10.4765C15.0263 10.7197 14.8353 11.0004 14.7855 11.1726C14.7363 11.3424 14.5768 11.4487 14.4104 11.4225C14.244 11.3963 14.1209 11.2455 14.1209 11.068V10.1354H12.0448C12.0545 10.8997 12.0537 12.5602 12.05 14.1473C12.0478 15.1329 12.0444 16.0969 12.0416 16.8146C12.0403 17.1538 12.0391 17.438 12.0382 17.6434H14.1209V13.5511C14.1209 13.5258 14.1207 13.4987 14.1206 13.4706C14.12 13.3754 14.1193 13.2676 14.1246 13.1685C14.1314 13.0395 14.1492 12.8859 14.207 12.7408C14.4271 12.1685 14.9323 11.513 15.853 11.513C16.4289 11.513 16.8846 11.7475 17.1843 12.1785C17.4721 12.5923 17.588 13.1467 17.588 13.745V17.6434H19.6981V13.4286C19.6981 12.2222 19.374 11.388 18.888 10.8569C18.4023 10.3262 17.7169 10.0569 16.9157 10.0569C16.2737 10.0569 15.7627 10.2401 15.3997 10.4765ZM11.6969 18.0018C11.3572 18 11.3572 18 11.3572 17.9999L11.3587 17.6749C11.3596 17.4674 11.3608 17.1703 11.3622 16.8116C11.365 16.0942 11.3684 15.1306 11.3707 14.1456C11.3752 12.1655 11.375 10.126 11.3577 9.79678C11.3525 9.69842 11.386 9.60217 11.4501 9.53061C11.5143 9.45906 11.6035 9.41853 11.6969 9.41853H14.4606C14.6482 9.41853 14.8003 9.57901 14.8003 9.77697V10.0434C14.8763 9.98138 14.9574 9.92214 15.0429 9.86647C15.5145 9.55925 16.1494 9.33997 16.9157 9.33997C17.8628 9.33997 18.7385 9.66162 19.3767 10.3589C20.0147 11.056 20.3775 12.0869 20.3775 13.4286V18.0018C20.3775 18.1998 20.2254 18.3603 20.0378 18.3603H17.2483C17.0607 18.3603 16.9086 18.1998 16.9086 18.0018V13.745C16.9086 13.2294 16.8066 12.847 16.6366 12.6026C16.4785 12.3753 16.2366 12.2299 15.853 12.2299C15.3066 12.2299 14.9944 12.5983 14.8358 13.0122L14.8335 13.018C14.8204 13.0507 14.8082 13.1084 14.8029 13.2085C14.799 13.2833 14.7994 13.3595 14.7999 13.4489C14.8001 13.4811 14.8003 13.515 14.8003 13.5511V18.0018C14.8003 18.1998 14.6482 18.3603 14.4606 18.3603H11.6969C11.6065 18.3603 11.5198 18.3223 11.4561 18.2547C11.3923 18.187 11.3567 18.0953 11.3572 17.9999L11.6969 18.0018Z" fill="black" fill-opacity="0.2"/>
<path fill-rule="evenodd" clip-rule="evenodd" d="M6.84668 9.70157C6.84668 9.50186 7.01058 9.33997 7.21276 9.33997H9.86321C10.0654 9.33997 10.2293 9.50186 10.2293 9.70157V17.9987C10.2293 18.1984 10.0654 18.3603 9.86321 18.3603H7.21276C7.01058 18.3603 6.84668 18.1984 6.84668 17.9987V9.70157ZM7.57885 10.0632V17.6371H9.49713V10.0632H7.57885Z" fill="#2E2E2E"/>
<path fill-rule="evenodd" clip-rule="evenodd" d="M6.84668 9.70157C6.84668 9.50186 7.01058 9.33997 7.21276 9.33997H9.86321C10.0654 9.33997 10.2293 9.50186 10.2293 9.70157V17.9987C10.2293 18.1984 10.0654 18.3603 9.86321 18.3603H7.21276C7.01058 18.3603 6.84668 18.1984 6.84668 17.9987V9.70157ZM7.57885 10.0632V17.6371H9.49713V10.0632H7.57885Z" fill="black" fill-opacity="0.2"/>
<path fill-rule="evenodd" clip-rule="evenodd" d="M6.84668 9.70157C6.84668 9.50186 7.01058 9.33997 7.21276 9.33997H9.86321C10.0654 9.33997 10.2293 9.50186 10.2293 9.70157V17.9987C10.2293 18.1984 10.0654 18.3603 9.86321 18.3603H7.21276C7.01058 18.3603 6.84668 18.1984 6.84668 17.9987V9.70157ZM7.57885 10.0632V17.6371H9.49713V10.0632H7.57885Z" fill="black" fill-opacity="0.2"/>
<path fill-rule="evenodd" clip-rule="evenodd" d="M6.84668 9.70157C6.84668 9.50186 7.01058 9.33997 7.21276 9.33997H9.86321C10.0654 9.33997 10.2293 9.50186 10.2293 9.70157V17.9987C10.2293 18.1984 10.0654 18.3603 9.86321 18.3603H7.21276C7.01058 18.3603 6.84668 18.1984 6.84668 17.9987V9.70157ZM7.57885 10.0632V17.6371H9.49713V10.0632H7.57885Z" fill="black" fill-opacity="0.2"/>
<path fill-rule="evenodd" clip-rule="evenodd" d="M6.84668 9.70157C6.84668 9.50186 7.01058 9.33997 7.21276 9.33997H9.86321C10.0654 9.33997 10.2293 9.50186 10.2293 9.70157V17.9987C10.2293 18.1984 10.0654 18.3603 9.86321 18.3603H7.21276C7.01058 18.3603 6.84668 18.1984 6.84668 17.9987V9.70157ZM7.57885 10.0632V17.6371H9.49713V10.0632H7.57885Z" fill="black" fill-opacity="0.2"/>
<path fill-rule="evenodd" clip-rule="evenodd" d="M6.84668 9.70157C6.84668 9.50186 7.01058 9.33997 7.21276 9.33997H9.86321C10.0654 9.33997 10.2293 9.50186 10.2293 9.70157V17.9987C10.2293 18.1984 10.0654 18.3603 9.86321 18.3603H7.21276C7.01058 18.3603 6.84668 18.1984 6.84668 17.9987V9.70157ZM7.57885 10.0632V17.6371H9.49713V10.0632H7.57885Z" fill="black" fill-opacity="0.2"/>
<path fill-rule="evenodd" clip-rule="evenodd" d="M6.84668 9.70157C6.84668 9.50186 7.01058 9.33997 7.21276 9.33997H9.86321C10.0654 9.33997 10.2293 9.50186 10.2293 9.70157V17.9987C10.2293 18.1984 10.0654 18.3603 9.86321 18.3603H7.21276C7.01058 18.3603 6.84668 18.1984 6.84668 17.9987V9.70157ZM7.57885 10.0632V17.6371H9.49713V10.0632H7.57885Z" fill="black" fill-opacity="0.2"/>
<path fill-rule="evenodd" clip-rule="evenodd" d="M6.84668 9.70157C6.84668 9.50186 7.01058 9.33997 7.21276 9.33997H9.86321C10.0654 9.33997 10.2293 9.50186 10.2293 9.70157V17.9987C10.2293 18.1984 10.0654 18.3603 9.86321 18.3603H7.21276C7.01058 18.3603 6.84668 18.1984 6.84668 17.9987V9.70157ZM7.57885 10.0632V17.6371H9.49713V10.0632H7.57885Z" fill="black" fill-opacity="0.2"/>
<path fill-rule="evenodd" clip-rule="evenodd" d="M6.84668 9.70157C6.84668 9.50186 7.01058 9.33997 7.21276 9.33997H9.86321C10.0654 9.33997 10.2293 9.50186 10.2293 9.70157V17.9987C10.2293 18.1984 10.0654 18.3603 9.86321 18.3603H7.21276C7.01058 18.3603 6.84668 18.1984 6.84668 17.9987V9.70157ZM7.57885 10.0632V17.6371H9.49713V10.0632H7.57885Z" fill="black" fill-opacity="0.2"/>
<path fill-rule="evenodd" clip-rule="evenodd" d="M6.84668 9.70157C6.84668 9.50186 7.01058 9.33997 7.21276 9.33997H9.86321C10.0654 9.33997 10.2293 9.50186 10.2293 9.70157V17.9987C10.2293 18.1984 10.0654 18.3603 9.86321 18.3603H7.21276C7.01058 18.3603 6.84668 18.1984 6.84668 17.9987V9.70157ZM7.57885 10.0632V17.6371H9.49713V10.0632H7.57885Z" fill="black" fill-opacity="0.2"/>
<path fill-rule="evenodd" clip-rule="evenodd" d="M6.84668 9.70157C6.84668 9.50186 7.01058 9.33997 7.21276 9.33997H9.86321C10.0654 9.33997 10.2293 9.50186 10.2293 9.70157V17.9987C10.2293 18.1984 10.0654 18.3603 9.86321 18.3603H7.21276C7.01058 18.3603 6.84668 18.1984 6.84668 17.9987V9.70157ZM7.57885 10.0632V17.6371H9.49713V10.0632H7.57885Z" fill="black" fill-opacity="0.2"/>
<path fill-rule="evenodd" clip-rule="evenodd" d="M6.84668 9.70157C6.84668 9.50186 7.01058 9.33997 7.21276 9.33997H9.86321C10.0654 9.33997 10.2293 9.50186 10.2293 9.70157V17.9987C10.2293 18.1984 10.0654 18.3603 9.86321 18.3603H7.21276C7.01058 18.3603 6.84668 18.1984 6.84668 17.9987V9.70157ZM7.57885 10.0632V17.6371H9.49713V10.0632H7.57885Z" fill="black" fill-opacity="0.2"/>
<path fill-rule="evenodd" clip-rule="evenodd" d="M6.84668 9.70157C6.84668 9.50186 7.01058 9.33997 7.21276 9.33997H9.86321C10.0654 9.33997 10.2293 9.50186 10.2293 9.70157V17.9987C10.2293 18.1984 10.0654 18.3603 9.86321 18.3603H7.21276C7.01058 18.3603 6.84668 18.1984 6.84668 17.9987V9.70157ZM7.57885 10.0632V17.6371H9.49713V10.0632H7.57885Z" fill="black" fill-opacity="0.2"/>
<path fill-rule="evenodd" clip-rule="evenodd" d="M6.84668 9.70157C6.84668 9.50186 7.01058 9.33997 7.21276 9.33997H9.86321C10.0654 9.33997 10.2293 9.50186 10.2293 9.70157V17.9987C10.2293 18.1984 10.0654 18.3603 9.86321 18.3603H7.21276C7.01058 18.3603 6.84668 18.1984 6.84668 17.9987V9.70157ZM7.57885 10.0632V17.6371H9.49713V10.0632H7.57885Z" fill="black" fill-opacity="0.2"/>
<path fill-rule="evenodd" clip-rule="evenodd" d="M7.78758 6.22061C7.62251 6.38538 7.5249 6.61758 7.5249 6.89666C7.5249 7.41781 7.87952 7.85352 8.51453 7.85352H8.53149C8.87527 7.85352 9.12822 7.73433 9.29235 7.56756C9.45523 7.40205 9.55005 7.17068 9.55107 6.89955C9.54367 6.6128 9.44567 6.37929 9.28697 6.21676C9.12753 6.05348 8.88343 5.93828 8.54703 5.93828C8.2083 5.93828 7.95388 6.05459 7.78758 6.22061ZM7.32764 5.6814C7.63609 5.3735 8.06229 5.20459 8.54703 5.20459C9.03156 5.20459 9.45056 5.374 9.75322 5.68395C10.0558 5.99381 10.2187 6.42055 10.2292 6.88622L10.2293 6.89513C10.2293 7.3613 10.0631 7.79093 9.75668 8.10233C9.45057 8.41338 9.02418 8.58721 8.53149 8.58721H8.51453C7.53652 8.58721 6.84668 7.85635 6.84668 6.89666C6.84668 6.42097 7.01795 5.99055 7.32764 5.6814Z" fill="#2E2E2E"/>
<path fill-rule="evenodd" clip-rule="evenodd" d="M7.78758 6.22061C7.62251 6.38538 7.5249 6.61758 7.5249 6.89666C7.5249 7.41781 7.87952 7.85352 8.51453 7.85352H8.53149C8.87527 7.85352 9.12822 7.73433 9.29235 7.56756C9.45523 7.40205 9.55005 7.17068 9.55107 6.89955C9.54367 6.6128 9.44567 6.37929 9.28697 6.21676C9.12753 6.05348 8.88343 5.93828 8.54703 5.93828C8.2083 5.93828 7.95388 6.05459 7.78758 6.22061ZM7.32764 5.6814C7.63609 5.3735 8.06229 5.20459 8.54703 5.20459C9.03156 5.20459 9.45056 5.374 9.75322 5.68395C10.0558 5.99381 10.2187 6.42055 10.2292 6.88622L10.2293 6.89513C10.2293 7.3613 10.0631 7.79093 9.75668 8.10233C9.45057 8.41338 9.02418 8.58721 8.53149 8.58721H8.51453C7.53652 8.58721 6.84668 7.85635 6.84668 6.89666C6.84668 6.42097 7.01795 5.99055 7.32764 5.6814Z" fill="black" fill-opacity="0.2"/>
<path fill-rule="evenodd" clip-rule="evenodd" d="M7.78758 6.22061C7.62251 6.38538 7.5249 6.61758 7.5249 6.89666C7.5249 7.41781 7.87952 7.85352 8.51453 7.85352H8.53149C8.87527 7.85352 9.12822 7.73433 9.29235 7.56756C9.45523 7.40205 9.55005 7.17068 9.55107 6.89955C9.54367 6.6128 9.44567 6.37929 9.28697 6.21676C9.12753 6.05348 8.88343 5.93828 8.54703 5.93828C8.2083 5.93828 7.95388 6.05459 7.78758 6.22061ZM7.32764 5.6814C7.63609 5.3735 8.06229 5.20459 8.54703 5.20459C9.03156 5.20459 9.45056 5.374 9.75322 5.68395C10.0558 5.99381 10.2187 6.42055 10.2292 6.88622L10.2293 6.89513C10.2293 7.3613 10.0631 7.79093 9.75668 8.10233C9.45057 8.41338 9.02418 8.58721 8.53149 8.58721H8.51453C7.53652 8.58721 6.84668 7.85635 6.84668 6.89666C6.84668 6.42097 7.01795 5.99055 7.32764 5.6814Z" fill="black" fill-opacity="0.2"/>
<path fill-rule="evenodd" clip-rule="evenodd" d="M7.78758 6.22061C7.62251 6.38538 7.5249 6.61758 7.5249 6.89666C7.5249 7.41781 7.87952 7.85352 8.51453 7.85352H8.53149C8.87527 7.85352 9.12822 7.73433 9.29235 7.56756C9.45523 7.40205 9.55005 7.17068 9.55107 6.89955C9.54367 6.6128 9.44567 6.37929 9.28697 6.21676C9.12753 6.05348 8.88343 5.93828 8.54703 5.93828C8.2083 5.93828 7.95388 6.05459 7.78758 6.22061ZM7.32764 5.6814C7.63609 5.3735 8.06229 5.20459 8.54703 5.20459C9.03156 5.20459 9.45056 5.374 9.75322 5.68395C10.0558 5.99381 10.2187 6.42055 10.2292 6.88622L10.2293 6.89513C10.2293 7.3613 10.0631 7.79093 9.75668 8.10233C9.45057 8.41338 9.02418 8.58721 8.53149 8.58721H8.51453C7.53652 8.58721 6.84668 7.85635 6.84668 6.89666C6.84668 6.42097 7.01795 5.99055 7.32764 5.6814Z" fill="black" fill-opacity="0.2"/>
<path fill-rule="evenodd" clip-rule="evenodd" d="M7.78758 6.22061C7.62251 6.38538 7.5249 6.61758 7.5249 6.89666C7.5249 7.41781 7.87952 7.85352 8.51453 7.85352H8.53149C8.87527 7.85352 9.12822 7.73433 9.29235 7.56756C9.45523 7.40205 9.55005 7.17068 9.55107 6.89955C9.54367 6.6128 9.44567 6.37929 9.28697 6.21676C9.12753 6.05348 8.88343 5.93828 8.54703 5.93828C8.2083 5.93828 7.95388 6.05459 7.78758 6.22061ZM7.32764 5.6814C7.63609 5.3735 8.06229 5.20459 8.54703 5.20459C9.03156 5.20459 9.45056 5.374 9.75322 5.68395C10.0558 5.99381 10.2187 6.42055 10.2292 6.88622L10.2293 6.89513C10.2293 7.3613 10.0631 7.79093 9.75668 8.10233C9.45057 8.41338 9.02418 8.58721 8.53149 8.58721H8.51453C7.53652 8.58721 6.84668 7.85635 6.84668 6.89666C6.84668 6.42097 7.01795 5.99055 7.32764 5.6814Z" fill="black" fill-opacity="0.2"/>
<path fill-rule="evenodd" clip-rule="evenodd" d="M7.78758 6.22061C7.62251 6.38538 7.5249 6.61758 7.5249 6.89666C7.5249 7.41781 7.87952 7.85352 8.51453 7.85352H8.53149C8.87527 7.85352 9.12822 7.73433 9.29235 7.56756C9.45523 7.40205 9.55005 7.17068 9.55107 6.89955C9.54367 6.6128 9.44567 6.37929 9.28697 6.21676C9.12753 6.05348 8.88343 5.93828 8.54703 5.93828C8.2083 5.93828 7.95388 6.05459 7.78758 6.22061ZM7.32764 5.6814C7.63609 5.3735 8.06229 5.20459 8.54703 5.20459C9.03156 5.20459 9.45056 5.374 9.75322 5.68395C10.0558 5.99381 10.2187 6.42055 10.2292 6.88622L10.2293 6.89513C10.2293 7.3613 10.0631 7.79093 9.75668 8.10233C9.45057 8.41338 9.02418 8.58721 8.53149 8.58721H8.51453C7.53652 8.58721 6.84668 7.85635 6.84668 6.89666C6.84668 6.42097 7.01795 5.99055 7.32764 5.6814Z" fill="black" fill-opacity="0.2"/>
<path fill-rule="evenodd" clip-rule="evenodd" d="M7.78758 6.22061C7.62251 6.38538 7.5249 6.61758 7.5249 6.89666C7.5249 7.41781 7.87952 7.85352 8.51453 7.85352H8.53149C8.87527 7.85352 9.12822 7.73433 9.29235 7.56756C9.45523 7.40205 9.55005 7.17068 9.55107 6.89955C9.54367 6.6128 9.44567 6.37929 9.28697 6.21676C9.12753 6.05348 8.88343 5.93828 8.54703 5.93828C8.2083 5.93828 7.95388 6.05459 7.78758 6.22061ZM7.32764 5.6814C7.63609 5.3735 8.06229 5.20459 8.54703 5.20459C9.03156 5.20459 9.45056 5.374 9.75322 5.68395C10.0558 5.99381 10.2187 6.42055 10.2292 6.88622L10.2293 6.89513C10.2293 7.3613 10.0631 7.79093 9.75668 8.10233C9.45057 8.41338 9.02418 8.58721 8.53149 8.58721H8.51453C7.53652 8.58721 6.84668 7.85635 6.84668 6.89666C6.84668 6.42097 7.01795 5.99055 7.32764 5.6814Z" fill="black" fill-opacity="0.2"/>
<path fill-rule="evenodd" clip-rule="evenodd" d="M7.78758 6.22061C7.62251 6.38538 7.5249 6.61758 7.5249 6.89666C7.5249 7.41781 7.87952 7.85352 8.51453 7.85352H8.53149C8.87527 7.85352 9.12822 7.73433 9.29235 7.56756C9.45523 7.40205 9.55005 7.17068 9.55107 6.89955C9.54367 6.6128 9.44567 6.37929 9.28697 6.21676C9.12753 6.05348 8.88343 5.93828 8.54703 5.93828C8.2083 5.93828 7.95388 6.05459 7.78758 6.22061ZM7.32764 5.6814C7.63609 5.3735 8.06229 5.20459 8.54703 5.20459C9.03156 5.20459 9.45056 5.374 9.75322 5.68395C10.0558 5.99381 10.2187 6.42055 10.2292 6.88622L10.2293 6.89513C10.2293 7.3613 10.0631 7.79093 9.75668 8.10233C9.45057 8.41338 9.02418 8.58721 8.53149 8.58721H8.51453C7.53652 8.58721 6.84668 7.85635 6.84668 6.89666C6.84668 6.42097 7.01795 5.99055 7.32764 5.6814Z" fill="black" fill-opacity="0.2"/>
<path fill-rule="evenodd" clip-rule="evenodd" d="M7.78758 6.22061C7.62251 6.38538 7.5249 6.61758 7.5249 6.89666C7.5249 7.41781 7.87952 7.85352 8.51453 7.85352H8.53149C8.87527 7.85352 9.12822 7.73433 9.29235 7.56756C9.45523 7.40205 9.55005 7.17068 9.55107 6.89955C9.54367 6.6128 9.44567 6.37929 9.28697 6.21676C9.12753 6.05348 8.88343 5.93828 8.54703 5.93828C8.2083 5.93828 7.95388 6.05459 7.78758 6.22061ZM7.32764 5.6814C7.63609 5.3735 8.06229 5.20459 8.54703 5.20459C9.03156 5.20459 9.45056 5.374 9.75322 5.68395C10.0558 5.99381 10.2187 6.42055 10.2292 6.88622L10.2293 6.89513C10.2293 7.3613 10.0631 7.79093 9.75668 8.10233C9.45057 8.41338 9.02418 8.58721 8.53149 8.58721H8.51453C7.53652 8.58721 6.84668 7.85635 6.84668 6.89666C6.84668 6.42097 7.01795 5.99055 7.32764 5.6814Z" fill="black" fill-opacity="0.2"/>
<path fill-rule="evenodd" clip-rule="evenodd" d="M7.78758 6.22061C7.62251 6.38538 7.5249 6.61758 7.5249 6.89666C7.5249 7.41781 7.87952 7.85352 8.51453 7.85352H8.53149C8.87527 7.85352 9.12822 7.73433 9.29235 7.56756C9.45523 7.40205 9.55005 7.17068 9.55107 6.89955C9.54367 6.6128 9.44567 6.37929 9.28697 6.21676C9.12753 6.05348 8.88343 5.93828 8.54703 5.93828C8.2083 5.93828 7.95388 6.05459 7.78758 6.22061ZM7.32764 5.6814C7.63609 5.3735 8.06229 5.20459 8.54703 5.20459C9.03156 5.20459 9.45056 5.374 9.75322 5.68395C10.0558 5.99381 10.2187 6.42055 10.2292 6.88622L10.2293 6.89513C10.2293 7.3613 10.0631 7.79093 9.75668 8.10233C9.45057 8.41338 9.02418 8.58721 8.53149 8.58721H8.51453C7.53652 8.58721 6.84668 7.85635 6.84668 6.89666C6.84668 6.42097 7.01795 5.99055 7.32764 5.6814Z" fill="black" fill-opacity="0.2"/>
<path fill-rule="evenodd" clip-rule="evenodd" d="M7.78758 6.22061C7.62251 6.38538 7.5249 6.61758 7.5249 6.89666C7.5249 7.41781 7.87952 7.85352 8.51453 7.85352H8.53149C8.87527 7.85352 9.12822 7.73433 9.29235 7.56756C9.45523 7.40205 9.55005 7.17068 9.55107 6.89955C9.54367 6.6128 9.44567 6.37929 9.28697 6.21676C9.12753 6.05348 8.88343 5.93828 8.54703 5.93828C8.2083 5.93828 7.95388 6.05459 7.78758 6.22061ZM7.32764 5.6814C7.63609 5.3735 8.06229 5.20459 8.54703 5.20459C9.03156 5.20459 9.45056 5.374 9.75322 5.68395C10.0558 5.99381 10.2187 6.42055 10.2292 6.88622L10.2293 6.89513C10.2293 7.3613 10.0631 7.79093 9.75668 8.10233C9.45057 8.41338 9.02418 8.58721 8.53149 8.58721H8.51453C7.53652 8.58721 6.84668 7.85635 6.84668 6.89666C6.84668 6.42097 7.01795 5.99055 7.32764 5.6814Z" fill="black" fill-opacity="0.2"/>
<path fill-rule="evenodd" clip-rule="evenodd" d="M7.78758 6.22061C7.62251 6.38538 7.5249 6.61758 7.5249 6.89666C7.5249 7.41781 7.87952 7.85352 8.51453 7.85352H8.53149C8.87527 7.85352 9.12822 7.73433 9.29235 7.56756C9.45523 7.40205 9.55005 7.17068 9.55107 6.89955C9.54367 6.6128 9.44567 6.37929 9.28697 6.21676C9.12753 6.05348 8.88343 5.93828 8.54703 5.93828C8.2083 5.93828 7.95388 6.05459 7.78758 6.22061ZM7.32764 5.6814C7.63609 5.3735 8.06229 5.20459 8.54703 5.20459C9.03156 5.20459 9.45056 5.374 9.75322 5.68395C10.0558 5.99381 10.2187 6.42055 10.2292 6.88622L10.2293 6.89513C10.2293 7.3613 10.0631 7.79093 9.75668 8.10233C9.45057 8.41338 9.02418 8.58721 8.53149 8.58721H8.51453C7.53652 8.58721 6.84668 7.85635 6.84668 6.89666C6.84668 6.42097 7.01795 5.99055 7.32764 5.6814Z" fill="black" fill-opacity="0.2"/>
<path fill-rule="evenodd" clip-rule="evenodd" d="M7.78758 6.22061C7.62251 6.38538 7.5249 6.61758 7.5249 6.89666C7.5249 7.41781 7.87952 7.85352 8.51453 7.85352H8.53149C8.87527 7.85352 9.12822 7.73433 9.29235 7.56756C9.45523 7.40205 9.55005 7.17068 9.55107 6.89955C9.54367 6.6128 9.44567 6.37929 9.28697 6.21676C9.12753 6.05348 8.88343 5.93828 8.54703 5.93828C8.2083 5.93828 7.95388 6.05459 7.78758 6.22061ZM7.32764 5.6814C7.63609 5.3735 8.06229 5.20459 8.54703 5.20459C9.03156 5.20459 9.45056 5.374 9.75322 5.68395C10.0558 5.99381 10.2187 6.42055 10.2292 6.88622L10.2293 6.89513C10.2293 7.3613 10.0631 7.79093 9.75668 8.10233C9.45057 8.41338 9.02418 8.58721 8.53149 8.58721H8.51453C7.53652 8.58721 6.84668 7.85635 6.84668 6.89666C6.84668 6.42097 7.01795 5.99055 7.32764 5.6814Z" fill="black" fill-opacity="0.2"/>
<path fill-rule="evenodd" clip-rule="evenodd" d="M7.78758 6.22061C7.62251 6.38538 7.5249 6.61758 7.5249 6.89666C7.5249 7.41781 7.87952 7.85352 8.51453 7.85352H8.53149C8.87527 7.85352 9.12822 7.73433 9.29235 7.56756C9.45523 7.40205 9.55005 7.17068 9.55107 6.89955C9.54367 6.6128 9.44567 6.37929 9.28697 6.21676C9.12753 6.05348 8.88343 5.93828 8.54703 5.93828C8.2083 5.93828 7.95388 6.05459 7.78758 6.22061ZM7.32764 5.6814C7.63609 5.3735 8.06229 5.20459 8.54703 5.20459C9.03156 5.20459 9.45056 5.374 9.75322 5.68395C10.0558 5.99381 10.2187 6.42055 10.2292 6.88622L10.2293 6.89513C10.2293 7.3613 10.0631 7.79093 9.75668 8.10233C9.45057 8.41338 9.02418 8.58721 8.53149 8.58721H8.51453C7.53652 8.58721 6.84668 7.85635 6.84668 6.89666C6.84668 6.42097 7.01795 5.99055 7.32764 5.6814Z" fill="black" fill-opacity="0.2"/>
</svg>
