<svg width="26" height="25" viewBox="0 0 26 25" fill="none" xmlns="http://www.w3.org/2000/svg">
<path d="M13 0.5C19.6274 0.500001 25 5.87259 25 12.5C25 19.1274 19.6274 24.5 13 24.5C6.37258 24.5 1 19.1274 1 12.5C1 5.87258 6.37258 0.5 13 0.5Z" stroke="#2E2E2E"/>
<path d="M13 0.5C19.6274 0.500001 25 5.87259 25 12.5C25 19.1274 19.6274 24.5 13 24.5C6.37258 24.5 1 19.1274 1 12.5C1 5.87258 6.37258 0.5 13 0.5Z" stroke="black" stroke-opacity="0.2"/>
<path d="M13 0.5C19.6274 0.500001 25 5.87259 25 12.5C25 19.1274 19.6274 24.5 13 24.5C6.37258 24.5 1 19.1274 1 12.5C1 5.87258 6.37258 0.5 13 0.5Z" stroke="black" stroke-opacity="0.2"/>
<path d="M13 0.5C19.6274 0.500001 25 5.87259 25 12.5C25 19.1274 19.6274 24.5 13 24.5C6.37258 24.5 1 19.1274 1 12.5C1 5.87258 6.37258 0.5 13 0.5Z" stroke="black" stroke-opacity="0.2"/>
<path d="M13 0.5C19.6274 0.500001 25 5.87259 25 12.5C25 19.1274 19.6274 24.5 13 24.5C6.37258 24.5 1 19.1274 1 12.5C1 5.87258 6.37258 0.5 13 0.5Z" stroke="black" stroke-opacity="0.2"/>
<path d="M13 0.5C19.6274 0.500001 25 5.87259 25 12.5C25 19.1274 19.6274 24.5 13 24.5C6.37258 24.5 1 19.1274 1 12.5C1 5.87258 6.37258 0.5 13 0.5Z" stroke="black" stroke-opacity="0.2"/>
<path d="M13 0.5C19.6274 0.500001 25 5.87259 25 12.5C25 19.1274 19.6274 24.5 13 24.5C6.37258 24.5 1 19.1274 1 12.5C1 5.87258 6.37258 0.5 13 0.5Z" stroke="black" stroke-opacity="0.2"/>
<path d="M13 0.5C19.6274 0.500001 25 5.87259 25 12.5C25 19.1274 19.6274 24.5 13 24.5C6.37258 24.5 1 19.1274 1 12.5C1 5.87258 6.37258 0.5 13 0.5Z" stroke="black" stroke-opacity="0.2"/>
<path d="M13 0.5C19.6274 0.500001 25 5.87259 25 12.5C25 19.1274 19.6274 24.5 13 24.5C6.37258 24.5 1 19.1274 1 12.5C1 5.87258 6.37258 0.5 13 0.5Z" stroke="black" stroke-opacity="0.2"/>
<path d="M13 0.5C19.6274 0.500001 25 5.87259 25 12.5C25 19.1274 19.6274 24.5 13 24.5C6.37258 24.5 1 19.1274 1 12.5C1 5.87258 6.37258 0.5 13 0.5Z" stroke="black" stroke-opacity="0.2"/>
<path d="M13 0.5C19.6274 0.500001 25 5.87259 25 12.5C25 19.1274 19.6274 24.5 13 24.5C6.37258 24.5 1 19.1274 1 12.5C1 5.87258 6.37258 0.5 13 0.5Z" stroke="black" stroke-opacity="0.2"/>
<path d="M13 0.5C19.6274 0.500001 25 5.87259 25 12.5C25 19.1274 19.6274 24.5 13 24.5C6.37258 24.5 1 19.1274 1 12.5C1 5.87258 6.37258 0.5 13 0.5Z" stroke="black" stroke-opacity="0.2"/>
<path d="M13 0.5C19.6274 0.500001 25 5.87259 25 12.5C25 19.1274 19.6274 24.5 13 24.5C6.37258 24.5 1 19.1274 1 12.5C1 5.87258 6.37258 0.5 13 0.5Z" stroke="black" stroke-opacity="0.2"/>
<path d="M13 0.5C19.6274 0.500001 25 5.87259 25 12.5C25 19.1274 19.6274 24.5 13 24.5C6.37258 24.5 1 19.1274 1 12.5C1 5.87258 6.37258 0.5 13 0.5Z" stroke="black" stroke-opacity="0.2"/>
<path d="M14.1888 11.5429L18.8419 6.25H17.7391L13.6999 10.8455L10.4722 6.25H6.75L11.6302 13.2L6.75 18.75H7.85286L12.1191 13.8964L15.5278 18.75H19.25L14.1888 11.5429ZM12.6788 13.2607L12.1843 12.5687L8.24989 7.0625H9.9437L13.1181 11.5062L13.6125 12.1982L17.74 17.975H16.0462L12.6788 13.2607Z" fill="#2E2E2E"/>
<path d="M14.1888 11.5429L18.8419 6.25H17.7391L13.6999 10.8455L10.4722 6.25H6.75L11.6302 13.2L6.75 18.75H7.85286L12.1191 13.8964L15.5278 18.75H19.25L14.1888 11.5429ZM12.6788 13.2607L12.1843 12.5687L8.24989 7.0625H9.9437L13.1181 11.5062L13.6125 12.1982L17.74 17.975H16.0462L12.6788 13.2607Z" fill="black" fill-opacity="0.2"/>
<path d="M14.1888 11.5429L18.8419 6.25H17.7391L13.6999 10.8455L10.4722 6.25H6.75L11.6302 13.2L6.75 18.75H7.85286L12.1191 13.8964L15.5278 18.75H19.25L14.1888 11.5429ZM12.6788 13.2607L12.1843 12.5687L8.24989 7.0625H9.9437L13.1181 11.5062L13.6125 12.1982L17.74 17.975H16.0462L12.6788 13.2607Z" fill="black" fill-opacity="0.2"/>
<path d="M14.1888 11.5429L18.8419 6.25H17.7391L13.6999 10.8455L10.4722 6.25H6.75L11.6302 13.2L6.75 18.75H7.85286L12.1191 13.8964L15.5278 18.75H19.25L14.1888 11.5429ZM12.6788 13.2607L12.1843 12.5687L8.24989 7.0625H9.9437L13.1181 11.5062L13.6125 12.1982L17.74 17.975H16.0462L12.6788 13.2607Z" fill="black" fill-opacity="0.2"/>
<path d="M14.1888 11.5429L18.8419 6.25H17.7391L13.6999 10.8455L10.4722 6.25H6.75L11.6302 13.2L6.75 18.75H7.85286L12.1191 13.8964L15.5278 18.75H19.25L14.1888 11.5429ZM12.6788 13.2607L12.1843 12.5687L8.24989 7.0625H9.9437L13.1181 11.5062L13.6125 12.1982L17.74 17.975H16.0462L12.6788 13.2607Z" fill="black" fill-opacity="0.2"/>
<path d="M14.1888 11.5429L18.8419 6.25H17.7391L13.6999 10.8455L10.4722 6.25H6.75L11.6302 13.2L6.75 18.75H7.85286L12.1191 13.8964L15.5278 18.75H19.25L14.1888 11.5429ZM12.6788 13.2607L12.1843 12.5687L8.24989 7.0625H9.9437L13.1181 11.5062L13.6125 12.1982L17.74 17.975H16.0462L12.6788 13.2607Z" fill="black" fill-opacity="0.2"/>
<path d="M14.1888 11.5429L18.8419 6.25H17.7391L13.6999 10.8455L10.4722 6.25H6.75L11.6302 13.2L6.75 18.75H7.85286L12.1191 13.8964L15.5278 18.75H19.25L14.1888 11.5429ZM12.6788 13.2607L12.1843 12.5687L8.24989 7.0625H9.9437L13.1181 11.5062L13.6125 12.1982L17.74 17.975H16.0462L12.6788 13.2607Z" fill="black" fill-opacity="0.2"/>
<path d="M14.1888 11.5429L18.8419 6.25H17.7391L13.6999 10.8455L10.4722 6.25H6.75L11.6302 13.2L6.75 18.75H7.85286L12.1191 13.8964L15.5278 18.75H19.25L14.1888 11.5429ZM12.6788 13.2607L12.1843 12.5687L8.24989 7.0625H9.9437L13.1181 11.5062L13.6125 12.1982L17.74 17.975H16.0462L12.6788 13.2607Z" fill="black" fill-opacity="0.2"/>
<path d="M14.1888 11.5429L18.8419 6.25H17.7391L13.6999 10.8455L10.4722 6.25H6.75L11.6302 13.2L6.75 18.75H7.85286L12.1191 13.8964L15.5278 18.75H19.25L14.1888 11.5429ZM12.6788 13.2607L12.1843 12.5687L8.24989 7.0625H9.9437L13.1181 11.5062L13.6125 12.1982L17.74 17.975H16.0462L12.6788 13.2607Z" fill="black" fill-opacity="0.2"/>
<path d="M14.1888 11.5429L18.8419 6.25H17.7391L13.6999 10.8455L10.4722 6.25H6.75L11.6302 13.2L6.75 18.75H7.85286L12.1191 13.8964L15.5278 18.75H19.25L14.1888 11.5429ZM12.6788 13.2607L12.1843 12.5687L8.24989 7.0625H9.9437L13.1181 11.5062L13.6125 12.1982L17.74 17.975H16.0462L12.6788 13.2607Z" fill="black" fill-opacity="0.2"/>
<path d="M14.1888 11.5429L18.8419 6.25H17.7391L13.6999 10.8455L10.4722 6.25H6.75L11.6302 13.2L6.75 18.75H7.85286L12.1191 13.8964L15.5278 18.75H19.25L14.1888 11.5429ZM12.6788 13.2607L12.1843 12.5687L8.24989 7.0625H9.9437L13.1181 11.5062L13.6125 12.1982L17.74 17.975H16.0462L12.6788 13.2607Z" fill="black" fill-opacity="0.2"/>
<path d="M14.1888 11.5429L18.8419 6.25H17.7391L13.6999 10.8455L10.4722 6.25H6.75L11.6302 13.2L6.75 18.75H7.85286L12.1191 13.8964L15.5278 18.75H19.25L14.1888 11.5429ZM12.6788 13.2607L12.1843 12.5687L8.24989 7.0625H9.9437L13.1181 11.5062L13.6125 12.1982L17.74 17.975H16.0462L12.6788 13.2607Z" fill="black" fill-opacity="0.2"/>
<path d="M14.1888 11.5429L18.8419 6.25H17.7391L13.6999 10.8455L10.4722 6.25H6.75L11.6302 13.2L6.75 18.75H7.85286L12.1191 13.8964L15.5278 18.75H19.25L14.1888 11.5429ZM12.6788 13.2607L12.1843 12.5687L8.24989 7.0625H9.9437L13.1181 11.5062L13.6125 12.1982L17.74 17.975H16.0462L12.6788 13.2607Z" fill="black" fill-opacity="0.2"/>
<path d="M14.1888 11.5429L18.8419 6.25H17.7391L13.6999 10.8455L10.4722 6.25H6.75L11.6302 13.2L6.75 18.75H7.85286L12.1191 13.8964L15.5278 18.75H19.25L14.1888 11.5429ZM12.6788 13.2607L12.1843 12.5687L8.24989 7.0625H9.9437L13.1181 11.5062L13.6125 12.1982L17.74 17.975H16.0462L12.6788 13.2607Z" fill="black" fill-opacity="0.2"/>
</svg>
