<svg width="26" height="25" viewBox="0 0 26 25" fill="none" xmlns="http://www.w3.org/2000/svg">
<path d="M13 0.5C19.6274 0.5 25 5.87259 25 12.5C25 19.1274 19.6274 24.5 13 24.5C6.37258 24.5 1 19.1274 1 12.5C1.00001 5.87259 6.37259 0.500001 13 0.5Z" stroke="#2E2E2E"/>
<path d="M13 0.5C19.6274 0.5 25 5.87259 25 12.5C25 19.1274 19.6274 24.5 13 24.5C6.37258 24.5 1 19.1274 1 12.5C1.00001 5.87259 6.37259 0.500001 13 0.5Z" stroke="black" stroke-opacity="0.2"/>
<path d="M13 0.5C19.6274 0.5 25 5.87259 25 12.5C25 19.1274 19.6274 24.5 13 24.5C6.37258 24.5 1 19.1274 1 12.5C1.00001 5.87259 6.37259 0.500001 13 0.5Z" stroke="black" stroke-opacity="0.2"/>
<path d="M13 0.5C19.6274 0.5 25 5.87259 25 12.5C25 19.1274 19.6274 24.5 13 24.5C6.37258 24.5 1 19.1274 1 12.5C1.00001 5.87259 6.37259 0.500001 13 0.5Z" stroke="black" stroke-opacity="0.2"/>
<path d="M13 0.5C19.6274 0.5 25 5.87259 25 12.5C25 19.1274 19.6274 24.5 13 24.5C6.37258 24.5 1 19.1274 1 12.5C1.00001 5.87259 6.37259 0.500001 13 0.5Z" stroke="black" stroke-opacity="0.2"/>
<path d="M13 0.5C19.6274 0.5 25 5.87259 25 12.5C25 19.1274 19.6274 24.5 13 24.5C6.37258 24.5 1 19.1274 1 12.5C1.00001 5.87259 6.37259 0.500001 13 0.5Z" stroke="black" stroke-opacity="0.2"/>
<path d="M13 0.5C19.6274 0.5 25 5.87259 25 12.5C25 19.1274 19.6274 24.5 13 24.5C6.37258 24.5 1 19.1274 1 12.5C1.00001 5.87259 6.37259 0.500001 13 0.5Z" stroke="black" stroke-opacity="0.2"/>
<path d="M13 0.5C19.6274 0.5 25 5.87259 25 12.5C25 19.1274 19.6274 24.5 13 24.5C6.37258 24.5 1 19.1274 1 12.5C1.00001 5.87259 6.37259 0.500001 13 0.5Z" stroke="black" stroke-opacity="0.2"/>
<path d="M13 0.5C19.6274 0.5 25 5.87259 25 12.5C25 19.1274 19.6274 24.5 13 24.5C6.37258 24.5 1 19.1274 1 12.5C1.00001 5.87259 6.37259 0.500001 13 0.5Z" stroke="black" stroke-opacity="0.2"/>
<path d="M13 0.5C19.6274 0.5 25 5.87259 25 12.5C25 19.1274 19.6274 24.5 13 24.5C6.37258 24.5 1 19.1274 1 12.5C1.00001 5.87259 6.37259 0.500001 13 0.5Z" stroke="black" stroke-opacity="0.2"/>
<path d="M13 0.5C19.6274 0.5 25 5.87259 25 12.5C25 19.1274 19.6274 24.5 13 24.5C6.37258 24.5 1 19.1274 1 12.5C1.00001 5.87259 6.37259 0.500001 13 0.5Z" stroke="black" stroke-opacity="0.2"/>
<path d="M13 0.5C19.6274 0.5 25 5.87259 25 12.5C25 19.1274 19.6274 24.5 13 24.5C6.37258 24.5 1 19.1274 1 12.5C1.00001 5.87259 6.37259 0.500001 13 0.5Z" stroke="black" stroke-opacity="0.2"/>
<path d="M13 0.5C19.6274 0.5 25 5.87259 25 12.5C25 19.1274 19.6274 24.5 13 24.5C6.37258 24.5 1 19.1274 1 12.5C1.00001 5.87259 6.37259 0.500001 13 0.5Z" stroke="black" stroke-opacity="0.2"/>
<path d="M13 0.5C19.6274 0.5 25 5.87259 25 12.5C25 19.1274 19.6274 24.5 13 24.5C6.37258 24.5 1 19.1274 1 12.5C1.00001 5.87259 6.37259 0.500001 13 0.5Z" stroke="black" stroke-opacity="0.2"/>
<path d="M19.8653 10.4819C19.8653 8.85756 18.5235 7.51575 16.8992 7.51575H9.20145C7.57716 7.51575 6.23535 8.85756 6.23535 10.4819V14.0835C6.23535 15.7078 7.57716 17.0496 9.20145 17.0496H16.8992C18.5235 17.0496 19.8653 15.7078 19.8653 14.0835V10.4819ZM15.3455 12.5299L11.8851 14.2248C11.7438 14.2954 11.3201 14.2248 11.3201 14.0129V10.5525C11.3201 10.4112 11.8144 10.27 11.8851 10.4112L15.2043 12.1768C15.3455 12.2474 15.4868 12.4593 15.3455 12.5299Z" stroke="#2E2E2E"/>
<path d="M19.8653 10.4819C19.8653 8.85756 18.5235 7.51575 16.8992 7.51575H9.20145C7.57716 7.51575 6.23535 8.85756 6.23535 10.4819V14.0835C6.23535 15.7078 7.57716 17.0496 9.20145 17.0496H16.8992C18.5235 17.0496 19.8653 15.7078 19.8653 14.0835V10.4819ZM15.3455 12.5299L11.8851 14.2248C11.7438 14.2954 11.3201 14.2248 11.3201 14.0129V10.5525C11.3201 10.4112 11.8144 10.27 11.8851 10.4112L15.2043 12.1768C15.3455 12.2474 15.4868 12.4593 15.3455 12.5299Z" stroke="black" stroke-opacity="0.2"/>
<path d="M19.8653 10.4819C19.8653 8.85756 18.5235 7.51575 16.8992 7.51575H9.20145C7.57716 7.51575 6.23535 8.85756 6.23535 10.4819V14.0835C6.23535 15.7078 7.57716 17.0496 9.20145 17.0496H16.8992C18.5235 17.0496 19.8653 15.7078 19.8653 14.0835V10.4819ZM15.3455 12.5299L11.8851 14.2248C11.7438 14.2954 11.3201 14.2248 11.3201 14.0129V10.5525C11.3201 10.4112 11.8144 10.27 11.8851 10.4112L15.2043 12.1768C15.3455 12.2474 15.4868 12.4593 15.3455 12.5299Z" stroke="black" stroke-opacity="0.2"/>
<path d="M19.8653 10.4819C19.8653 8.85756 18.5235 7.51575 16.8992 7.51575H9.20145C7.57716 7.51575 6.23535 8.85756 6.23535 10.4819V14.0835C6.23535 15.7078 7.57716 17.0496 9.20145 17.0496H16.8992C18.5235 17.0496 19.8653 15.7078 19.8653 14.0835V10.4819ZM15.3455 12.5299L11.8851 14.2248C11.7438 14.2954 11.3201 14.2248 11.3201 14.0129V10.5525C11.3201 10.4112 11.8144 10.27 11.8851 10.4112L15.2043 12.1768C15.3455 12.2474 15.4868 12.4593 15.3455 12.5299Z" stroke="black" stroke-opacity="0.2"/>
<path d="M19.8653 10.4819C19.8653 8.85756 18.5235 7.51575 16.8992 7.51575H9.20145C7.57716 7.51575 6.23535 8.85756 6.23535 10.4819V14.0835C6.23535 15.7078 7.57716 17.0496 9.20145 17.0496H16.8992C18.5235 17.0496 19.8653 15.7078 19.8653 14.0835V10.4819ZM15.3455 12.5299L11.8851 14.2248C11.7438 14.2954 11.3201 14.2248 11.3201 14.0129V10.5525C11.3201 10.4112 11.8144 10.27 11.8851 10.4112L15.2043 12.1768C15.3455 12.2474 15.4868 12.4593 15.3455 12.5299Z" stroke="black" stroke-opacity="0.2"/>
<path d="M19.8653 10.4819C19.8653 8.85756 18.5235 7.51575 16.8992 7.51575H9.20145C7.57716 7.51575 6.23535 8.85756 6.23535 10.4819V14.0835C6.23535 15.7078 7.57716 17.0496 9.20145 17.0496H16.8992C18.5235 17.0496 19.8653 15.7078 19.8653 14.0835V10.4819ZM15.3455 12.5299L11.8851 14.2248C11.7438 14.2954 11.3201 14.2248 11.3201 14.0129V10.5525C11.3201 10.4112 11.8144 10.27 11.8851 10.4112L15.2043 12.1768C15.3455 12.2474 15.4868 12.4593 15.3455 12.5299Z" stroke="black" stroke-opacity="0.2"/>
<path d="M19.8653 10.4819C19.8653 8.85756 18.5235 7.51575 16.8992 7.51575H9.20145C7.57716 7.51575 6.23535 8.85756 6.23535 10.4819V14.0835C6.23535 15.7078 7.57716 17.0496 9.20145 17.0496H16.8992C18.5235 17.0496 19.8653 15.7078 19.8653 14.0835V10.4819ZM15.3455 12.5299L11.8851 14.2248C11.7438 14.2954 11.3201 14.2248 11.3201 14.0129V10.5525C11.3201 10.4112 11.8144 10.27 11.8851 10.4112L15.2043 12.1768C15.3455 12.2474 15.4868 12.4593 15.3455 12.5299Z" stroke="black" stroke-opacity="0.2"/>
<path d="M19.8653 10.4819C19.8653 8.85756 18.5235 7.51575 16.8992 7.51575H9.20145C7.57716 7.51575 6.23535 8.85756 6.23535 10.4819V14.0835C6.23535 15.7078 7.57716 17.0496 9.20145 17.0496H16.8992C18.5235 17.0496 19.8653 15.7078 19.8653 14.0835V10.4819ZM15.3455 12.5299L11.8851 14.2248C11.7438 14.2954 11.3201 14.2248 11.3201 14.0129V10.5525C11.3201 10.4112 11.8144 10.27 11.8851 10.4112L15.2043 12.1768C15.3455 12.2474 15.4868 12.4593 15.3455 12.5299Z" stroke="black" stroke-opacity="0.2"/>
<path d="M19.8653 10.4819C19.8653 8.85756 18.5235 7.51575 16.8992 7.51575H9.20145C7.57716 7.51575 6.23535 8.85756 6.23535 10.4819V14.0835C6.23535 15.7078 7.57716 17.0496 9.20145 17.0496H16.8992C18.5235 17.0496 19.8653 15.7078 19.8653 14.0835V10.4819ZM15.3455 12.5299L11.8851 14.2248C11.7438 14.2954 11.3201 14.2248 11.3201 14.0129V10.5525C11.3201 10.4112 11.8144 10.27 11.8851 10.4112L15.2043 12.1768C15.3455 12.2474 15.4868 12.4593 15.3455 12.5299Z" stroke="black" stroke-opacity="0.2"/>
<path d="M19.8653 10.4819C19.8653 8.85756 18.5235 7.51575 16.8992 7.51575H9.20145C7.57716 7.51575 6.23535 8.85756 6.23535 10.4819V14.0835C6.23535 15.7078 7.57716 17.0496 9.20145 17.0496H16.8992C18.5235 17.0496 19.8653 15.7078 19.8653 14.0835V10.4819ZM15.3455 12.5299L11.8851 14.2248C11.7438 14.2954 11.3201 14.2248 11.3201 14.0129V10.5525C11.3201 10.4112 11.8144 10.27 11.8851 10.4112L15.2043 12.1768C15.3455 12.2474 15.4868 12.4593 15.3455 12.5299Z" stroke="black" stroke-opacity="0.2"/>
<path d="M19.8653 10.4819C19.8653 8.85756 18.5235 7.51575 16.8992 7.51575H9.20145C7.57716 7.51575 6.23535 8.85756 6.23535 10.4819V14.0835C6.23535 15.7078 7.57716 17.0496 9.20145 17.0496H16.8992C18.5235 17.0496 19.8653 15.7078 19.8653 14.0835V10.4819ZM15.3455 12.5299L11.8851 14.2248C11.7438 14.2954 11.3201 14.2248 11.3201 14.0129V10.5525C11.3201 10.4112 11.8144 10.27 11.8851 10.4112L15.2043 12.1768C15.3455 12.2474 15.4868 12.4593 15.3455 12.5299Z" stroke="black" stroke-opacity="0.2"/>
<path d="M19.8653 10.4819C19.8653 8.85756 18.5235 7.51575 16.8992 7.51575H9.20145C7.57716 7.51575 6.23535 8.85756 6.23535 10.4819V14.0835C6.23535 15.7078 7.57716 17.0496 9.20145 17.0496H16.8992C18.5235 17.0496 19.8653 15.7078 19.8653 14.0835V10.4819ZM15.3455 12.5299L11.8851 14.2248C11.7438 14.2954 11.3201 14.2248 11.3201 14.0129V10.5525C11.3201 10.4112 11.8144 10.27 11.8851 10.4112L15.2043 12.1768C15.3455 12.2474 15.4868 12.4593 15.3455 12.5299Z" stroke="black" stroke-opacity="0.2"/>
<path d="M19.8653 10.4819C19.8653 8.85756 18.5235 7.51575 16.8992 7.51575H9.20145C7.57716 7.51575 6.23535 8.85756 6.23535 10.4819V14.0835C6.23535 15.7078 7.57716 17.0496 9.20145 17.0496H16.8992C18.5235 17.0496 19.8653 15.7078 19.8653 14.0835V10.4819ZM15.3455 12.5299L11.8851 14.2248C11.7438 14.2954 11.3201 14.2248 11.3201 14.0129V10.5525C11.3201 10.4112 11.8144 10.27 11.8851 10.4112L15.2043 12.1768C15.3455 12.2474 15.4868 12.4593 15.3455 12.5299Z" stroke="black" stroke-opacity="0.2"/>
<path d="M19.8653 10.4819C19.8653 8.85756 18.5235 7.51575 16.8992 7.51575H9.20145C7.57716 7.51575 6.23535 8.85756 6.23535 10.4819V14.0835C6.23535 15.7078 7.57716 17.0496 9.20145 17.0496H16.8992C18.5235 17.0496 19.8653 15.7078 19.8653 14.0835V10.4819ZM15.3455 12.5299L11.8851 14.2248C11.7438 14.2954 11.3201 14.2248 11.3201 14.0129V10.5525C11.3201 10.4112 11.8144 10.27 11.8851 10.4112L15.2043 12.1768C15.3455 12.2474 15.4868 12.4593 15.3455 12.5299Z" stroke="black" stroke-opacity="0.2"/>
</svg>
