<svg width="148" height="36" viewBox="0 0 148 36" fill="none" xmlns="http://www.w3.org/2000/svg">
<rect width="148" height="36" rx="5.47297" fill="black"/>
<path d="M26.5341 18.9385C26.5452 18.0994 26.7735 17.2767 27.1977 16.5468C27.622 15.817 28.2285 15.2038 28.9607 14.7643C28.4955 14.1157 27.8819 13.582 27.1685 13.2054C26.455 12.8289 25.6615 12.6199 24.8509 12.5952C23.1217 12.418 21.4454 13.6054 20.5642 13.6054C19.666 13.6054 18.3094 12.6128 16.8484 12.6421C15.9035 12.6719 14.9826 12.9402 14.1754 13.4208C13.3682 13.9014 12.7023 14.5779 12.2425 15.3845C10.2511 18.7507 11.7365 23.698 13.6442 26.419C14.5987 27.7514 15.7141 29.2397 17.1737 29.187C18.602 29.1291 19.1355 28.2978 20.8596 28.2978C22.5676 28.2978 23.0681 29.187 24.5573 29.1534C26.09 29.1291 27.0556 27.8151 27.9766 26.4701C28.6623 25.5207 29.19 24.4714 29.5401 23.3611C28.6497 22.9934 27.8898 22.378 27.3553 21.5915C26.8207 20.8051 26.5351 19.8824 26.5341 18.9385Z" fill="white"/>
<path d="M23.722 10.8061C24.5576 9.82669 24.9693 8.56784 24.8696 7.29688C23.5929 7.42779 22.4136 8.0235 21.5667 8.96532C21.1526 9.42542 20.8354 9.96069 20.6334 10.5405C20.4313 11.1204 20.3482 11.7334 20.389 12.3446C21.0276 12.351 21.6593 12.2159 22.2366 11.9494C22.814 11.6829 23.3218 11.292 23.722 10.8061Z" fill="white"/>
<path d="M39.6484 11.7441H37.6286V5.19869H39.7379C40.3729 5.19869 40.9162 5.32972 41.3679 5.5918C41.8196 5.85174 42.1658 6.22567 42.4066 6.7136C42.6474 7.1994 42.7678 7.78107 42.7678 8.45863C42.7678 9.14045 42.6463 9.72745 42.4034 10.2196C42.1605 10.7097 41.8068 11.0868 41.3423 11.351C40.8778 11.6131 40.3132 11.7441 39.6484 11.7441ZM38.4212 11.041H39.5973C40.1385 11.041 40.587 10.9366 40.9428 10.7278C41.2987 10.519 41.5639 10.2218 41.7386 9.83612C41.9134 9.45046 42.0007 8.9913 42.0007 8.45863C42.0007 7.93022 41.9144 7.47532 41.7418 7.09393C41.5692 6.7104 41.3114 6.41637 40.9684 6.21182C40.6254 6.00515 40.1982 5.90181 39.6868 5.90181H38.4212V11.041ZM45.9893 11.8464C45.5462 11.8464 45.1573 11.7409 44.8228 11.53C44.4904 11.3191 44.2305 11.024 44.043 10.6447C43.8576 10.2654 43.7649 9.82227 43.7649 9.31516C43.7649 8.8038 43.8576 8.35742 44.043 7.97603C44.2305 7.59464 44.4904 7.29847 44.8228 7.08754C45.1573 6.8766 45.5462 6.77113 45.9893 6.77113C46.4325 6.77113 46.8203 6.8766 47.1527 7.08754C47.4872 7.29847 47.7472 7.59464 47.9325 7.97603C48.12 8.35742 48.2138 8.8038 48.2138 9.31516C48.2138 9.82227 48.12 10.2654 47.9325 10.6447C47.7472 11.024 47.4872 11.3191 47.1527 11.53C46.8203 11.7409 46.4325 11.8464 45.9893 11.8464ZM45.9893 11.1689C46.326 11.1689 46.603 11.0826 46.8203 10.91C47.0376 10.7374 47.1985 10.5105 47.3029 10.2292C47.4073 9.94798 47.4595 9.64329 47.4595 9.31516C47.4595 8.98704 47.4073 8.68129 47.3029 8.3979C47.1985 8.11452 47.0376 7.88548 46.8203 7.71076C46.603 7.53604 46.326 7.44869 45.9893 7.44869C45.6527 7.44869 45.3757 7.53604 45.1584 7.71076C44.9411 7.88548 44.7802 8.11452 44.6758 8.3979C44.5714 8.68129 44.5192 8.98704 44.5192 9.31516C44.5192 9.64329 44.5714 9.94798 44.6758 10.2292C44.7802 10.5105 44.9411 10.7374 45.1584 10.91C45.3757 11.0826 45.6527 11.1689 45.9893 11.1689ZM50.3104 11.7441L48.8146 6.83505H49.6072L50.6683 10.5936H50.7195L51.7678 6.83505H52.5732L53.6087 10.5808H53.6598L54.7209 6.83505H55.5135L54.0178 11.7441H53.2763L52.2024 7.97283H52.1257L51.0518 11.7441H50.3104ZM57.2649 8.79102V11.7441H56.5107V6.83505H57.2393V7.6021H57.3033C57.4183 7.35281 57.593 7.15252 57.8274 7.00124C58.0618 6.84783 58.3643 6.77113 58.7351 6.77113C59.0675 6.77113 59.3583 6.83931 59.6076 6.97567C59.8569 7.10991 60.0508 7.31445 60.1893 7.58931C60.3278 7.86204 60.397 8.20721 60.397 8.62482V11.7441H59.6428V8.67596C59.6428 8.29031 59.5426 7.98988 59.3423 7.77468C59.142 7.55735 58.8672 7.44869 58.5178 7.44869C58.277 7.44869 58.0618 7.50089 57.8722 7.60529C57.6847 7.70969 57.5366 7.86204 57.4279 8.06232C57.3192 8.26261 57.2649 8.5055 57.2649 8.79102ZM62.5296 5.19869V11.7441H61.7753V5.19869H62.5296ZM65.9054 11.8464C65.4622 11.8464 65.0733 11.7409 64.7388 11.53C64.4064 11.3191 64.1465 11.024 63.959 10.6447C63.7736 10.2654 63.6809 9.82227 63.6809 9.31516C63.6809 8.8038 63.7736 8.35742 63.959 7.97603C64.1465 7.59464 64.4064 7.29847 64.7388 7.08754C65.0733 6.8766 65.4622 6.77113 65.9054 6.77113C66.3485 6.77113 66.7363 6.8766 67.0687 7.08754C67.4032 7.29847 67.6632 7.59464 67.8485 7.97603C68.036 8.35742 68.1298 8.8038 68.1298 9.31516C68.1298 9.82227 68.036 10.2654 67.8485 10.6447C67.6632 11.024 67.4032 11.3191 67.0687 11.53C66.7363 11.7409 66.3485 11.8464 65.9054 11.8464ZM65.9054 11.1689C66.242 11.1689 66.519 11.0826 66.7363 10.91C66.9537 10.7374 67.1145 10.5105 67.2189 10.2292C67.3233 9.94798 67.3755 9.64329 67.3755 9.31516C67.3755 8.98704 67.3233 8.68129 67.2189 8.3979C67.1145 8.11452 66.9537 7.88548 66.7363 7.71076C66.519 7.53604 66.242 7.44869 65.9054 7.44869C65.5687 7.44869 65.2917 7.53604 65.0744 7.71076C64.8571 7.88548 64.6962 8.11452 64.5918 8.3979C64.4874 8.68129 64.4352 8.98704 64.4352 9.31516C64.4352 9.64329 64.4874 9.94798 64.5918 10.2292C64.6962 10.5105 64.8571 10.7374 65.0744 10.91C65.2917 11.0826 65.5687 11.1689 65.9054 11.1689ZM70.7258 11.8592C70.4147 11.8592 70.1324 11.8006 69.8788 11.6834C69.6253 11.5641 69.4239 11.3926 69.2748 11.1689C69.1256 10.943 69.051 10.6703 69.051 10.3507C69.051 10.0694 69.1064 9.84144 69.2172 9.66673C69.328 9.48988 69.4761 9.35138 69.6615 9.25124C69.8469 9.1511 70.0514 9.07653 70.2751 9.02752C70.501 8.97638 70.7279 8.9359 70.9559 8.90607C71.2542 8.86772 71.496 8.83896 71.6814 8.81978C71.8689 8.79847 72.0052 8.76332 72.0905 8.71431C72.1778 8.66531 72.2215 8.58008 72.2215 8.45863V8.43306C72.2215 8.11772 72.1352 7.87269 71.9626 7.69798C71.7922 7.52326 71.5333 7.4359 71.186 7.4359C70.8259 7.4359 70.5436 7.51474 70.339 7.67241C70.1345 7.83008 69.9907 7.9984 69.9076 8.17738L69.1917 7.9217C69.3195 7.6234 69.49 7.39116 69.703 7.22496C69.9182 7.05664 70.1526 6.93945 70.4062 6.8734C70.6618 6.80522 70.9133 6.77113 71.1604 6.77113C71.3181 6.77113 71.4992 6.79031 71.7037 6.82866C71.9104 6.86488 72.1096 6.94052 72.3014 7.05557C72.4953 7.17063 72.6562 7.34428 72.784 7.57653C72.9118 7.80877 72.9758 8.11985 72.9758 8.50977V11.7441H72.2215V11.0794H72.1832C72.132 11.1859 72.0468 11.2999 71.9275 11.4213C71.8081 11.5428 71.6494 11.6461 71.4513 11.7314C71.2531 11.8166 71.0113 11.8592 70.7258 11.8592ZM70.8408 11.1816C71.1391 11.1816 71.3905 11.123 71.5951 11.0059C71.8018 10.8887 71.9573 10.7374 72.0617 10.552C72.1682 10.3667 72.2215 10.1717 72.2215 9.96715V9.27681C72.1895 9.31516 72.1192 9.35032 72.0106 9.38228C71.904 9.41211 71.7805 9.43874 71.6398 9.46218C71.5013 9.48349 71.366 9.50266 71.2339 9.51971C71.104 9.53462 70.9985 9.54741 70.9175 9.55806C70.7215 9.58363 70.5383 9.62518 70.3678 9.68271C70.1995 9.7381 70.0631 9.82227 69.9587 9.93519C69.8564 10.046 69.8053 10.1973 69.8053 10.389C69.8053 10.6511 69.9023 10.8493 70.0961 10.9835C70.2922 11.1156 70.5404 11.1816 70.8408 11.1816ZM76.2061 11.8464C75.7971 11.8464 75.4359 11.7431 75.1227 11.5364C74.8095 11.3276 74.5645 11.0336 74.3876 10.6543C74.2108 10.2729 74.1223 9.82227 74.1223 9.30238C74.1223 8.78675 74.2108 8.33931 74.3876 7.96005C74.5645 7.58079 74.8105 7.28782 75.1259 7.08114C75.4412 6.87447 75.8056 6.77113 76.2189 6.77113C76.5385 6.77113 76.791 6.8244 76.9764 6.93093C77.1639 7.03533 77.3066 7.15465 77.4047 7.28888C77.5048 7.42099 77.5826 7.52965 77.638 7.61488H77.7019V5.19869H78.4561V11.7441H77.7275V10.9899H77.638C77.5826 11.0794 77.5037 11.1923 77.4015 11.3287C77.2992 11.4629 77.1532 11.5833 76.9636 11.6898C76.774 11.7942 76.5215 11.8464 76.2061 11.8464ZM76.3084 11.1689C76.611 11.1689 76.8667 11.09 77.0755 10.9324C77.2843 10.7725 77.443 10.552 77.5517 10.2708C77.6603 9.98739 77.7147 9.66033 77.7147 9.2896C77.7147 8.92312 77.6614 8.60245 77.5549 8.32759C77.4483 8.0506 77.2907 7.8354 77.0819 7.682C76.873 7.52646 76.6152 7.44869 76.3084 7.44869C75.9888 7.44869 75.7225 7.53072 75.5094 7.69478C75.2985 7.85671 75.1397 8.07724 75.0332 8.35636C74.9288 8.63335 74.8766 8.94442 74.8766 9.2896C74.8766 9.63903 74.9299 9.9565 75.0364 10.242C75.1451 10.5254 75.3049 10.7512 75.5158 10.9196C75.7289 11.0858 75.9931 11.1689 76.3084 11.1689ZM84.4679 11.8464C84.0247 11.8464 83.6358 11.7409 83.3013 11.53C82.9689 11.3191 82.709 11.024 82.5215 10.6447C82.3361 10.2654 82.2434 9.82227 82.2434 9.31516C82.2434 8.8038 82.3361 8.35742 82.5215 7.97603C82.709 7.59464 82.9689 7.29847 83.3013 7.08754C83.6358 6.8766 84.0247 6.77113 84.4679 6.77113C84.911 6.77113 85.2988 6.8766 85.6312 7.08754C85.9657 7.29847 86.2257 7.59464 86.411 7.97603C86.5985 8.35742 86.6923 8.8038 86.6923 9.31516C86.6923 9.82227 86.5985 10.2654 86.411 10.6447C86.2257 11.024 85.9657 11.3191 85.6312 11.53C85.2988 11.7409 84.911 11.8464 84.4679 11.8464ZM84.4679 11.1689C84.8045 11.1689 85.0815 11.0826 85.2988 10.91C85.5162 10.7374 85.677 10.5105 85.7814 10.2292C85.8858 9.94798 85.938 9.64329 85.938 9.31516C85.938 8.98704 85.8858 8.68129 85.7814 8.3979C85.677 8.11452 85.5162 7.88548 85.2988 7.71076C85.0815 7.53604 84.8045 7.44869 84.4679 7.44869C84.1312 7.44869 83.8542 7.53604 83.6369 7.71076C83.4196 7.88548 83.2587 8.11452 83.1543 8.3979C83.0499 8.68129 82.9977 8.98704 82.9977 9.31516C82.9977 9.64329 83.0499 9.94798 83.1543 10.2292C83.2587 10.5105 83.4196 10.7374 83.6369 10.91C83.8542 11.0826 84.1312 11.1689 84.4679 11.1689ZM88.5979 8.79102V11.7441H87.8437V6.83505H88.5724V7.6021H88.6363C88.7513 7.35281 88.926 7.15252 89.1604 7.00124C89.3948 6.84783 89.6974 6.77113 90.0681 6.77113C90.4005 6.77113 90.6913 6.83931 90.9406 6.97567C91.1899 7.10991 91.3838 7.31445 91.5223 7.58931C91.6608 7.86204 91.73 8.20721 91.73 8.62482V11.7441H90.9758V8.67596C90.9758 8.29031 90.8756 7.98988 90.6753 7.77468C90.4751 7.55735 90.2002 7.44869 89.8508 7.44869C89.61 7.44869 89.3948 7.50089 89.2052 7.60529C89.0177 7.70969 88.8696 7.86204 88.7609 8.06232C88.6523 8.26261 88.5979 8.5055 88.5979 8.79102ZM97.7745 6.83505V7.47425H95.2305V6.83505H97.7745ZM95.9719 5.65891H96.7262V10.3379C96.7262 10.551 96.7571 10.7108 96.8189 10.8173C96.8828 10.9217 96.9638 10.992 97.0618 11.0282C97.1619 11.0623 97.2674 11.0794 97.3782 11.0794C97.4613 11.0794 97.5295 11.0751 97.5827 11.0666C97.636 11.0559 97.6786 11.0474 97.7106 11.041L97.864 11.7186C97.8129 11.7377 97.7415 11.7569 97.6499 11.7761C97.5582 11.7974 97.4421 11.8081 97.3015 11.8081C97.0884 11.8081 96.8796 11.7623 96.6751 11.6706C96.4727 11.579 96.3043 11.4395 96.1701 11.252C96.038 11.0645 95.9719 10.8279 95.9719 10.5424V5.65891ZM99.7688 8.79102V11.7441H99.0146V5.19869H99.7688V7.6021H99.8327C99.9478 7.34854 100.12 7.14719 100.35 6.99805C100.583 6.84677 100.892 6.77113 101.277 6.77113C101.612 6.77113 101.905 6.83825 102.156 6.97248C102.408 7.10458 102.603 7.30806 102.741 7.58292C102.882 7.85565 102.952 8.20295 102.952 8.62482V11.7441H102.198V8.67596C102.198 8.28604 102.097 7.98455 101.894 7.77148C101.694 7.55629 101.416 7.44869 101.06 7.44869C100.813 7.44869 100.591 7.50089 100.395 7.60529C100.201 7.70969 100.048 7.86204 99.935 8.06232C99.8242 8.26261 99.7688 8.5055 99.7688 8.79102ZM106.39 11.8464C105.917 11.8464 105.509 11.742 105.166 11.5332C104.825 11.3223 104.562 11.0282 104.377 10.6511C104.193 10.2718 104.102 9.83079 104.102 9.32795C104.102 8.82511 104.193 8.38192 104.377 7.9984C104.562 7.61275 104.82 7.31232 105.15 7.09712C105.483 6.87979 105.87 6.77113 106.313 6.77113C106.569 6.77113 106.822 6.81374 107.071 6.89897C107.32 6.9842 107.547 7.12269 107.752 7.31445C107.956 7.50408 108.119 7.7555 108.241 8.06871C108.362 8.38192 108.423 8.76758 108.423 9.22567V9.54528H104.639V8.89329H107.656C107.656 8.6163 107.6 8.36914 107.49 8.15181C107.381 7.93448 107.225 7.76296 107.023 7.63725C106.823 7.51154 106.586 7.44869 106.313 7.44869C106.013 7.44869 105.753 7.52326 105.534 7.67241C105.316 7.81942 105.149 8.01119 105.032 8.24769C104.915 8.4842 104.856 8.73775 104.856 9.00835V9.443C104.856 9.81374 104.92 10.128 105.048 10.3858C105.178 10.6415 105.358 10.8365 105.588 10.9707C105.818 11.1028 106.085 11.1689 106.39 11.1689C106.588 11.1689 106.767 11.1412 106.927 11.0858C107.089 11.0282 107.229 10.943 107.346 10.8301C107.463 10.715 107.554 10.5723 107.617 10.4018L108.346 10.6064C108.269 10.8535 108.141 11.0708 107.959 11.2583C107.778 11.4437 107.555 11.5886 107.288 11.693C107.022 11.7953 106.723 11.8464 106.39 11.8464Z" fill="white"/>
<path d="M38.8482 27.7441H36.9963L40.7643 16.8009H42.8006L46.5606 27.7441H44.6365L43.6665 24.7137H39.8263L38.8482 27.7441ZM41.7905 18.6929H41.7183L40.2352 23.3187H43.2576L41.7905 18.6929ZM51.6717 27.8644C50.5733 27.8644 49.7396 27.3433 49.2906 26.5656H49.2265V30.5581H47.4467V19.2701H49.1784V20.5128H49.2425C49.7075 19.703 50.5733 19.1579 51.7118 19.1579C53.6118 19.1579 54.9667 20.5929 54.9667 23.1263V23.8799C54.9667 26.3973 53.6278 27.8644 51.6717 27.8644ZM51.2628 26.3973C52.3932 26.3973 53.1629 25.4913 53.1629 23.7837V23.1905C53.1629 21.547 52.4413 20.609 51.2307 20.609C49.9881 20.609 49.2105 21.6191 49.2105 23.1824V23.7837C49.2105 25.3871 49.9961 26.3973 51.2628 26.3973ZM60.7191 27.8644C59.6208 27.8644 58.787 27.3433 58.3381 26.5656H58.2739V30.5581H56.4941V19.2701H58.2258V20.5128H58.29C58.7549 19.703 59.6208 19.1579 60.7592 19.1579C62.6592 19.1579 64.0141 20.5929 64.0141 23.1263V23.8799C64.0141 26.3973 62.6753 27.8644 60.7191 27.8644ZM60.3103 26.3973C61.4407 26.3973 62.2103 25.4913 62.2103 23.7837V23.1905C62.2103 21.547 61.4888 20.609 60.2782 20.609C59.0355 20.609 58.2579 21.6191 58.2579 23.1824V23.7837C58.2579 25.3871 59.0436 26.3973 60.3103 26.3973ZM67.7024 24.7057H69.4822C69.5623 25.6517 70.3961 26.4614 71.9434 26.4614C73.3624 26.4614 74.2042 25.796 74.2042 24.7618C74.2042 23.928 73.643 23.4791 72.4725 23.1985L70.6767 22.7495C69.2657 22.4208 67.999 21.579 67.999 19.7992C67.999 17.7068 69.8269 16.5604 71.9514 16.5604C74.0759 16.5604 75.8477 17.7068 75.8878 19.7511H74.1401C74.0599 18.8212 73.3464 18.0515 71.9274 18.0515C70.6767 18.0515 69.8269 18.6448 69.8269 19.663C69.8269 20.3765 70.3239 20.8896 71.3421 21.1221L73.1299 21.563C74.7734 21.9638 76.0241 22.7415 76.0241 24.6015C76.0241 26.75 74.2844 27.9606 71.8071 27.9606C68.7606 27.9606 67.7425 26.1808 67.7024 24.7057ZM78.1929 19.2701V17.2097H79.9406V19.2701H81.5921V20.6972H79.9406V25.2188C79.9406 26.1407 80.2853 26.3973 81.2394 26.3973C81.3917 26.3973 81.536 26.3973 81.6402 26.3812V27.7441C81.4959 27.7682 81.1592 27.8003 80.7984 27.8003C78.738 27.8003 78.1688 27.0627 78.1688 25.3631V20.6972H76.9983V19.2701H78.1929ZM86.3985 19.1258C88.8357 19.1258 90.1585 20.8415 90.1585 23.1504V23.8318C90.1585 26.2209 88.8437 27.8884 86.3985 27.8884C83.9533 27.8884 82.6225 26.2209 82.6225 23.8318V23.1504C82.6225 20.8495 83.9613 19.1258 86.3985 19.1258ZM86.3985 20.5528C85.0757 20.5528 84.4183 21.6351 84.4183 23.1744V23.8238C84.4183 25.339 85.0677 26.4534 86.3985 26.4534C87.7294 26.4534 88.3707 25.347 88.3707 23.8238V23.1744C88.3707 21.6271 87.7213 20.5528 86.3985 20.5528ZM91.6619 27.7441V19.2701H93.4417V20.3845H93.5058C93.7223 19.8554 94.3556 19.1499 95.5341 19.1499C95.7666 19.1499 95.9671 19.1659 96.1354 19.198V20.7693C95.9831 20.7292 95.6704 20.7052 95.3738 20.7052C93.9468 20.7052 93.4657 21.587 93.4657 22.7255V27.7441H91.6619ZM100.453 27.8884C98.184 27.8884 96.7409 26.3893 96.7409 23.8799V23.0221C96.7409 20.6571 98.1519 19.1258 100.381 19.1258C102.641 19.1258 104.004 20.7132 104.004 23.1023V23.912H98.4966V24.1124C98.4966 25.5395 99.2663 26.4855 100.477 26.4855C101.383 26.4855 102 26.0365 102.217 25.307H103.908C103.652 26.6779 102.545 27.8884 100.453 27.8884ZM98.4966 22.6693H102.265V22.6533C102.265 21.4508 101.519 20.5047 100.389 20.5047C99.2422 20.5047 98.4966 21.4508 98.4966 22.6533V22.6693Z" fill="white"/>
</svg>
