<svg width="148" height="36" viewBox="0 0 148 36" fill="none" xmlns="http://www.w3.org/2000/svg">
<rect width="148" height="36" rx="5.47297" fill="black"/>
<path d="M20.2408 17.7515L11.3789 27.3696C11.3797 27.3713 11.3797 27.3738 11.3806 27.3755C11.6527 28.4199 12.585 29.1885 13.692 29.1885C14.1348 29.1885 14.5501 29.0659 14.9063 28.8514L14.9346 28.8344L24.9093 22.9487L20.2408 17.7515Z" fill="#EA4335"/>
<path d="M29.2055 16.1143L29.1972 16.1084L24.8907 13.5557L20.0391 17.9707L24.9082 22.9482L29.1914 20.4212C29.9422 20.0058 30.4524 19.1963 30.4524 18.2635C30.4524 17.3357 29.9497 16.5305 29.2055 16.1143Z" fill="#FBBC04"/>
<path d="M11.3784 9.11537C11.3252 9.31624 11.2969 9.52733 11.2969 9.74523V26.7411C11.2969 26.959 11.3252 27.1701 11.3793 27.3701L20.5449 17.998L11.3784 9.11537Z" fill="#4285F4"/>
<path d="M20.3065 18.2432L24.8927 13.5541L14.9296 7.64712C14.5676 7.42497 14.1447 7.2973 13.6928 7.2973C12.5858 7.2973 11.6519 8.06759 11.3797 9.11281C11.3797 9.11366 11.3789 9.11452 11.3789 9.11537L20.3065 18.2432Z" fill="#34A853"/>
<path d="M42.103 9.06055C42.0327 8.84535 41.94 8.65252 41.8249 8.48207C41.712 8.30948 41.5767 8.16246 41.419 8.04102C41.2635 7.91957 41.0866 7.82688 40.8885 7.76296C40.6903 7.69904 40.473 7.66708 40.2365 7.66708C39.8487 7.66708 39.4961 7.76722 39.1786 7.96751C38.8612 8.16779 38.6087 8.46289 38.4212 8.85281C38.2337 9.24272 38.1399 9.72106 38.1399 10.2878C38.1399 10.8546 38.2347 11.3329 38.4244 11.7228C38.614 12.1127 38.8707 12.4078 39.1946 12.6081C39.5185 12.8084 39.8828 12.9086 40.2876 12.9086C40.6626 12.9086 40.9929 12.8287 41.2784 12.6689C41.5661 12.5069 41.7898 12.2789 41.9496 11.9849C42.1115 11.6887 42.1925 11.3404 42.1925 10.9398L42.4354 10.9909H40.4666V10.2878H42.9595V10.9909C42.9595 11.53 42.8445 11.9988 42.6143 12.3972C42.3864 12.7956 42.071 13.1046 41.6683 13.324C41.2678 13.5414 40.8075 13.65 40.2876 13.65C39.7081 13.65 39.1989 13.5137 38.7599 13.2409C38.3232 12.9682 37.9822 12.5804 37.7372 12.0776C37.4943 11.5748 37.3729 10.9782 37.3729 10.2878C37.3729 9.77006 37.4421 9.30451 37.5806 8.89116C37.7212 8.47567 37.9194 8.12198 38.1751 7.83008C38.4308 7.53817 38.7333 7.31445 39.0827 7.15891C39.4322 7.00337 39.8168 6.9256 40.2365 6.9256C40.5817 6.9256 40.9034 6.97781 41.2017 7.08221C41.5021 7.18448 41.7695 7.33043 42.0039 7.52006C42.2404 7.70756 42.4375 7.93235 42.5952 8.19442C42.7528 8.45437 42.8615 8.74308 42.9212 9.06055H42.103ZM46.273 13.6628C45.8 13.6628 45.392 13.5584 45.0489 13.3496C44.708 13.1387 44.4449 12.8446 44.2595 12.4675C44.0763 12.0882 43.9846 11.6472 43.9846 11.1444C43.9846 10.6415 44.0763 10.1983 44.2595 9.81481C44.4449 9.42915 44.7027 9.12873 45.0329 8.91353C45.3653 8.6962 45.7531 8.58754 46.1963 8.58754C46.452 8.58754 46.7045 8.63015 46.9537 8.71538C47.203 8.8006 47.43 8.9391 47.6345 9.13086C47.839 9.32049 48.002 9.57191 48.1235 9.88512C48.2449 10.1983 48.3057 10.584 48.3057 11.0421V11.3617H44.5216V10.7097H47.5386C47.5386 10.4327 47.4832 10.1855 47.3724 9.96822C47.2638 9.75089 47.1082 9.57937 46.9058 9.45366C46.7055 9.32795 46.469 9.26509 46.1963 9.26509C45.8959 9.26509 45.6359 9.33967 45.4165 9.48881C45.1991 9.63583 45.0319 9.82759 44.9147 10.0641C44.7975 10.3006 44.7389 10.5542 44.7389 10.8248V11.2594C44.7389 11.6301 44.8028 11.9444 44.9307 12.2022C45.0606 12.4579 45.2407 12.6529 45.4708 12.7871C45.7009 12.9192 45.9683 12.9853 46.273 12.9853C46.4711 12.9853 46.6501 12.9576 46.8099 12.9022C46.9719 12.8446 47.1114 12.7594 47.2286 12.6465C47.3458 12.5314 47.4363 12.3887 47.5003 12.2182L48.229 12.4228C48.1523 12.6699 48.0233 12.8873 47.8422 13.0748C47.6611 13.2601 47.4374 13.405 47.1711 13.5094C46.9047 13.6117 46.6054 13.6628 46.273 13.6628ZM51.588 8.65146V9.29066H49.0439V8.65146H51.588ZM49.7854 7.47532H50.5397V12.1543C50.5397 12.3674 50.5706 12.5272 50.6324 12.6337C50.6963 12.7381 50.7773 12.8084 50.8753 12.8446C50.9754 12.8787 51.0809 12.8958 51.1917 12.8958C51.2748 12.8958 51.343 12.8915 51.3962 12.883C51.4495 12.8723 51.4921 12.8638 51.5241 12.8574L51.6775 13.535C51.6263 13.5542 51.555 13.5733 51.4633 13.5925C51.3717 13.6138 51.2556 13.6245 51.115 13.6245C50.9019 13.6245 50.6931 13.5787 50.4885 13.487C50.2861 13.3954 50.1178 13.2559 49.9836 13.0684C49.8515 12.8809 49.7854 12.6444 49.7854 12.3588V7.47532ZM55.2538 13.5605V8.65146H56.0081V13.5605H55.2538ZM55.6373 7.83327C55.4903 7.83327 55.3635 7.7832 55.257 7.68306C55.1526 7.58292 55.1004 7.46254 55.1004 7.32191C55.1004 7.18129 55.1526 7.0609 55.257 6.96076C55.3635 6.86062 55.4903 6.81055 55.6373 6.81055C55.7844 6.81055 55.9101 6.86062 56.0145 6.96076C56.121 7.0609 56.1743 7.18129 56.1743 7.32191C56.1743 7.46254 56.121 7.58292 56.0145 7.68306C55.9101 7.7832 55.7844 7.83327 55.6373 7.83327ZM59.5245 8.65146V9.29066H56.9805V8.65146H59.5245ZM57.7219 7.47532H58.4762V12.1543C58.4762 12.3674 58.5071 12.5272 58.5689 12.6337C58.6328 12.7381 58.7138 12.8084 58.8118 12.8446C58.9119 12.8787 59.0174 12.8958 59.1282 12.8958C59.2113 12.8958 59.2795 12.8915 59.3327 12.883C59.386 12.8723 59.4286 12.8638 59.4606 12.8574L59.614 13.535C59.5629 13.5542 59.4915 13.5733 59.3999 13.5925C59.3082 13.6138 59.1921 13.6245 59.0515 13.6245C58.8384 13.6245 58.6296 13.5787 58.4251 13.487C58.2227 13.3954 58.0543 13.2559 57.9201 13.0684C57.788 12.8809 57.7219 12.6444 57.7219 12.3588V7.47532ZM65.1847 13.6628C64.7415 13.6628 64.3526 13.5574 64.0181 13.3464C63.6857 13.1355 63.4258 12.8404 63.2383 12.4611C63.0529 12.0819 62.9602 11.6387 62.9602 11.1316C62.9602 10.6202 63.0529 10.1738 63.2383 9.79244C63.4258 9.41104 63.6857 9.11488 64.0181 8.90394C64.3526 8.693 64.7415 8.58754 65.1847 8.58754C65.6278 8.58754 66.0156 8.693 66.348 8.90394C66.6825 9.11488 66.9425 9.41104 67.1278 9.79244C67.3153 10.1738 67.4091 10.6202 67.4091 11.1316C67.4091 11.6387 67.3153 12.0819 67.1278 12.4611C66.9425 12.8404 66.6825 13.1355 66.348 13.3464C66.0156 13.5574 65.6278 13.6628 65.1847 13.6628ZM65.1847 12.9853C65.5213 12.9853 65.7983 12.899 66.0156 12.7264C66.233 12.5538 66.3938 12.3269 66.4982 12.0456C66.6026 11.7644 66.6548 11.4597 66.6548 11.1316C66.6548 10.8034 66.6026 10.4977 66.4982 10.2143C66.3938 9.93093 66.233 9.70188 66.0156 9.52717C65.7983 9.35245 65.5213 9.26509 65.1847 9.26509C64.848 9.26509 64.571 9.35245 64.3537 9.52717C64.1364 9.70188 63.9755 9.93093 63.8711 10.2143C63.7667 10.4977 63.7145 10.8034 63.7145 11.1316C63.7145 11.4597 63.7667 11.7644 63.8711 12.0456C63.9755 12.3269 64.1364 12.5538 64.3537 12.7264C64.571 12.899 64.848 12.9853 65.1847 12.9853ZM69.3147 10.6074V13.5605H68.5605V8.65146H69.2892V9.4185H69.3531C69.4681 9.16921 69.6428 8.96893 69.8772 8.81765C70.1116 8.66424 70.4142 8.58754 70.7849 8.58754C71.1173 8.58754 71.4081 8.65572 71.6574 8.79208C71.9067 8.92631 72.1006 9.13086 72.2391 9.40572C72.3776 9.67844 72.4468 10.0236 72.4468 10.4412V13.5605H71.6926V10.4924C71.6926 10.1067 71.5924 9.80629 71.3921 9.59109C71.1919 9.37376 70.917 9.26509 70.5676 9.26509C70.3268 9.26509 70.1116 9.31729 69.922 9.4217C69.7345 9.5261 69.5864 9.67844 69.4777 9.87873C69.3691 10.079 69.3147 10.3219 69.3147 10.6074Z" fill="white"/>
<path d="M89.3018 28.7045H90.7875V18.6602H89.3018V28.7045ZM102.684 22.2783L100.981 26.6331H100.93L99.1621 22.2783H97.5617L100.212 28.3646L98.7019 31.7505H100.251L104.336 22.2783H102.684ZM94.2582 27.5636C93.771 27.5636 93.0926 27.3185 93.0926 26.7103C93.0926 25.9357 93.9374 25.6384 94.6675 25.6384C95.3204 25.6384 95.6285 25.7807 96.025 25.9743C95.9096 26.9047 95.1158 27.5636 94.2582 27.5636ZM94.4374 22.0589C93.3617 22.0589 92.247 22.537 91.7868 23.5968L93.1053 24.152C93.3872 23.5968 93.9119 23.4152 94.4629 23.4152C95.2312 23.4152 96.0123 23.8804 96.025 24.708V24.8109C95.7559 24.6558 95.1803 24.4236 94.4756 24.4236C93.0544 24.4236 91.6068 25.2118 91.6068 26.6846C91.6068 28.0288 92.7725 28.8949 94.0783 28.8949C95.0775 28.8949 95.6285 28.4426 95.9741 27.9123H96.025V28.6876H97.459V24.8366C97.459 23.0537 96.1405 22.0589 94.4374 22.0589ZM85.2554 23.5012H83.1423V20.0583H85.2554C86.3661 20.0583 86.9967 20.9863 86.9967 21.7793C86.9967 22.5579 86.3661 23.5012 85.2554 23.5012ZM85.2172 18.6602H81.6573V28.7045H83.1423V24.8992H85.2172C86.8638 24.8992 88.4825 23.6956 88.4825 21.7793C88.4825 19.863 86.8638 18.6602 85.2172 18.6602ZM65.8047 27.5652C64.7783 27.5652 63.9192 26.6982 63.9192 25.5075C63.9192 24.3039 64.7783 23.4233 65.8047 23.4233C66.8182 23.4233 67.6129 24.3039 67.6129 25.5075C67.6129 26.6982 66.8182 27.5652 65.8047 27.5652ZM67.511 22.8407H67.4592C67.1256 22.4398 66.4846 22.0774 65.6765 22.0774C63.9829 22.0774 62.4311 23.5783 62.4311 25.5075C62.4311 27.423 63.9829 28.9118 65.6765 28.9118C66.4846 28.9118 67.1256 28.5494 67.4592 28.1348H67.511V28.6274C67.511 29.9346 66.8182 30.6337 65.7019 30.6337C64.7911 30.6337 64.2266 29.9732 63.9957 29.4164L62.7002 29.9604C63.0721 30.8667 64.0602 31.9795 65.7019 31.9795C67.4465 31.9795 68.9218 30.9438 68.9218 28.4201V22.2839H67.511V22.8407ZM69.9482 28.7045H71.4363V18.6594H69.9482V28.7045ZM73.6291 25.391C73.5909 24.0709 74.6427 23.3975 75.3991 23.3975C75.9899 23.3975 76.4899 23.6948 76.6563 24.1223L73.6291 25.391ZM78.2471 24.2516C77.9653 23.4883 77.1054 22.0774 75.3481 22.0774C73.6036 22.0774 72.1545 23.4618 72.1545 25.4946C72.1545 27.4101 73.5909 28.9118 75.5145 28.9118C77.0671 28.9118 77.9653 27.9541 78.3371 27.3973L77.1826 26.6203C76.798 27.19 76.2717 27.5652 75.5145 27.5652C74.7581 27.5652 74.2191 27.2157 73.8727 26.5303L78.4008 24.6397L78.2471 24.2516ZM42.1722 23.126V24.5754H45.6094C45.5067 25.391 45.2376 25.9863 44.8276 26.4001C44.3267 26.9055 43.5441 27.4623 42.1722 27.4623C40.055 27.4623 38.4005 25.7405 38.4005 23.6048C38.4005 21.4684 40.055 19.7473 42.1722 19.7473C43.314 19.7473 44.1476 20.2005 44.7631 20.783L45.7766 19.7602C44.9167 18.9318 43.7758 18.2971 42.1722 18.2971C39.2732 18.2971 36.8359 20.6794 36.8359 23.6048C36.8359 26.5303 39.2732 28.9118 42.1722 28.9118C43.7367 28.9118 44.9167 28.3936 45.8403 27.423C46.7902 26.4652 47.0848 25.1194 47.0848 24.0315C47.0848 23.6948 47.0594 23.3847 47.0076 23.126H42.1722ZM50.9935 27.5652C49.9671 27.5652 49.0817 26.7111 49.0817 25.4946C49.0817 24.2645 49.9671 23.4233 50.9935 23.4233C52.019 23.4233 52.9044 24.2645 52.9044 25.4946C52.9044 26.7111 52.019 27.5652 50.9935 27.5652ZM50.9935 22.0774C49.12 22.0774 47.5936 23.514 47.5936 25.4946C47.5936 27.4623 49.12 28.9118 50.9935 28.9118C52.8662 28.9118 54.3925 27.4623 54.3925 25.4946C54.3925 23.514 52.8662 22.0774 50.9935 22.0774ZM58.4086 27.5652C57.3823 27.5652 56.4969 26.7111 56.4969 25.4946C56.4969 24.2645 57.3823 23.4233 58.4086 23.4233C59.4349 23.4233 60.3195 24.2645 60.3195 25.4946C60.3195 26.7111 59.4349 27.5652 58.4086 27.5652ZM58.4086 22.0774C56.5359 22.0774 55.0096 23.514 55.0096 25.4946C55.0096 27.4623 56.5359 28.9118 58.4086 28.9118C60.2813 28.9118 61.8077 27.4623 61.8077 25.4946C61.8077 23.514 60.2813 22.0774 58.4086 22.0774Z" fill="white"/>
</svg>
