<svg width="24" height="24" viewBox="0 0 24 24" fill="none" xmlns="http://www.w3.org/2000/svg">
<path d="M5.50586 10C7.43886 10 9.00586 8.433 9.00586 6.5C9.00586 4.567 7.43886 3 5.50586 3C3.57286 3 2.00586 4.567 2.00586 6.5C2.00586 8.433 3.57286 10 5.50586 10Z" stroke="#2E2E2E" stroke-width="2" stroke-linecap="round" stroke-linejoin="round"/>
<path d="M5.50586 20.9998C7.43886 20.9998 9.00586 19.4328 9.00586 17.4998C9.00586 15.5668 7.43886 13.9998 5.50586 13.9998C3.57286 13.9998 2.00586 15.5668 2.00586 17.4998C2.00586 19.4328 3.57286 20.9998 5.50586 20.9998Z" stroke="#2E2E2E" stroke-width="2" stroke-linecap="round" stroke-linejoin="round"/>
<path d="M22.0033 6L8.65332 15.98" stroke="#2E2E2E" stroke-width="2" stroke-linecap="round" stroke-linejoin="round"/>
<path d="M22.0033 17.97L8.65332 7.97998" stroke="#2E2E2E" stroke-width="2" stroke-linecap="round" stroke-linejoin="round"/>
</svg>
